G04*
G04 #@! TF.GenerationSoftware,Altium Limited,Altium Designer,23.0.1 (38)*
G04*
G04 Layer_Color=8388736*
%FSLAX44Y44*%
%MOMM*%
G71*
G04*
G04 #@! TF.SameCoordinates,6FF5410F-6566-4CAA-8283-5BB090145FDD*
G04*
G04*
G04 #@! TF.FilePolarity,Negative*
G04*
G01*
G75*
%ADD62R,1.2032X1.2032*%
%ADD63C,1.2032*%
%ADD64R,1.2032X1.6032*%
%ADD65R,1.2032X1.2032*%
%ADD66R,2.2032X1.1032*%
%ADD67R,1.1032X2.2032*%
%ADD68R,1.5332X1.5332*%
G04:AMPARAMS|DCode=69|XSize=1.2032mm|YSize=1.0033mm|CornerRadius=0.2216mm|HoleSize=0mm|Usage=FLASHONLY|Rotation=0.000|XOffset=0mm|YOffset=0mm|HoleType=Round|Shape=RoundedRectangle|*
%AMROUNDEDRECTD69*
21,1,1.2032,0.5601,0,0,0.0*
21,1,0.7600,1.0033,0,0,0.0*
1,1,0.4432,0.3800,-0.2800*
1,1,0.4432,-0.3800,-0.2800*
1,1,0.4432,-0.3800,0.2800*
1,1,0.4432,0.3800,0.2800*
%
%ADD69ROUNDEDRECTD69*%
%ADD70R,1.4032X1.0032*%
%ADD71R,2.0033X1.8032*%
%ADD72R,3.7432X2.8032*%
%ADD73R,3.8632X2.8032*%
%ADD74R,2.1844X0.7366*%
%ADD75R,0.8032X1.7532*%
G04:AMPARAMS|DCode=76|XSize=0.4832mm|YSize=1.7632mm|CornerRadius=0.1716mm|HoleSize=0mm|Usage=FLASHONLY|Rotation=270.000|XOffset=0mm|YOffset=0mm|HoleType=Round|Shape=RoundedRectangle|*
%AMROUNDEDRECTD76*
21,1,0.4832,1.4200,0,0,270.0*
21,1,0.1400,1.7632,0,0,270.0*
1,1,0.3432,-0.7100,-0.0700*
1,1,0.3432,-0.7100,0.0700*
1,1,0.3432,0.7100,0.0700*
1,1,0.3432,0.7100,-0.0700*
%
%ADD76ROUNDEDRECTD76*%
G04:AMPARAMS|DCode=77|XSize=0.4832mm|YSize=1.7632mm|CornerRadius=0.1716mm|HoleSize=0mm|Usage=FLASHONLY|Rotation=180.000|XOffset=0mm|YOffset=0mm|HoleType=Round|Shape=RoundedRectangle|*
%AMROUNDEDRECTD77*
21,1,0.4832,1.4200,0,0,180.0*
21,1,0.1400,1.7632,0,0,180.0*
1,1,0.3432,-0.0700,0.7100*
1,1,0.3432,0.0700,0.7100*
1,1,0.3432,0.0700,-0.7100*
1,1,0.3432,-0.0700,-0.7100*
%
%ADD77ROUNDEDRECTD77*%
%ADD78R,3.5032X1.9032*%
%ADD79R,1.8032X2.0033*%
G04:AMPARAMS|DCode=80|XSize=1.2032mm|YSize=1.0033mm|CornerRadius=0.2216mm|HoleSize=0mm|Usage=FLASHONLY|Rotation=90.000|XOffset=0mm|YOffset=0mm|HoleType=Round|Shape=RoundedRectangle|*
%AMROUNDEDRECTD80*
21,1,1.2032,0.5601,0,0,90.0*
21,1,0.7600,1.0033,0,0,90.0*
1,1,0.4432,0.2800,0.3800*
1,1,0.4432,0.2800,-0.3800*
1,1,0.4432,-0.2800,-0.3800*
1,1,0.4432,-0.2800,0.3800*
%
%ADD80ROUNDEDRECTD80*%
%ADD81R,1.6032X1.7032*%
G04:AMPARAMS|DCode=82|XSize=1.2032mm|YSize=1.6232mm|CornerRadius=0.2266mm|HoleSize=0mm|Usage=FLASHONLY|Rotation=0.000|XOffset=0mm|YOffset=0mm|HoleType=Round|Shape=RoundedRectangle|*
%AMROUNDEDRECTD82*
21,1,1.2032,1.1700,0,0,0.0*
21,1,0.7500,1.6232,0,0,0.0*
1,1,0.4532,0.3750,-0.5850*
1,1,0.4532,-0.3750,-0.5850*
1,1,0.4532,-0.3750,0.5850*
1,1,0.4532,0.3750,0.5850*
%
%ADD82ROUNDEDRECTD82*%
%ADD83R,2.2032X3.2032*%
%ADD84R,1.4032X2.0032*%
%ADD85R,3.7032X2.0032*%
G04:AMPARAMS|DCode=86|XSize=2.1032mm|YSize=0.8032mm|CornerRadius=0.1766mm|HoleSize=0mm|Usage=FLASHONLY|Rotation=0.000|XOffset=0mm|YOffset=0mm|HoleType=Round|Shape=RoundedRectangle|*
%AMROUNDEDRECTD86*
21,1,2.1032,0.4500,0,0,0.0*
21,1,1.7500,0.8032,0,0,0.0*
1,1,0.3532,0.8750,-0.2250*
1,1,0.3532,-0.8750,-0.2250*
1,1,0.3532,-0.8750,0.2250*
1,1,0.3532,0.8750,0.2250*
%
%ADD86ROUNDEDRECTD86*%
G04:AMPARAMS|DCode=87|XSize=1.2032mm|YSize=1.6232mm|CornerRadius=0.2266mm|HoleSize=0mm|Usage=FLASHONLY|Rotation=270.000|XOffset=0mm|YOffset=0mm|HoleType=Round|Shape=RoundedRectangle|*
%AMROUNDEDRECTD87*
21,1,1.2032,1.1700,0,0,270.0*
21,1,0.7500,1.6232,0,0,270.0*
1,1,0.4532,-0.5850,-0.3750*
1,1,0.4532,-0.5850,0.3750*
1,1,0.4532,0.5850,0.3750*
1,1,0.4532,0.5850,-0.3750*
%
%ADD87ROUNDEDRECTD87*%
%ADD88R,2.9032X1.2032*%
%ADD89R,6.6032X6.4032*%
%ADD90R,4.4432X4.0132*%
%ADD91R,1.7032X1.6032*%
%ADD92R,1.6732X1.3432*%
%ADD93C,1.0032*%
%ADD94R,0.9032X1.8032*%
%ADD95R,1.4031X2.4031*%
%ADD96R,1.6033X1.8032*%
%ADD97R,1.4031X1.8032*%
G04:AMPARAMS|DCode=98|XSize=1.1032mm|YSize=3.0032mm|CornerRadius=0.1196mm|HoleSize=0mm|Usage=FLASHONLY|Rotation=0.000|XOffset=0mm|YOffset=0mm|HoleType=Round|Shape=RoundedRectangle|*
%AMROUNDEDRECTD98*
21,1,1.1032,2.7640,0,0,0.0*
21,1,0.8640,3.0032,0,0,0.0*
1,1,0.2392,0.4320,-1.3820*
1,1,0.2392,-0.4320,-1.3820*
1,1,0.2392,-0.4320,1.3820*
1,1,0.2392,0.4320,1.3820*
%
%ADD98ROUNDEDRECTD98*%
%ADD99R,2.7032X5.2032*%
G04:AMPARAMS|DCode=100|XSize=1.8132mm|YSize=0.7832mm|CornerRadius=0.1741mm|HoleSize=0mm|Usage=FLASHONLY|Rotation=270.000|XOffset=0mm|YOffset=0mm|HoleType=Round|Shape=RoundedRectangle|*
%AMROUNDEDRECTD100*
21,1,1.8132,0.4350,0,0,270.0*
21,1,1.4650,0.7832,0,0,270.0*
1,1,0.3482,-0.2175,-0.7325*
1,1,0.3482,-0.2175,0.7325*
1,1,0.3482,0.2175,0.7325*
1,1,0.3482,0.2175,-0.7325*
%
%ADD100ROUNDEDRECTD100*%
%ADD101R,3.2032X2.2032*%
%ADD102C,1.5032*%
%ADD103O,2.7032X3.7032*%
%ADD104O,1.7032X2.7032*%
%ADD105O,2.7032X1.7032*%
%ADD106O,3.2032X2.0032*%
%ADD107C,0.7032*%
%ADD108C,0.6032*%
%ADD109C,0.8032*%
%ADD110C,4.3032*%
G36*
X190756Y426469D02*
X190782Y426467D01*
X190808Y426464D01*
X190834Y426459D01*
X190859Y426453D01*
X190884Y426446D01*
X190909Y426437D01*
X190933Y426427D01*
X190957Y426415D01*
X190980Y426403D01*
X191002Y426389D01*
X191024Y426375D01*
X191045Y426359D01*
X191065Y426342D01*
X191084Y426324D01*
X191102Y426305D01*
X191119Y426285D01*
X191134Y426264D01*
X191149Y426242D01*
X191163Y426220D01*
X191175Y426197D01*
X191187Y426173D01*
X191197Y426149D01*
X191206Y426124D01*
X191213Y426099D01*
X191219Y426074D01*
X191224Y426048D01*
X191227Y426022D01*
X191229Y425996D01*
X191230Y425970D01*
Y419570D01*
X191229Y419544D01*
X191227Y419518D01*
X191224Y419492D01*
X191219Y419466D01*
X191213Y419441D01*
X191206Y419416D01*
X191197Y419391D01*
X191187Y419367D01*
X191175Y419343D01*
X191163Y419320D01*
X191149Y419298D01*
X191134Y419276D01*
X191119Y419255D01*
X191102Y419235D01*
X191084Y419216D01*
X191065Y419198D01*
X191045Y419181D01*
X191024Y419165D01*
X191002Y419151D01*
X190980Y419137D01*
X190957Y419124D01*
X190933Y419113D01*
X190909Y419103D01*
X190884Y419095D01*
X190859Y419087D01*
X190834Y419081D01*
X190808Y419076D01*
X190782Y419073D01*
X190756Y419071D01*
X190730Y419070D01*
X174830D01*
X174804Y419071D01*
X174778Y419073D01*
X174752Y419076D01*
X174726Y419081D01*
X174701Y419087D01*
X174676Y419095D01*
X174651Y419103D01*
X174627Y419113D01*
X174603Y419124D01*
X174580Y419137D01*
X174558Y419151D01*
X174536Y419165D01*
X174515Y419181D01*
X174495Y419198D01*
X174476Y419216D01*
X174458Y419235D01*
X174441Y419255D01*
X174426Y419276D01*
X174411Y419298D01*
X174397Y419320D01*
X174384Y419343D01*
X174373Y419367D01*
X174363Y419391D01*
X174354Y419416D01*
X174347Y419441D01*
X174341Y419466D01*
X174336Y419492D01*
X174333Y419518D01*
X174331Y419544D01*
X174330Y419570D01*
Y425970D01*
X174331Y425996D01*
X174333Y426022D01*
X174336Y426048D01*
X174341Y426074D01*
X174347Y426099D01*
X174354Y426124D01*
X174363Y426149D01*
X174373Y426173D01*
X174384Y426197D01*
X174397Y426220D01*
X174411Y426242D01*
X174426Y426264D01*
X174441Y426285D01*
X174458Y426305D01*
X174476Y426324D01*
X174495Y426342D01*
X174515Y426359D01*
X174536Y426375D01*
X174558Y426389D01*
X174580Y426403D01*
X174603Y426415D01*
X174627Y426427D01*
X174651Y426437D01*
X174676Y426446D01*
X174701Y426453D01*
X174726Y426459D01*
X174752Y426464D01*
X174778Y426467D01*
X174804Y426469D01*
X174830Y426470D01*
X190730D01*
X190756Y426469D01*
D02*
G37*
G36*
Y413769D02*
X190782Y413767D01*
X190808Y413764D01*
X190834Y413759D01*
X190859Y413753D01*
X190884Y413745D01*
X190909Y413737D01*
X190933Y413727D01*
X190957Y413716D01*
X190980Y413703D01*
X191002Y413689D01*
X191024Y413675D01*
X191045Y413659D01*
X191065Y413642D01*
X191084Y413624D01*
X191102Y413605D01*
X191119Y413585D01*
X191134Y413564D01*
X191149Y413542D01*
X191163Y413520D01*
X191175Y413497D01*
X191187Y413473D01*
X191197Y413449D01*
X191206Y413424D01*
X191213Y413399D01*
X191219Y413374D01*
X191224Y413348D01*
X191227Y413322D01*
X191229Y413296D01*
X191230Y413270D01*
Y406870D01*
X191229Y406844D01*
X191227Y406818D01*
X191224Y406792D01*
X191219Y406766D01*
X191213Y406741D01*
X191206Y406716D01*
X191197Y406691D01*
X191187Y406667D01*
X191175Y406643D01*
X191163Y406620D01*
X191149Y406598D01*
X191134Y406576D01*
X191119Y406555D01*
X191102Y406535D01*
X191084Y406516D01*
X191065Y406498D01*
X191045Y406481D01*
X191024Y406465D01*
X191002Y406451D01*
X190980Y406437D01*
X190957Y406424D01*
X190933Y406413D01*
X190909Y406403D01*
X190884Y406395D01*
X190859Y406387D01*
X190834Y406381D01*
X190808Y406376D01*
X190782Y406373D01*
X190756Y406371D01*
X190730Y406370D01*
X174830D01*
X174804Y406371D01*
X174778Y406373D01*
X174752Y406376D01*
X174726Y406381D01*
X174701Y406387D01*
X174676Y406395D01*
X174651Y406403D01*
X174627Y406413D01*
X174603Y406424D01*
X174580Y406437D01*
X174558Y406451D01*
X174536Y406465D01*
X174515Y406481D01*
X174495Y406498D01*
X174476Y406516D01*
X174458Y406535D01*
X174441Y406555D01*
X174426Y406576D01*
X174411Y406598D01*
X174397Y406620D01*
X174384Y406643D01*
X174373Y406667D01*
X174363Y406691D01*
X174354Y406716D01*
X174347Y406741D01*
X174341Y406766D01*
X174336Y406792D01*
X174333Y406818D01*
X174331Y406844D01*
X174330Y406870D01*
Y413270D01*
X174331Y413296D01*
X174333Y413322D01*
X174336Y413348D01*
X174341Y413374D01*
X174347Y413399D01*
X174354Y413424D01*
X174363Y413449D01*
X174373Y413473D01*
X174384Y413497D01*
X174397Y413520D01*
X174411Y413542D01*
X174426Y413564D01*
X174441Y413585D01*
X174458Y413605D01*
X174476Y413624D01*
X174495Y413642D01*
X174515Y413659D01*
X174536Y413675D01*
X174558Y413689D01*
X174580Y413703D01*
X174603Y413716D01*
X174627Y413727D01*
X174651Y413737D01*
X174676Y413745D01*
X174701Y413753D01*
X174726Y413759D01*
X174752Y413764D01*
X174778Y413767D01*
X174804Y413769D01*
X174830Y413770D01*
X190730D01*
X190756Y413769D01*
D02*
G37*
G36*
Y401069D02*
X190782Y401067D01*
X190808Y401064D01*
X190834Y401059D01*
X190859Y401053D01*
X190884Y401045D01*
X190909Y401037D01*
X190933Y401027D01*
X190957Y401016D01*
X190980Y401003D01*
X191002Y400989D01*
X191024Y400975D01*
X191045Y400959D01*
X191065Y400942D01*
X191084Y400924D01*
X191102Y400905D01*
X191119Y400885D01*
X191134Y400864D01*
X191149Y400842D01*
X191163Y400820D01*
X191175Y400797D01*
X191187Y400773D01*
X191197Y400749D01*
X191206Y400724D01*
X191213Y400699D01*
X191219Y400674D01*
X191224Y400648D01*
X191227Y400622D01*
X191229Y400596D01*
X191230Y400570D01*
Y394170D01*
X191229Y394144D01*
X191227Y394118D01*
X191224Y394092D01*
X191219Y394066D01*
X191213Y394041D01*
X191206Y394016D01*
X191197Y393991D01*
X191187Y393967D01*
X191175Y393943D01*
X191163Y393920D01*
X191149Y393898D01*
X191134Y393876D01*
X191119Y393855D01*
X191102Y393835D01*
X191084Y393816D01*
X191065Y393798D01*
X191045Y393781D01*
X191024Y393765D01*
X191002Y393751D01*
X190980Y393737D01*
X190957Y393725D01*
X190933Y393713D01*
X190909Y393703D01*
X190884Y393694D01*
X190859Y393687D01*
X190834Y393681D01*
X190808Y393676D01*
X190782Y393673D01*
X190756Y393671D01*
X190730Y393670D01*
X174830D01*
X174804Y393671D01*
X174778Y393673D01*
X174752Y393676D01*
X174726Y393681D01*
X174701Y393687D01*
X174676Y393694D01*
X174651Y393703D01*
X174627Y393713D01*
X174603Y393725D01*
X174580Y393737D01*
X174558Y393751D01*
X174536Y393765D01*
X174515Y393781D01*
X174495Y393798D01*
X174476Y393816D01*
X174458Y393835D01*
X174441Y393855D01*
X174426Y393876D01*
X174411Y393898D01*
X174397Y393920D01*
X174384Y393943D01*
X174373Y393967D01*
X174363Y393991D01*
X174354Y394016D01*
X174347Y394041D01*
X174341Y394066D01*
X174336Y394092D01*
X174333Y394118D01*
X174331Y394144D01*
X174330Y394170D01*
Y400570D01*
X174331Y400596D01*
X174333Y400622D01*
X174336Y400648D01*
X174341Y400674D01*
X174347Y400699D01*
X174354Y400724D01*
X174363Y400749D01*
X174373Y400773D01*
X174384Y400797D01*
X174397Y400820D01*
X174411Y400842D01*
X174426Y400864D01*
X174441Y400885D01*
X174458Y400905D01*
X174476Y400924D01*
X174495Y400942D01*
X174515Y400959D01*
X174536Y400975D01*
X174558Y400989D01*
X174580Y401003D01*
X174603Y401016D01*
X174627Y401027D01*
X174651Y401037D01*
X174676Y401045D01*
X174701Y401053D01*
X174726Y401059D01*
X174752Y401064D01*
X174778Y401067D01*
X174804Y401069D01*
X174830Y401070D01*
X190730D01*
X190756Y401069D01*
D02*
G37*
G36*
Y388369D02*
X190782Y388367D01*
X190808Y388364D01*
X190834Y388359D01*
X190859Y388353D01*
X190884Y388345D01*
X190909Y388337D01*
X190933Y388327D01*
X190957Y388316D01*
X190980Y388303D01*
X191002Y388289D01*
X191024Y388274D01*
X191045Y388259D01*
X191065Y388242D01*
X191084Y388224D01*
X191102Y388205D01*
X191119Y388185D01*
X191134Y388164D01*
X191149Y388142D01*
X191163Y388120D01*
X191175Y388097D01*
X191187Y388073D01*
X191197Y388049D01*
X191206Y388024D01*
X191213Y387999D01*
X191219Y387974D01*
X191224Y387948D01*
X191227Y387922D01*
X191229Y387896D01*
X191230Y387870D01*
Y381470D01*
X191229Y381444D01*
X191227Y381418D01*
X191224Y381392D01*
X191219Y381366D01*
X191213Y381341D01*
X191206Y381315D01*
X191197Y381291D01*
X191187Y381267D01*
X191175Y381243D01*
X191163Y381220D01*
X191149Y381198D01*
X191134Y381176D01*
X191119Y381155D01*
X191102Y381135D01*
X191084Y381116D01*
X191065Y381098D01*
X191045Y381081D01*
X191024Y381065D01*
X191002Y381051D01*
X190980Y381037D01*
X190957Y381025D01*
X190933Y381013D01*
X190909Y381003D01*
X190884Y380994D01*
X190859Y380987D01*
X190834Y380981D01*
X190808Y380976D01*
X190782Y380973D01*
X190756Y380971D01*
X190730Y380970D01*
X174830D01*
X174804Y380971D01*
X174778Y380973D01*
X174752Y380976D01*
X174726Y380981D01*
X174701Y380987D01*
X174676Y380994D01*
X174651Y381003D01*
X174627Y381013D01*
X174603Y381025D01*
X174580Y381037D01*
X174558Y381051D01*
X174536Y381065D01*
X174515Y381081D01*
X174495Y381098D01*
X174476Y381116D01*
X174458Y381135D01*
X174441Y381155D01*
X174426Y381176D01*
X174411Y381198D01*
X174397Y381220D01*
X174384Y381243D01*
X174373Y381267D01*
X174363Y381291D01*
X174354Y381315D01*
X174347Y381341D01*
X174341Y381366D01*
X174336Y381392D01*
X174333Y381418D01*
X174331Y381444D01*
X174330Y381470D01*
Y387870D01*
X174331Y387896D01*
X174333Y387922D01*
X174336Y387948D01*
X174341Y387974D01*
X174347Y387999D01*
X174354Y388024D01*
X174363Y388049D01*
X174373Y388073D01*
X174384Y388097D01*
X174397Y388120D01*
X174411Y388142D01*
X174426Y388164D01*
X174441Y388185D01*
X174458Y388205D01*
X174476Y388224D01*
X174495Y388242D01*
X174515Y388259D01*
X174536Y388274D01*
X174558Y388289D01*
X174580Y388303D01*
X174603Y388316D01*
X174627Y388327D01*
X174651Y388337D01*
X174676Y388345D01*
X174701Y388353D01*
X174726Y388359D01*
X174752Y388364D01*
X174778Y388367D01*
X174804Y388369D01*
X174830Y388370D01*
X190730D01*
X190756Y388369D01*
D02*
G37*
G36*
X127916Y295659D02*
X127942Y295657D01*
X127968Y295654D01*
X127994Y295649D01*
X128019Y295643D01*
X128045Y295636D01*
X128069Y295627D01*
X128093Y295617D01*
X128117Y295606D01*
X128140Y295593D01*
X128162Y295579D01*
X128184Y295564D01*
X128205Y295549D01*
X128225Y295532D01*
X128244Y295514D01*
X128262Y295495D01*
X128279Y295475D01*
X128294Y295454D01*
X128309Y295432D01*
X128323Y295410D01*
X128336Y295387D01*
X128347Y295363D01*
X128357Y295339D01*
X128365Y295315D01*
X128373Y295289D01*
X128379Y295264D01*
X128384Y295238D01*
X128387Y295212D01*
X128389Y295186D01*
X128390Y295160D01*
Y288760D01*
X128389Y288734D01*
X128387Y288708D01*
X128384Y288682D01*
X128379Y288656D01*
X128373Y288631D01*
X128365Y288605D01*
X128357Y288581D01*
X128347Y288557D01*
X128336Y288533D01*
X128323Y288510D01*
X128309Y288488D01*
X128294Y288466D01*
X128279Y288445D01*
X128262Y288425D01*
X128244Y288406D01*
X128225Y288388D01*
X128205Y288371D01*
X128184Y288356D01*
X128162Y288341D01*
X128140Y288327D01*
X128117Y288314D01*
X128093Y288303D01*
X128069Y288293D01*
X128045Y288284D01*
X128019Y288277D01*
X127994Y288271D01*
X127968Y288266D01*
X127942Y288263D01*
X127916Y288261D01*
X127890Y288260D01*
X111990D01*
X111964Y288261D01*
X111938Y288263D01*
X111912Y288266D01*
X111886Y288271D01*
X111861Y288277D01*
X111835Y288284D01*
X111811Y288293D01*
X111787Y288303D01*
X111763Y288314D01*
X111740Y288327D01*
X111718Y288341D01*
X111696Y288356D01*
X111675Y288371D01*
X111655Y288388D01*
X111636Y288406D01*
X111618Y288425D01*
X111601Y288445D01*
X111586Y288466D01*
X111571Y288488D01*
X111557Y288510D01*
X111545Y288533D01*
X111533Y288557D01*
X111523Y288581D01*
X111515Y288605D01*
X111507Y288631D01*
X111501Y288656D01*
X111496Y288682D01*
X111493Y288708D01*
X111491Y288734D01*
X111490Y288760D01*
Y295160D01*
X111491Y295186D01*
X111493Y295212D01*
X111496Y295238D01*
X111501Y295264D01*
X111507Y295289D01*
X111515Y295315D01*
X111523Y295339D01*
X111533Y295363D01*
X111545Y295387D01*
X111557Y295410D01*
X111571Y295432D01*
X111586Y295454D01*
X111601Y295475D01*
X111618Y295495D01*
X111636Y295514D01*
X111655Y295532D01*
X111675Y295549D01*
X111696Y295564D01*
X111718Y295579D01*
X111740Y295593D01*
X111763Y295606D01*
X111787Y295617D01*
X111811Y295627D01*
X111835Y295636D01*
X111861Y295643D01*
X111886Y295649D01*
X111912Y295654D01*
X111938Y295657D01*
X111964Y295659D01*
X111990Y295660D01*
X127890D01*
X127916Y295659D01*
D02*
G37*
G36*
X73916D02*
X73942Y295657D01*
X73968Y295654D01*
X73994Y295649D01*
X74019Y295643D01*
X74044Y295636D01*
X74069Y295627D01*
X74093Y295617D01*
X74117Y295606D01*
X74140Y295593D01*
X74162Y295579D01*
X74184Y295564D01*
X74205Y295549D01*
X74225Y295532D01*
X74243Y295514D01*
X74262Y295495D01*
X74279Y295475D01*
X74295Y295454D01*
X74309Y295432D01*
X74323Y295410D01*
X74335Y295387D01*
X74347Y295363D01*
X74357Y295339D01*
X74366Y295315D01*
X74373Y295289D01*
X74379Y295264D01*
X74384Y295238D01*
X74387Y295212D01*
X74389Y295186D01*
X74390Y295160D01*
Y288760D01*
X74389Y288734D01*
X74387Y288708D01*
X74384Y288682D01*
X74379Y288656D01*
X74373Y288631D01*
X74366Y288605D01*
X74357Y288581D01*
X74347Y288557D01*
X74335Y288533D01*
X74323Y288510D01*
X74309Y288488D01*
X74295Y288466D01*
X74279Y288445D01*
X74262Y288425D01*
X74243Y288406D01*
X74225Y288388D01*
X74205Y288371D01*
X74184Y288356D01*
X74162Y288341D01*
X74140Y288327D01*
X74117Y288314D01*
X74093Y288303D01*
X74069Y288293D01*
X74044Y288284D01*
X74019Y288277D01*
X73994Y288271D01*
X73968Y288266D01*
X73942Y288263D01*
X73916Y288261D01*
X73890Y288260D01*
X57990D01*
X57964Y288261D01*
X57938Y288263D01*
X57912Y288266D01*
X57886Y288271D01*
X57861Y288277D01*
X57835Y288284D01*
X57811Y288293D01*
X57787Y288303D01*
X57763Y288314D01*
X57740Y288327D01*
X57718Y288341D01*
X57696Y288356D01*
X57675Y288371D01*
X57655Y288388D01*
X57636Y288406D01*
X57618Y288425D01*
X57601Y288445D01*
X57586Y288466D01*
X57571Y288488D01*
X57557Y288510D01*
X57544Y288533D01*
X57533Y288557D01*
X57523Y288581D01*
X57515Y288605D01*
X57507Y288631D01*
X57501Y288656D01*
X57496Y288682D01*
X57493Y288708D01*
X57491Y288734D01*
X57490Y288760D01*
Y295160D01*
X57491Y295186D01*
X57493Y295212D01*
X57496Y295238D01*
X57501Y295264D01*
X57507Y295289D01*
X57515Y295315D01*
X57523Y295339D01*
X57533Y295363D01*
X57544Y295387D01*
X57557Y295410D01*
X57571Y295432D01*
X57586Y295454D01*
X57601Y295475D01*
X57618Y295495D01*
X57636Y295514D01*
X57655Y295532D01*
X57675Y295549D01*
X57696Y295564D01*
X57718Y295579D01*
X57740Y295593D01*
X57763Y295606D01*
X57787Y295617D01*
X57811Y295627D01*
X57835Y295636D01*
X57861Y295643D01*
X57886Y295649D01*
X57912Y295654D01*
X57938Y295657D01*
X57964Y295659D01*
X57990Y295660D01*
X73890D01*
X73916Y295659D01*
D02*
G37*
G36*
X127916Y282959D02*
X127942Y282957D01*
X127968Y282954D01*
X127994Y282949D01*
X128019Y282943D01*
X128045Y282936D01*
X128069Y282927D01*
X128093Y282917D01*
X128117Y282906D01*
X128140Y282893D01*
X128162Y282879D01*
X128184Y282864D01*
X128205Y282849D01*
X128225Y282832D01*
X128244Y282814D01*
X128262Y282795D01*
X128279Y282775D01*
X128294Y282754D01*
X128309Y282732D01*
X128323Y282710D01*
X128336Y282687D01*
X128347Y282663D01*
X128357Y282639D01*
X128365Y282614D01*
X128373Y282589D01*
X128379Y282564D01*
X128384Y282538D01*
X128387Y282512D01*
X128389Y282486D01*
X128390Y282460D01*
Y276060D01*
X128389Y276034D01*
X128387Y276008D01*
X128384Y275982D01*
X128379Y275956D01*
X128373Y275931D01*
X128365Y275905D01*
X128357Y275881D01*
X128347Y275857D01*
X128336Y275833D01*
X128323Y275810D01*
X128309Y275788D01*
X128294Y275766D01*
X128279Y275745D01*
X128262Y275725D01*
X128244Y275706D01*
X128225Y275688D01*
X128205Y275671D01*
X128184Y275655D01*
X128162Y275641D01*
X128140Y275627D01*
X128117Y275614D01*
X128093Y275603D01*
X128069Y275593D01*
X128045Y275585D01*
X128019Y275577D01*
X127994Y275571D01*
X127968Y275566D01*
X127942Y275563D01*
X127916Y275561D01*
X127890Y275560D01*
X111990D01*
X111964Y275561D01*
X111938Y275563D01*
X111912Y275566D01*
X111886Y275571D01*
X111861Y275577D01*
X111835Y275585D01*
X111811Y275593D01*
X111787Y275603D01*
X111763Y275614D01*
X111740Y275627D01*
X111718Y275641D01*
X111696Y275655D01*
X111675Y275671D01*
X111655Y275688D01*
X111636Y275706D01*
X111618Y275725D01*
X111601Y275745D01*
X111586Y275766D01*
X111571Y275788D01*
X111557Y275810D01*
X111545Y275833D01*
X111533Y275857D01*
X111523Y275881D01*
X111515Y275905D01*
X111507Y275931D01*
X111501Y275956D01*
X111496Y275982D01*
X111493Y276008D01*
X111491Y276034D01*
X111490Y276060D01*
Y282460D01*
X111491Y282486D01*
X111493Y282512D01*
X111496Y282538D01*
X111501Y282564D01*
X111507Y282589D01*
X111515Y282614D01*
X111523Y282639D01*
X111533Y282663D01*
X111545Y282687D01*
X111557Y282710D01*
X111571Y282732D01*
X111586Y282754D01*
X111601Y282775D01*
X111618Y282795D01*
X111636Y282814D01*
X111655Y282832D01*
X111675Y282849D01*
X111696Y282864D01*
X111718Y282879D01*
X111740Y282893D01*
X111763Y282906D01*
X111787Y282917D01*
X111811Y282927D01*
X111835Y282936D01*
X111861Y282943D01*
X111886Y282949D01*
X111912Y282954D01*
X111938Y282957D01*
X111964Y282959D01*
X111990Y282960D01*
X127890D01*
X127916Y282959D01*
D02*
G37*
G36*
X73916D02*
X73942Y282957D01*
X73968Y282954D01*
X73994Y282949D01*
X74019Y282943D01*
X74044Y282936D01*
X74069Y282927D01*
X74093Y282917D01*
X74117Y282906D01*
X74140Y282893D01*
X74162Y282879D01*
X74184Y282864D01*
X74205Y282849D01*
X74225Y282832D01*
X74243Y282814D01*
X74262Y282795D01*
X74279Y282775D01*
X74295Y282754D01*
X74309Y282732D01*
X74323Y282710D01*
X74335Y282687D01*
X74347Y282663D01*
X74357Y282639D01*
X74366Y282614D01*
X74373Y282589D01*
X74379Y282564D01*
X74384Y282538D01*
X74387Y282512D01*
X74389Y282486D01*
X74390Y282460D01*
Y276060D01*
X74389Y276034D01*
X74387Y276008D01*
X74384Y275982D01*
X74379Y275956D01*
X74373Y275931D01*
X74366Y275905D01*
X74357Y275881D01*
X74347Y275857D01*
X74335Y275833D01*
X74323Y275810D01*
X74309Y275788D01*
X74295Y275766D01*
X74279Y275745D01*
X74262Y275725D01*
X74243Y275706D01*
X74225Y275688D01*
X74205Y275671D01*
X74184Y275655D01*
X74162Y275641D01*
X74140Y275627D01*
X74117Y275614D01*
X74093Y275603D01*
X74069Y275593D01*
X74044Y275585D01*
X74019Y275577D01*
X73994Y275571D01*
X73968Y275566D01*
X73942Y275563D01*
X73916Y275561D01*
X73890Y275560D01*
X57990D01*
X57964Y275561D01*
X57938Y275563D01*
X57912Y275566D01*
X57886Y275571D01*
X57861Y275577D01*
X57835Y275585D01*
X57811Y275593D01*
X57787Y275603D01*
X57763Y275614D01*
X57740Y275627D01*
X57718Y275641D01*
X57696Y275655D01*
X57675Y275671D01*
X57655Y275688D01*
X57636Y275706D01*
X57618Y275725D01*
X57601Y275745D01*
X57586Y275766D01*
X57571Y275788D01*
X57557Y275810D01*
X57544Y275833D01*
X57533Y275857D01*
X57523Y275881D01*
X57515Y275905D01*
X57507Y275931D01*
X57501Y275956D01*
X57496Y275982D01*
X57493Y276008D01*
X57491Y276034D01*
X57490Y276060D01*
Y282460D01*
X57491Y282486D01*
X57493Y282512D01*
X57496Y282538D01*
X57501Y282564D01*
X57507Y282589D01*
X57515Y282614D01*
X57523Y282639D01*
X57533Y282663D01*
X57544Y282687D01*
X57557Y282710D01*
X57571Y282732D01*
X57586Y282754D01*
X57601Y282775D01*
X57618Y282795D01*
X57636Y282814D01*
X57655Y282832D01*
X57675Y282849D01*
X57696Y282864D01*
X57718Y282879D01*
X57740Y282893D01*
X57763Y282906D01*
X57787Y282917D01*
X57811Y282927D01*
X57835Y282936D01*
X57861Y282943D01*
X57886Y282949D01*
X57912Y282954D01*
X57938Y282957D01*
X57964Y282959D01*
X57990Y282960D01*
X73890D01*
X73916Y282959D01*
D02*
G37*
G36*
X127916Y270259D02*
X127942Y270257D01*
X127968Y270254D01*
X127994Y270249D01*
X128019Y270243D01*
X128045Y270236D01*
X128069Y270227D01*
X128093Y270217D01*
X128117Y270205D01*
X128140Y270193D01*
X128162Y270179D01*
X128184Y270165D01*
X128205Y270149D01*
X128225Y270132D01*
X128244Y270114D01*
X128262Y270095D01*
X128279Y270075D01*
X128294Y270054D01*
X128309Y270032D01*
X128323Y270010D01*
X128336Y269987D01*
X128347Y269963D01*
X128357Y269939D01*
X128365Y269914D01*
X128373Y269889D01*
X128379Y269864D01*
X128384Y269838D01*
X128387Y269812D01*
X128389Y269786D01*
X128390Y269760D01*
Y263360D01*
X128389Y263334D01*
X128387Y263308D01*
X128384Y263282D01*
X128379Y263256D01*
X128373Y263231D01*
X128365Y263206D01*
X128357Y263181D01*
X128347Y263157D01*
X128336Y263133D01*
X128323Y263110D01*
X128309Y263088D01*
X128294Y263066D01*
X128279Y263045D01*
X128262Y263025D01*
X128244Y263006D01*
X128225Y262988D01*
X128205Y262971D01*
X128184Y262955D01*
X128162Y262941D01*
X128140Y262927D01*
X128117Y262915D01*
X128093Y262903D01*
X128069Y262893D01*
X128045Y262885D01*
X128019Y262877D01*
X127994Y262871D01*
X127968Y262866D01*
X127942Y262863D01*
X127916Y262861D01*
X127890Y262860D01*
X111990D01*
X111964Y262861D01*
X111938Y262863D01*
X111912Y262866D01*
X111886Y262871D01*
X111861Y262877D01*
X111835Y262885D01*
X111811Y262893D01*
X111787Y262903D01*
X111763Y262915D01*
X111740Y262927D01*
X111718Y262941D01*
X111696Y262955D01*
X111675Y262971D01*
X111655Y262988D01*
X111636Y263006D01*
X111618Y263025D01*
X111601Y263045D01*
X111586Y263066D01*
X111571Y263088D01*
X111557Y263110D01*
X111545Y263133D01*
X111533Y263157D01*
X111523Y263181D01*
X111515Y263206D01*
X111507Y263231D01*
X111501Y263256D01*
X111496Y263282D01*
X111493Y263308D01*
X111491Y263334D01*
X111490Y263360D01*
Y269760D01*
X111491Y269786D01*
X111493Y269812D01*
X111496Y269838D01*
X111501Y269864D01*
X111507Y269889D01*
X111515Y269914D01*
X111523Y269939D01*
X111533Y269963D01*
X111545Y269987D01*
X111557Y270010D01*
X111571Y270032D01*
X111586Y270054D01*
X111601Y270075D01*
X111618Y270095D01*
X111636Y270114D01*
X111655Y270132D01*
X111675Y270149D01*
X111696Y270165D01*
X111718Y270179D01*
X111740Y270193D01*
X111763Y270205D01*
X111787Y270217D01*
X111811Y270227D01*
X111835Y270236D01*
X111861Y270243D01*
X111886Y270249D01*
X111912Y270254D01*
X111938Y270257D01*
X111964Y270259D01*
X111990Y270260D01*
X127890D01*
X127916Y270259D01*
D02*
G37*
G36*
X73916D02*
X73942Y270257D01*
X73968Y270254D01*
X73994Y270249D01*
X74019Y270243D01*
X74044Y270236D01*
X74069Y270227D01*
X74093Y270217D01*
X74117Y270205D01*
X74140Y270193D01*
X74162Y270179D01*
X74184Y270165D01*
X74205Y270149D01*
X74225Y270132D01*
X74243Y270114D01*
X74262Y270095D01*
X74279Y270075D01*
X74295Y270054D01*
X74309Y270032D01*
X74323Y270010D01*
X74335Y269987D01*
X74347Y269963D01*
X74357Y269939D01*
X74366Y269914D01*
X74373Y269889D01*
X74379Y269864D01*
X74384Y269838D01*
X74387Y269812D01*
X74389Y269786D01*
X74390Y269760D01*
Y263360D01*
X74389Y263334D01*
X74387Y263308D01*
X74384Y263282D01*
X74379Y263256D01*
X74373Y263231D01*
X74366Y263206D01*
X74357Y263181D01*
X74347Y263157D01*
X74335Y263133D01*
X74323Y263110D01*
X74309Y263088D01*
X74295Y263066D01*
X74279Y263045D01*
X74262Y263025D01*
X74243Y263006D01*
X74225Y262988D01*
X74205Y262971D01*
X74184Y262955D01*
X74162Y262941D01*
X74140Y262927D01*
X74117Y262915D01*
X74093Y262903D01*
X74069Y262893D01*
X74044Y262885D01*
X74019Y262877D01*
X73994Y262871D01*
X73968Y262866D01*
X73942Y262863D01*
X73916Y262861D01*
X73890Y262860D01*
X57990D01*
X57964Y262861D01*
X57938Y262863D01*
X57912Y262866D01*
X57886Y262871D01*
X57861Y262877D01*
X57835Y262885D01*
X57811Y262893D01*
X57787Y262903D01*
X57763Y262915D01*
X57740Y262927D01*
X57718Y262941D01*
X57696Y262955D01*
X57675Y262971D01*
X57655Y262988D01*
X57636Y263006D01*
X57618Y263025D01*
X57601Y263045D01*
X57586Y263066D01*
X57571Y263088D01*
X57557Y263110D01*
X57544Y263133D01*
X57533Y263157D01*
X57523Y263181D01*
X57515Y263206D01*
X57507Y263231D01*
X57501Y263256D01*
X57496Y263282D01*
X57493Y263308D01*
X57491Y263334D01*
X57490Y263360D01*
Y269760D01*
X57491Y269786D01*
X57493Y269812D01*
X57496Y269838D01*
X57501Y269864D01*
X57507Y269889D01*
X57515Y269914D01*
X57523Y269939D01*
X57533Y269963D01*
X57544Y269987D01*
X57557Y270010D01*
X57571Y270032D01*
X57586Y270054D01*
X57601Y270075D01*
X57618Y270095D01*
X57636Y270114D01*
X57655Y270132D01*
X57675Y270149D01*
X57696Y270165D01*
X57718Y270179D01*
X57740Y270193D01*
X57763Y270205D01*
X57787Y270217D01*
X57811Y270227D01*
X57835Y270236D01*
X57861Y270243D01*
X57886Y270249D01*
X57912Y270254D01*
X57938Y270257D01*
X57964Y270259D01*
X57990Y270260D01*
X73890D01*
X73916Y270259D01*
D02*
G37*
G36*
X106490Y255910D02*
X79390D01*
Y289910D01*
X106490D01*
Y255910D01*
D02*
G37*
G36*
X127916Y257559D02*
X127942Y257557D01*
X127968Y257554D01*
X127994Y257549D01*
X128019Y257543D01*
X128045Y257535D01*
X128069Y257527D01*
X128093Y257517D01*
X128117Y257505D01*
X128140Y257493D01*
X128162Y257479D01*
X128184Y257465D01*
X128205Y257449D01*
X128225Y257432D01*
X128244Y257414D01*
X128262Y257395D01*
X128279Y257375D01*
X128294Y257354D01*
X128309Y257332D01*
X128323Y257310D01*
X128336Y257287D01*
X128347Y257263D01*
X128357Y257239D01*
X128365Y257215D01*
X128373Y257189D01*
X128379Y257164D01*
X128384Y257138D01*
X128387Y257112D01*
X128389Y257086D01*
X128390Y257060D01*
Y250660D01*
X128389Y250634D01*
X128387Y250608D01*
X128384Y250582D01*
X128379Y250556D01*
X128373Y250531D01*
X128365Y250506D01*
X128357Y250481D01*
X128347Y250457D01*
X128336Y250433D01*
X128323Y250410D01*
X128309Y250388D01*
X128294Y250366D01*
X128279Y250345D01*
X128262Y250325D01*
X128244Y250306D01*
X128225Y250288D01*
X128205Y250271D01*
X128184Y250256D01*
X128162Y250241D01*
X128140Y250227D01*
X128117Y250215D01*
X128093Y250203D01*
X128069Y250193D01*
X128045Y250184D01*
X128019Y250177D01*
X127994Y250171D01*
X127968Y250166D01*
X127942Y250163D01*
X127916Y250161D01*
X127890Y250160D01*
X111990D01*
X111964Y250161D01*
X111938Y250163D01*
X111912Y250166D01*
X111886Y250171D01*
X111861Y250177D01*
X111835Y250184D01*
X111811Y250193D01*
X111787Y250203D01*
X111763Y250215D01*
X111740Y250227D01*
X111718Y250241D01*
X111696Y250256D01*
X111675Y250271D01*
X111655Y250288D01*
X111636Y250306D01*
X111618Y250325D01*
X111601Y250345D01*
X111586Y250366D01*
X111571Y250388D01*
X111557Y250410D01*
X111545Y250433D01*
X111533Y250457D01*
X111523Y250481D01*
X111515Y250506D01*
X111507Y250531D01*
X111501Y250556D01*
X111496Y250582D01*
X111493Y250608D01*
X111491Y250634D01*
X111490Y250660D01*
Y257060D01*
X111491Y257086D01*
X111493Y257112D01*
X111496Y257138D01*
X111501Y257164D01*
X111507Y257189D01*
X111515Y257215D01*
X111523Y257239D01*
X111533Y257263D01*
X111545Y257287D01*
X111557Y257310D01*
X111571Y257332D01*
X111586Y257354D01*
X111601Y257375D01*
X111618Y257395D01*
X111636Y257414D01*
X111655Y257432D01*
X111675Y257449D01*
X111696Y257465D01*
X111718Y257479D01*
X111740Y257493D01*
X111763Y257505D01*
X111787Y257517D01*
X111811Y257527D01*
X111835Y257535D01*
X111861Y257543D01*
X111886Y257549D01*
X111912Y257554D01*
X111938Y257557D01*
X111964Y257559D01*
X111990Y257560D01*
X127890D01*
X127916Y257559D01*
D02*
G37*
G36*
X73916D02*
X73942Y257557D01*
X73968Y257554D01*
X73994Y257549D01*
X74019Y257543D01*
X74044Y257535D01*
X74069Y257527D01*
X74093Y257517D01*
X74117Y257505D01*
X74140Y257493D01*
X74162Y257479D01*
X74184Y257465D01*
X74205Y257449D01*
X74225Y257432D01*
X74243Y257414D01*
X74262Y257395D01*
X74279Y257375D01*
X74295Y257354D01*
X74309Y257332D01*
X74323Y257310D01*
X74335Y257287D01*
X74347Y257263D01*
X74357Y257239D01*
X74366Y257215D01*
X74373Y257189D01*
X74379Y257164D01*
X74384Y257138D01*
X74387Y257112D01*
X74389Y257086D01*
X74390Y257060D01*
Y250660D01*
X74389Y250634D01*
X74387Y250608D01*
X74384Y250582D01*
X74379Y250556D01*
X74373Y250531D01*
X74366Y250506D01*
X74357Y250481D01*
X74347Y250457D01*
X74335Y250433D01*
X74323Y250410D01*
X74309Y250388D01*
X74295Y250366D01*
X74279Y250345D01*
X74262Y250325D01*
X74243Y250306D01*
X74225Y250288D01*
X74205Y250271D01*
X74184Y250256D01*
X74162Y250241D01*
X74140Y250227D01*
X74117Y250215D01*
X74093Y250203D01*
X74069Y250193D01*
X74044Y250184D01*
X74019Y250177D01*
X73994Y250171D01*
X73968Y250166D01*
X73942Y250163D01*
X73916Y250161D01*
X73890Y250160D01*
X57990D01*
X57964Y250161D01*
X57938Y250163D01*
X57912Y250166D01*
X57886Y250171D01*
X57861Y250177D01*
X57835Y250184D01*
X57811Y250193D01*
X57787Y250203D01*
X57763Y250215D01*
X57740Y250227D01*
X57718Y250241D01*
X57696Y250256D01*
X57675Y250271D01*
X57655Y250288D01*
X57636Y250306D01*
X57618Y250325D01*
X57601Y250345D01*
X57586Y250366D01*
X57571Y250388D01*
X57557Y250410D01*
X57544Y250433D01*
X57533Y250457D01*
X57523Y250481D01*
X57515Y250506D01*
X57507Y250531D01*
X57501Y250556D01*
X57496Y250582D01*
X57493Y250608D01*
X57491Y250634D01*
X57490Y250660D01*
Y257060D01*
X57491Y257086D01*
X57493Y257112D01*
X57496Y257138D01*
X57501Y257164D01*
X57507Y257189D01*
X57515Y257215D01*
X57523Y257239D01*
X57533Y257263D01*
X57544Y257287D01*
X57557Y257310D01*
X57571Y257332D01*
X57586Y257354D01*
X57601Y257375D01*
X57618Y257395D01*
X57636Y257414D01*
X57655Y257432D01*
X57675Y257449D01*
X57696Y257465D01*
X57718Y257479D01*
X57740Y257493D01*
X57763Y257505D01*
X57787Y257517D01*
X57811Y257527D01*
X57835Y257535D01*
X57861Y257543D01*
X57886Y257549D01*
X57912Y257554D01*
X57938Y257557D01*
X57964Y257559D01*
X57990Y257560D01*
X73890D01*
X73916Y257559D01*
D02*
G37*
G36*
X244756Y426469D02*
X244782Y426467D01*
X244808Y426464D01*
X244834Y426459D01*
X244859Y426453D01*
X244884Y426446D01*
X244909Y426437D01*
X244933Y426427D01*
X244957Y426415D01*
X244980Y426403D01*
X245002Y426389D01*
X245024Y426375D01*
X245045Y426359D01*
X245065Y426342D01*
X245084Y426324D01*
X245102Y426305D01*
X245119Y426285D01*
X245135Y426264D01*
X245149Y426242D01*
X245163Y426220D01*
X245175Y426197D01*
X245187Y426173D01*
X245197Y426149D01*
X245205Y426124D01*
X245213Y426099D01*
X245219Y426074D01*
X245224Y426048D01*
X245227Y426022D01*
X245229Y425996D01*
X245230Y425970D01*
Y419570D01*
X245229Y419544D01*
X245227Y419518D01*
X245224Y419492D01*
X245219Y419466D01*
X245213Y419441D01*
X245205Y419416D01*
X245197Y419391D01*
X245187Y419367D01*
X245175Y419343D01*
X245163Y419320D01*
X245149Y419298D01*
X245135Y419276D01*
X245119Y419255D01*
X245102Y419235D01*
X245084Y419216D01*
X245065Y419198D01*
X245045Y419181D01*
X245024Y419165D01*
X245002Y419151D01*
X244980Y419137D01*
X244957Y419124D01*
X244933Y419113D01*
X244909Y419103D01*
X244884Y419095D01*
X244859Y419087D01*
X244834Y419081D01*
X244808Y419076D01*
X244782Y419073D01*
X244756Y419071D01*
X244730Y419070D01*
X228830D01*
X228804Y419071D01*
X228778Y419073D01*
X228752Y419076D01*
X228726Y419081D01*
X228701Y419087D01*
X228675Y419095D01*
X228651Y419103D01*
X228627Y419113D01*
X228603Y419124D01*
X228580Y419137D01*
X228558Y419151D01*
X228536Y419165D01*
X228515Y419181D01*
X228495Y419198D01*
X228477Y419216D01*
X228458Y419235D01*
X228441Y419255D01*
X228426Y419276D01*
X228411Y419298D01*
X228397Y419320D01*
X228384Y419343D01*
X228373Y419367D01*
X228363Y419391D01*
X228354Y419416D01*
X228347Y419441D01*
X228341Y419466D01*
X228336Y419492D01*
X228333Y419518D01*
X228331Y419544D01*
X228330Y419570D01*
Y425970D01*
X228331Y425996D01*
X228333Y426022D01*
X228336Y426048D01*
X228341Y426074D01*
X228347Y426099D01*
X228354Y426124D01*
X228363Y426149D01*
X228373Y426173D01*
X228384Y426197D01*
X228397Y426220D01*
X228411Y426242D01*
X228426Y426264D01*
X228441Y426285D01*
X228458Y426305D01*
X228477Y426324D01*
X228495Y426342D01*
X228515Y426359D01*
X228536Y426375D01*
X228558Y426389D01*
X228580Y426403D01*
X228603Y426415D01*
X228627Y426427D01*
X228651Y426437D01*
X228675Y426446D01*
X228701Y426453D01*
X228726Y426459D01*
X228752Y426464D01*
X228778Y426467D01*
X228804Y426469D01*
X228830Y426470D01*
X244730D01*
X244756Y426469D01*
D02*
G37*
G36*
X790754Y422041D02*
X790780Y422039D01*
X790806Y422036D01*
X790832Y422031D01*
X790857Y422025D01*
X790882Y422018D01*
X790907Y422009D01*
X790931Y421999D01*
X790955Y421987D01*
X790978Y421975D01*
X791000Y421961D01*
X791022Y421946D01*
X791043Y421931D01*
X791063Y421914D01*
X791082Y421895D01*
X791100Y421877D01*
X791117Y421857D01*
X791133Y421836D01*
X791147Y421814D01*
X791161Y421792D01*
X791173Y421769D01*
X791185Y421745D01*
X791195Y421721D01*
X791204Y421697D01*
X791211Y421671D01*
X791217Y421646D01*
X791222Y421620D01*
X791225Y421594D01*
X791227Y421568D01*
X791228Y421542D01*
Y415142D01*
X791227Y415116D01*
X791225Y415090D01*
X791222Y415064D01*
X791217Y415038D01*
X791211Y415013D01*
X791204Y414987D01*
X791195Y414963D01*
X791185Y414939D01*
X791173Y414915D01*
X791161Y414892D01*
X791147Y414870D01*
X791133Y414848D01*
X791117Y414827D01*
X791100Y414807D01*
X791082Y414788D01*
X791063Y414770D01*
X791043Y414753D01*
X791022Y414738D01*
X791000Y414723D01*
X790978Y414709D01*
X790955Y414697D01*
X790931Y414685D01*
X790907Y414675D01*
X790882Y414666D01*
X790857Y414659D01*
X790832Y414653D01*
X790806Y414648D01*
X790780Y414645D01*
X790754Y414643D01*
X790728Y414642D01*
X774828D01*
X774802Y414643D01*
X774776Y414645D01*
X774750Y414648D01*
X774724Y414653D01*
X774699Y414659D01*
X774673Y414666D01*
X774649Y414675D01*
X774625Y414685D01*
X774601Y414697D01*
X774578Y414709D01*
X774556Y414723D01*
X774534Y414738D01*
X774513Y414753D01*
X774493Y414770D01*
X774474Y414788D01*
X774456Y414807D01*
X774439Y414827D01*
X774424Y414848D01*
X774409Y414870D01*
X774395Y414892D01*
X774382Y414915D01*
X774371Y414939D01*
X774361Y414963D01*
X774352Y414987D01*
X774345Y415013D01*
X774339Y415038D01*
X774334Y415064D01*
X774331Y415090D01*
X774329Y415116D01*
X774328Y415142D01*
Y421542D01*
X774329Y421568D01*
X774331Y421594D01*
X774334Y421620D01*
X774339Y421646D01*
X774345Y421671D01*
X774352Y421697D01*
X774361Y421721D01*
X774371Y421745D01*
X774382Y421769D01*
X774395Y421792D01*
X774409Y421814D01*
X774424Y421836D01*
X774439Y421857D01*
X774456Y421877D01*
X774474Y421895D01*
X774493Y421914D01*
X774513Y421931D01*
X774534Y421946D01*
X774556Y421961D01*
X774578Y421975D01*
X774601Y421987D01*
X774625Y421999D01*
X774649Y422009D01*
X774673Y422018D01*
X774699Y422025D01*
X774724Y422031D01*
X774750Y422036D01*
X774776Y422039D01*
X774802Y422041D01*
X774828Y422042D01*
X790728D01*
X790754Y422041D01*
D02*
G37*
G36*
X736754D02*
X736780Y422039D01*
X736806Y422036D01*
X736832Y422031D01*
X736857Y422025D01*
X736882Y422018D01*
X736907Y422009D01*
X736931Y421999D01*
X736955Y421987D01*
X736978Y421975D01*
X737000Y421961D01*
X737022Y421946D01*
X737043Y421931D01*
X737063Y421914D01*
X737082Y421895D01*
X737100Y421877D01*
X737117Y421857D01*
X737132Y421836D01*
X737147Y421814D01*
X737161Y421792D01*
X737173Y421769D01*
X737185Y421745D01*
X737195Y421721D01*
X737204Y421697D01*
X737211Y421671D01*
X737217Y421646D01*
X737222Y421620D01*
X737225Y421594D01*
X737227Y421568D01*
X737228Y421542D01*
Y415142D01*
X737227Y415116D01*
X737225Y415090D01*
X737222Y415064D01*
X737217Y415038D01*
X737211Y415013D01*
X737204Y414987D01*
X737195Y414963D01*
X737185Y414939D01*
X737173Y414915D01*
X737161Y414892D01*
X737147Y414870D01*
X737132Y414848D01*
X737117Y414827D01*
X737100Y414807D01*
X737082Y414788D01*
X737063Y414770D01*
X737043Y414753D01*
X737022Y414738D01*
X737000Y414723D01*
X736978Y414709D01*
X736955Y414697D01*
X736931Y414685D01*
X736907Y414675D01*
X736882Y414666D01*
X736857Y414659D01*
X736832Y414653D01*
X736806Y414648D01*
X736780Y414645D01*
X736754Y414643D01*
X736728Y414642D01*
X720828D01*
X720802Y414643D01*
X720776Y414645D01*
X720750Y414648D01*
X720724Y414653D01*
X720699Y414659D01*
X720674Y414666D01*
X720649Y414675D01*
X720625Y414685D01*
X720601Y414697D01*
X720578Y414709D01*
X720556Y414723D01*
X720534Y414738D01*
X720513Y414753D01*
X720493Y414770D01*
X720474Y414788D01*
X720456Y414807D01*
X720440Y414827D01*
X720424Y414848D01*
X720409Y414870D01*
X720395Y414892D01*
X720383Y414915D01*
X720371Y414939D01*
X720361Y414963D01*
X720352Y414987D01*
X720345Y415013D01*
X720339Y415038D01*
X720334Y415064D01*
X720331Y415090D01*
X720329Y415116D01*
X720328Y415142D01*
Y421542D01*
X720329Y421568D01*
X720331Y421594D01*
X720334Y421620D01*
X720339Y421646D01*
X720345Y421671D01*
X720352Y421697D01*
X720361Y421721D01*
X720371Y421745D01*
X720383Y421769D01*
X720395Y421792D01*
X720409Y421814D01*
X720424Y421836D01*
X720440Y421857D01*
X720456Y421877D01*
X720474Y421895D01*
X720493Y421914D01*
X720513Y421931D01*
X720534Y421946D01*
X720556Y421961D01*
X720578Y421975D01*
X720601Y421987D01*
X720625Y421999D01*
X720649Y422009D01*
X720674Y422018D01*
X720699Y422025D01*
X720724Y422031D01*
X720750Y422036D01*
X720776Y422039D01*
X720802Y422041D01*
X720828Y422042D01*
X736728D01*
X736754Y422041D01*
D02*
G37*
G36*
X244756Y413769D02*
X244782Y413767D01*
X244808Y413764D01*
X244834Y413759D01*
X244859Y413753D01*
X244884Y413745D01*
X244909Y413737D01*
X244933Y413727D01*
X244957Y413716D01*
X244980Y413703D01*
X245002Y413689D01*
X245024Y413675D01*
X245045Y413659D01*
X245065Y413642D01*
X245084Y413624D01*
X245102Y413605D01*
X245119Y413585D01*
X245135Y413564D01*
X245149Y413542D01*
X245163Y413520D01*
X245175Y413497D01*
X245187Y413473D01*
X245197Y413449D01*
X245205Y413424D01*
X245213Y413399D01*
X245219Y413374D01*
X245224Y413348D01*
X245227Y413322D01*
X245229Y413296D01*
X245230Y413270D01*
Y406870D01*
X245229Y406844D01*
X245227Y406818D01*
X245224Y406792D01*
X245219Y406766D01*
X245213Y406741D01*
X245205Y406716D01*
X245197Y406691D01*
X245187Y406667D01*
X245175Y406643D01*
X245163Y406620D01*
X245149Y406598D01*
X245135Y406576D01*
X245119Y406555D01*
X245102Y406535D01*
X245084Y406516D01*
X245065Y406498D01*
X245045Y406481D01*
X245024Y406465D01*
X245002Y406451D01*
X244980Y406437D01*
X244957Y406424D01*
X244933Y406413D01*
X244909Y406403D01*
X244884Y406395D01*
X244859Y406387D01*
X244834Y406381D01*
X244808Y406376D01*
X244782Y406373D01*
X244756Y406371D01*
X244730Y406370D01*
X228830D01*
X228804Y406371D01*
X228778Y406373D01*
X228752Y406376D01*
X228726Y406381D01*
X228701Y406387D01*
X228675Y406395D01*
X228651Y406403D01*
X228627Y406413D01*
X228603Y406424D01*
X228580Y406437D01*
X228558Y406451D01*
X228536Y406465D01*
X228515Y406481D01*
X228495Y406498D01*
X228477Y406516D01*
X228458Y406535D01*
X228441Y406555D01*
X228426Y406576D01*
X228411Y406598D01*
X228397Y406620D01*
X228384Y406643D01*
X228373Y406667D01*
X228363Y406691D01*
X228354Y406716D01*
X228347Y406741D01*
X228341Y406766D01*
X228336Y406792D01*
X228333Y406818D01*
X228331Y406844D01*
X228330Y406870D01*
Y413270D01*
X228331Y413296D01*
X228333Y413322D01*
X228336Y413348D01*
X228341Y413374D01*
X228347Y413399D01*
X228354Y413424D01*
X228363Y413449D01*
X228373Y413473D01*
X228384Y413497D01*
X228397Y413520D01*
X228411Y413542D01*
X228426Y413564D01*
X228441Y413585D01*
X228458Y413605D01*
X228477Y413624D01*
X228495Y413642D01*
X228515Y413659D01*
X228536Y413675D01*
X228558Y413689D01*
X228580Y413703D01*
X228603Y413716D01*
X228627Y413727D01*
X228651Y413737D01*
X228675Y413745D01*
X228701Y413753D01*
X228726Y413759D01*
X228752Y413764D01*
X228778Y413767D01*
X228804Y413769D01*
X228830Y413770D01*
X244730D01*
X244756Y413769D01*
D02*
G37*
G36*
X790754Y409341D02*
X790780Y409339D01*
X790806Y409336D01*
X790832Y409331D01*
X790857Y409325D01*
X790882Y409318D01*
X790907Y409309D01*
X790931Y409299D01*
X790955Y409287D01*
X790978Y409275D01*
X791000Y409261D01*
X791022Y409246D01*
X791043Y409231D01*
X791063Y409214D01*
X791082Y409196D01*
X791100Y409177D01*
X791117Y409157D01*
X791133Y409136D01*
X791147Y409114D01*
X791161Y409092D01*
X791173Y409069D01*
X791185Y409045D01*
X791195Y409021D01*
X791204Y408997D01*
X791211Y408971D01*
X791217Y408946D01*
X791222Y408920D01*
X791225Y408894D01*
X791227Y408868D01*
X791228Y408842D01*
Y402442D01*
X791227Y402416D01*
X791225Y402390D01*
X791222Y402364D01*
X791217Y402338D01*
X791211Y402313D01*
X791204Y402287D01*
X791195Y402263D01*
X791185Y402239D01*
X791173Y402215D01*
X791161Y402192D01*
X791147Y402170D01*
X791133Y402148D01*
X791117Y402127D01*
X791100Y402107D01*
X791082Y402088D01*
X791063Y402070D01*
X791043Y402053D01*
X791022Y402038D01*
X791000Y402023D01*
X790978Y402009D01*
X790955Y401996D01*
X790931Y401985D01*
X790907Y401975D01*
X790882Y401967D01*
X790857Y401959D01*
X790832Y401953D01*
X790806Y401948D01*
X790780Y401945D01*
X790754Y401943D01*
X790728Y401942D01*
X774828D01*
X774802Y401943D01*
X774776Y401945D01*
X774750Y401948D01*
X774724Y401953D01*
X774699Y401959D01*
X774673Y401967D01*
X774649Y401975D01*
X774625Y401985D01*
X774601Y401996D01*
X774578Y402009D01*
X774556Y402023D01*
X774534Y402038D01*
X774513Y402053D01*
X774493Y402070D01*
X774474Y402088D01*
X774456Y402107D01*
X774439Y402127D01*
X774424Y402148D01*
X774409Y402170D01*
X774395Y402192D01*
X774382Y402215D01*
X774371Y402239D01*
X774361Y402263D01*
X774352Y402287D01*
X774345Y402313D01*
X774339Y402338D01*
X774334Y402364D01*
X774331Y402390D01*
X774329Y402416D01*
X774328Y402442D01*
Y408842D01*
X774329Y408868D01*
X774331Y408894D01*
X774334Y408920D01*
X774339Y408946D01*
X774345Y408971D01*
X774352Y408997D01*
X774361Y409021D01*
X774371Y409045D01*
X774382Y409069D01*
X774395Y409092D01*
X774409Y409114D01*
X774424Y409136D01*
X774439Y409157D01*
X774456Y409177D01*
X774474Y409196D01*
X774493Y409214D01*
X774513Y409231D01*
X774534Y409246D01*
X774556Y409261D01*
X774578Y409275D01*
X774601Y409287D01*
X774625Y409299D01*
X774649Y409309D01*
X774673Y409318D01*
X774699Y409325D01*
X774724Y409331D01*
X774750Y409336D01*
X774776Y409339D01*
X774802Y409341D01*
X774828Y409342D01*
X790728D01*
X790754Y409341D01*
D02*
G37*
G36*
X736754D02*
X736780Y409339D01*
X736806Y409336D01*
X736832Y409331D01*
X736857Y409325D01*
X736882Y409318D01*
X736907Y409309D01*
X736931Y409299D01*
X736955Y409287D01*
X736978Y409275D01*
X737000Y409261D01*
X737022Y409246D01*
X737043Y409231D01*
X737063Y409214D01*
X737082Y409196D01*
X737100Y409177D01*
X737117Y409157D01*
X737132Y409136D01*
X737147Y409114D01*
X737161Y409092D01*
X737173Y409069D01*
X737185Y409045D01*
X737195Y409021D01*
X737204Y408997D01*
X737211Y408971D01*
X737217Y408946D01*
X737222Y408920D01*
X737225Y408894D01*
X737227Y408868D01*
X737228Y408842D01*
Y402442D01*
X737227Y402416D01*
X737225Y402390D01*
X737222Y402364D01*
X737217Y402338D01*
X737211Y402313D01*
X737204Y402287D01*
X737195Y402263D01*
X737185Y402239D01*
X737173Y402215D01*
X737161Y402192D01*
X737147Y402170D01*
X737132Y402148D01*
X737117Y402127D01*
X737100Y402107D01*
X737082Y402088D01*
X737063Y402070D01*
X737043Y402053D01*
X737022Y402038D01*
X737000Y402023D01*
X736978Y402009D01*
X736955Y401996D01*
X736931Y401985D01*
X736907Y401975D01*
X736882Y401967D01*
X736857Y401959D01*
X736832Y401953D01*
X736806Y401948D01*
X736780Y401945D01*
X736754Y401943D01*
X736728Y401942D01*
X720828D01*
X720802Y401943D01*
X720776Y401945D01*
X720750Y401948D01*
X720724Y401953D01*
X720699Y401959D01*
X720674Y401967D01*
X720649Y401975D01*
X720625Y401985D01*
X720601Y401996D01*
X720578Y402009D01*
X720556Y402023D01*
X720534Y402038D01*
X720513Y402053D01*
X720493Y402070D01*
X720474Y402088D01*
X720456Y402107D01*
X720440Y402127D01*
X720424Y402148D01*
X720409Y402170D01*
X720395Y402192D01*
X720383Y402215D01*
X720371Y402239D01*
X720361Y402263D01*
X720352Y402287D01*
X720345Y402313D01*
X720339Y402338D01*
X720334Y402364D01*
X720331Y402390D01*
X720329Y402416D01*
X720328Y402442D01*
Y408842D01*
X720329Y408868D01*
X720331Y408894D01*
X720334Y408920D01*
X720339Y408946D01*
X720345Y408971D01*
X720352Y408997D01*
X720361Y409021D01*
X720371Y409045D01*
X720383Y409069D01*
X720395Y409092D01*
X720409Y409114D01*
X720424Y409136D01*
X720440Y409157D01*
X720456Y409177D01*
X720474Y409196D01*
X720493Y409214D01*
X720513Y409231D01*
X720534Y409246D01*
X720556Y409261D01*
X720578Y409275D01*
X720601Y409287D01*
X720625Y409299D01*
X720649Y409309D01*
X720674Y409318D01*
X720699Y409325D01*
X720724Y409331D01*
X720750Y409336D01*
X720776Y409339D01*
X720802Y409341D01*
X720828Y409342D01*
X736728D01*
X736754Y409341D01*
D02*
G37*
G36*
X244756Y401069D02*
X244782Y401067D01*
X244808Y401064D01*
X244834Y401059D01*
X244859Y401053D01*
X244884Y401045D01*
X244909Y401037D01*
X244933Y401027D01*
X244957Y401016D01*
X244980Y401003D01*
X245002Y400989D01*
X245024Y400975D01*
X245045Y400959D01*
X245065Y400942D01*
X245084Y400924D01*
X245102Y400905D01*
X245119Y400885D01*
X245135Y400864D01*
X245149Y400842D01*
X245163Y400820D01*
X245175Y400797D01*
X245187Y400773D01*
X245197Y400749D01*
X245205Y400724D01*
X245213Y400699D01*
X245219Y400674D01*
X245224Y400648D01*
X245227Y400622D01*
X245229Y400596D01*
X245230Y400570D01*
Y394170D01*
X245229Y394144D01*
X245227Y394118D01*
X245224Y394092D01*
X245219Y394066D01*
X245213Y394041D01*
X245205Y394016D01*
X245197Y393991D01*
X245187Y393967D01*
X245175Y393943D01*
X245163Y393920D01*
X245149Y393898D01*
X245135Y393876D01*
X245119Y393855D01*
X245102Y393835D01*
X245084Y393816D01*
X245065Y393798D01*
X245045Y393781D01*
X245024Y393765D01*
X245002Y393751D01*
X244980Y393737D01*
X244957Y393725D01*
X244933Y393713D01*
X244909Y393703D01*
X244884Y393694D01*
X244859Y393687D01*
X244834Y393681D01*
X244808Y393676D01*
X244782Y393673D01*
X244756Y393671D01*
X244730Y393670D01*
X228830D01*
X228804Y393671D01*
X228778Y393673D01*
X228752Y393676D01*
X228726Y393681D01*
X228701Y393687D01*
X228675Y393694D01*
X228651Y393703D01*
X228627Y393713D01*
X228603Y393725D01*
X228580Y393737D01*
X228558Y393751D01*
X228536Y393765D01*
X228515Y393781D01*
X228495Y393798D01*
X228477Y393816D01*
X228458Y393835D01*
X228441Y393855D01*
X228426Y393876D01*
X228411Y393898D01*
X228397Y393920D01*
X228384Y393943D01*
X228373Y393967D01*
X228363Y393991D01*
X228354Y394016D01*
X228347Y394041D01*
X228341Y394066D01*
X228336Y394092D01*
X228333Y394118D01*
X228331Y394144D01*
X228330Y394170D01*
Y400570D01*
X228331Y400596D01*
X228333Y400622D01*
X228336Y400648D01*
X228341Y400674D01*
X228347Y400699D01*
X228354Y400724D01*
X228363Y400749D01*
X228373Y400773D01*
X228384Y400797D01*
X228397Y400820D01*
X228411Y400842D01*
X228426Y400864D01*
X228441Y400885D01*
X228458Y400905D01*
X228477Y400924D01*
X228495Y400942D01*
X228515Y400959D01*
X228536Y400975D01*
X228558Y400989D01*
X228580Y401003D01*
X228603Y401016D01*
X228627Y401027D01*
X228651Y401037D01*
X228675Y401045D01*
X228701Y401053D01*
X228726Y401059D01*
X228752Y401064D01*
X228778Y401067D01*
X228804Y401069D01*
X228830Y401070D01*
X244730D01*
X244756Y401069D01*
D02*
G37*
G36*
X790754Y396641D02*
X790780Y396639D01*
X790806Y396636D01*
X790832Y396631D01*
X790857Y396625D01*
X790882Y396618D01*
X790907Y396609D01*
X790931Y396599D01*
X790955Y396587D01*
X790978Y396575D01*
X791000Y396561D01*
X791022Y396547D01*
X791043Y396531D01*
X791063Y396514D01*
X791082Y396496D01*
X791100Y396477D01*
X791117Y396457D01*
X791133Y396436D01*
X791147Y396414D01*
X791161Y396392D01*
X791173Y396369D01*
X791185Y396345D01*
X791195Y396321D01*
X791204Y396297D01*
X791211Y396271D01*
X791217Y396246D01*
X791222Y396220D01*
X791225Y396194D01*
X791227Y396168D01*
X791228Y396142D01*
Y389742D01*
X791227Y389716D01*
X791225Y389690D01*
X791222Y389664D01*
X791217Y389638D01*
X791211Y389613D01*
X791204Y389588D01*
X791195Y389563D01*
X791185Y389539D01*
X791173Y389515D01*
X791161Y389492D01*
X791147Y389470D01*
X791133Y389448D01*
X791117Y389427D01*
X791100Y389407D01*
X791082Y389388D01*
X791063Y389370D01*
X791043Y389353D01*
X791022Y389338D01*
X791000Y389323D01*
X790978Y389309D01*
X790955Y389296D01*
X790931Y389285D01*
X790907Y389275D01*
X790882Y389267D01*
X790857Y389259D01*
X790832Y389253D01*
X790806Y389248D01*
X790780Y389245D01*
X790754Y389243D01*
X790728Y389242D01*
X774828D01*
X774802Y389243D01*
X774776Y389245D01*
X774750Y389248D01*
X774724Y389253D01*
X774699Y389259D01*
X774673Y389267D01*
X774649Y389275D01*
X774625Y389285D01*
X774601Y389296D01*
X774578Y389309D01*
X774556Y389323D01*
X774534Y389338D01*
X774513Y389353D01*
X774493Y389370D01*
X774474Y389388D01*
X774456Y389407D01*
X774439Y389427D01*
X774424Y389448D01*
X774409Y389470D01*
X774395Y389492D01*
X774382Y389515D01*
X774371Y389539D01*
X774361Y389563D01*
X774352Y389588D01*
X774345Y389613D01*
X774339Y389638D01*
X774334Y389664D01*
X774331Y389690D01*
X774329Y389716D01*
X774328Y389742D01*
Y396142D01*
X774329Y396168D01*
X774331Y396194D01*
X774334Y396220D01*
X774339Y396246D01*
X774345Y396271D01*
X774352Y396297D01*
X774361Y396321D01*
X774371Y396345D01*
X774382Y396369D01*
X774395Y396392D01*
X774409Y396414D01*
X774424Y396436D01*
X774439Y396457D01*
X774456Y396477D01*
X774474Y396496D01*
X774493Y396514D01*
X774513Y396531D01*
X774534Y396547D01*
X774556Y396561D01*
X774578Y396575D01*
X774601Y396587D01*
X774625Y396599D01*
X774649Y396609D01*
X774673Y396618D01*
X774699Y396625D01*
X774724Y396631D01*
X774750Y396636D01*
X774776Y396639D01*
X774802Y396641D01*
X774828Y396642D01*
X790728D01*
X790754Y396641D01*
D02*
G37*
G36*
X736754D02*
X736780Y396639D01*
X736806Y396636D01*
X736832Y396631D01*
X736857Y396625D01*
X736882Y396618D01*
X736907Y396609D01*
X736931Y396599D01*
X736955Y396587D01*
X736978Y396575D01*
X737000Y396561D01*
X737022Y396547D01*
X737043Y396531D01*
X737063Y396514D01*
X737082Y396496D01*
X737100Y396477D01*
X737117Y396457D01*
X737132Y396436D01*
X737147Y396414D01*
X737161Y396392D01*
X737173Y396369D01*
X737185Y396345D01*
X737195Y396321D01*
X737204Y396297D01*
X737211Y396271D01*
X737217Y396246D01*
X737222Y396220D01*
X737225Y396194D01*
X737227Y396168D01*
X737228Y396142D01*
Y389742D01*
X737227Y389716D01*
X737225Y389690D01*
X737222Y389664D01*
X737217Y389638D01*
X737211Y389613D01*
X737204Y389588D01*
X737195Y389563D01*
X737185Y389539D01*
X737173Y389515D01*
X737161Y389492D01*
X737147Y389470D01*
X737132Y389448D01*
X737117Y389427D01*
X737100Y389407D01*
X737082Y389388D01*
X737063Y389370D01*
X737043Y389353D01*
X737022Y389338D01*
X737000Y389323D01*
X736978Y389309D01*
X736955Y389296D01*
X736931Y389285D01*
X736907Y389275D01*
X736882Y389267D01*
X736857Y389259D01*
X736832Y389253D01*
X736806Y389248D01*
X736780Y389245D01*
X736754Y389243D01*
X736728Y389242D01*
X720828D01*
X720802Y389243D01*
X720776Y389245D01*
X720750Y389248D01*
X720724Y389253D01*
X720699Y389259D01*
X720674Y389267D01*
X720649Y389275D01*
X720625Y389285D01*
X720601Y389296D01*
X720578Y389309D01*
X720556Y389323D01*
X720534Y389338D01*
X720513Y389353D01*
X720493Y389370D01*
X720474Y389388D01*
X720456Y389407D01*
X720440Y389427D01*
X720424Y389448D01*
X720409Y389470D01*
X720395Y389492D01*
X720383Y389515D01*
X720371Y389539D01*
X720361Y389563D01*
X720352Y389588D01*
X720345Y389613D01*
X720339Y389638D01*
X720334Y389664D01*
X720331Y389690D01*
X720329Y389716D01*
X720328Y389742D01*
Y396142D01*
X720329Y396168D01*
X720331Y396194D01*
X720334Y396220D01*
X720339Y396246D01*
X720345Y396271D01*
X720352Y396297D01*
X720361Y396321D01*
X720371Y396345D01*
X720383Y396369D01*
X720395Y396392D01*
X720409Y396414D01*
X720424Y396436D01*
X720440Y396457D01*
X720456Y396477D01*
X720474Y396496D01*
X720493Y396514D01*
X720513Y396531D01*
X720534Y396547D01*
X720556Y396561D01*
X720578Y396575D01*
X720601Y396587D01*
X720625Y396599D01*
X720649Y396609D01*
X720674Y396618D01*
X720699Y396625D01*
X720724Y396631D01*
X720750Y396636D01*
X720776Y396639D01*
X720802Y396641D01*
X720828Y396642D01*
X736728D01*
X736754Y396641D01*
D02*
G37*
G36*
X223330Y386720D02*
X196230D01*
Y420720D01*
X223330D01*
Y386720D01*
D02*
G37*
G36*
X244756Y388369D02*
X244782Y388367D01*
X244808Y388364D01*
X244834Y388359D01*
X244859Y388353D01*
X244884Y388345D01*
X244909Y388337D01*
X244933Y388327D01*
X244957Y388316D01*
X244980Y388303D01*
X245002Y388289D01*
X245024Y388274D01*
X245045Y388259D01*
X245065Y388242D01*
X245084Y388224D01*
X245102Y388205D01*
X245119Y388185D01*
X245135Y388164D01*
X245149Y388142D01*
X245163Y388120D01*
X245175Y388097D01*
X245187Y388073D01*
X245197Y388049D01*
X245205Y388024D01*
X245213Y387999D01*
X245219Y387974D01*
X245224Y387948D01*
X245227Y387922D01*
X245229Y387896D01*
X245230Y387870D01*
Y381470D01*
X245229Y381444D01*
X245227Y381418D01*
X245224Y381392D01*
X245219Y381366D01*
X245213Y381341D01*
X245205Y381315D01*
X245197Y381291D01*
X245187Y381267D01*
X245175Y381243D01*
X245163Y381220D01*
X245149Y381198D01*
X245135Y381176D01*
X245119Y381155D01*
X245102Y381135D01*
X245084Y381116D01*
X245065Y381098D01*
X245045Y381081D01*
X245024Y381065D01*
X245002Y381051D01*
X244980Y381037D01*
X244957Y381025D01*
X244933Y381013D01*
X244909Y381003D01*
X244884Y380994D01*
X244859Y380987D01*
X244834Y380981D01*
X244808Y380976D01*
X244782Y380973D01*
X244756Y380971D01*
X244730Y380970D01*
X228830D01*
X228804Y380971D01*
X228778Y380973D01*
X228752Y380976D01*
X228726Y380981D01*
X228701Y380987D01*
X228675Y380994D01*
X228651Y381003D01*
X228627Y381013D01*
X228603Y381025D01*
X228580Y381037D01*
X228558Y381051D01*
X228536Y381065D01*
X228515Y381081D01*
X228495Y381098D01*
X228477Y381116D01*
X228458Y381135D01*
X228441Y381155D01*
X228426Y381176D01*
X228411Y381198D01*
X228397Y381220D01*
X228384Y381243D01*
X228373Y381267D01*
X228363Y381291D01*
X228354Y381315D01*
X228347Y381341D01*
X228341Y381366D01*
X228336Y381392D01*
X228333Y381418D01*
X228331Y381444D01*
X228330Y381470D01*
Y387870D01*
X228331Y387896D01*
X228333Y387922D01*
X228336Y387948D01*
X228341Y387974D01*
X228347Y387999D01*
X228354Y388024D01*
X228363Y388049D01*
X228373Y388073D01*
X228384Y388097D01*
X228397Y388120D01*
X228411Y388142D01*
X228426Y388164D01*
X228441Y388185D01*
X228458Y388205D01*
X228477Y388224D01*
X228495Y388242D01*
X228515Y388259D01*
X228536Y388274D01*
X228558Y388289D01*
X228580Y388303D01*
X228603Y388316D01*
X228627Y388327D01*
X228651Y388337D01*
X228675Y388345D01*
X228701Y388353D01*
X228726Y388359D01*
X228752Y388364D01*
X228778Y388367D01*
X228804Y388369D01*
X228830Y388370D01*
X244730D01*
X244756Y388369D01*
D02*
G37*
G36*
X790754Y383941D02*
X790780Y383939D01*
X790806Y383936D01*
X790832Y383931D01*
X790857Y383925D01*
X790882Y383918D01*
X790907Y383909D01*
X790931Y383899D01*
X790955Y383887D01*
X790978Y383875D01*
X791000Y383861D01*
X791022Y383847D01*
X791043Y383831D01*
X791063Y383814D01*
X791082Y383796D01*
X791100Y383777D01*
X791117Y383757D01*
X791133Y383736D01*
X791147Y383714D01*
X791161Y383692D01*
X791173Y383669D01*
X791185Y383645D01*
X791195Y383621D01*
X791204Y383596D01*
X791211Y383571D01*
X791217Y383546D01*
X791222Y383520D01*
X791225Y383494D01*
X791227Y383468D01*
X791228Y383442D01*
Y377042D01*
X791227Y377016D01*
X791225Y376990D01*
X791222Y376964D01*
X791217Y376938D01*
X791211Y376913D01*
X791204Y376888D01*
X791195Y376863D01*
X791185Y376839D01*
X791173Y376815D01*
X791161Y376792D01*
X791147Y376770D01*
X791133Y376748D01*
X791117Y376727D01*
X791100Y376707D01*
X791082Y376688D01*
X791063Y376670D01*
X791043Y376653D01*
X791022Y376637D01*
X791000Y376623D01*
X790978Y376609D01*
X790955Y376596D01*
X790931Y376585D01*
X790907Y376575D01*
X790882Y376567D01*
X790857Y376559D01*
X790832Y376553D01*
X790806Y376548D01*
X790780Y376545D01*
X790754Y376543D01*
X790728Y376542D01*
X774828D01*
X774802Y376543D01*
X774776Y376545D01*
X774750Y376548D01*
X774724Y376553D01*
X774699Y376559D01*
X774673Y376567D01*
X774649Y376575D01*
X774625Y376585D01*
X774601Y376596D01*
X774578Y376609D01*
X774556Y376623D01*
X774534Y376637D01*
X774513Y376653D01*
X774493Y376670D01*
X774474Y376688D01*
X774456Y376707D01*
X774439Y376727D01*
X774424Y376748D01*
X774409Y376770D01*
X774395Y376792D01*
X774382Y376815D01*
X774371Y376839D01*
X774361Y376863D01*
X774352Y376888D01*
X774345Y376913D01*
X774339Y376938D01*
X774334Y376964D01*
X774331Y376990D01*
X774329Y377016D01*
X774328Y377042D01*
Y383442D01*
X774329Y383468D01*
X774331Y383494D01*
X774334Y383520D01*
X774339Y383546D01*
X774345Y383571D01*
X774352Y383596D01*
X774361Y383621D01*
X774371Y383645D01*
X774382Y383669D01*
X774395Y383692D01*
X774409Y383714D01*
X774424Y383736D01*
X774439Y383757D01*
X774456Y383777D01*
X774474Y383796D01*
X774493Y383814D01*
X774513Y383831D01*
X774534Y383847D01*
X774556Y383861D01*
X774578Y383875D01*
X774601Y383887D01*
X774625Y383899D01*
X774649Y383909D01*
X774673Y383918D01*
X774699Y383925D01*
X774724Y383931D01*
X774750Y383936D01*
X774776Y383939D01*
X774802Y383941D01*
X774828Y383942D01*
X790728D01*
X790754Y383941D01*
D02*
G37*
G36*
X736754D02*
X736780Y383939D01*
X736806Y383936D01*
X736832Y383931D01*
X736857Y383925D01*
X736882Y383918D01*
X736907Y383909D01*
X736931Y383899D01*
X736955Y383887D01*
X736978Y383875D01*
X737000Y383861D01*
X737022Y383847D01*
X737043Y383831D01*
X737063Y383814D01*
X737082Y383796D01*
X737100Y383777D01*
X737117Y383757D01*
X737132Y383736D01*
X737147Y383714D01*
X737161Y383692D01*
X737173Y383669D01*
X737185Y383645D01*
X737195Y383621D01*
X737204Y383596D01*
X737211Y383571D01*
X737217Y383546D01*
X737222Y383520D01*
X737225Y383494D01*
X737227Y383468D01*
X737228Y383442D01*
Y377042D01*
X737227Y377016D01*
X737225Y376990D01*
X737222Y376964D01*
X737217Y376938D01*
X737211Y376913D01*
X737204Y376888D01*
X737195Y376863D01*
X737185Y376839D01*
X737173Y376815D01*
X737161Y376792D01*
X737147Y376770D01*
X737132Y376748D01*
X737117Y376727D01*
X737100Y376707D01*
X737082Y376688D01*
X737063Y376670D01*
X737043Y376653D01*
X737022Y376637D01*
X737000Y376623D01*
X736978Y376609D01*
X736955Y376596D01*
X736931Y376585D01*
X736907Y376575D01*
X736882Y376567D01*
X736857Y376559D01*
X736832Y376553D01*
X736806Y376548D01*
X736780Y376545D01*
X736754Y376543D01*
X736728Y376542D01*
X720828D01*
X720802Y376543D01*
X720776Y376545D01*
X720750Y376548D01*
X720724Y376553D01*
X720699Y376559D01*
X720674Y376567D01*
X720649Y376575D01*
X720625Y376585D01*
X720601Y376596D01*
X720578Y376609D01*
X720556Y376623D01*
X720534Y376637D01*
X720513Y376653D01*
X720493Y376670D01*
X720474Y376688D01*
X720456Y376707D01*
X720440Y376727D01*
X720424Y376748D01*
X720409Y376770D01*
X720395Y376792D01*
X720383Y376815D01*
X720371Y376839D01*
X720361Y376863D01*
X720352Y376888D01*
X720345Y376913D01*
X720339Y376938D01*
X720334Y376964D01*
X720331Y376990D01*
X720329Y377016D01*
X720328Y377042D01*
Y383442D01*
X720329Y383468D01*
X720331Y383494D01*
X720334Y383520D01*
X720339Y383546D01*
X720345Y383571D01*
X720352Y383596D01*
X720361Y383621D01*
X720371Y383645D01*
X720383Y383669D01*
X720395Y383692D01*
X720409Y383714D01*
X720424Y383736D01*
X720440Y383757D01*
X720456Y383777D01*
X720474Y383796D01*
X720493Y383814D01*
X720513Y383831D01*
X720534Y383847D01*
X720556Y383861D01*
X720578Y383875D01*
X720601Y383887D01*
X720625Y383899D01*
X720649Y383909D01*
X720674Y383918D01*
X720699Y383925D01*
X720724Y383931D01*
X720750Y383936D01*
X720776Y383939D01*
X720802Y383941D01*
X720828Y383942D01*
X736728D01*
X736754Y383941D01*
D02*
G37*
D62*
X676910Y600710D02*
D03*
Y583210D02*
D03*
X708788Y390542D02*
D03*
Y408042D02*
D03*
X673628Y444122D02*
D03*
Y426622D02*
D03*
X673228Y370462D02*
D03*
Y352962D02*
D03*
X815160Y577020D02*
D03*
Y559520D02*
D03*
X798830Y559530D02*
D03*
Y577030D02*
D03*
X768420Y639800D02*
D03*
Y622300D02*
D03*
X751910Y639660D02*
D03*
Y622160D02*
D03*
Y604240D02*
D03*
Y586740D02*
D03*
X768420D02*
D03*
Y604240D02*
D03*
X855286Y210198D02*
D03*
Y192698D02*
D03*
X654626Y225718D02*
D03*
Y243218D02*
D03*
X555388Y249280D02*
D03*
Y231780D02*
D03*
X539138Y249280D02*
D03*
Y231780D02*
D03*
X567804Y478264D02*
D03*
Y495764D02*
D03*
X551294Y478264D02*
D03*
Y495764D02*
D03*
X534784Y478264D02*
D03*
Y495764D02*
D03*
X518274Y478264D02*
D03*
Y495764D02*
D03*
X566314Y404114D02*
D03*
Y421614D02*
D03*
X405740Y343365D02*
D03*
Y360865D02*
D03*
Y306367D02*
D03*
Y288867D02*
D03*
X537210Y188442D02*
D03*
Y170942D02*
D03*
X520960D02*
D03*
Y188442D02*
D03*
X487680Y384950D02*
D03*
Y402450D02*
D03*
X472440D02*
D03*
Y384950D02*
D03*
X287250Y379450D02*
D03*
Y361950D02*
D03*
X303760Y379450D02*
D03*
Y361950D02*
D03*
X332258Y296758D02*
D03*
Y314258D02*
D03*
Y278838D02*
D03*
Y261338D02*
D03*
X141200Y291820D02*
D03*
Y274320D02*
D03*
X355092Y485876D02*
D03*
Y468376D02*
D03*
X338582Y485876D02*
D03*
Y468376D02*
D03*
X246610Y496290D02*
D03*
Y478790D02*
D03*
X261850Y496290D02*
D03*
Y478790D02*
D03*
X306100Y635947D02*
D03*
Y618447D02*
D03*
X289590Y635950D02*
D03*
Y618450D02*
D03*
X273080Y635950D02*
D03*
Y618450D02*
D03*
X256570D02*
D03*
Y635950D02*
D03*
Y675320D02*
D03*
Y657820D02*
D03*
X240060Y675320D02*
D03*
Y657820D02*
D03*
X223550Y675320D02*
D03*
Y657820D02*
D03*
X122150Y534250D02*
D03*
Y551750D02*
D03*
X138660D02*
D03*
Y534250D02*
D03*
X440160Y764380D02*
D03*
Y746880D02*
D03*
X423650Y764380D02*
D03*
Y746880D02*
D03*
D63*
X596392Y577342D02*
D03*
X611124Y577596D02*
D03*
X656590Y624086D02*
D03*
X507880Y580136D02*
D03*
X656590Y713090D02*
D03*
Y751190D02*
D03*
X454660Y264922D02*
D03*
X461518Y244856D02*
D03*
X455930Y369316D02*
D03*
X440690Y369570D02*
D03*
X425196Y369062D02*
D03*
X721280Y78740D02*
D03*
X346456Y572008D02*
D03*
X290830Y561594D02*
D03*
D64*
X203520Y215392D02*
D03*
X223520D02*
D03*
X223360Y177292D02*
D03*
X203360D02*
D03*
D65*
X223634Y196342D02*
D03*
X206134D02*
D03*
X206274Y234696D02*
D03*
X223774D02*
D03*
X245200Y455790D02*
D03*
X227700D02*
D03*
X245200Y439280D02*
D03*
X227700D02*
D03*
X804178Y408041D02*
D03*
X821678D02*
D03*
X804178Y390541D02*
D03*
X821678D02*
D03*
X804558Y436372D02*
D03*
X822058D02*
D03*
X782778Y436122D02*
D03*
X765278D02*
D03*
X746278D02*
D03*
X728778D02*
D03*
Y362462D02*
D03*
X746278D02*
D03*
X802666Y267716D02*
D03*
X820166D02*
D03*
X802666Y252476D02*
D03*
X820166D02*
D03*
X584594Y343408D02*
D03*
X602094D02*
D03*
X443090Y284480D02*
D03*
X425590D02*
D03*
X400076Y489712D02*
D03*
X417576D02*
D03*
X455282D02*
D03*
X437782D02*
D03*
X437785Y437388D02*
D03*
X455285D02*
D03*
X400076D02*
D03*
X417576D02*
D03*
X203232Y675460D02*
D03*
X185732D02*
D03*
X203232Y658950D02*
D03*
X185732D02*
D03*
X166260Y675460D02*
D03*
X148760D02*
D03*
X166260Y658950D02*
D03*
X148760D02*
D03*
X184430Y577850D02*
D03*
X201930D02*
D03*
X184430Y561340D02*
D03*
X201930D02*
D03*
X121020Y365620D02*
D03*
X138520D02*
D03*
X759994Y728098D02*
D03*
X742494D02*
D03*
X724574D02*
D03*
X707074D02*
D03*
X724574Y744608D02*
D03*
X707074D02*
D03*
X742494D02*
D03*
X759994D02*
D03*
D66*
X467330Y776486D02*
D03*
X637330D02*
D03*
X467330Y763786D02*
D03*
Y751086D02*
D03*
Y738386D02*
D03*
Y725686D02*
D03*
Y712986D02*
D03*
Y700286D02*
D03*
Y687586D02*
D03*
Y674886D02*
D03*
Y662186D02*
D03*
Y649486D02*
D03*
Y636786D02*
D03*
Y624086D02*
D03*
Y611386D02*
D03*
X637330D02*
D03*
Y624086D02*
D03*
Y636786D02*
D03*
Y649486D02*
D03*
Y662186D02*
D03*
Y674886D02*
D03*
Y687586D02*
D03*
Y700286D02*
D03*
Y712986D02*
D03*
Y725686D02*
D03*
Y738386D02*
D03*
Y751086D02*
D03*
Y763786D02*
D03*
D67*
X495180Y601386D02*
D03*
X507880D02*
D03*
X520580D02*
D03*
X533280D02*
D03*
X545980D02*
D03*
X558680D02*
D03*
X571380D02*
D03*
X584080D02*
D03*
X596780D02*
D03*
X609480D02*
D03*
D68*
X523980Y719836D02*
D03*
X542330D02*
D03*
X560680D02*
D03*
X523980Y701486D02*
D03*
X542330D02*
D03*
X560680D02*
D03*
X523980Y683136D02*
D03*
X542330D02*
D03*
X560680D02*
D03*
D69*
X690168Y445622D02*
D03*
Y426622D02*
D03*
X712168Y436122D02*
D03*
X690168Y371962D02*
D03*
Y352962D02*
D03*
X712168Y362462D02*
D03*
X854100Y567000D02*
D03*
X832100Y576500D02*
D03*
Y557500D02*
D03*
X320500Y616951D02*
D03*
Y635950D02*
D03*
X342500Y626450D02*
D03*
X241406Y618450D02*
D03*
X219406Y627950D02*
D03*
X241406Y637449D02*
D03*
D70*
X816851Y597500D02*
D03*
X854849D02*
D03*
X273131Y675460D02*
D03*
X311129D02*
D03*
D71*
X800676Y230879D02*
D03*
Y192878D02*
D03*
X831156Y230879D02*
D03*
Y192878D02*
D03*
D72*
X838580Y78740D02*
D03*
D73*
X680580D02*
D03*
D74*
X771466Y256059D02*
D03*
Y243358D02*
D03*
Y230658D02*
D03*
Y217959D02*
D03*
Y205259D02*
D03*
Y192558D02*
D03*
Y179858D02*
D03*
Y167159D02*
D03*
X677486D02*
D03*
Y179858D02*
D03*
Y192558D02*
D03*
Y205259D02*
D03*
Y217959D02*
D03*
Y230658D02*
D03*
Y243358D02*
D03*
Y256059D02*
D03*
D75*
X536194Y458114D02*
D03*
Y404114D02*
D03*
X548894Y458114D02*
D03*
X523494D02*
D03*
X548894Y404114D02*
D03*
X510794Y458114D02*
D03*
X523494Y404114D02*
D03*
X510794D02*
D03*
D76*
X475520Y341740D02*
D03*
Y336740D02*
D03*
Y331740D02*
D03*
Y326740D02*
D03*
Y321740D02*
D03*
Y316740D02*
D03*
Y301740D02*
D03*
Y296740D02*
D03*
Y291740D02*
D03*
X559120D02*
D03*
Y296740D02*
D03*
Y301740D02*
D03*
Y306740D02*
D03*
Y311740D02*
D03*
Y316740D02*
D03*
Y321740D02*
D03*
Y326740D02*
D03*
Y331740D02*
D03*
Y336740D02*
D03*
X475520Y346740D02*
D03*
Y306740D02*
D03*
X559120Y346740D02*
D03*
X475520Y311740D02*
D03*
X559120Y341740D02*
D03*
D77*
X489820Y277440D02*
D03*
X494820D02*
D03*
X499820D02*
D03*
X504820D02*
D03*
X509820D02*
D03*
X514820D02*
D03*
X519820D02*
D03*
X524820D02*
D03*
X529820D02*
D03*
X534820D02*
D03*
X544820Y361040D02*
D03*
X539820D02*
D03*
X534820D02*
D03*
X529820D02*
D03*
X524820D02*
D03*
X509820D02*
D03*
X504820D02*
D03*
X499820D02*
D03*
X544820Y277440D02*
D03*
X489820Y361040D02*
D03*
X539820Y277440D02*
D03*
X494820Y361040D02*
D03*
X519820D02*
D03*
X514820D02*
D03*
D78*
X432308Y306367D02*
D03*
Y343365D02*
D03*
D79*
X362237Y604774D02*
D03*
X400238D02*
D03*
X362999Y572262D02*
D03*
X401000D02*
D03*
X220781Y336550D02*
D03*
X182780D02*
D03*
X103941Y207500D02*
D03*
X65940D02*
D03*
X639285Y378460D02*
D03*
X601284D02*
D03*
D80*
X437034Y452726D02*
D03*
X456033D02*
D03*
X446533Y474726D02*
D03*
X399325Y452726D02*
D03*
X418324D02*
D03*
X408825Y474726D02*
D03*
X193733Y621280D02*
D03*
X203232Y643280D02*
D03*
X184233D02*
D03*
X156760Y621280D02*
D03*
X147261Y643280D02*
D03*
X166260D02*
D03*
D81*
X303048Y325458D02*
D03*
Y247458D02*
D03*
D82*
X242340Y330060D02*
D03*
X261040D02*
D03*
X242340Y350380D02*
D03*
X261040D02*
D03*
X182780Y366890D02*
D03*
X201480D02*
D03*
X163420Y184450D02*
D03*
X144720D02*
D03*
X163420Y204770D02*
D03*
X144720D02*
D03*
X42600Y280530D02*
D03*
X23900D02*
D03*
X42600Y300850D02*
D03*
X23900D02*
D03*
X42600Y321170D02*
D03*
X23900D02*
D03*
X65940Y231140D02*
D03*
X84640D02*
D03*
X42600Y341490D02*
D03*
X23900D02*
D03*
D83*
X246778Y281940D02*
D03*
X182780D02*
D03*
X129938Y153970D02*
D03*
X65940D02*
D03*
D84*
X287110Y401180D02*
D03*
X310110D02*
D03*
X333110D02*
D03*
X179160Y478650D02*
D03*
X225160D02*
D03*
X202160D02*
D03*
D85*
X310110Y464180D02*
D03*
X202160Y541650D02*
D03*
D86*
X87440Y349110D02*
D03*
Y323710D02*
D03*
X136540Y311010D02*
D03*
Y323710D02*
D03*
Y336410D02*
D03*
Y349110D02*
D03*
X87440Y336410D02*
D03*
Y311010D02*
D03*
D87*
X160250Y397370D02*
D03*
Y416070D02*
D03*
X139930Y397370D02*
D03*
Y416070D02*
D03*
X119610Y397370D02*
D03*
Y416070D02*
D03*
X99290Y397370D02*
D03*
Y416070D02*
D03*
D88*
X96750Y580250D02*
D03*
Y534250D02*
D03*
D89*
X36750Y557250D02*
D03*
D90*
X103100Y620890D02*
D03*
X39400D02*
D03*
D91*
X772604Y773818D02*
D03*
X694604D02*
D03*
Y697618D02*
D03*
X772604D02*
D03*
D92*
X404600Y764530D02*
D03*
Y746730D02*
D03*
D93*
X448818Y649478D02*
D03*
Y636890D02*
D03*
Y687690D02*
D03*
Y611490D02*
D03*
Y674990D02*
D03*
Y713090D02*
D03*
Y624190D02*
D03*
Y700390D02*
D03*
Y725790D02*
D03*
Y662290D02*
D03*
X450850Y398780D02*
D03*
Y412750D02*
D03*
X134620Y228600D02*
D03*
X121920Y199390D02*
D03*
Y213360D02*
D03*
X88900Y199390D02*
D03*
Y212090D02*
D03*
X134620Y241300D02*
D03*
X76200Y364490D02*
D03*
Y379730D02*
D03*
X91440D02*
D03*
X104140D02*
D03*
X105410Y339090D02*
D03*
X118110Y349250D02*
D03*
Y330200D02*
D03*
X77470Y410210D02*
D03*
X97790Y429260D02*
D03*
X77470D02*
D03*
X166370Y501650D02*
D03*
Y477520D02*
D03*
X181610Y520700D02*
D03*
X166370D02*
D03*
X201930Y433070D02*
D03*
X182880Y434340D02*
D03*
X201930Y445770D02*
D03*
X182880D02*
D03*
X205740Y328930D02*
D03*
Y342900D02*
D03*
X373380Y285750D02*
D03*
Y298450D02*
D03*
Y312420D02*
D03*
Y327660D02*
D03*
Y341630D02*
D03*
Y356870D02*
D03*
Y372110D02*
D03*
X504190Y322580D02*
D03*
Y336550D02*
D03*
X421640Y228600D02*
D03*
X405130D02*
D03*
X386080D02*
D03*
X374650Y247650D02*
D03*
X393700D02*
D03*
X411480D02*
D03*
X426720D02*
D03*
Y262890D02*
D03*
X411480D02*
D03*
X393700D02*
D03*
X374650D02*
D03*
X607060Y264160D02*
D03*
X586740D02*
D03*
X570230D02*
D03*
X595630Y278130D02*
D03*
X575310D02*
D03*
X614680Y280670D02*
D03*
X558800Y278130D02*
D03*
X596900Y224790D02*
D03*
X577850D02*
D03*
X527050Y223520D02*
D03*
Y236220D02*
D03*
X608330D02*
D03*
X588010D02*
D03*
X568960D02*
D03*
X298450Y604520D02*
D03*
X285750D02*
D03*
X233680Y595630D02*
D03*
X218440D02*
D03*
Y608330D02*
D03*
X287020Y657860D02*
D03*
X298450D02*
D03*
X314960Y659130D02*
D03*
X889000Y445770D02*
D03*
Y463550D02*
D03*
Y483870D02*
D03*
Y509270D02*
D03*
Y532130D02*
D03*
X455930Y792480D02*
D03*
X654050Y791210D02*
D03*
X617220Y778510D02*
D03*
X591820D02*
D03*
X563880D02*
D03*
X535940D02*
D03*
X513080D02*
D03*
X487680D02*
D03*
X734060Y683260D02*
D03*
X788900Y65900D02*
D03*
X801600Y40500D02*
D03*
X788900Y15100D02*
D03*
X763500Y65900D02*
D03*
X776200Y40500D02*
D03*
X763500Y15100D02*
D03*
X738100Y65900D02*
D03*
X750800Y40500D02*
D03*
X738100Y15100D02*
D03*
X712700Y65900D02*
D03*
X725400Y40500D02*
D03*
X712700Y15100D02*
D03*
X700000Y40500D02*
D03*
X687300Y15100D02*
D03*
X674600Y40500D02*
D03*
X661900Y15100D02*
D03*
X636500Y65900D02*
D03*
X649200Y40500D02*
D03*
X636500Y15100D02*
D03*
X611100Y65900D02*
D03*
Y15100D02*
D03*
X585700Y65900D02*
D03*
X598400Y40500D02*
D03*
X585700Y15100D02*
D03*
X560300Y65900D02*
D03*
X573000Y40500D02*
D03*
X560300Y15100D02*
D03*
X534900Y65900D02*
D03*
X547600Y40500D02*
D03*
X534900Y15100D02*
D03*
X509500Y65900D02*
D03*
X522200Y40500D02*
D03*
X509500Y15100D02*
D03*
X484100Y65900D02*
D03*
X496800Y40500D02*
D03*
X484100Y15100D02*
D03*
X458700Y65900D02*
D03*
Y15100D02*
D03*
X433300Y65900D02*
D03*
X446000Y40500D02*
D03*
X433300Y15100D02*
D03*
X407900Y65900D02*
D03*
X420600Y40500D02*
D03*
X407900Y15100D02*
D03*
X382500Y65900D02*
D03*
X395200Y40500D02*
D03*
X382500Y15100D02*
D03*
X357100Y65900D02*
D03*
X369800Y40500D02*
D03*
X357100Y15100D02*
D03*
X331700Y65900D02*
D03*
X344400Y40500D02*
D03*
X331700Y15100D02*
D03*
X306300Y65900D02*
D03*
X319000Y40500D02*
D03*
X306300Y15100D02*
D03*
X321310Y726440D02*
D03*
Y755650D02*
D03*
X311150Y707390D02*
D03*
X289560D02*
D03*
X267970D02*
D03*
Y723900D02*
D03*
X266700Y741680D02*
D03*
Y759460D02*
D03*
X341630Y789940D02*
D03*
X313690D02*
D03*
X290830D02*
D03*
X267970D02*
D03*
X241300D02*
D03*
X213360D02*
D03*
X186690D02*
D03*
X148590D02*
D03*
X125730D02*
D03*
X99060D02*
D03*
X76200D02*
D03*
X57150D02*
D03*
X105410Y717550D02*
D03*
Y730250D02*
D03*
Y745490D02*
D03*
Y759460D02*
D03*
X146050Y730250D02*
D03*
Y742950D02*
D03*
Y759460D02*
D03*
X487172Y622046D02*
D03*
X595884Y684276D02*
D03*
X585216D02*
D03*
D94*
X571012Y151270D02*
D03*
X560011D02*
D03*
X549010D02*
D03*
X527011D02*
D03*
X505010D02*
D03*
X494011D02*
D03*
X483011D02*
D03*
X538012D02*
D03*
X516010D02*
D03*
D95*
X626511Y47270D02*
D03*
X470511D02*
D03*
D96*
X617511Y142271D02*
D03*
D97*
X470511D02*
D03*
D98*
X395000Y141000D02*
D03*
X350000D02*
D03*
X325000D02*
D03*
X370000D02*
D03*
D99*
X287500Y118500D02*
D03*
X432500D02*
D03*
D100*
X732860Y648050D02*
D03*
X720160D02*
D03*
X707460D02*
D03*
X694760Y575950D02*
D03*
X707460D02*
D03*
X720160D02*
D03*
X732860D02*
D03*
X694760Y648050D02*
D03*
D101*
X123420Y446402D02*
D03*
Y510400D02*
D03*
D102*
X796280Y78740D02*
D03*
X335000Y102500D02*
D03*
X385000D02*
D03*
D103*
X187500Y55000D02*
D03*
X85900D02*
D03*
X238300D02*
D03*
X136700D02*
D03*
X76200Y745000D02*
D03*
X127000D02*
D03*
X291600D02*
D03*
X240800D02*
D03*
X342400D02*
D03*
X190000D02*
D03*
D104*
X60680Y396240D02*
D03*
X23580D02*
D03*
X30010Y675440D02*
D03*
X80010Y662940D02*
D03*
X792480Y474472D02*
D03*
X817880D02*
D03*
X843280D02*
D03*
X868680D02*
D03*
X299720Y175260D02*
D03*
X325120D02*
D03*
X350520D02*
D03*
X822198Y357632D02*
D03*
X796798D02*
D03*
D105*
X42418Y498348D02*
D03*
Y461248D02*
D03*
X595630Y407924D02*
D03*
Y433324D02*
D03*
Y458724D02*
D03*
Y484124D02*
D03*
X427228Y722630D02*
D03*
Y570230D02*
D03*
Y595630D02*
D03*
Y621030D02*
D03*
Y646430D02*
D03*
Y671830D02*
D03*
Y697230D02*
D03*
X874268Y411992D02*
D03*
Y386592D02*
D03*
Y335280D02*
D03*
Y309880D02*
D03*
D106*
X837500Y645000D02*
D03*
Y720000D02*
D03*
D107*
X546354Y339090D02*
D03*
X622167Y346384D02*
D03*
X615188Y342392D02*
D03*
X651764Y675132D02*
D03*
X676910Y594360D02*
D03*
X694690Y627380D02*
D03*
X509778Y127000D02*
D03*
X516611Y117045D02*
D03*
X683580Y663514D02*
D03*
X667500Y352500D02*
D03*
X322072Y279400D02*
D03*
X274066Y650494D02*
D03*
X267208Y665226D02*
D03*
X804926Y426720D02*
D03*
X670560Y697484D02*
D03*
X798830Y549910D02*
D03*
X748284Y256059D02*
D03*
X489204Y316738D02*
D03*
X474726Y277622D02*
D03*
X466852Y437388D02*
D03*
X417576Y427482D02*
D03*
X481076Y751078D02*
D03*
X504698Y348742D02*
D03*
X529844D02*
D03*
X540004D02*
D03*
X350266Y121666D02*
D03*
X370332Y115824D02*
D03*
X485140Y277622D02*
D03*
X748284Y243358D02*
D03*
X660654Y426720D02*
D03*
X689356Y576072D02*
D03*
X694690Y762508D02*
D03*
X654304Y763524D02*
D03*
X655066Y687832D02*
D03*
D108*
X650206Y356680D02*
D03*
X644398Y354838D02*
D03*
X639064Y360426D02*
D03*
X633971Y355245D02*
D03*
X628650Y351282D02*
D03*
X265430Y688340D02*
D03*
X251460D02*
D03*
X234950D02*
D03*
X157480D02*
D03*
X180340Y693420D02*
D03*
X109220Y547370D02*
D03*
Y594360D02*
D03*
X176530Y608330D02*
D03*
X181610Y623570D02*
D03*
X146050Y614680D02*
D03*
X260350Y646430D02*
D03*
X252730D02*
D03*
X214630Y664210D02*
D03*
X166260Y632530D02*
D03*
X245110Y646430D02*
D03*
X248920Y628650D02*
D03*
X241300D02*
D03*
X231140D02*
D03*
X212090Y647700D02*
D03*
X157480Y632460D02*
D03*
X176530Y642620D02*
D03*
X191770Y650240D02*
D03*
Y642620D02*
D03*
X516636Y261112D02*
D03*
X545592Y373634D02*
D03*
X534924Y373126D02*
D03*
X520700Y342138D02*
D03*
X513588D02*
D03*
X493776Y165100D02*
D03*
X499110Y136144D02*
D03*
X504952Y164846D02*
D03*
X509778Y257556D02*
D03*
X504698Y263652D02*
D03*
X499364Y258064D02*
D03*
X494538Y263906D02*
D03*
D109*
X537210Y303530D02*
D03*
X523240D02*
D03*
X492500Y335000D02*
D03*
X508000Y303530D02*
D03*
X492760D02*
D03*
X158750Y311010D02*
D03*
X446532Y466852D02*
D03*
X151384Y349110D02*
D03*
X399542Y474726D02*
D03*
X615950Y649590D02*
D03*
X623062Y636890D02*
D03*
D110*
X25000Y775000D02*
D03*
Y25000D02*
D03*
X875000Y775000D02*
D03*
Y25000D02*
D03*
M02*
