G04*
G04 #@! TF.GenerationSoftware,Altium Limited,Altium Designer,23.0.1 (38)*
G04*
G04 Layer_Color=8421504*
%FSLAX44Y44*%
%MOMM*%
G71*
G04*
G04 #@! TF.SameCoordinates,6FF5410F-6566-4CAA-8283-5BB090145FDD*
G04*
G04*
G04 #@! TF.FilePolarity,Positive*
G04*
G01*
G75*
%ADD21R,1.0000X1.0000*%
%ADD22C,1.0000*%
%ADD23R,1.0000X1.4000*%
%ADD24R,1.0000X1.0000*%
%ADD25R,2.0000X0.9000*%
%ADD26R,0.9000X2.0000*%
%ADD27R,1.3300X1.3300*%
G04:AMPARAMS|DCode=28|XSize=1.6mm|YSize=0.61mm|CornerRadius=0.0153mm|HoleSize=0mm|Usage=FLASHONLY|Rotation=0.000|XOffset=0mm|YOffset=0mm|HoleType=Round|Shape=RoundedRectangle|*
%AMROUNDEDRECTD28*
21,1,1.6000,0.5795,0,0,0.0*
21,1,1.5695,0.6100,0,0,0.0*
1,1,0.0305,0.7847,-0.2898*
1,1,0.0305,-0.7847,-0.2898*
1,1,0.0305,-0.7847,0.2898*
1,1,0.0305,0.7847,0.2898*
%
%ADD28ROUNDEDRECTD28*%
G04:AMPARAMS|DCode=29|XSize=1mm|YSize=0.8001mm|CornerRadius=0.12mm|HoleSize=0mm|Usage=FLASHONLY|Rotation=0.000|XOffset=0mm|YOffset=0mm|HoleType=Round|Shape=RoundedRectangle|*
%AMROUNDEDRECTD29*
21,1,1.0000,0.5601,0,0,0.0*
21,1,0.7600,0.8001,0,0,0.0*
1,1,0.2400,0.3800,-0.2800*
1,1,0.2400,-0.3800,-0.2800*
1,1,0.2400,-0.3800,0.2800*
1,1,0.2400,0.3800,0.2800*
%
%ADD29ROUNDEDRECTD29*%
%ADD30R,1.2000X0.8000*%
%ADD31R,1.8001X1.6000*%
%ADD32R,3.5400X2.6000*%
%ADD33R,3.6600X2.6000*%
%ADD34R,1.9812X0.5334*%
%ADD35R,0.6000X1.5500*%
G04:AMPARAMS|DCode=36|XSize=0.28mm|YSize=1.56mm|CornerRadius=0.07mm|HoleSize=0mm|Usage=FLASHONLY|Rotation=270.000|XOffset=0mm|YOffset=0mm|HoleType=Round|Shape=RoundedRectangle|*
%AMROUNDEDRECTD36*
21,1,0.2800,1.4200,0,0,270.0*
21,1,0.1400,1.5600,0,0,270.0*
1,1,0.1400,-0.7100,-0.0700*
1,1,0.1400,-0.7100,0.0700*
1,1,0.1400,0.7100,0.0700*
1,1,0.1400,0.7100,-0.0700*
%
%ADD36ROUNDEDRECTD36*%
G04:AMPARAMS|DCode=37|XSize=0.28mm|YSize=1.56mm|CornerRadius=0.07mm|HoleSize=0mm|Usage=FLASHONLY|Rotation=180.000|XOffset=0mm|YOffset=0mm|HoleType=Round|Shape=RoundedRectangle|*
%AMROUNDEDRECTD37*
21,1,0.2800,1.4200,0,0,180.0*
21,1,0.1400,1.5600,0,0,180.0*
1,1,0.1400,-0.0700,0.7100*
1,1,0.1400,0.0700,0.7100*
1,1,0.1400,0.0700,-0.7100*
1,1,0.1400,-0.0700,-0.7100*
%
%ADD37ROUNDEDRECTD37*%
%ADD38R,3.3000X1.7000*%
%ADD39R,1.6000X1.8001*%
G04:AMPARAMS|DCode=40|XSize=1mm|YSize=0.8001mm|CornerRadius=0.12mm|HoleSize=0mm|Usage=FLASHONLY|Rotation=90.000|XOffset=0mm|YOffset=0mm|HoleType=Round|Shape=RoundedRectangle|*
%AMROUNDEDRECTD40*
21,1,1.0000,0.5601,0,0,90.0*
21,1,0.7600,0.8001,0,0,90.0*
1,1,0.2400,0.2800,0.3800*
1,1,0.2400,0.2800,-0.3800*
1,1,0.2400,-0.2800,-0.3800*
1,1,0.2400,-0.2800,0.3800*
%
%ADD40ROUNDEDRECTD40*%
%ADD41R,1.4000X1.5000*%
G04:AMPARAMS|DCode=42|XSize=1mm|YSize=1.42mm|CornerRadius=0.125mm|HoleSize=0mm|Usage=FLASHONLY|Rotation=0.000|XOffset=0mm|YOffset=0mm|HoleType=Round|Shape=RoundedRectangle|*
%AMROUNDEDRECTD42*
21,1,1.0000,1.1700,0,0,0.0*
21,1,0.7500,1.4200,0,0,0.0*
1,1,0.2500,0.3750,-0.5850*
1,1,0.2500,-0.3750,-0.5850*
1,1,0.2500,-0.3750,0.5850*
1,1,0.2500,0.3750,0.5850*
%
%ADD42ROUNDEDRECTD42*%
%ADD43R,2.0000X3.0000*%
%ADD44R,1.2000X1.8000*%
%ADD45R,3.5000X1.8000*%
G04:AMPARAMS|DCode=46|XSize=1.9mm|YSize=0.6mm|CornerRadius=0.075mm|HoleSize=0mm|Usage=FLASHONLY|Rotation=0.000|XOffset=0mm|YOffset=0mm|HoleType=Round|Shape=RoundedRectangle|*
%AMROUNDEDRECTD46*
21,1,1.9000,0.4500,0,0,0.0*
21,1,1.7500,0.6000,0,0,0.0*
1,1,0.1500,0.8750,-0.2250*
1,1,0.1500,-0.8750,-0.2250*
1,1,0.1500,-0.8750,0.2250*
1,1,0.1500,0.8750,0.2250*
%
%ADD46ROUNDEDRECTD46*%
G04:AMPARAMS|DCode=47|XSize=1mm|YSize=1.42mm|CornerRadius=0.125mm|HoleSize=0mm|Usage=FLASHONLY|Rotation=270.000|XOffset=0mm|YOffset=0mm|HoleType=Round|Shape=RoundedRectangle|*
%AMROUNDEDRECTD47*
21,1,1.0000,1.1700,0,0,270.0*
21,1,0.7500,1.4200,0,0,270.0*
1,1,0.2500,-0.5850,-0.3750*
1,1,0.2500,-0.5850,0.3750*
1,1,0.2500,0.5850,0.3750*
1,1,0.2500,0.5850,-0.3750*
%
%ADD47ROUNDEDRECTD47*%
%ADD48R,2.7000X1.0000*%
%ADD49R,6.4000X6.2000*%
%ADD50R,4.2400X3.8100*%
%ADD51R,1.5000X1.4000*%
%ADD52R,1.4700X1.1400*%
%ADD53C,0.8000*%
%ADD54R,0.7000X1.6000*%
%ADD55R,1.1999X2.1999*%
%ADD56R,1.4001X1.6000*%
%ADD57R,1.1999X1.6000*%
G04:AMPARAMS|DCode=58|XSize=0.9mm|YSize=2.8mm|CornerRadius=0.018mm|HoleSize=0mm|Usage=FLASHONLY|Rotation=0.000|XOffset=0mm|YOffset=0mm|HoleType=Round|Shape=RoundedRectangle|*
%AMROUNDEDRECTD58*
21,1,0.9000,2.7640,0,0,0.0*
21,1,0.8640,2.8000,0,0,0.0*
1,1,0.0360,0.4320,-1.3820*
1,1,0.0360,-0.4320,-1.3820*
1,1,0.0360,-0.4320,1.3820*
1,1,0.0360,0.4320,1.3820*
%
%ADD58ROUNDEDRECTD58*%
%ADD59R,2.5000X5.0000*%
G04:AMPARAMS|DCode=60|XSize=1.61mm|YSize=0.58mm|CornerRadius=0.0725mm|HoleSize=0mm|Usage=FLASHONLY|Rotation=270.000|XOffset=0mm|YOffset=0mm|HoleType=Round|Shape=RoundedRectangle|*
%AMROUNDEDRECTD60*
21,1,1.6100,0.4350,0,0,270.0*
21,1,1.4650,0.5800,0,0,270.0*
1,1,0.1450,-0.2175,-0.7325*
1,1,0.1450,-0.2175,0.7325*
1,1,0.1450,0.2175,0.7325*
1,1,0.1450,0.2175,-0.7325*
%
%ADD60ROUNDEDRECTD60*%
%ADD61R,3.0000X2.0000*%
G36*
X79390Y289910D02*
X106490D01*
Y255910D01*
X79390D01*
Y289910D01*
D02*
G37*
G36*
X196230Y420720D02*
X223330D01*
Y386720D01*
X196230D01*
Y420720D01*
D02*
G37*
D21*
X676910Y600710D02*
D03*
Y583210D02*
D03*
X708788Y390542D02*
D03*
Y408042D02*
D03*
X673628Y444122D02*
D03*
Y426622D02*
D03*
X673228Y370462D02*
D03*
Y352962D02*
D03*
X815160Y577020D02*
D03*
Y559520D02*
D03*
X798830Y559530D02*
D03*
Y577030D02*
D03*
X768420Y639800D02*
D03*
Y622300D02*
D03*
X751910Y639660D02*
D03*
Y622160D02*
D03*
Y604240D02*
D03*
Y586740D02*
D03*
X768420D02*
D03*
Y604240D02*
D03*
X855286Y210198D02*
D03*
Y192698D02*
D03*
X654626Y225718D02*
D03*
Y243218D02*
D03*
X555388Y249280D02*
D03*
Y231780D02*
D03*
X539138Y249280D02*
D03*
Y231780D02*
D03*
X567804Y478264D02*
D03*
Y495764D02*
D03*
X551294Y478264D02*
D03*
Y495764D02*
D03*
X534784Y478264D02*
D03*
Y495764D02*
D03*
X518274Y478264D02*
D03*
Y495764D02*
D03*
X566314Y404114D02*
D03*
Y421614D02*
D03*
X405740Y343365D02*
D03*
Y360865D02*
D03*
Y306367D02*
D03*
Y288867D02*
D03*
X537210Y188442D02*
D03*
Y170942D02*
D03*
X520960D02*
D03*
Y188442D02*
D03*
X487680Y384950D02*
D03*
Y402450D02*
D03*
X472440D02*
D03*
Y384950D02*
D03*
X287250Y379450D02*
D03*
Y361950D02*
D03*
X303760Y379450D02*
D03*
Y361950D02*
D03*
X332258Y296758D02*
D03*
Y314258D02*
D03*
Y278838D02*
D03*
Y261338D02*
D03*
X141200Y291820D02*
D03*
Y274320D02*
D03*
X355092Y485876D02*
D03*
Y468376D02*
D03*
X338582Y485876D02*
D03*
Y468376D02*
D03*
X246610Y496290D02*
D03*
Y478790D02*
D03*
X261850Y496290D02*
D03*
Y478790D02*
D03*
X306100Y635947D02*
D03*
Y618447D02*
D03*
X289590Y635950D02*
D03*
Y618450D02*
D03*
X273080Y635950D02*
D03*
Y618450D02*
D03*
X256570D02*
D03*
Y635950D02*
D03*
Y675320D02*
D03*
Y657820D02*
D03*
X240060Y675320D02*
D03*
Y657820D02*
D03*
X223550Y675320D02*
D03*
Y657820D02*
D03*
X122150Y534250D02*
D03*
Y551750D02*
D03*
X138660D02*
D03*
Y534250D02*
D03*
X440160Y764380D02*
D03*
Y746880D02*
D03*
X423650Y764380D02*
D03*
Y746880D02*
D03*
D22*
X596392Y577342D02*
D03*
X611124Y577596D02*
D03*
X656590Y624086D02*
D03*
X507880Y580136D02*
D03*
X656590Y713090D02*
D03*
Y751190D02*
D03*
X454660Y264922D02*
D03*
X461518Y244856D02*
D03*
X455930Y369316D02*
D03*
X440690Y369570D02*
D03*
X425196Y369062D02*
D03*
D23*
X203520Y215392D02*
D03*
X223520D02*
D03*
X223360Y177292D02*
D03*
X203360D02*
D03*
D24*
X223634Y196342D02*
D03*
X206134D02*
D03*
X206274Y234696D02*
D03*
X223774D02*
D03*
X245200Y455790D02*
D03*
X227700D02*
D03*
X245200Y439280D02*
D03*
X227700D02*
D03*
X804178Y408041D02*
D03*
X821678D02*
D03*
X804178Y390541D02*
D03*
X821678D02*
D03*
X804558Y436372D02*
D03*
X822058D02*
D03*
X782778Y436122D02*
D03*
X765278D02*
D03*
X746278D02*
D03*
X728778D02*
D03*
Y362462D02*
D03*
X746278D02*
D03*
X802666Y267716D02*
D03*
X820166D02*
D03*
X802666Y252476D02*
D03*
X820166D02*
D03*
X584594Y343408D02*
D03*
X602094D02*
D03*
X443090Y284480D02*
D03*
X425590D02*
D03*
X400076Y489712D02*
D03*
X417576D02*
D03*
X455282D02*
D03*
X437782D02*
D03*
X437785Y437388D02*
D03*
X455285D02*
D03*
X400076D02*
D03*
X417576D02*
D03*
X203232Y675460D02*
D03*
X185732D02*
D03*
X203232Y658950D02*
D03*
X185732D02*
D03*
X166260Y675460D02*
D03*
X148760D02*
D03*
X166260Y658950D02*
D03*
X148760D02*
D03*
X184430Y577850D02*
D03*
X201930D02*
D03*
X184430Y561340D02*
D03*
X201930D02*
D03*
X121020Y365620D02*
D03*
X138520D02*
D03*
X759994Y728098D02*
D03*
X742494D02*
D03*
X724574D02*
D03*
X707074D02*
D03*
X724574Y744608D02*
D03*
X707074D02*
D03*
X742494D02*
D03*
X759994D02*
D03*
D25*
X467330Y776486D02*
D03*
X637330D02*
D03*
X467330Y763786D02*
D03*
Y751086D02*
D03*
Y738386D02*
D03*
Y725686D02*
D03*
Y712986D02*
D03*
Y700286D02*
D03*
Y687586D02*
D03*
Y674886D02*
D03*
Y662186D02*
D03*
Y649486D02*
D03*
Y636786D02*
D03*
Y624086D02*
D03*
Y611386D02*
D03*
X637330D02*
D03*
Y624086D02*
D03*
Y636786D02*
D03*
Y649486D02*
D03*
Y662186D02*
D03*
Y674886D02*
D03*
Y687586D02*
D03*
Y700286D02*
D03*
Y712986D02*
D03*
Y725686D02*
D03*
Y738386D02*
D03*
Y751086D02*
D03*
Y763786D02*
D03*
D26*
X495180Y601386D02*
D03*
X507880D02*
D03*
X520580D02*
D03*
X533280D02*
D03*
X545980D02*
D03*
X558680D02*
D03*
X571380D02*
D03*
X584080D02*
D03*
X596780D02*
D03*
X609480D02*
D03*
D27*
X523980Y719836D02*
D03*
X542330D02*
D03*
X560680D02*
D03*
X523980Y701486D02*
D03*
X542330D02*
D03*
X560680D02*
D03*
X523980Y683136D02*
D03*
X542330D02*
D03*
X560680D02*
D03*
D28*
X728778Y405642D02*
D03*
Y418342D02*
D03*
Y392942D02*
D03*
Y380242D02*
D03*
X782778D02*
D03*
Y392942D02*
D03*
Y405642D02*
D03*
Y418342D02*
D03*
X65940Y253860D02*
D03*
Y266560D02*
D03*
Y291960D02*
D03*
X119940D02*
D03*
Y279260D02*
D03*
Y266560D02*
D03*
Y253860D02*
D03*
X65940Y279260D02*
D03*
X182780Y410070D02*
D03*
X236780Y384670D02*
D03*
Y397370D02*
D03*
Y410070D02*
D03*
Y422770D02*
D03*
X182780D02*
D03*
Y397370D02*
D03*
Y384670D02*
D03*
D29*
X690168Y445622D02*
D03*
Y426622D02*
D03*
X712168Y436122D02*
D03*
X690168Y371962D02*
D03*
Y352962D02*
D03*
X712168Y362462D02*
D03*
X854100Y567000D02*
D03*
X832100Y576500D02*
D03*
Y557500D02*
D03*
X320500Y616951D02*
D03*
Y635950D02*
D03*
X342500Y626450D02*
D03*
X241406Y618450D02*
D03*
X219406Y627950D02*
D03*
X241406Y637449D02*
D03*
D30*
X816851Y597500D02*
D03*
X854849D02*
D03*
X273131Y675460D02*
D03*
X311129D02*
D03*
D31*
X800676Y230879D02*
D03*
Y192878D02*
D03*
X831156Y230879D02*
D03*
Y192878D02*
D03*
D32*
X838580Y78740D02*
D03*
D33*
X680580D02*
D03*
D34*
X771466Y256059D02*
D03*
Y243358D02*
D03*
Y230658D02*
D03*
Y217959D02*
D03*
Y205259D02*
D03*
Y192558D02*
D03*
Y179858D02*
D03*
Y167159D02*
D03*
X677486D02*
D03*
Y179858D02*
D03*
Y192558D02*
D03*
Y205259D02*
D03*
Y217959D02*
D03*
Y230658D02*
D03*
Y243358D02*
D03*
Y256059D02*
D03*
D35*
X536194Y458114D02*
D03*
Y404114D02*
D03*
X548894Y458114D02*
D03*
X523494D02*
D03*
X548894Y404114D02*
D03*
X510794Y458114D02*
D03*
X523494Y404114D02*
D03*
X510794D02*
D03*
D36*
X475520Y341740D02*
D03*
Y336740D02*
D03*
Y331740D02*
D03*
Y326740D02*
D03*
Y321740D02*
D03*
Y316740D02*
D03*
Y301740D02*
D03*
Y296740D02*
D03*
Y291740D02*
D03*
X559120D02*
D03*
Y296740D02*
D03*
Y301740D02*
D03*
Y306740D02*
D03*
Y311740D02*
D03*
Y316740D02*
D03*
Y321740D02*
D03*
Y326740D02*
D03*
Y331740D02*
D03*
Y336740D02*
D03*
X475520Y346740D02*
D03*
Y306740D02*
D03*
X559120Y346740D02*
D03*
X475520Y311740D02*
D03*
X559120Y341740D02*
D03*
D37*
X489820Y277440D02*
D03*
X494820D02*
D03*
X499820D02*
D03*
X504820D02*
D03*
X509820D02*
D03*
X514820D02*
D03*
X519820D02*
D03*
X524820D02*
D03*
X529820D02*
D03*
X534820D02*
D03*
X544820Y361040D02*
D03*
X539820D02*
D03*
X534820D02*
D03*
X529820D02*
D03*
X524820D02*
D03*
X509820D02*
D03*
X504820D02*
D03*
X499820D02*
D03*
X544820Y277440D02*
D03*
X489820Y361040D02*
D03*
X539820Y277440D02*
D03*
X494820Y361040D02*
D03*
X519820D02*
D03*
X514820D02*
D03*
D38*
X432308Y306367D02*
D03*
Y343365D02*
D03*
D39*
X362237Y604774D02*
D03*
X400238D02*
D03*
X362999Y572262D02*
D03*
X401000D02*
D03*
X220781Y336550D02*
D03*
X182780D02*
D03*
X103941Y207500D02*
D03*
X65940D02*
D03*
X639285Y378460D02*
D03*
X601284D02*
D03*
D40*
X437034Y452726D02*
D03*
X456033D02*
D03*
X446533Y474726D02*
D03*
X399325Y452726D02*
D03*
X418324D02*
D03*
X408825Y474726D02*
D03*
X193733Y621280D02*
D03*
X203232Y643280D02*
D03*
X184233D02*
D03*
X156760Y621280D02*
D03*
X147261Y643280D02*
D03*
X166260D02*
D03*
D41*
X303048Y325458D02*
D03*
Y247458D02*
D03*
D42*
X242340Y330060D02*
D03*
X261040D02*
D03*
X242340Y350380D02*
D03*
X261040D02*
D03*
X182780Y366890D02*
D03*
X201480D02*
D03*
X163420Y184450D02*
D03*
X144720D02*
D03*
X163420Y204770D02*
D03*
X144720D02*
D03*
X42600Y280530D02*
D03*
X23900D02*
D03*
X42600Y300850D02*
D03*
X23900D02*
D03*
X42600Y321170D02*
D03*
X23900D02*
D03*
X65940Y231140D02*
D03*
X84640D02*
D03*
X42600Y341490D02*
D03*
X23900D02*
D03*
D43*
X246778Y281940D02*
D03*
X182780D02*
D03*
X129938Y153970D02*
D03*
X65940D02*
D03*
D44*
X287110Y401180D02*
D03*
X310110D02*
D03*
X333110D02*
D03*
X179160Y478650D02*
D03*
X225160D02*
D03*
X202160D02*
D03*
D45*
X310110Y464180D02*
D03*
X202160Y541650D02*
D03*
D46*
X87440Y349110D02*
D03*
Y323710D02*
D03*
X136540Y311010D02*
D03*
Y323710D02*
D03*
Y336410D02*
D03*
Y349110D02*
D03*
X87440Y336410D02*
D03*
Y311010D02*
D03*
D47*
X160250Y397370D02*
D03*
Y416070D02*
D03*
X139930Y397370D02*
D03*
Y416070D02*
D03*
X119610Y397370D02*
D03*
Y416070D02*
D03*
X99290Y397370D02*
D03*
Y416070D02*
D03*
D48*
X96750Y580250D02*
D03*
Y534250D02*
D03*
D49*
X36750Y557250D02*
D03*
D50*
X103100Y620890D02*
D03*
X39400D02*
D03*
D51*
X772604Y773818D02*
D03*
X694604D02*
D03*
Y697618D02*
D03*
X772604D02*
D03*
D52*
X404600Y764530D02*
D03*
Y746730D02*
D03*
D53*
X448818Y649478D02*
D03*
Y636890D02*
D03*
Y687690D02*
D03*
Y611490D02*
D03*
Y674990D02*
D03*
Y713090D02*
D03*
Y624190D02*
D03*
Y700390D02*
D03*
Y725790D02*
D03*
Y662290D02*
D03*
D54*
X571012Y151270D02*
D03*
X560011D02*
D03*
X549010D02*
D03*
X527011D02*
D03*
X505010D02*
D03*
X494011D02*
D03*
X483011D02*
D03*
X538012D02*
D03*
X516010D02*
D03*
D55*
X626511Y47270D02*
D03*
X470511D02*
D03*
D56*
X617511Y142271D02*
D03*
D57*
X470511D02*
D03*
D58*
X395000Y141000D02*
D03*
X350000D02*
D03*
X325000D02*
D03*
X370000D02*
D03*
D59*
X287500Y118500D02*
D03*
X432500D02*
D03*
D60*
X732860Y648050D02*
D03*
X720160D02*
D03*
X707460D02*
D03*
X694760Y575950D02*
D03*
X707460D02*
D03*
X720160D02*
D03*
X732860D02*
D03*
X694760Y648050D02*
D03*
D61*
X123420Y446402D02*
D03*
Y510400D02*
D03*
M02*
