M48
;Layer_Color=9474304
;FILE_FORMAT=4:4
METRIC,LZ
;TYPE=PLATED
T1F00S00C0.3000
T2F00S00C0.4000
T3F00S00C0.5000
T4F00S00C1.0160
T5F00S00C1.2000
T6F00S00C1.3000
T7F00S00C4.1000
;TYPE=NON_PLATED
T8F00S00C1.0000
T9F00S00C1.3000
%
T01
X0054229Y0029337
X0067056Y0029845
X0067183Y0026924
X0069723Y0027178
X0070866Y0026289
X0073279
X00748284Y00256059
Y00243358
X0075438Y0023368
X0073787Y0023495
X0072517
X0070866
X0069596Y002413
X0075565Y0026416
X0078105Y0027178
X00516636Y00261112
X00509778Y00257556
X00499364Y00258064
X00494538Y00263906
X00504698Y00263652
X0048514Y00277622
X00474726
X0049149Y002921
X0049276Y0030353
X00508
X0052324
X0053721
X00536956Y0032512
X00489204Y00316738
X0045212Y0025273
X0044704Y0019177
X0046355Y0019304
Y0017907
Y0016256
X0045974Y0014097
X0044831Y0013208
X0045466Y0010541
X0047625Y0010795
X0049022Y0012192
X0049911Y00136144
X00509778Y00127
X00516611Y00117045
X00504952Y00164846
X00493776Y001651
X0042545Y0019177
X0040513Y0019304
X0037973
X0038227Y0018161
X0038354Y0013335
X0041021Y0013208
X0040132Y0010668
X00370332Y00115824
X0035433Y0010795
X00350266Y00121666
X0033401Y0011938
X0032258Y0019431
Y0020193
X003048
Y0019304
X0028448Y0019177
Y0020193
X0026416
Y001905
X0018415Y0022479
X0016891Y0024892
X0016129Y0026289
X0015875Y0031101
X0016764Y0032385
X002159Y0032258
X0022733
X00322072Y002794
X0017018Y0015367
X0016129Y0014097
Y0012446
X0017018Y0012954
X0015113Y0012827
X001397Y0011811
X0011811Y0011176
X0010033
X0006604
Y0030353
X0006477Y0031496
X0008636Y0030226
X0010668
X0010414Y0031115
X0010287Y0035433
X0005715Y0035179
X0005588Y0033274
X0006477Y0033147
X0010922Y0054737
Y0059436
X0012954Y0059563
X0012827Y005842
X0013335Y0060833
Y0063373
Y0064516
X0012446Y0065024
X0015748Y0063246
X0016626Y0063253
X0017653Y0064262
X0019177
Y0065024
X0021209Y006477
X0021463Y0066421
X0022987Y00635
X0023114Y0062865
X002413
X0024892
X0025273Y0064643
X0026035
X0024511
X0025908Y0066548
X00267208Y00665226
X0027686Y006604
X00274066Y00650494
X0028321Y0064897
X0030607Y0062611
X0032131Y0062484
X003302Y0061849
X003429Y0061595
X0033655Y0058674
X0032893Y0065786
Y0067437
Y0068707
X0035687Y0068453
Y0070104
X003556Y0072009
X0035687Y0066548
Y0065405
X0026543Y0068834
X0025146
X0023495
X0018034Y0069342
X0017018Y0068961
X0015748Y0068834
X0016129Y006096
X0017653Y0060833
X0018161Y0062357
X0020574Y006096
X0020701Y0059563
X0019177Y0059055
X0014478Y0060706
X0014605Y0061468
X0025273Y0059563
X0027559Y004064
Y0040005
Y0039116
Y0037973
X0023114Y0034925
X0022352Y0035306
X0021336
X0016764
X00151384Y0034911
X0016764Y0038227
X0034163Y0036322
X0036957Y0039751
X00417576Y00427482
X00466852Y00437388
X0050673Y0042926
X0052578Y0044323
X0049784Y0039751
X00504698Y00348742
X00513588Y00342138
X005207
X005334Y00341122
X00536702Y00333756
X00527304Y00328422
X00529844Y00348742
X00540004
X00534924Y00373126
X0049149Y0034544
X004925Y00335
X0042164Y0035814
X00446532Y00466852
X00399542Y00474726
X0057531Y0044704
Y0043688
X00545592Y00373634
X0056134Y003556
X00546354Y0033909
X00615188Y00342392
X00622167Y00346384
X0062865Y00351282
X00633971Y00355245
X00639064Y00360426
X00644398Y00354838
X00650206Y0035668
X006675Y003525
X00660654Y0042672
X007112Y0042418
X00804926Y0042672
X0079883Y0054991
X0078105Y005461
X0078232Y0056261
Y0057658
X008001Y0059182
Y0060325
Y0061722
X0073025Y0059436
X007112Y0059563
X00699262Y00592328
X00699516Y00607822
X0069469Y0062738
X0070485Y00627888
X00666242Y00634238
X0066929Y00655066
X00661924Y00668782
X00651764Y00675132
X00655066Y00687832
X0067056Y00697484
X0066548Y0070612
X00681482Y0070485
X0067056Y0072136
X00676402Y00680466
X0068358Y00663514
X0070866Y0070866
X0067691Y0059436
X00663448Y0060579
X00670814Y0056261
X00689356Y00576072
X0071374Y00562102
X00744474Y0056388
Y0057277
X00756412Y00562864
X0085344Y0054864
X00623062Y0063689
X0061595Y0064959
X0055118Y0058039
X0065532Y0072517
Y0073787
X0067056
X0066929Y0075438
Y0077343
X0065532
X00654304Y00763524
X0069469Y00762508
X0070993Y0076073
X00481076Y00751078
T02
X005603Y000151
X005857
X006111
X006365
X006619
X006873
X007127
X007381
X007635
X007889
X008016Y000405
X007762
X007508
X007254
X007
X006746
X006492
X006365Y000659
X006111
X005857
X005603
X00573Y000405
X005984
X005476
X0055372Y0018288
Y0019304
X0057785Y0022479
X005969
X0058801Y0023622
X0056896
X0057023Y0026416
X0058674
X0060706
X0061468Y0028067
X0059563Y0027813
X0057531
X005588
X0060833Y0023622
X0070866Y0030861
X0073279Y0030988
X0075565Y0031115
X0078359Y0031242
X008128Y0031115
X0083439
X007889Y000659
X007635
X007381
X007127
X005349
X005095
X004841
X004587
X004333
X004079
X003825
X003571
X003317
X003063
X00319Y000405
X003444
X003698
X003952
X004206
X00446
X004587Y000151
X004841
X005095
X005349
X005222Y000405
X004968
X004333Y000151
X004079
X003825
X003571
X003317
X003063
X0029718Y0023368
X0031623
X0027686
Y0025273
Y0027051
Y0028956
Y0030734
X0029718Y0029083
X0029591Y0027178
X0031242
X0037465Y0026289
Y0024765
X003937
Y0026289
X0041148
Y0024765
X0042672
Y0026289
X0042164Y002286
X0040513
X0038608
X0037338Y0028575
Y0029845
Y0031242
X0050419Y0032258
X0052705Y0023622
Y0022352
X0045593Y0022606
X0013462Y002286
Y002413
X0012192Y0021336
Y0019939
X000889
Y0021209
X0001016Y0020955
Y0019431
Y001778
Y0016256
Y001397
Y0012192
Y0010414
Y0008763
X0001143Y0006477
X0001016Y0022606
Y0024384
Y0025781
X0001143Y0037465
X0002413
X0003683Y0037973
Y0039243
Y0040513
Y0041783
X0002286
X0000889
X0001397Y0045085
Y0046355
X000127Y0047498
X000254
X000381
X000508
X000635
X0007747Y0042926
Y0041021
X000762Y0037973
Y0036449
X0009144Y0037973
X0010414
X0010541Y0033909
X0011811Y003302
Y0034925
X0009779Y0042926
X0010287Y0056134
X0009017
X0006096Y0065913
X0006223Y0067183
Y0068453
X0008001
X0009271Y0070231
X0010541Y0071755
X001397Y006985
X0013081Y0068707
X0012954Y0066929
X0016256Y0057785
Y0056642
Y0055245
Y005334
X0016637Y005207
X0018161
X0016637Y0050165
Y0047752
X0018288Y0044577
Y0043434
X0020193Y0043307
Y0044577
X0028575Y0044704
Y0043561
X0033147
Y0044704
X0032385Y0048514
Y0050038
X0030734
Y0048514
X0034417Y0050038
X0036576
X0036703Y0048514
X0038481
X0038354Y0050038
Y0043815
Y0042545
X0038481Y0041021
Y0039751
X0040513
Y0041021
X0042037
Y0039751
X0045085Y0039878
Y0041275
X0051562Y0042418
X004953Y0044958
Y0046863
Y0048641
Y0050165
X0047244
Y0048514
Y0046736
X0047879Y0058039
X0045466
X00487172Y00622046
X0050546Y0064008
X0052959
X0050673Y0068072
X0049022
X0039751
Y0066548
Y0064897
X0039878Y0062865
X0039751Y0069596
Y007112
X0031115Y0070739
X0028956
X0026797
X0028702Y0065786
X0029845
X0031496Y0065913
X0029845Y0060452
X0028575
X0023368Y0059563
X0021844
Y0060833
X0023876Y0056134
Y0054737
X00254
Y0056134
Y0052324
X0023876
X0022479
Y0051054
X0020574Y003429
Y0032893
X0037338Y0032766
Y0034163
Y0035687
Y0037211
X0050419Y0033655
X0053467Y0058039
X0056769
X0056896Y0051181
X005842
Y0050165
X0060071Y0050292
X00600419Y00516404
X0055245Y0051181
X0055118Y0064008
X0057912
X0060071
X0061849Y0066421
X00595884Y00684276
X00585216
X0061087Y0071374
X00659892Y00653542
Y00644144
X0065913Y0059055
Y0057404
X0063373
Y0059055
X0071247Y0062103
X0072771
X0074295Y0065151
X0073406Y0068326
Y006985
Y007112
X0075438
Y006985
Y0068326
X0071374
X0082423Y0067691
Y0066548
X0084582
Y0067691
X008636
Y0066548
Y0065278
Y0063881
Y0069596
X0084582
X0082423
X00889Y0053213
Y0050927
Y0048387
Y0046355
Y0044577
X0085471Y0045339
X0083058
X0080645
X0078994
X0076454Y0045466
Y0047117
X0077216Y0048641
X0075565
X0072898Y0046863
X0071374
Y0045212
X0069723Y0046863
X0067945
X0066294
Y0048641
X0068453
X0069215Y0040767
Y0039243
X0067437
Y0040767
X0067564Y0032639
X0069469
X0072009Y0032766
X0074422
X0076708
X0079502
X0082423
X0077597Y0034671
X0075565
X0073152
X007112
X00762Y0038608
Y0040132
Y0041529
X0083566Y0041402
X0058039Y0037719
X0056515Y0073279
Y007493
X0056388Y0077851
X0059182
X0061722
X0060325Y007493
X0065405Y0079121
X0068326
X0070739
X0072898
X0074803
X0077089
X0078867
X0081026
X0083693
Y007747
Y0075438
X0084963Y0074168
X0086741
X0088773
X0053467Y007493
Y0073279
X0050546Y0073152
Y007493
X0051308Y0077851
X0053594
X0048768
X0045593Y0079248
X0034163Y0078994
X0031369
X0029083
X0026797
X002413
X0021336
X0018669
X0014859
X0014605Y0075946
Y0074295
Y0073025
X0026797Y007239
X002667Y0074168
Y0075946
X0032131Y0075565
Y0072644
X0039751
X0010541Y0073025
Y0074549
Y0075946
X0009906Y0078994
X000762
X0005715
X0012573
T03
X00032766Y00188976
Y00199136
X00121158Y00376428
X00225298Y00493014
X0029083Y00561594
X00346456Y00572008
T04
X00874268Y0030988
X0035052Y0017526
X0032512
X0029972
X0006068Y0039624
X0002358
X00042418Y00461248
Y00498348
X0003001Y0067544
X0008001Y0066294
X00427228Y0067183
Y0064643
Y0062103
Y0059563
Y0057023
Y0069723
Y0072263
X0059563Y00484124
Y00458724
Y00433324
Y00407924
X00796798Y00357632
X00822198
X00874268Y0033528
Y00386592
Y00411992
X0086868Y00474472
X0084328
X0081788
X0079248
T05
X001875Y00055
X002383
X001367
X000859
X0019Y00745
X002408
X002916
X003424
X00127
X000762
T06
X008375Y00645
Y0072
T07
X00875Y00025
X00025
X00875Y00775
X00025
T08
X0072128Y0007874
T09
X0079628Y0007874
X00385Y001025
X00335
M30
