G04*
G04 #@! TF.GenerationSoftware,Altium Limited,Altium Designer,23.0.1 (38)*
G04*
G04 Layer_Physical_Order=2*
G04 Layer_Color=16711680*
%FSLAX44Y44*%
%MOMM*%
G71*
G04*
G04 #@! TF.SameCoordinates,6FF5410F-6566-4CAA-8283-5BB090145FDD*
G04*
G04*
G04 #@! TF.FilePolarity,Positive*
G04*
G01*
G75*
%ADD10C,0.2540*%
%ADD11C,0.2000*%
%ADD20C,0.3000*%
%ADD22C,1.0000*%
%ADD53C,0.8000*%
%ADD112C,1.0000*%
%ADD113C,0.5000*%
%ADD115C,0.8000*%
%ADD117C,1.3000*%
%ADD118O,2.5000X3.5000*%
%ADD119O,1.5000X2.5000*%
%ADD120O,2.5000X1.5000*%
%ADD121O,3.0000X1.8000*%
%ADD122C,0.5000*%
%ADD123C,0.4000*%
%ADD124C,0.6000*%
%ADD125C,4.1000*%
G36*
X852752Y778483D02*
X852500Y777216D01*
Y772784D01*
X852752Y771517D01*
Y752500D01*
X896941D01*
X896941Y47500D01*
X851425D01*
Y3059D01*
X47752Y3059D01*
Y47500D01*
X3059D01*
X3059Y752500D01*
X47752D01*
Y796941D01*
X460291Y796941D01*
Y788386D01*
X460446Y787606D01*
X460888Y786944D01*
X461550Y786502D01*
X462330Y786347D01*
X462752D01*
Y785000D01*
X642752D01*
Y786431D01*
X643110Y786502D01*
X643772Y786944D01*
X644214Y787606D01*
X644369Y788386D01*
Y796941D01*
X852752Y796941D01*
Y778483D01*
D02*
G37*
%LPC*%
G36*
X342400Y764625D02*
X338615Y764127D01*
X335087Y762666D01*
X332058Y760341D01*
X329734Y757313D01*
X328273Y753785D01*
X327775Y750000D01*
Y740000D01*
X328273Y736215D01*
X329734Y732688D01*
X332058Y729659D01*
X335087Y727334D01*
X338615Y725873D01*
X342400Y725375D01*
X346185Y725873D01*
X349713Y727334D01*
X352742Y729659D01*
X355066Y732688D01*
X356527Y736215D01*
X357025Y740000D01*
Y750000D01*
X356527Y753785D01*
X355066Y757313D01*
X352742Y760341D01*
X349713Y762666D01*
X346185Y764127D01*
X342400Y764625D01*
D02*
G37*
G36*
X240800D02*
X237015Y764127D01*
X233487Y762666D01*
X230459Y760341D01*
X228134Y757313D01*
X226673Y753785D01*
X226175Y750000D01*
Y740000D01*
X226673Y736215D01*
X228134Y732688D01*
X230459Y729659D01*
X233487Y727334D01*
X237015Y725873D01*
X240800Y725375D01*
X244585Y725873D01*
X248113Y727334D01*
X251141Y729659D01*
X253466Y732688D01*
X254927Y736215D01*
X255425Y740000D01*
Y750000D01*
X254927Y753785D01*
X253466Y757313D01*
X251141Y760341D01*
X248113Y762666D01*
X244585Y764127D01*
X240800Y764625D01*
D02*
G37*
G36*
X190000D02*
X186215Y764127D01*
X182687Y762666D01*
X179659Y760341D01*
X177334Y757313D01*
X175873Y753785D01*
X175375Y750000D01*
Y740000D01*
X175873Y736215D01*
X177334Y732688D01*
X179659Y729659D01*
X182687Y727334D01*
X186215Y725873D01*
X190000Y725375D01*
X193785Y725873D01*
X197313Y727334D01*
X200341Y729659D01*
X202666Y732688D01*
X204127Y736215D01*
X204625Y740000D01*
Y750000D01*
X204127Y753785D01*
X202666Y757313D01*
X200341Y760341D01*
X197313Y762666D01*
X193785Y764127D01*
X190000Y764625D01*
D02*
G37*
G36*
X76200D02*
X72415Y764127D01*
X68887Y762666D01*
X65858Y760341D01*
X63534Y757313D01*
X62073Y753785D01*
X61575Y750000D01*
Y740000D01*
X62073Y736215D01*
X63534Y732688D01*
X65858Y729659D01*
X68887Y727334D01*
X72415Y725873D01*
X76200Y725375D01*
X79985Y725873D01*
X83513Y727334D01*
X86542Y729659D01*
X88866Y732688D01*
X90327Y736215D01*
X90825Y740000D01*
Y750000D01*
X90327Y753785D01*
X88866Y757313D01*
X86542Y760341D01*
X83513Y762666D01*
X79985Y764127D01*
X76200Y764625D01*
D02*
G37*
G36*
X843500Y731095D02*
X831500D01*
X828628Y730717D01*
X825953Y729609D01*
X823655Y727845D01*
X821891Y725547D01*
X820783Y722872D01*
X820405Y720000D01*
X820783Y717128D01*
X821891Y714453D01*
X823655Y712155D01*
X825953Y710391D01*
X828628Y709283D01*
X831500Y708905D01*
X843500D01*
X846372Y709283D01*
X849047Y710391D01*
X851345Y712155D01*
X853109Y714453D01*
X854217Y717128D01*
X854595Y720000D01*
X854217Y722872D01*
X853109Y725547D01*
X851345Y727845D01*
X849047Y729609D01*
X846372Y730717D01*
X843500Y731095D01*
D02*
G37*
G36*
X481971Y755578D02*
X480181D01*
X478527Y754893D01*
X477261Y753627D01*
X476576Y751973D01*
Y750183D01*
X477261Y748529D01*
X478527Y747263D01*
X480181Y746578D01*
X481971D01*
X483537Y747227D01*
X485723D01*
X488175Y744774D01*
Y700799D01*
X441033D01*
X440526Y702021D01*
X439003Y704005D01*
X437019Y705528D01*
X434708Y706486D01*
X432228Y706812D01*
X422228D01*
X419748Y706486D01*
X417437Y705528D01*
X415452Y704005D01*
X413930Y702021D01*
X412972Y699710D01*
X412646Y697230D01*
X412972Y694750D01*
X413930Y692439D01*
X415452Y690454D01*
X417437Y688932D01*
X419748Y687974D01*
X422228Y687648D01*
X432228D01*
X434708Y687974D01*
X437019Y688932D01*
X439003Y690454D01*
X440526Y692439D01*
X441033Y693661D01*
X668029D01*
X669665Y692984D01*
X671455D01*
X673109Y693669D01*
X674375Y694935D01*
X675060Y696589D01*
Y698379D01*
X674375Y700033D01*
X673109Y701299D01*
X671455Y701984D01*
X669665D01*
X668011Y701299D01*
X667511Y700799D01*
X495313D01*
Y746252D01*
X495041Y747618D01*
X494267Y748775D01*
X489724Y753319D01*
X488566Y754092D01*
X487201Y754364D01*
X484154D01*
X483625Y754893D01*
X481971Y755578D01*
D02*
G37*
G36*
X597077Y690276D02*
X594691D01*
X592485Y689363D01*
X591380Y688257D01*
X590550Y687809D01*
X589720Y688257D01*
X588615Y689363D01*
X586409Y690276D01*
X584022D01*
X581817Y689363D01*
X580129Y687675D01*
X579216Y685470D01*
Y683083D01*
X580129Y680877D01*
X581817Y679189D01*
X584022Y678276D01*
X585184D01*
Y670417D01*
X579517Y664750D01*
X444357D01*
X440978Y668129D01*
X441483Y669350D01*
X441810Y671830D01*
X441483Y674310D01*
X440526Y676621D01*
X439003Y678605D01*
X437019Y680128D01*
X434708Y681086D01*
X432228Y681412D01*
X422228D01*
X419748Y681086D01*
X417437Y680128D01*
X415452Y678605D01*
X413930Y676621D01*
X412972Y674310D01*
X412646Y671830D01*
X412972Y669350D01*
X413930Y667039D01*
X415452Y665054D01*
X417437Y663532D01*
X419748Y662574D01*
X422228Y662248D01*
X432228D01*
X434708Y662574D01*
X436401Y663276D01*
X439817Y659860D01*
X440570Y659003D01*
X439817Y658146D01*
X436581Y654910D01*
X434708Y655686D01*
X432228Y656012D01*
X422228D01*
X419748Y655686D01*
X417437Y654728D01*
X415452Y653205D01*
X413930Y651221D01*
X412972Y648910D01*
X412646Y646430D01*
X412972Y643950D01*
X413930Y641639D01*
X415452Y639655D01*
X417437Y638132D01*
X419748Y637174D01*
X422228Y636848D01*
X432228D01*
X434708Y637174D01*
X437019Y638132D01*
X439003Y639655D01*
X440526Y641639D01*
X441483Y643950D01*
X441810Y646430D01*
X441483Y648910D01*
X441052Y649951D01*
X444357Y653256D01*
X582930D01*
X584206Y653510D01*
X585288Y654232D01*
X595448Y664392D01*
X596170Y665474D01*
X596424Y666750D01*
Y678276D01*
X597077D01*
X599283Y679189D01*
X600971Y680877D01*
X601884Y683083D01*
Y685470D01*
X600971Y687675D01*
X599283Y689363D01*
X597077Y690276D01*
D02*
G37*
G36*
X655199Y768024D02*
X653409D01*
X651755Y767339D01*
X650489Y766073D01*
X649804Y764419D01*
Y762629D01*
X650489Y760975D01*
X651755Y759709D01*
X653409Y759024D01*
X655199D01*
X656853Y759709D01*
X657609Y760465D01*
X681485D01*
X686043Y755907D01*
Y686345D01*
X684773Y685819D01*
X680597Y689995D01*
X679605Y690658D01*
X678434Y690891D01*
X678434Y690891D01*
X658371D01*
X657615Y691647D01*
X655961Y692332D01*
X654171D01*
X652517Y691647D01*
X651251Y690381D01*
X650566Y688727D01*
Y686937D01*
X651251Y685283D01*
X652517Y684017D01*
X654171Y683332D01*
X655961D01*
X657615Y684017D01*
X658371Y684773D01*
X677167D01*
X680521Y681419D01*
Y673349D01*
X679251Y672964D01*
X679073Y673231D01*
X675009Y677295D01*
X674016Y677958D01*
X672846Y678191D01*
X672846Y678191D01*
X655069D01*
X654313Y678947D01*
X652659Y679632D01*
X650869D01*
X649215Y678947D01*
X647949Y677681D01*
X647264Y676027D01*
Y674237D01*
X647949Y672583D01*
X649215Y671317D01*
X650869Y670632D01*
X652659D01*
X654313Y671317D01*
X655069Y672073D01*
X671579D01*
X673851Y669801D01*
Y597665D01*
X673095Y596909D01*
X672410Y595255D01*
Y593465D01*
X673095Y591811D01*
X674361Y590545D01*
X676015Y589860D01*
X677805D01*
X679459Y590545D01*
X680725Y591811D01*
X681410Y593465D01*
Y595255D01*
X680725Y596909D01*
X679969Y597665D01*
Y659102D01*
X681239Y659613D01*
X682685Y659014D01*
X684475D01*
X684987Y659226D01*
X686043Y658521D01*
Y579123D01*
X685541Y578621D01*
X684856Y576967D01*
Y575177D01*
X685541Y573523D01*
X686807Y572257D01*
X688461Y571572D01*
X690251D01*
X691905Y572257D01*
X693171Y573523D01*
X693856Y575177D01*
Y576967D01*
X693171Y578621D01*
X692161Y579631D01*
Y622414D01*
X693217Y623120D01*
X693795Y622880D01*
X695585D01*
X697239Y623565D01*
X698505Y624831D01*
X699190Y626485D01*
Y628275D01*
X698505Y629929D01*
X698259Y630175D01*
Y759713D01*
X698505Y759959D01*
X699190Y761613D01*
Y763403D01*
X698505Y765057D01*
X697239Y766323D01*
X695585Y767008D01*
X693795D01*
X692141Y766323D01*
X690875Y765057D01*
X690190Y763403D01*
Y762208D01*
X688920Y761682D01*
X684915Y765687D01*
X683923Y766350D01*
X682752Y766583D01*
X682752Y766583D01*
X657609D01*
X656853Y767339D01*
X655199Y768024D01*
D02*
G37*
G36*
X30010Y690022D02*
X27530Y689696D01*
X25219Y688738D01*
X23235Y687215D01*
X21712Y685231D01*
X20754Y682920D01*
X20428Y680440D01*
Y670440D01*
X20754Y667960D01*
X21712Y665649D01*
X23235Y663664D01*
X25219Y662142D01*
X27530Y661184D01*
X30010Y660858D01*
X32490Y661184D01*
X34801Y662142D01*
X36785Y663664D01*
X38308Y665649D01*
X39265Y667960D01*
X39592Y670440D01*
Y680440D01*
X39265Y682920D01*
X38308Y685231D01*
X36785Y687215D01*
X34801Y688738D01*
X32490Y689696D01*
X30010Y690022D01*
D02*
G37*
G36*
X843500Y656095D02*
X831500D01*
X828628Y655717D01*
X825953Y654609D01*
X823655Y652845D01*
X821891Y650547D01*
X820783Y647872D01*
X820405Y645000D01*
X820783Y642128D01*
X821891Y639453D01*
X823655Y637155D01*
X825953Y635392D01*
X828628Y634283D01*
X831500Y633905D01*
X843500D01*
X846372Y634283D01*
X849047Y635392D01*
X851345Y637155D01*
X853109Y639453D01*
X854217Y642128D01*
X854595Y645000D01*
X854217Y647872D01*
X853109Y650547D01*
X851345Y652845D01*
X849047Y654609D01*
X846372Y655717D01*
X843500Y656095D01*
D02*
G37*
G36*
X432228Y630612D02*
X422228D01*
X419748Y630285D01*
X417437Y629328D01*
X415452Y627805D01*
X413930Y625821D01*
X412972Y623510D01*
X412646Y621030D01*
X412972Y618550D01*
X413930Y616239D01*
X415452Y614254D01*
X417437Y612732D01*
X419748Y611774D01*
X422228Y611448D01*
X432228D01*
X434708Y611774D01*
X437019Y612732D01*
X439003Y614254D01*
X440526Y616239D01*
X441453Y618477D01*
X482255D01*
X483773Y616959D01*
X485979Y616046D01*
X488366D01*
X490571Y616959D01*
X492259Y618647D01*
X493172Y620853D01*
Y623240D01*
X492259Y625445D01*
X490571Y627133D01*
X488366Y628046D01*
X485979D01*
X483773Y627133D01*
X482255Y625615D01*
X440612D01*
X440526Y625821D01*
X439003Y627805D01*
X437019Y629328D01*
X434708Y630285D01*
X432228Y630612D01*
D02*
G37*
G36*
Y605212D02*
X422228D01*
X419748Y604885D01*
X417437Y603928D01*
X415452Y602405D01*
X413930Y600421D01*
X412972Y598110D01*
X412646Y595630D01*
X412972Y593150D01*
X413930Y590839D01*
X415452Y588854D01*
X417437Y587332D01*
X419748Y586375D01*
X422228Y586048D01*
X432228D01*
X434708Y586375D01*
X437019Y587332D01*
X439003Y588854D01*
X440526Y590839D01*
X441483Y593150D01*
X441810Y595630D01*
X441483Y598110D01*
X440526Y600421D01*
X439003Y602405D01*
X437019Y603928D01*
X434708Y604885D01*
X432228Y605212D01*
D02*
G37*
G36*
X347378Y579008D02*
X345534D01*
X343754Y578531D01*
X343052Y578125D01*
X333502D01*
X331161Y577660D01*
X329176Y576334D01*
X320554Y567711D01*
X294234D01*
X293532Y568117D01*
X291752Y568594D01*
X289908D01*
X288128Y568117D01*
X286532Y567195D01*
X285229Y565892D01*
X284307Y564296D01*
X283830Y562516D01*
Y560672D01*
X284307Y558892D01*
X285229Y557296D01*
X286532Y555993D01*
X288128Y555071D01*
X289908Y554594D01*
X291752D01*
X293532Y555071D01*
X294234Y555476D01*
X323088D01*
X325429Y555942D01*
X327414Y557268D01*
X336036Y565891D01*
X343052D01*
X343754Y565485D01*
X345534Y565008D01*
X347378D01*
X349158Y565485D01*
X350754Y566407D01*
X352057Y567710D01*
X352979Y569306D01*
X353456Y571086D01*
Y572930D01*
X352979Y574710D01*
X352057Y576306D01*
X350754Y577609D01*
X349158Y578531D01*
X347378Y579008D01*
D02*
G37*
G36*
X432228Y579812D02*
X422228D01*
X419748Y579486D01*
X417437Y578528D01*
X415452Y577005D01*
X413930Y575021D01*
X412972Y572710D01*
X412646Y570230D01*
X412972Y567750D01*
X413930Y565439D01*
X415452Y563455D01*
X417437Y561932D01*
X419748Y560975D01*
X422228Y560648D01*
X432228D01*
X434708Y560975D01*
X437019Y561932D01*
X439003Y563455D01*
X440526Y565439D01*
X441483Y567750D01*
X441810Y570230D01*
X441483Y572710D01*
X440526Y575021D01*
X439003Y577005D01*
X437019Y578528D01*
X434708Y579486D01*
X432228Y579812D01*
D02*
G37*
G36*
X47418Y507930D02*
X37418D01*
X34938Y507603D01*
X32627Y506646D01*
X30642Y505123D01*
X29120Y503139D01*
X28163Y500828D01*
X27836Y498348D01*
X28163Y495868D01*
X29120Y493557D01*
X30642Y491572D01*
X32627Y490050D01*
X34938Y489092D01*
X37418Y488766D01*
X47418D01*
X49898Y489092D01*
X52209Y490050D01*
X54194Y491572D01*
X55716Y493557D01*
X56673Y495868D01*
X57000Y498348D01*
X56673Y500828D01*
X55716Y503139D01*
X54194Y505123D01*
X52209Y506646D01*
X49898Y507603D01*
X47418Y507930D01*
D02*
G37*
G36*
X268103Y669726D02*
X266313D01*
X264659Y669041D01*
X263393Y667775D01*
X262708Y666121D01*
Y664331D01*
X263393Y662677D01*
X263874Y662196D01*
Y530352D01*
X264128Y529076D01*
X264851Y527994D01*
X281360Y511484D01*
X282442Y510762D01*
X283718Y510508D01*
X526177D01*
X531590Y505095D01*
Y431467D01*
X530417Y430981D01*
X521847Y439551D01*
X520855Y440214D01*
X519684Y440447D01*
X519684Y440447D01*
X470157D01*
X469401Y441203D01*
X467747Y441888D01*
X465957D01*
X464303Y441203D01*
X463037Y439937D01*
X462352Y438283D01*
Y436493D01*
X463037Y434839D01*
X464303Y433573D01*
X465957Y432888D01*
X467747D01*
X469401Y433573D01*
X470157Y434329D01*
X518417D01*
X526785Y425961D01*
Y352047D01*
X526029Y351291D01*
X525344Y349637D01*
Y347847D01*
X526029Y346193D01*
X527295Y344927D01*
X528949Y344242D01*
X530739D01*
X532393Y344927D01*
X533659Y346193D01*
X534289Y347714D01*
X534924Y347784D01*
X535559Y347714D01*
X536189Y346193D01*
X537455Y344927D01*
X539109Y344242D01*
X540899D01*
X542025Y344709D01*
X543295Y344010D01*
Y342395D01*
X542539Y341639D01*
X541854Y339985D01*
Y338195D01*
X542539Y336541D01*
X543011Y336069D01*
X542485Y334799D01*
X541141D01*
X540517Y336305D01*
X539251Y337571D01*
X537597Y338256D01*
X535807D01*
X534153Y337571D01*
X532887Y336305D01*
X532202Y334651D01*
Y332861D01*
X532887Y331207D01*
X533967Y330127D01*
X534136Y329668D01*
X534072Y328600D01*
X533141Y327669D01*
X532456Y326015D01*
Y324225D01*
X533141Y322571D01*
X534391Y321321D01*
X534390Y321231D01*
X534117Y320051D01*
X526793D01*
X522615Y324229D01*
Y335409D01*
X522863Y335657D01*
X522863Y335657D01*
X523526Y336650D01*
X523759Y337820D01*
X523759Y337820D01*
Y339540D01*
X524091Y339872D01*
X524700Y341342D01*
Y342934D01*
X524091Y344404D01*
X522966Y345529D01*
X521496Y346138D01*
X519904D01*
X518434Y345529D01*
X517974Y345069D01*
X517144Y344514D01*
X516314Y345069D01*
X515854Y345529D01*
X514384Y346138D01*
X512792D01*
X511322Y345529D01*
X510197Y344404D01*
X509588Y342934D01*
Y341342D01*
X510197Y339872D01*
X510529Y339540D01*
Y337884D01*
X510529Y337883D01*
X510762Y336713D01*
X511425Y335721D01*
X512380Y334766D01*
Y321237D01*
X512380Y321237D01*
X512613Y320067D01*
X513276Y319074D01*
X521839Y310511D01*
X521839Y310511D01*
X522831Y309848D01*
X524002Y309615D01*
X524002Y309615D01*
X672341D01*
X679439Y302517D01*
Y267716D01*
X679439Y267716D01*
X679672Y266546D01*
X680335Y265553D01*
X700401Y245487D01*
X700401Y245487D01*
X701394Y244824D01*
X702564Y244591D01*
X702564Y244591D01*
X742726D01*
X743784Y243533D01*
Y242463D01*
X744469Y240809D01*
X745735Y239544D01*
X747389Y238859D01*
X749179D01*
X750833Y239544D01*
X752099Y240809D01*
X752784Y242463D01*
Y244254D01*
X752099Y245907D01*
X750833Y247173D01*
X749179Y247859D01*
X748110D01*
X746617Y249351D01*
X746637Y249551D01*
X748644Y251558D01*
X749179D01*
X750833Y252244D01*
X752099Y253509D01*
X752784Y255163D01*
Y256954D01*
X752099Y258608D01*
X750833Y259873D01*
X749179Y260558D01*
X747389D01*
X745735Y259873D01*
X744469Y258608D01*
X743784Y256954D01*
Y255350D01*
X743207Y254773D01*
X706371D01*
X689621Y271523D01*
Y305816D01*
X689621Y305816D01*
X689388Y306987D01*
X688725Y307979D01*
X677549Y319155D01*
X676556Y319818D01*
X675386Y320051D01*
X675386Y320051D01*
X539795D01*
X539522Y321231D01*
X539521Y321321D01*
X540771Y322571D01*
X541225Y323667D01*
X659226D01*
X659226Y323667D01*
X660397Y323900D01*
X661389Y324563D01*
X669663Y332837D01*
X669663Y332837D01*
X670326Y333829D01*
X670559Y335000D01*
X670559Y335000D01*
Y349195D01*
X671315Y349951D01*
X672000Y351605D01*
Y353395D01*
X671315Y355049D01*
X670049Y356315D01*
X668395Y357000D01*
X666605D01*
X664951Y356315D01*
X664886Y356250D01*
X663713Y356736D01*
Y423415D01*
X664469Y424171D01*
X665154Y425825D01*
Y427615D01*
X664469Y429269D01*
X663203Y430535D01*
X661549Y431220D01*
X659759D01*
X658105Y430535D01*
X656839Y429269D01*
X656154Y427615D01*
Y425825D01*
X656839Y424171D01*
X657595Y423415D01*
Y340103D01*
X652291Y334799D01*
X550223D01*
X549697Y336069D01*
X550169Y336541D01*
X550854Y338195D01*
Y339985D01*
X550169Y341639D01*
X549413Y342395D01*
Y348237D01*
X554105Y352929D01*
X554768Y353922D01*
X555001Y355092D01*
X555001Y355092D01*
Y447551D01*
X563115Y455665D01*
X581614D01*
X582332Y453933D01*
X583854Y451949D01*
X585839Y450426D01*
X588150Y449468D01*
X590630Y449142D01*
X600630D01*
X603110Y449468D01*
X605421Y450426D01*
X607406Y451949D01*
X608928Y453933D01*
X609885Y456244D01*
X610212Y458724D01*
X609885Y461204D01*
X608928Y463515D01*
X607406Y465499D01*
X605421Y467022D01*
X603110Y467980D01*
X600630Y468306D01*
X590630D01*
X588150Y467980D01*
X585839Y467022D01*
X583854Y465499D01*
X582332Y463515D01*
X581614Y461783D01*
X561848D01*
X560677Y461550D01*
X559685Y460887D01*
X559685Y460887D01*
X549921Y451123D01*
X549338Y451214D01*
X548651Y451578D01*
Y469141D01*
X560575Y481065D01*
X581614D01*
X582332Y479333D01*
X583854Y477349D01*
X585839Y475826D01*
X588150Y474869D01*
X590630Y474542D01*
X600630D01*
X603110Y474869D01*
X605421Y475826D01*
X607406Y477349D01*
X608928Y479333D01*
X609885Y481644D01*
X610212Y484124D01*
X609885Y486604D01*
X608928Y488915D01*
X607406Y490899D01*
X605421Y492422D01*
X603110Y493380D01*
X600630Y493706D01*
X590630D01*
X588150Y493380D01*
X585839Y492422D01*
X583854Y490899D01*
X582332Y488915D01*
X581614Y487183D01*
X559308D01*
X558138Y486950D01*
X557145Y486287D01*
X557145Y486287D01*
X544333Y473475D01*
X543063Y474001D01*
Y508762D01*
X543063Y508762D01*
X542830Y509933D01*
X542167Y510925D01*
X542167Y510925D01*
X532515Y520577D01*
X531523Y521240D01*
X530352Y521473D01*
X530352Y521473D01*
X287779D01*
X277125Y532127D01*
Y647189D01*
X277881Y647945D01*
X278566Y649599D01*
Y651389D01*
X277881Y653043D01*
X276615Y654309D01*
X274961Y654994D01*
X273171D01*
X271812Y654431D01*
X270542Y654993D01*
Y662196D01*
X271023Y662677D01*
X271708Y664331D01*
Y666121D01*
X271023Y667775D01*
X269757Y669041D01*
X268103Y669726D01*
D02*
G37*
G36*
X400537Y479726D02*
X398547D01*
X396710Y478965D01*
X396040Y478295D01*
X377444D01*
X376078Y478023D01*
X374921Y477249D01*
X364507Y466835D01*
X363733Y465678D01*
X363461Y464312D01*
Y433786D01*
X354122Y424447D01*
X170180D01*
X168814Y424175D01*
X167657Y423401D01*
X148861Y404605D01*
X148087Y403448D01*
X147815Y402082D01*
Y352612D01*
X147145Y351942D01*
X146384Y350105D01*
Y348115D01*
X147145Y346278D01*
X148552Y344871D01*
X150389Y344110D01*
X152379D01*
X153911Y344745D01*
X155181Y344177D01*
Y314513D01*
X154511Y313842D01*
X153750Y312005D01*
Y310015D01*
X154511Y308178D01*
X155918Y306771D01*
X157755Y306010D01*
X159745D01*
X161582Y306771D01*
X162989Y308178D01*
X163750Y310015D01*
Y312005D01*
X162989Y313842D01*
X162319Y314513D01*
Y400858D01*
X173690Y412229D01*
X358140D01*
X359506Y412501D01*
X360663Y413275D01*
X374887Y427499D01*
X375661Y428656D01*
X375933Y430022D01*
Y459024D01*
X380192Y463283D01*
X443030D01*
X443700Y462613D01*
X445537Y461852D01*
X447527D01*
X449364Y462613D01*
X450771Y464020D01*
X451532Y465857D01*
Y467847D01*
X450771Y469684D01*
X449364Y471091D01*
X447527Y471852D01*
X445537D01*
X443700Y471091D01*
X443030Y470421D01*
X404104D01*
X403578Y471691D01*
X403781Y471894D01*
X404542Y473731D01*
Y475721D01*
X403781Y477558D01*
X402374Y478965D01*
X400537Y479726D01*
D02*
G37*
G36*
X616945Y654590D02*
X614955D01*
X613118Y653829D01*
X611711Y652422D01*
X610950Y650585D01*
Y648595D01*
X611711Y646758D01*
X612129Y646340D01*
Y345697D01*
X611373Y344941D01*
X610688Y343287D01*
Y341497D01*
X611373Y339843D01*
X612639Y338577D01*
X614293Y337892D01*
X616083D01*
X617737Y338577D01*
X619003Y339843D01*
X619688Y341497D01*
X620652Y342141D01*
X621272Y341884D01*
X623062D01*
X624716Y342569D01*
X625982Y343835D01*
X626667Y345489D01*
Y346399D01*
X627854Y347282D01*
X629446D01*
X630916Y347891D01*
X632041Y349016D01*
X632650Y350486D01*
Y350894D01*
X633175Y351245D01*
X634766D01*
X636236Y351854D01*
X637362Y352979D01*
X637971Y354449D01*
Y355253D01*
X638189Y356112D01*
X639144Y356426D01*
X639352D01*
X640138Y355830D01*
X640398Y355274D01*
Y354042D01*
X641007Y352572D01*
X642132Y351447D01*
X643602Y350838D01*
X645194D01*
X646664Y351447D01*
X647789Y352572D01*
X648065Y353238D01*
X649411Y352680D01*
X651002D01*
X652472Y353289D01*
X653597Y354414D01*
X654206Y355884D01*
Y357476D01*
X653597Y358946D01*
X653265Y359278D01*
Y490697D01*
X657603Y495035D01*
X786895D01*
X789421Y492509D01*
Y488488D01*
X787689Y487770D01*
X785704Y486247D01*
X784182Y484263D01*
X783224Y481952D01*
X782898Y479472D01*
Y469472D01*
X783224Y466992D01*
X784182Y464681D01*
X785704Y462696D01*
X787689Y461174D01*
X790000Y460216D01*
X792480Y459890D01*
X794960Y460216D01*
X797271Y461174D01*
X799255Y462696D01*
X800778Y464681D01*
X801736Y466992D01*
X802062Y469472D01*
Y479472D01*
X801736Y481952D01*
X800778Y484263D01*
X799255Y486247D01*
X797271Y487770D01*
X795539Y488488D01*
Y493776D01*
X795539Y493776D01*
X795306Y494947D01*
X794643Y495939D01*
X792656Y497926D01*
X793142Y499099D01*
X810009D01*
X814821Y494287D01*
Y488488D01*
X813089Y487770D01*
X811105Y486247D01*
X809582Y484263D01*
X808624Y481952D01*
X808298Y479472D01*
Y469472D01*
X808624Y466992D01*
X809582Y464681D01*
X811105Y462696D01*
X813089Y461174D01*
X815400Y460216D01*
X817880Y459890D01*
X820360Y460216D01*
X822671Y461174D01*
X824655Y462696D01*
X826178Y464681D01*
X827135Y466992D01*
X827462Y469472D01*
Y479472D01*
X827135Y481952D01*
X826178Y484263D01*
X824655Y486247D01*
X822671Y487770D01*
X820939Y488488D01*
Y495554D01*
X820706Y496725D01*
X820043Y497717D01*
X815516Y502244D01*
X816002Y503417D01*
X836425D01*
X840221Y499621D01*
Y488488D01*
X838489Y487770D01*
X836505Y486247D01*
X834982Y484263D01*
X834025Y481952D01*
X833698Y479472D01*
Y469472D01*
X834025Y466992D01*
X834982Y464681D01*
X836505Y462696D01*
X838489Y461174D01*
X840800Y460216D01*
X843280Y459890D01*
X845760Y460216D01*
X848071Y461174D01*
X850055Y462696D01*
X851578Y464681D01*
X852535Y466992D01*
X852862Y469472D01*
Y479472D01*
X852535Y481952D01*
X851578Y484263D01*
X850055Y486247D01*
X848071Y487770D01*
X846339Y488488D01*
Y500888D01*
X846339Y500888D01*
X846106Y502059D01*
X845443Y503051D01*
X845443Y503051D01*
X842186Y506308D01*
X842672Y507481D01*
X859793D01*
X865621Y501653D01*
Y488488D01*
X863889Y487770D01*
X861905Y486247D01*
X860382Y484263D01*
X859425Y481952D01*
X859098Y479472D01*
Y469472D01*
X859425Y466992D01*
X860382Y464681D01*
X861905Y462696D01*
X863889Y461174D01*
X866200Y460216D01*
X868680Y459890D01*
X871160Y460216D01*
X873471Y461174D01*
X875455Y462696D01*
X876978Y464681D01*
X877935Y466992D01*
X878262Y469472D01*
Y479472D01*
X877935Y481952D01*
X876978Y484263D01*
X875455Y486247D01*
X873471Y487770D01*
X871739Y488488D01*
Y502920D01*
X871739Y502920D01*
X871506Y504091D01*
X870843Y505083D01*
X870843Y505083D01*
X863223Y512703D01*
X862231Y513366D01*
X861060Y513599D01*
X861060Y513599D01*
X794547D01*
X794061Y514772D01*
X801188Y521898D01*
X801910Y522980D01*
X802164Y524256D01*
Y546880D01*
X802645Y547361D01*
X803330Y549015D01*
Y550805D01*
X802645Y552459D01*
X801379Y553725D01*
X799725Y554410D01*
X797935D01*
X796281Y553725D01*
X795015Y552459D01*
X794330Y550805D01*
Y549015D01*
X795015Y547361D01*
X795496Y546880D01*
Y525637D01*
X789067Y519208D01*
X640588D01*
X639312Y518954D01*
X638230Y518232D01*
X626943Y506944D01*
X625673Y507470D01*
Y632560D01*
X625894Y632651D01*
X627301Y634058D01*
X628062Y635895D01*
Y637885D01*
X627301Y639722D01*
X625894Y641129D01*
X624057Y641890D01*
X622067D01*
X620230Y641129D01*
X619517Y640416D01*
X618247Y640942D01*
Y645129D01*
X618782Y645351D01*
X620189Y646758D01*
X620950Y648595D01*
Y650585D01*
X620189Y652422D01*
X618782Y653829D01*
X616945Y654590D01*
D02*
G37*
G36*
X158421Y513402D02*
X139954D01*
Y498400D01*
X88138D01*
Y455676D01*
X106420D01*
Y458402D01*
X140420D01*
Y443400D01*
X158421D01*
Y513402D01*
D02*
G37*
G36*
X600630Y417506D02*
X590630D01*
X588150Y417179D01*
X585839Y416222D01*
X583854Y414700D01*
X582332Y412715D01*
X581375Y410404D01*
X581048Y407924D01*
X581375Y405444D01*
X582332Y403133D01*
X583854Y401148D01*
X585839Y399626D01*
X588150Y398669D01*
X590630Y398342D01*
X600630D01*
X603110Y398669D01*
X605421Y399626D01*
X607406Y401148D01*
X608928Y403133D01*
X609885Y405444D01*
X610212Y407924D01*
X609885Y410404D01*
X608928Y412715D01*
X607406Y414700D01*
X605421Y416222D01*
X603110Y417179D01*
X600630Y417506D01*
D02*
G37*
G36*
X60680Y410822D02*
X58200Y410495D01*
X55889Y409538D01*
X53905Y408016D01*
X52382Y406031D01*
X51425Y403720D01*
X51098Y401240D01*
Y391240D01*
X51425Y388760D01*
X52382Y386449D01*
X53905Y384464D01*
X55889Y382942D01*
X58200Y381984D01*
X60680Y381658D01*
X63160Y381984D01*
X65471Y382942D01*
X67456Y384464D01*
X68978Y386449D01*
X69935Y388760D01*
X70262Y391240D01*
Y401240D01*
X69935Y403720D01*
X68978Y406031D01*
X67456Y408016D01*
X65471Y409538D01*
X63160Y410495D01*
X60680Y410822D01*
D02*
G37*
G36*
X879268Y421574D02*
X869268D01*
X866788Y421247D01*
X864477Y420290D01*
X862493Y418767D01*
X860970Y416783D01*
X860013Y414472D01*
X859686Y411992D01*
X860013Y409512D01*
X860970Y407201D01*
X861480Y406536D01*
X860919Y405397D01*
X846582D01*
X845216Y405125D01*
X844059Y404351D01*
X834915Y395207D01*
X834141Y394050D01*
X833869Y392684D01*
Y326136D01*
X834141Y324770D01*
X834915Y323613D01*
X841773Y316755D01*
X842930Y315981D01*
X844296Y315709D01*
X860166D01*
X860711Y315005D01*
X860931Y314577D01*
X860013Y312360D01*
X859686Y309880D01*
X860013Y307400D01*
X860970Y305089D01*
X862493Y303104D01*
X864477Y301582D01*
X866788Y300625D01*
X869268Y300298D01*
X879268D01*
X881748Y300625D01*
X884059Y301582D01*
X886043Y303104D01*
X887566Y305089D01*
X888523Y307400D01*
X888850Y309880D01*
X888523Y312360D01*
X887566Y314671D01*
X886043Y316656D01*
X884059Y318178D01*
X881748Y319135D01*
X879268Y319462D01*
X869268D01*
X867210Y319191D01*
X864670Y321731D01*
X864599Y321804D01*
X864582Y323341D01*
X867210Y325969D01*
X869268Y325698D01*
X879268D01*
X881748Y326025D01*
X884059Y326982D01*
X886043Y328504D01*
X887566Y330489D01*
X888523Y332800D01*
X888850Y335280D01*
X888523Y337760D01*
X887566Y340071D01*
X886043Y342056D01*
X884059Y343578D01*
X881748Y344535D01*
X879268Y344862D01*
X869268D01*
X866788Y344535D01*
X864477Y343578D01*
X862493Y342056D01*
X860970Y340071D01*
X860013Y337760D01*
X859686Y335280D01*
X860013Y332800D01*
X860970Y330489D01*
X861259Y330112D01*
X859836Y328689D01*
X847552D01*
X846341Y329900D01*
Y389174D01*
X850092Y392925D01*
X860718D01*
X861279Y391786D01*
X860970Y391383D01*
X860013Y389072D01*
X859686Y386592D01*
X860013Y384112D01*
X860970Y381801D01*
X862493Y379817D01*
X864477Y378294D01*
X866788Y377337D01*
X869268Y377010D01*
X879268D01*
X881748Y377337D01*
X884059Y378294D01*
X886043Y379817D01*
X887566Y381801D01*
X888523Y384112D01*
X888850Y386592D01*
X888523Y389072D01*
X887566Y391383D01*
X886043Y393367D01*
X884059Y394890D01*
X881748Y395847D01*
X879268Y396174D01*
X869654D01*
X869495Y396411D01*
X867463Y398444D01*
X866895Y399029D01*
X867476Y400153D01*
X869495Y402173D01*
X869654Y402410D01*
X879268D01*
X881748Y402737D01*
X884059Y403694D01*
X886043Y405216D01*
X887566Y407201D01*
X888523Y409512D01*
X888850Y411992D01*
X888523Y414472D01*
X887566Y416783D01*
X886043Y418767D01*
X884059Y420290D01*
X881748Y421247D01*
X879268Y421574D01*
D02*
G37*
G36*
X805821Y431220D02*
X804031D01*
X802377Y430535D01*
X801111Y429269D01*
X800426Y427615D01*
Y425825D01*
X801111Y424171D01*
X801357Y423925D01*
Y421894D01*
X801629Y420528D01*
X802403Y419371D01*
X808977Y412796D01*
Y382986D01*
X798042Y372050D01*
X796798Y372214D01*
X794318Y371888D01*
X792007Y370930D01*
X790023Y369408D01*
X788500Y367423D01*
X787542Y365112D01*
X787216Y362632D01*
Y352632D01*
X787542Y350152D01*
X788500Y347841D01*
X790023Y345857D01*
X792007Y344334D01*
X794318Y343377D01*
X796798Y343050D01*
X799278Y343377D01*
X801589Y344334D01*
X803573Y345857D01*
X805096Y347841D01*
X806053Y350152D01*
X806380Y352632D01*
Y362632D01*
X806053Y365112D01*
X805096Y367423D01*
X804407Y368322D01*
X815069Y378985D01*
X815843Y380142D01*
X816115Y381508D01*
Y414274D01*
X815843Y415640D01*
X815069Y416797D01*
X808495Y423372D01*
Y423925D01*
X808741Y424171D01*
X809426Y425825D01*
Y427615D01*
X808741Y429269D01*
X807475Y430535D01*
X805821Y431220D01*
D02*
G37*
G36*
X226220Y500014D02*
X224376D01*
X222596Y499537D01*
X221000Y498615D01*
X219697Y497312D01*
X218775Y495716D01*
X218298Y493936D01*
Y492092D01*
X218775Y490312D01*
X219697Y488716D01*
X220710Y487703D01*
Y471800D01*
X213237Y464328D01*
X172466D01*
X170710Y463979D01*
X169222Y462984D01*
X163380Y457142D01*
X162385Y455654D01*
X162036Y453898D01*
Y437002D01*
X157104Y432070D01*
X130556D01*
X128800Y431721D01*
X127312Y430726D01*
X117914Y421328D01*
X116919Y419840D01*
X116570Y418084D01*
Y381739D01*
X115557Y380726D01*
X114635Y379130D01*
X114158Y377350D01*
Y375506D01*
X114635Y373726D01*
X115557Y372130D01*
X116860Y370827D01*
X118456Y369905D01*
X120236Y369428D01*
X122080D01*
X123860Y369905D01*
X125456Y370827D01*
X126759Y372130D01*
X127681Y373726D01*
X128158Y375506D01*
Y377350D01*
X127681Y379130D01*
X126759Y380726D01*
X125746Y381739D01*
Y416184D01*
X132457Y422894D01*
X159004D01*
X160760Y423243D01*
X162248Y424238D01*
X169868Y431858D01*
X170863Y433346D01*
X171212Y435102D01*
Y451997D01*
X174366Y455152D01*
X215138D01*
X216894Y455501D01*
X218382Y456496D01*
X228542Y466656D01*
X229537Y468144D01*
X229886Y469900D01*
Y487703D01*
X230899Y488716D01*
X231821Y490312D01*
X232298Y492092D01*
Y493936D01*
X231821Y495716D01*
X230899Y497312D01*
X229596Y498615D01*
X228000Y499537D01*
X226220Y500014D01*
D02*
G37*
G36*
X418471Y431982D02*
X416681D01*
X415027Y431297D01*
X413761Y430031D01*
X413076Y428377D01*
Y426587D01*
X413761Y424933D01*
X415027Y423667D01*
X416681Y422982D01*
X418471D01*
X420125Y423667D01*
X420881Y424423D01*
X494033D01*
X501639Y416817D01*
Y352047D01*
X500883Y351291D01*
X500198Y349637D01*
Y347847D01*
X500883Y346193D01*
X502149Y344927D01*
X503803Y344242D01*
X505593D01*
X507247Y344927D01*
X508513Y346193D01*
X509198Y347847D01*
Y349637D01*
X508513Y351291D01*
X507757Y352047D01*
Y418084D01*
X507757Y418084D01*
X507524Y419255D01*
X506861Y420247D01*
X506861Y420247D01*
X497463Y429645D01*
X496471Y430308D01*
X495300Y430541D01*
X495300Y430541D01*
X420881D01*
X420125Y431297D01*
X418471Y431982D01*
D02*
G37*
G36*
X822198Y372214D02*
X819718Y371888D01*
X817407Y370930D01*
X815423Y369408D01*
X813900Y367423D01*
X812943Y365112D01*
X812616Y362632D01*
Y352632D01*
X812943Y350152D01*
X813900Y347841D01*
X815423Y345857D01*
X817407Y344334D01*
X819718Y343377D01*
X822198Y343050D01*
X824678Y343377D01*
X826989Y344334D01*
X828973Y345857D01*
X830496Y347841D01*
X831453Y350152D01*
X831780Y352632D01*
Y362632D01*
X831453Y365112D01*
X830496Y367423D01*
X828973Y369408D01*
X826989Y370930D01*
X824678Y371888D01*
X822198Y372214D01*
D02*
G37*
G36*
X490099Y321238D02*
X488309D01*
X486655Y320553D01*
X486174Y320072D01*
X464312D01*
X463036Y319818D01*
X461954Y319095D01*
X457636Y314778D01*
X456914Y313696D01*
X456660Y312420D01*
Y280273D01*
X453279Y276892D01*
X346821D01*
X341955Y281758D01*
X340874Y282480D01*
X339598Y282734D01*
X325102D01*
X324621Y283215D01*
X322967Y283900D01*
X321177D01*
X319523Y283215D01*
X318257Y281949D01*
X317572Y280295D01*
Y278505D01*
X318257Y276851D01*
X319523Y275585D01*
X321177Y274900D01*
X322967D01*
X324621Y275585D01*
X325102Y276066D01*
X338217D01*
X343083Y271201D01*
X344164Y270478D01*
X345440Y270224D01*
X454660D01*
X455936Y270478D01*
X457018Y271201D01*
X462351Y276535D01*
X463074Y277616D01*
X463328Y278892D01*
Y311039D01*
X465693Y313404D01*
X486174D01*
X486655Y312923D01*
X488309Y312238D01*
X490099D01*
X491753Y312923D01*
X493019Y314189D01*
X493704Y315843D01*
Y317633D01*
X493019Y319287D01*
X491753Y320553D01*
X490099Y321238D01*
D02*
G37*
G36*
X249780Y316992D02*
X192793D01*
Y298940D01*
X194780D01*
Y264940D01*
X179778D01*
Y246939D01*
X239718D01*
Y264940D01*
X234778D01*
Y298940D01*
X249780D01*
Y316992D01*
D02*
G37*
G36*
X350520Y189842D02*
X348040Y189515D01*
X345729Y188558D01*
X343745Y187036D01*
X342222Y185051D01*
X341264Y182740D01*
X340938Y180260D01*
Y170260D01*
X341264Y167780D01*
X342222Y165469D01*
X343745Y163484D01*
X345729Y161962D01*
X348040Y161005D01*
X350520Y160678D01*
X353000Y161005D01*
X355311Y161962D01*
X357295Y163484D01*
X358818Y165469D01*
X359776Y167780D01*
X360102Y170260D01*
Y180260D01*
X359776Y182740D01*
X358818Y185051D01*
X357295Y187036D01*
X355311Y188558D01*
X353000Y189515D01*
X350520Y189842D01*
D02*
G37*
G36*
X325120D02*
X322640Y189515D01*
X320329Y188558D01*
X318344Y187036D01*
X316822Y185051D01*
X315865Y182740D01*
X315538Y180260D01*
Y170260D01*
X315865Y167780D01*
X316822Y165469D01*
X318344Y163484D01*
X320329Y161962D01*
X322640Y161005D01*
X325120Y160678D01*
X327600Y161005D01*
X329911Y161962D01*
X331895Y163484D01*
X333418Y165469D01*
X334375Y167780D01*
X334702Y170260D01*
Y180260D01*
X334375Y182740D01*
X333418Y185051D01*
X331895Y187036D01*
X329911Y188558D01*
X327600Y189515D01*
X325120Y189842D01*
D02*
G37*
G36*
X37592Y206509D02*
X27940D01*
X27160Y206354D01*
X26498Y205912D01*
X26244Y205658D01*
X25802Y204996D01*
X25647Y204216D01*
Y183896D01*
X25706Y183600D01*
Y113030D01*
X25946Y111203D01*
X26651Y109500D01*
X27774Y108038D01*
X46316Y89496D01*
X47778Y88373D01*
X49481Y87668D01*
X51308Y87428D01*
X213868D01*
X215695Y87668D01*
X217398Y88373D01*
X218860Y89496D01*
X240704Y111340D01*
X241826Y112802D01*
X242532Y114505D01*
X242772Y116332D01*
Y161667D01*
X249305Y168200D01*
X290409D01*
X290464Y167780D01*
X291422Y165469D01*
X292945Y163484D01*
X294929Y161962D01*
X297240Y161005D01*
X299720Y160678D01*
X302200Y161005D01*
X304511Y161962D01*
X306495Y163484D01*
X308018Y165469D01*
X308976Y167780D01*
X309302Y170260D01*
Y180260D01*
X308976Y182740D01*
X308018Y185051D01*
X306495Y187036D01*
X304511Y188558D01*
X302200Y189515D01*
X299720Y189842D01*
X297240Y189515D01*
X294929Y188558D01*
X292945Y187036D01*
X291422Y185051D01*
X290464Y182740D01*
X290409Y182320D01*
X246380D01*
X244553Y182080D01*
X242850Y181374D01*
X241388Y180252D01*
X230720Y169584D01*
X229597Y168122D01*
X228892Y166419D01*
X228652Y164592D01*
Y119256D01*
X210944Y101548D01*
X54233D01*
X39826Y115955D01*
Y183600D01*
X39885Y183896D01*
Y204216D01*
X39885Y204216D01*
X39730Y204996D01*
X39288Y205658D01*
X39288Y205658D01*
X39034Y205912D01*
X38372Y206354D01*
X37592Y206509D01*
D02*
G37*
G36*
X132935Y188976D02*
X76200D01*
Y136970D01*
X62938D01*
Y118969D01*
X132940D01*
Y136879D01*
X132850Y136970D01*
X117938D01*
Y170970D01*
X132940D01*
Y188971D01*
X132935Y188976D01*
D02*
G37*
G36*
X486035Y282122D02*
X484245D01*
X482591Y281437D01*
X481325Y280171D01*
X480640Y278517D01*
Y276727D01*
X481325Y275073D01*
X482081Y274317D01*
Y132585D01*
X468379Y118883D01*
X464603D01*
X464076Y120153D01*
X477143Y133219D01*
X477143Y133219D01*
X477806Y134212D01*
X478039Y135382D01*
Y274571D01*
X478541Y275073D01*
X479226Y276727D01*
Y278517D01*
X478541Y280171D01*
X477275Y281437D01*
X475621Y282122D01*
X473831D01*
X472177Y281437D01*
X470911Y280171D01*
X470226Y278517D01*
Y276727D01*
X470911Y275073D01*
X471921Y274063D01*
Y136649D01*
X459997Y124725D01*
X353571D01*
X352815Y125481D01*
X351161Y126166D01*
X349371D01*
X347717Y125481D01*
X346451Y124215D01*
X345766Y122561D01*
Y120771D01*
X346451Y119117D01*
X347717Y117851D01*
X349371Y117166D01*
X351161D01*
X352815Y117851D01*
X353571Y118607D01*
X365239D01*
X366088Y117337D01*
X365832Y116719D01*
Y114929D01*
X366517Y113275D01*
X367783Y112009D01*
X369437Y111324D01*
X371227D01*
X372881Y112009D01*
X373637Y112765D01*
X469646D01*
X469646Y112765D01*
X470816Y112998D01*
X471809Y113661D01*
X487303Y129155D01*
X487303Y129155D01*
X487966Y130147D01*
X488199Y131318D01*
Y274317D01*
X488955Y275073D01*
X489640Y276727D01*
Y278517D01*
X488955Y280171D01*
X487689Y281437D01*
X486035Y282122D01*
D02*
G37*
G36*
X495334Y267906D02*
X493742D01*
X492272Y267297D01*
X491147Y266172D01*
X490538Y264702D01*
Y263110D01*
X491098Y261758D01*
Y168079D01*
X490385Y167366D01*
X489776Y165896D01*
Y164304D01*
X490385Y162834D01*
X491510Y161709D01*
X492980Y161100D01*
X494572D01*
X494908Y161239D01*
X496178Y160391D01*
Y138869D01*
X495719Y138410D01*
X495110Y136940D01*
Y135348D01*
X495719Y133878D01*
X496844Y132753D01*
X498314Y132144D01*
X499906D01*
X501376Y132753D01*
X502501Y133878D01*
X503110Y135348D01*
Y136940D01*
X502501Y138410D01*
X502296Y138615D01*
Y160242D01*
X503566Y161091D01*
X504156Y160846D01*
X505748D01*
X506973Y161354D01*
X508243Y160821D01*
Y137411D01*
X507615Y136783D01*
X506952Y135791D01*
X506719Y134620D01*
X506719Y134620D01*
Y130305D01*
X505963Y129549D01*
X505278Y127895D01*
Y126105D01*
X505963Y124451D01*
X507229Y123185D01*
X508883Y122500D01*
X510673D01*
X512327Y123185D01*
X512391Y123249D01*
X513565Y122763D01*
Y120363D01*
X512796Y119594D01*
X512111Y117940D01*
Y116150D01*
X512796Y114496D01*
X514062Y113230D01*
X515716Y112545D01*
X517506D01*
X519160Y113230D01*
X520426Y114496D01*
X521111Y116150D01*
Y117940D01*
X520426Y119594D01*
X519682Y120338D01*
Y258501D01*
X520027Y258846D01*
X520636Y260316D01*
Y261908D01*
X520027Y263378D01*
X518902Y264503D01*
X517432Y265112D01*
X515840D01*
X514370Y264503D01*
X513245Y263378D01*
X512659Y261962D01*
X512621Y261899D01*
X511366Y261228D01*
X510574Y261556D01*
X509534D01*
X508680Y262608D01*
X508645Y262729D01*
X508698Y262856D01*
Y264448D01*
X508089Y265918D01*
X506964Y267043D01*
X505494Y267652D01*
X503902D01*
X502432Y267043D01*
X501307Y265918D01*
X500698Y264448D01*
Y263216D01*
X500481Y262751D01*
X499535Y262421D01*
X498720Y263088D01*
X498538Y263259D01*
Y264702D01*
X497929Y266172D01*
X496804Y267297D01*
X495334Y267906D01*
D02*
G37*
G36*
X386119Y111000D02*
X383881D01*
X381719Y110421D01*
X379781Y109302D01*
X378198Y107719D01*
X377079Y105781D01*
X376500Y103619D01*
Y101381D01*
X377079Y99219D01*
X378198Y97281D01*
X379781Y95698D01*
X381719Y94579D01*
X383881Y94000D01*
X386119D01*
X388281Y94579D01*
X390219Y95698D01*
X391802Y97281D01*
X392921Y99219D01*
X393500Y101381D01*
Y103619D01*
X392921Y105781D01*
X391802Y107719D01*
X390219Y109302D01*
X388281Y110421D01*
X386119Y111000D01*
D02*
G37*
G36*
X336119D02*
X333881D01*
X331719Y110421D01*
X329781Y109302D01*
X328198Y107719D01*
X327079Y105781D01*
X326500Y103619D01*
Y101381D01*
X327079Y99219D01*
X328198Y97281D01*
X329781Y95698D01*
X331719Y94579D01*
X333881Y94000D01*
X336119D01*
X338281Y94579D01*
X340219Y95698D01*
X341802Y97281D01*
X342921Y99219D01*
X343500Y101381D01*
Y103619D01*
X342921Y105781D01*
X341802Y107719D01*
X340219Y109302D01*
X338281Y110421D01*
X336119Y111000D01*
D02*
G37*
G36*
X722202Y85740D02*
X720358D01*
X718578Y85263D01*
X716982Y84341D01*
X715679Y83038D01*
X714757Y81442D01*
X714280Y79662D01*
Y77818D01*
X714757Y76038D01*
X715679Y74442D01*
X716982Y73139D01*
X718578Y72217D01*
X720358Y71740D01*
X722202D01*
X723982Y72217D01*
X725578Y73139D01*
X726881Y74442D01*
X727803Y76038D01*
X728280Y77818D01*
Y79662D01*
X727803Y81442D01*
X726881Y83038D01*
X725578Y84341D01*
X723982Y85263D01*
X722202Y85740D01*
D02*
G37*
G36*
X797399Y87240D02*
X795161D01*
X792999Y86661D01*
X791061Y85542D01*
X789478Y83959D01*
X788359Y82021D01*
X787780Y79859D01*
Y77621D01*
X788359Y75459D01*
X789478Y73521D01*
X791061Y71938D01*
X792999Y70819D01*
X795161Y70240D01*
X797399D01*
X799561Y70819D01*
X801499Y71938D01*
X803082Y73521D01*
X804201Y75459D01*
X804780Y77621D01*
Y79859D01*
X804201Y82021D01*
X803082Y83959D01*
X801499Y85542D01*
X799561Y86661D01*
X797399Y87240D01*
D02*
G37*
G36*
X238300Y74625D02*
X234515Y74127D01*
X230987Y72666D01*
X227959Y70342D01*
X225634Y67312D01*
X224173Y63785D01*
X223675Y60000D01*
Y50000D01*
X224173Y46215D01*
X225634Y42687D01*
X227959Y39659D01*
X230987Y37334D01*
X234515Y35873D01*
X238300Y35375D01*
X242085Y35873D01*
X245613Y37334D01*
X248641Y39659D01*
X250966Y42687D01*
X252427Y46215D01*
X252925Y50000D01*
Y60000D01*
X252427Y63785D01*
X250966Y67312D01*
X248641Y70342D01*
X245613Y72666D01*
X242085Y74127D01*
X238300Y74625D01*
D02*
G37*
G36*
X136700D02*
X132915Y74127D01*
X129387Y72666D01*
X126358Y70342D01*
X124034Y67312D01*
X122573Y63785D01*
X122075Y60000D01*
Y50000D01*
X122573Y46215D01*
X124034Y42687D01*
X126358Y39659D01*
X129387Y37334D01*
X132915Y35873D01*
X136700Y35375D01*
X140485Y35873D01*
X144013Y37334D01*
X147042Y39659D01*
X149366Y42687D01*
X150827Y46215D01*
X151325Y50000D01*
Y60000D01*
X150827Y63785D01*
X149366Y67312D01*
X147042Y70342D01*
X144013Y72666D01*
X140485Y74127D01*
X136700Y74625D01*
D02*
G37*
%LPD*%
G36*
X37846Y204216D02*
Y183896D01*
X37592Y183642D01*
X27940D01*
X27686Y183896D01*
Y204216D01*
X27940Y204470D01*
X37592D01*
X37846Y204216D01*
D02*
G37*
D10*
X628650Y503936D02*
X640588Y515874D01*
X628650Y351282D02*
Y503936D01*
X582930Y656590D02*
X593090Y666750D01*
X442976Y656590D02*
X582930D01*
X593090Y666750D02*
Y680058D01*
X595884Y682852D02*
Y684276D01*
X593090Y680058D02*
X595884Y682852D01*
X427228Y646430D02*
X432816D01*
X442976Y656590D01*
X432562Y671830D02*
X442976Y661416D01*
X580898D02*
X588518Y669036D01*
X442976Y661416D02*
X580898D01*
X790448Y515874D02*
X798830Y524256D01*
X640588Y515874D02*
X790448D01*
X459994Y312420D02*
X464312Y316738D01*
X459994Y278892D02*
Y312420D01*
X454660Y273558D02*
X459994Y278892D01*
X464312Y316738D02*
X489204D01*
X345440Y273558D02*
X454660D01*
X339598Y279400D02*
X345440Y273558D01*
X322072Y279400D02*
X339598D01*
X267208Y530352D02*
X283718Y513842D01*
X267208Y530352D02*
Y665226D01*
X798830Y524256D02*
Y549910D01*
X427228Y671830D02*
X432562D01*
X588518Y669036D02*
Y680058D01*
X585216Y683360D02*
Y684276D01*
Y683360D02*
X588518Y680058D01*
X527558Y513842D02*
X534924Y506476D01*
X283718Y513842D02*
X527558D01*
X534924Y373126D02*
Y506476D01*
D11*
X537768Y325120D02*
X539374Y326726D01*
X659226D02*
X667500Y335000D01*
X539374Y326726D02*
X659226D01*
X536956Y325120D02*
X537768D01*
X653558Y331740D02*
X660654Y338836D01*
X539530Y331740D02*
X653558D01*
X536702Y333756D02*
X537514D01*
X539530Y331740D01*
X546354Y339090D02*
Y349504D01*
X551942Y355092D01*
X650206Y356680D02*
Y491964D01*
X656336Y498094D01*
X644398Y354838D02*
Y495554D01*
X651002Y502158D01*
X639064Y360426D02*
Y498856D01*
X646684Y506476D01*
X633971Y355245D02*
Y502145D01*
X642366Y510540D01*
X615188Y648828D02*
X615950Y649590D01*
X615188Y342392D02*
Y648828D01*
X622615Y346832D02*
Y636442D01*
X622167Y346384D02*
X622615Y346832D01*
Y636442D02*
X623062Y636890D01*
X672846Y675132D02*
X676910Y671068D01*
X651764Y675132D02*
X672846D01*
X676910Y594360D02*
Y671068D01*
X516611Y117045D02*
X516623Y117058D01*
Y261099D02*
X516636Y261112D01*
X516623Y117058D02*
Y261099D01*
X683580Y663514D02*
Y682686D01*
X678434Y687832D02*
X683580Y682686D01*
X286512Y518414D02*
X530352D01*
X540004Y508762D01*
X274066Y530860D02*
X286512Y518414D01*
X861060Y510540D02*
X868680Y502920D01*
X642366Y510540D02*
X861060D01*
X788162Y498094D02*
X792480Y493776D01*
X656336Y498094D02*
X788162D01*
X509778Y127000D02*
Y134620D01*
X511302Y136144D01*
Y242062D01*
X509778Y243586D02*
Y257556D01*
Y243586D02*
X511302Y242062D01*
X545592Y373634D02*
Y470408D01*
X559308Y484124D01*
X551942Y448818D02*
X561848Y458724D01*
X551942Y355092D02*
Y448818D01*
X519684Y437388D02*
X529844Y427228D01*
Y348742D02*
Y427228D01*
X525526Y316992D02*
X675386D01*
X519556Y322962D02*
Y336676D01*
Y322962D02*
X525526Y316992D01*
X524002Y312674D02*
X673608D01*
X515439Y321237D02*
Y336033D01*
Y321237D02*
X524002Y312674D01*
X513588Y337883D02*
X515439Y336033D01*
X519556Y336676D02*
X520700Y337820D01*
Y342138D01*
X513588Y337883D02*
Y342138D01*
X686562Y270256D02*
Y305816D01*
X675386Y316992D02*
X686562Y305816D01*
X702564Y247650D02*
X743992D01*
X682498Y267716D02*
Y303784D01*
Y267716D02*
X702564Y247650D01*
X744474Y251714D02*
X748284Y255524D01*
X686562Y270256D02*
X705104Y251714D01*
X744474D01*
X743992Y247650D02*
X748284Y243358D01*
X673608Y312674D02*
X682498Y303784D01*
X660654Y338836D02*
Y426720D01*
X667500Y335000D02*
Y352500D01*
X274066Y530860D02*
Y650494D01*
X651002Y502158D02*
X811276D01*
X817880Y474472D02*
Y495554D01*
X811276Y502158D02*
X817880Y495554D01*
X792480Y474472D02*
Y493776D01*
X837692Y506476D02*
X843280Y500888D01*
X646684Y506476D02*
X837692D01*
X843280Y474472D02*
Y500888D01*
X868680Y474472D02*
Y502920D01*
X474980Y135382D02*
Y277368D01*
X474726Y277622D02*
X474980Y277368D01*
X466852Y437388D02*
X519684D01*
X417576Y427482D02*
X495300D01*
X504698Y418084D01*
X540004Y348742D02*
Y508762D01*
X504698Y348742D02*
Y418084D01*
X561848Y458724D02*
X595630D01*
X559308Y484124D02*
X595630D01*
X350266Y121666D02*
X461264D01*
X474980Y135382D01*
X370332Y115824D02*
X469646D01*
X485140Y131318D01*
Y277622D01*
X655066Y687832D02*
X678434D01*
X654304Y763524D02*
X682752D01*
X689102Y576326D02*
Y757174D01*
X682752Y763524D02*
X689102Y757174D01*
Y576326D02*
X689356Y576072D01*
X493776Y165100D02*
X494157Y165481D01*
Y263525D02*
X494538Y263906D01*
X494157Y165481D02*
Y263525D01*
X499237Y136271D02*
Y257937D01*
X499110Y136144D02*
X499237Y136271D01*
Y257937D02*
X499364Y258064D01*
X504778Y165020D02*
X504952Y164846D01*
X504698Y263652D02*
X504778Y263572D01*
Y165020D02*
Y263572D01*
D20*
X694690Y627380D02*
Y762508D01*
X866972Y392135D02*
X872515Y386592D01*
X866972Y392135D02*
Y393888D01*
X864366Y396494D02*
X866972Y393888D01*
X848614Y396494D02*
X864366D01*
X872515Y386592D02*
X874268D01*
X842772Y390652D02*
X848614Y396494D01*
X846074Y325120D02*
X861314D01*
X842772Y328422D02*
X846074Y325120D01*
X842772Y328422D02*
Y390652D01*
X861314Y325120D02*
X871474Y335280D01*
X837438Y326136D02*
Y392684D01*
Y326136D02*
X844296Y319278D01*
X862076D01*
X837438Y392684D02*
X846582Y401828D01*
X871474Y335280D02*
X874268D01*
X866972Y406449D02*
X872515Y411992D01*
X864104Y401828D02*
X866972Y404696D01*
X872515Y411992D02*
X874268D01*
X866972Y404696D02*
Y406449D01*
X846582Y401828D02*
X864104D01*
X172212Y415798D02*
X358140D01*
X158750Y311010D02*
Y402336D01*
X172212Y415798D01*
X378714Y466852D02*
X446532D01*
X372364Y460502D02*
X378714Y466852D01*
X372364Y430022D02*
Y460502D01*
X367030Y432308D02*
Y464312D01*
X355600Y420878D02*
X367030Y432308D01*
X170180Y420878D02*
X355600D01*
X367030Y464312D02*
X377444Y474726D01*
X358140Y415798D02*
X372364Y430022D01*
X871474Y309880D02*
X874268D01*
X862076Y319278D02*
X871474Y309880D01*
X812546Y381508D02*
Y414274D01*
X804926Y421894D02*
Y426720D01*
Y421894D02*
X812546Y414274D01*
X796798Y365760D02*
X812546Y381508D01*
X796798Y357632D02*
Y365760D01*
X491744Y697230D02*
X670306D01*
X670560Y697484D01*
X151384Y402082D02*
X170180Y420878D01*
X151384Y349250D02*
Y402082D01*
X377444Y474726D02*
X399542D01*
X427228Y621030D02*
X428244Y622046D01*
X487172D01*
X427228Y697230D02*
X491744D01*
X481359Y750795D02*
X487201D01*
X491744Y697230D02*
Y746252D01*
X487201Y750795D02*
X491744Y746252D01*
X481076Y751078D02*
X481359Y750795D01*
D22*
X721280Y78740D02*
D03*
X32766Y188976D02*
D03*
X225298Y493014D02*
D03*
X121158Y376428D02*
D03*
X32766Y199136D02*
D03*
X346456Y572008D02*
D03*
X290830Y561594D02*
D03*
D53*
X567690Y580390D02*
D03*
X534670D02*
D03*
X478790D02*
D03*
X454660D02*
D03*
X887730Y741680D02*
D03*
X867410D02*
D03*
X849630D02*
D03*
X836930Y754380D02*
D03*
Y774700D02*
D03*
Y791210D02*
D03*
X810260D02*
D03*
X788670D02*
D03*
X770890D02*
D03*
X748030D02*
D03*
X728980D02*
D03*
X707390D02*
D03*
X683260D02*
D03*
X659130Y574040D02*
D03*
X633730D02*
D03*
X659130Y590550D02*
D03*
X633730D02*
D03*
X727710Y621030D02*
D03*
X712470D02*
D03*
X659892Y644144D02*
D03*
Y653542D02*
D03*
X600710Y502920D02*
D03*
X584200Y501650D02*
D03*
X600419Y516404D02*
D03*
X584200Y511810D02*
D03*
X568960D02*
D03*
X552450D02*
D03*
X515620Y424180D02*
D03*
X553720Y182880D02*
D03*
Y193040D02*
D03*
X11430Y64770D02*
D03*
X10160Y87630D02*
D03*
Y104140D02*
D03*
Y121920D02*
D03*
Y139700D02*
D03*
Y162560D02*
D03*
Y177800D02*
D03*
Y194310D02*
D03*
Y209550D02*
D03*
Y226060D02*
D03*
Y243840D02*
D03*
Y257810D02*
D03*
X11430Y374650D02*
D03*
X24130D02*
D03*
X36830Y379730D02*
D03*
Y392430D02*
D03*
Y405130D02*
D03*
Y417830D02*
D03*
X22860D02*
D03*
X8890D02*
D03*
X63500Y474980D02*
D03*
X13970Y450850D02*
D03*
Y463550D02*
D03*
X50800Y474980D02*
D03*
X38100D02*
D03*
X25400D02*
D03*
X12700D02*
D03*
X610870Y713740D02*
D03*
X618490Y664210D02*
D03*
X398780Y628650D02*
D03*
X397510Y648970D02*
D03*
Y665480D02*
D03*
Y680720D02*
D03*
Y695960D02*
D03*
Y711200D02*
D03*
Y726440D02*
D03*
X580390Y377190D02*
D03*
X455930Y226060D02*
D03*
X565150Y732790D02*
D03*
X534670D02*
D03*
X505460Y731520D02*
D03*
X603250Y749300D02*
D03*
X565150D02*
D03*
X534670D02*
D03*
X505460D02*
D03*
X600710Y640080D02*
D03*
X579120D02*
D03*
X551180D02*
D03*
X529590D02*
D03*
X505460D02*
D03*
X506730Y680720D02*
D03*
X490220D02*
D03*
X692150Y392430D02*
D03*
X674370D02*
D03*
Y407670D02*
D03*
X692150D02*
D03*
X495300Y449580D02*
D03*
Y468630D02*
D03*
X472440Y467360D02*
D03*
X495300Y486410D02*
D03*
X472440Y485140D02*
D03*
X495300Y501650D02*
D03*
X472440D02*
D03*
X420370Y397510D02*
D03*
X405130D02*
D03*
X384810D02*
D03*
X420370Y410210D02*
D03*
X405130D02*
D03*
X384810D02*
D03*
X383540Y425450D02*
D03*
Y438150D02*
D03*
X316230Y233680D02*
D03*
X297180D02*
D03*
X312420Y271780D02*
D03*
X295910D02*
D03*
X297180Y290830D02*
D03*
X276860Y233680D02*
D03*
Y252730D02*
D03*
Y270510D02*
D03*
Y289560D02*
D03*
Y307340D02*
D03*
X254000Y523240D02*
D03*
X238760D02*
D03*
X224790D02*
D03*
Y510540D02*
D03*
X254000Y547370D02*
D03*
X238760D02*
D03*
Y561340D02*
D03*
X254000D02*
D03*
X162560Y533400D02*
D03*
Y552450D02*
D03*
Y566420D02*
D03*
Y577850D02*
D03*
X102870Y561340D02*
D03*
X90170D02*
D03*
X92710Y702310D02*
D03*
X60960Y659130D02*
D03*
X62230Y671830D02*
D03*
Y684530D02*
D03*
X80010D02*
D03*
X129540Y669290D02*
D03*
X130810Y687070D02*
D03*
X139700Y698500D02*
D03*
X384810Y485140D02*
D03*
X367030D02*
D03*
X323850D02*
D03*
X307340D02*
D03*
X383540Y500380D02*
D03*
X365760D02*
D03*
X344170D02*
D03*
X323850D02*
D03*
X307340D02*
D03*
X331470Y435610D02*
D03*
Y447040D02*
D03*
X285750Y435610D02*
D03*
Y447040D02*
D03*
X754380Y698500D02*
D03*
X734060D02*
D03*
X713740Y683260D02*
D03*
X754380D02*
D03*
Y711200D02*
D03*
X734060D02*
D03*
X742950Y651510D02*
D03*
X863600Y638810D02*
D03*
Y652780D02*
D03*
Y665480D02*
D03*
X845820D02*
D03*
X824230D02*
D03*
X863600Y676910D02*
D03*
X845820D02*
D03*
X824230D02*
D03*
X863600Y695960D02*
D03*
X845820D02*
D03*
X824230D02*
D03*
X835660Y414020D02*
D03*
X854710Y453390D02*
D03*
X830580D02*
D03*
X806450D02*
D03*
X789940D02*
D03*
X764540Y454660D02*
D03*
Y471170D02*
D03*
X772160Y486410D02*
D03*
X755650D02*
D03*
X713740Y452120D02*
D03*
X684530Y486410D02*
D03*
X662940D02*
D03*
X728980Y468630D02*
D03*
X713740D02*
D03*
X697230D02*
D03*
X679450D02*
D03*
X662940D02*
D03*
X762000Y386080D02*
D03*
Y401320D02*
D03*
Y415290D02*
D03*
X834390Y311150D02*
D03*
X812800D02*
D03*
X783590Y312420D02*
D03*
X755650Y311150D02*
D03*
X732790Y309880D02*
D03*
X708660Y308610D02*
D03*
X824230Y327660D02*
D03*
X795020D02*
D03*
X767080D02*
D03*
X744220D02*
D03*
X720090D02*
D03*
X694690Y326390D02*
D03*
X675640D02*
D03*
X775970Y346710D02*
D03*
X755650D02*
D03*
X731520D02*
D03*
X711200D02*
D03*
X450850Y398780D02*
D03*
Y412750D02*
D03*
X134620Y228600D02*
D03*
X121920Y199390D02*
D03*
Y213360D02*
D03*
X88900Y199390D02*
D03*
Y212090D02*
D03*
X134620Y241300D02*
D03*
X76200Y364490D02*
D03*
Y379730D02*
D03*
X91440D02*
D03*
X104140D02*
D03*
X105410Y339090D02*
D03*
X118110Y349250D02*
D03*
Y330200D02*
D03*
X77470Y410210D02*
D03*
X97790Y429260D02*
D03*
X77470D02*
D03*
X166370Y501650D02*
D03*
Y477520D02*
D03*
X181610Y520700D02*
D03*
X166370D02*
D03*
X201930Y433070D02*
D03*
X182880Y434340D02*
D03*
X201930Y445770D02*
D03*
X182880D02*
D03*
X205740Y328930D02*
D03*
Y342900D02*
D03*
X373380Y285750D02*
D03*
Y298450D02*
D03*
Y312420D02*
D03*
Y327660D02*
D03*
Y341630D02*
D03*
Y356870D02*
D03*
Y372110D02*
D03*
X504190Y322580D02*
D03*
Y336550D02*
D03*
X421640Y228600D02*
D03*
X405130D02*
D03*
X386080D02*
D03*
X374650Y247650D02*
D03*
X393700D02*
D03*
X411480D02*
D03*
X426720D02*
D03*
Y262890D02*
D03*
X411480D02*
D03*
X393700D02*
D03*
X374650D02*
D03*
X607060Y264160D02*
D03*
X586740D02*
D03*
X570230D02*
D03*
X595630Y278130D02*
D03*
X575310D02*
D03*
X614680Y280670D02*
D03*
X558800Y278130D02*
D03*
X596900Y224790D02*
D03*
X577850D02*
D03*
X527050Y223520D02*
D03*
Y236220D02*
D03*
X608330D02*
D03*
X588010D02*
D03*
X568960D02*
D03*
X298450Y604520D02*
D03*
X285750D02*
D03*
X233680Y595630D02*
D03*
X218440D02*
D03*
Y608330D02*
D03*
X287020Y657860D02*
D03*
X298450D02*
D03*
X314960Y659130D02*
D03*
X889000Y445770D02*
D03*
Y463550D02*
D03*
Y483870D02*
D03*
Y509270D02*
D03*
Y532130D02*
D03*
X455930Y792480D02*
D03*
X654050Y791210D02*
D03*
X617220Y778510D02*
D03*
X591820D02*
D03*
X563880D02*
D03*
X535940D02*
D03*
X513080D02*
D03*
X487680D02*
D03*
X734060Y683260D02*
D03*
X788900Y65900D02*
D03*
X801600Y40500D02*
D03*
X788900Y15100D02*
D03*
X763500Y65900D02*
D03*
X776200Y40500D02*
D03*
X763500Y15100D02*
D03*
X738100Y65900D02*
D03*
X750800Y40500D02*
D03*
X738100Y15100D02*
D03*
X712700Y65900D02*
D03*
X725400Y40500D02*
D03*
X712700Y15100D02*
D03*
X700000Y40500D02*
D03*
X687300Y15100D02*
D03*
X674600Y40500D02*
D03*
X661900Y15100D02*
D03*
X636500Y65900D02*
D03*
X649200Y40500D02*
D03*
X636500Y15100D02*
D03*
X611100Y65900D02*
D03*
Y15100D02*
D03*
X585700Y65900D02*
D03*
X598400Y40500D02*
D03*
X585700Y15100D02*
D03*
X560300Y65900D02*
D03*
X573000Y40500D02*
D03*
X560300Y15100D02*
D03*
X534900Y65900D02*
D03*
X547600Y40500D02*
D03*
X534900Y15100D02*
D03*
X509500Y65900D02*
D03*
X522200Y40500D02*
D03*
X509500Y15100D02*
D03*
X484100Y65900D02*
D03*
X496800Y40500D02*
D03*
X484100Y15100D02*
D03*
X458700Y65900D02*
D03*
Y15100D02*
D03*
X433300Y65900D02*
D03*
X446000Y40500D02*
D03*
X433300Y15100D02*
D03*
X407900Y65900D02*
D03*
X420600Y40500D02*
D03*
X407900Y15100D02*
D03*
X382500Y65900D02*
D03*
X395200Y40500D02*
D03*
X382500Y15100D02*
D03*
X357100Y65900D02*
D03*
X369800Y40500D02*
D03*
X357100Y15100D02*
D03*
X331700Y65900D02*
D03*
X344400Y40500D02*
D03*
X331700Y15100D02*
D03*
X306300Y65900D02*
D03*
X319000Y40500D02*
D03*
X306300Y15100D02*
D03*
X321310Y726440D02*
D03*
Y755650D02*
D03*
X311150Y707390D02*
D03*
X289560D02*
D03*
X267970D02*
D03*
Y723900D02*
D03*
X266700Y741680D02*
D03*
Y759460D02*
D03*
X341630Y789940D02*
D03*
X313690D02*
D03*
X290830D02*
D03*
X267970D02*
D03*
X241300D02*
D03*
X213360D02*
D03*
X186690D02*
D03*
X148590D02*
D03*
X125730D02*
D03*
X99060D02*
D03*
X76200D02*
D03*
X57150D02*
D03*
X105410Y717550D02*
D03*
Y730250D02*
D03*
Y745490D02*
D03*
Y759460D02*
D03*
X146050Y730250D02*
D03*
Y742950D02*
D03*
Y759460D02*
D03*
X487172Y622046D02*
D03*
X595884Y684276D02*
D03*
X585216D02*
D03*
D112*
X235712Y164592D02*
X246380Y175260D01*
X213868Y94488D02*
X235712Y116332D01*
Y164592D01*
X51308Y94488D02*
X213868D01*
X32766Y113030D02*
Y199136D01*
Y113030D02*
X51308Y94488D01*
X246380Y175260D02*
X299720D01*
D113*
X215138Y459740D02*
X225298Y469900D01*
Y493014D01*
X166624Y453898D02*
X172466Y459740D01*
X166624Y435102D02*
Y453898D01*
X172466Y459740D02*
X215138D01*
X130556Y427482D02*
X159004D01*
X166624Y435102D01*
X121158Y376428D02*
Y418084D01*
X130556Y427482D01*
D115*
X333502Y572008D02*
X346456D01*
X290830Y561594D02*
X323088D01*
X333502Y572008D01*
D117*
X796280Y78740D02*
D03*
X335000Y102500D02*
D03*
X385000D02*
D03*
D118*
X187500Y55000D02*
D03*
X85900D02*
D03*
X238300D02*
D03*
X136700D02*
D03*
X76200Y745000D02*
D03*
X127000D02*
D03*
X291600D02*
D03*
X240800D02*
D03*
X342400D02*
D03*
X190000D02*
D03*
D119*
X60680Y396240D02*
D03*
X23580D02*
D03*
X30010Y675440D02*
D03*
X80010Y662940D02*
D03*
X792480Y474472D02*
D03*
X817880D02*
D03*
X843280D02*
D03*
X868680D02*
D03*
X299720Y175260D02*
D03*
X325120D02*
D03*
X350520D02*
D03*
X822198Y357632D02*
D03*
X796798D02*
D03*
D120*
X42418Y498348D02*
D03*
Y461248D02*
D03*
X595630Y407924D02*
D03*
Y433324D02*
D03*
Y458724D02*
D03*
Y484124D02*
D03*
X427228Y722630D02*
D03*
Y570230D02*
D03*
Y595630D02*
D03*
Y621030D02*
D03*
Y646430D02*
D03*
Y671830D02*
D03*
Y697230D02*
D03*
X874268Y411992D02*
D03*
Y386592D02*
D03*
Y335280D02*
D03*
Y309880D02*
D03*
D121*
X837500Y645000D02*
D03*
Y720000D02*
D03*
D122*
X527304Y328422D02*
D03*
X533400Y341122D02*
D03*
X536956Y325120D02*
D03*
X536702Y333756D02*
D03*
X546354Y339090D02*
D03*
X622167Y346384D02*
D03*
X615188Y342392D02*
D03*
X669290Y655066D02*
D03*
X704850Y627888D02*
D03*
X699262Y592328D02*
D03*
X699516Y607822D02*
D03*
X744474Y563880D02*
D03*
Y572770D02*
D03*
X756412Y562864D02*
D03*
X713740Y562102D02*
D03*
X663448Y605790D02*
D03*
X670814Y562610D02*
D03*
X666242Y634238D02*
D03*
X651764Y675132D02*
D03*
X676910Y594360D02*
D03*
X694690Y627380D02*
D03*
X355600Y720090D02*
D03*
X356870Y701040D02*
D03*
Y684530D02*
D03*
Y665480D02*
D03*
Y654050D02*
D03*
X328930Y674370D02*
D03*
Y687070D02*
D03*
Y657860D02*
D03*
X342900Y615950D02*
D03*
X330200Y618490D02*
D03*
X306070Y626110D02*
D03*
X321310Y624840D02*
D03*
X283210Y648970D02*
D03*
X276860Y660400D02*
D03*
X259080Y665480D02*
D03*
X229870Y635000D02*
D03*
X205740Y609600D02*
D03*
X191770Y590550D02*
D03*
X252730Y595630D02*
D03*
X207010D02*
D03*
X170180Y689610D02*
D03*
X161290Y609600D02*
D03*
X124460Y650240D02*
D03*
X133350Y645160D02*
D03*
Y633730D02*
D03*
X144780Y607060D02*
D03*
X129540Y595630D02*
D03*
X128270Y584200D02*
D03*
X133350Y608330D02*
D03*
X336550Y586740D02*
D03*
X669290Y773430D02*
D03*
X709930Y760730D02*
D03*
X708660Y708660D02*
D03*
X670560Y737870D02*
D03*
Y721360D02*
D03*
X665480Y706120D02*
D03*
X655320Y725170D02*
D03*
Y737870D02*
D03*
Y773430D02*
D03*
X669290Y754380D02*
D03*
X781050Y271780D02*
D03*
X754380Y233680D02*
D03*
X755650Y264160D02*
D03*
X732790Y262890D02*
D03*
X708660D02*
D03*
X697230Y271780D02*
D03*
X737870Y234950D02*
D03*
X725170D02*
D03*
X708660D02*
D03*
X695960Y241300D02*
D03*
X671830Y269240D02*
D03*
X670560Y298450D02*
D03*
X490220Y121920D02*
D03*
X476250Y107950D02*
D03*
X454660Y105410D02*
D03*
X401320Y106680D02*
D03*
X354330Y107950D02*
D03*
X334010Y119380D02*
D03*
X383540Y133350D02*
D03*
X410210Y132080D02*
D03*
X448310D02*
D03*
X459740Y140970D02*
D03*
X463550Y162560D02*
D03*
Y179070D02*
D03*
Y193040D02*
D03*
X447040Y191770D02*
D03*
X425450D02*
D03*
X405130Y193040D02*
D03*
X379730D02*
D03*
X382270Y181610D02*
D03*
X118110Y111760D02*
D03*
X100330D02*
D03*
X66040D02*
D03*
X161290Y124460D02*
D03*
X170180Y129540D02*
D03*
X139700Y118110D02*
D03*
X151130Y128270D02*
D03*
X161290Y140970D02*
D03*
X170180Y153670D02*
D03*
X231140Y349250D02*
D03*
X215900Y322580D02*
D03*
X227330D02*
D03*
X223520Y353060D02*
D03*
X213360D02*
D03*
X275590Y406400D02*
D03*
Y379730D02*
D03*
Y391160D02*
D03*
X102870Y354330D02*
D03*
X55880Y332740D02*
D03*
X57150Y351790D02*
D03*
X66040Y303530D02*
D03*
X104140Y311150D02*
D03*
X106680Y302260D02*
D03*
X86360D02*
D03*
X64770Y314960D02*
D03*
Y331470D02*
D03*
X275590Y400050D02*
D03*
X184150Y224790D02*
D03*
X168910Y248920D02*
D03*
X161290Y262890D02*
D03*
X167640Y323850D02*
D03*
Y353060D02*
D03*
Y382270D02*
D03*
X421640Y358140D02*
D03*
X452120Y252730D02*
D03*
X800100Y591820D02*
D03*
Y603250D02*
D03*
Y617220D02*
D03*
X782320Y576580D02*
D03*
Y562610D02*
D03*
X781050Y546100D02*
D03*
X853440Y548640D02*
D03*
X730250Y594360D02*
D03*
X711200Y595630D02*
D03*
X551180Y580390D02*
D03*
X575310Y436880D02*
D03*
X322580Y194310D02*
D03*
X304800Y193040D02*
D03*
X284480Y191770D02*
D03*
X264160Y190500D02*
D03*
X322580Y201930D02*
D03*
X304800D02*
D03*
X284480D02*
D03*
X264160D02*
D03*
X341630Y363220D02*
D03*
X491490Y292100D02*
D03*
X542290Y293370D02*
D03*
X491490Y345440D02*
D03*
X369570Y397510D02*
D03*
X575310Y447040D02*
D03*
X711200Y424180D02*
D03*
X506730Y429260D02*
D03*
X497840Y397510D02*
D03*
X525780Y443230D02*
D03*
X561340Y355600D02*
D03*
X509778Y127000D02*
D03*
X516611Y117045D02*
D03*
X683580Y663514D02*
D03*
X667500Y352500D02*
D03*
X322072Y279400D02*
D03*
X274066Y650494D02*
D03*
X267208Y665226D02*
D03*
X804926Y426720D02*
D03*
X670560Y697484D02*
D03*
X798830Y549910D02*
D03*
X748284Y256059D02*
D03*
X489204Y316738D02*
D03*
X474726Y277622D02*
D03*
X466852Y437388D02*
D03*
X417576Y427482D02*
D03*
X481076Y751078D02*
D03*
X504698Y348742D02*
D03*
X529844D02*
D03*
X540004D02*
D03*
X350266Y121666D02*
D03*
X370332Y115824D02*
D03*
X485140Y277622D02*
D03*
X748284Y243358D02*
D03*
X660654Y426720D02*
D03*
X689356Y576072D02*
D03*
X694690Y762508D02*
D03*
X654304Y763524D02*
D03*
X655066Y687832D02*
D03*
D123*
X650206Y356680D02*
D03*
X644398Y354838D02*
D03*
X639064Y360426D02*
D03*
X633971Y355245D02*
D03*
X628650Y351282D02*
D03*
X681482Y704850D02*
D03*
X661924Y668782D02*
D03*
X676402Y680466D02*
D03*
X265430Y688340D02*
D03*
X251460D02*
D03*
X234950D02*
D03*
X157480D02*
D03*
X180340Y693420D02*
D03*
X109220Y547370D02*
D03*
Y594360D02*
D03*
X176530Y608330D02*
D03*
X181610Y623570D02*
D03*
X146050Y614680D02*
D03*
X260350Y646430D02*
D03*
X252730D02*
D03*
X214630Y664210D02*
D03*
X166260Y632530D02*
D03*
X245110Y646430D02*
D03*
X248920Y628650D02*
D03*
X241300D02*
D03*
X231140D02*
D03*
X212090Y647700D02*
D03*
X157480Y632460D02*
D03*
X176530Y642620D02*
D03*
X191770Y650240D02*
D03*
Y642620D02*
D03*
X516636Y261112D02*
D03*
X545592Y373634D02*
D03*
X534924Y373126D02*
D03*
X520700Y342138D02*
D03*
X513588D02*
D03*
X493776Y165100D02*
D03*
X499110Y136144D02*
D03*
X504952Y164846D02*
D03*
X509778Y257556D02*
D03*
X504698Y263652D02*
D03*
X499364Y258064D02*
D03*
X494538Y263906D02*
D03*
D124*
X537210Y303530D02*
D03*
X523240D02*
D03*
X492500Y335000D02*
D03*
X508000Y303530D02*
D03*
X492760D02*
D03*
X158750Y311010D02*
D03*
X446532Y466852D02*
D03*
X151384Y349110D02*
D03*
X399542Y474726D02*
D03*
X615950Y649590D02*
D03*
X623062Y636890D02*
D03*
D125*
X25000Y775000D02*
D03*
Y25000D02*
D03*
X875000Y775000D02*
D03*
Y25000D02*
D03*
M02*
