G04*
G04 #@! TF.GenerationSoftware,Altium Limited,Altium Designer,23.0.1 (38)*
G04*
G04 Layer_Physical_Order=1*
G04 Layer_Color=255*
%FSLAX44Y44*%
%MOMM*%
G71*
G04*
G04 #@! TF.SameCoordinates,6FF5410F-6566-4CAA-8283-5BB090145FDD*
G04*
G04*
G04 #@! TF.FilePolarity,Positive*
G04*
G01*
G75*
%ADD10C,0.2540*%
%ADD11C,0.2000*%
%ADD20C,0.3000*%
%ADD21R,1.0000X1.0000*%
%ADD22C,1.0000*%
%ADD23R,1.0000X1.4000*%
%ADD24R,1.0000X1.0000*%
%ADD25R,2.0000X0.9000*%
%ADD26R,0.9000X2.0000*%
%ADD27R,1.3300X1.3300*%
G04:AMPARAMS|DCode=28|XSize=1.6mm|YSize=0.61mm|CornerRadius=0.0153mm|HoleSize=0mm|Usage=FLASHONLY|Rotation=0.000|XOffset=0mm|YOffset=0mm|HoleType=Round|Shape=RoundedRectangle|*
%AMROUNDEDRECTD28*
21,1,1.6000,0.5795,0,0,0.0*
21,1,1.5695,0.6100,0,0,0.0*
1,1,0.0305,0.7847,-0.2898*
1,1,0.0305,-0.7847,-0.2898*
1,1,0.0305,-0.7847,0.2898*
1,1,0.0305,0.7847,0.2898*
%
%ADD28ROUNDEDRECTD28*%
G04:AMPARAMS|DCode=29|XSize=1mm|YSize=0.8001mm|CornerRadius=0.12mm|HoleSize=0mm|Usage=FLASHONLY|Rotation=0.000|XOffset=0mm|YOffset=0mm|HoleType=Round|Shape=RoundedRectangle|*
%AMROUNDEDRECTD29*
21,1,1.0000,0.5601,0,0,0.0*
21,1,0.7600,0.8001,0,0,0.0*
1,1,0.2400,0.3800,-0.2800*
1,1,0.2400,-0.3800,-0.2800*
1,1,0.2400,-0.3800,0.2800*
1,1,0.2400,0.3800,0.2800*
%
%ADD29ROUNDEDRECTD29*%
%ADD30R,1.2000X0.8000*%
%ADD31R,1.8001X1.6000*%
%ADD32R,3.5400X2.6000*%
%ADD33R,3.6600X2.6000*%
%ADD34R,1.9812X0.5334*%
%ADD35R,0.6000X1.5500*%
G04:AMPARAMS|DCode=36|XSize=0.28mm|YSize=1.56mm|CornerRadius=0.07mm|HoleSize=0mm|Usage=FLASHONLY|Rotation=270.000|XOffset=0mm|YOffset=0mm|HoleType=Round|Shape=RoundedRectangle|*
%AMROUNDEDRECTD36*
21,1,0.2800,1.4200,0,0,270.0*
21,1,0.1400,1.5600,0,0,270.0*
1,1,0.1400,-0.7100,-0.0700*
1,1,0.1400,-0.7100,0.0700*
1,1,0.1400,0.7100,0.0700*
1,1,0.1400,0.7100,-0.0700*
%
%ADD36ROUNDEDRECTD36*%
G04:AMPARAMS|DCode=37|XSize=0.28mm|YSize=1.56mm|CornerRadius=0.07mm|HoleSize=0mm|Usage=FLASHONLY|Rotation=180.000|XOffset=0mm|YOffset=0mm|HoleType=Round|Shape=RoundedRectangle|*
%AMROUNDEDRECTD37*
21,1,0.2800,1.4200,0,0,180.0*
21,1,0.1400,1.5600,0,0,180.0*
1,1,0.1400,-0.0700,0.7100*
1,1,0.1400,0.0700,0.7100*
1,1,0.1400,0.0700,-0.7100*
1,1,0.1400,-0.0700,-0.7100*
%
%ADD37ROUNDEDRECTD37*%
%ADD38R,3.3000X1.7000*%
%ADD39R,1.6000X1.8001*%
G04:AMPARAMS|DCode=40|XSize=1mm|YSize=0.8001mm|CornerRadius=0.12mm|HoleSize=0mm|Usage=FLASHONLY|Rotation=90.000|XOffset=0mm|YOffset=0mm|HoleType=Round|Shape=RoundedRectangle|*
%AMROUNDEDRECTD40*
21,1,1.0000,0.5601,0,0,90.0*
21,1,0.7600,0.8001,0,0,90.0*
1,1,0.2400,0.2800,0.3800*
1,1,0.2400,0.2800,-0.3800*
1,1,0.2400,-0.2800,-0.3800*
1,1,0.2400,-0.2800,0.3800*
%
%ADD40ROUNDEDRECTD40*%
%ADD41R,1.4000X1.5000*%
G04:AMPARAMS|DCode=42|XSize=1mm|YSize=1.42mm|CornerRadius=0.125mm|HoleSize=0mm|Usage=FLASHONLY|Rotation=0.000|XOffset=0mm|YOffset=0mm|HoleType=Round|Shape=RoundedRectangle|*
%AMROUNDEDRECTD42*
21,1,1.0000,1.1700,0,0,0.0*
21,1,0.7500,1.4200,0,0,0.0*
1,1,0.2500,0.3750,-0.5850*
1,1,0.2500,-0.3750,-0.5850*
1,1,0.2500,-0.3750,0.5850*
1,1,0.2500,0.3750,0.5850*
%
%ADD42ROUNDEDRECTD42*%
%ADD43R,2.0000X3.0000*%
%ADD44R,1.2000X1.8000*%
%ADD45R,3.5000X1.8000*%
G04:AMPARAMS|DCode=46|XSize=1.9mm|YSize=0.6mm|CornerRadius=0.075mm|HoleSize=0mm|Usage=FLASHONLY|Rotation=0.000|XOffset=0mm|YOffset=0mm|HoleType=Round|Shape=RoundedRectangle|*
%AMROUNDEDRECTD46*
21,1,1.9000,0.4500,0,0,0.0*
21,1,1.7500,0.6000,0,0,0.0*
1,1,0.1500,0.8750,-0.2250*
1,1,0.1500,-0.8750,-0.2250*
1,1,0.1500,-0.8750,0.2250*
1,1,0.1500,0.8750,0.2250*
%
%ADD46ROUNDEDRECTD46*%
G04:AMPARAMS|DCode=47|XSize=1mm|YSize=1.42mm|CornerRadius=0.125mm|HoleSize=0mm|Usage=FLASHONLY|Rotation=270.000|XOffset=0mm|YOffset=0mm|HoleType=Round|Shape=RoundedRectangle|*
%AMROUNDEDRECTD47*
21,1,1.0000,1.1700,0,0,270.0*
21,1,0.7500,1.4200,0,0,270.0*
1,1,0.2500,-0.5850,-0.3750*
1,1,0.2500,-0.5850,0.3750*
1,1,0.2500,0.5850,0.3750*
1,1,0.2500,0.5850,-0.3750*
%
%ADD47ROUNDEDRECTD47*%
%ADD48R,2.7000X1.0000*%
%ADD49R,6.4000X6.2000*%
%ADD50R,4.2400X3.8100*%
%ADD51R,1.5000X1.4000*%
%ADD52R,1.4700X1.1400*%
%ADD53C,0.8000*%
%ADD54R,0.7000X1.6000*%
%ADD55R,1.1999X2.1999*%
%ADD56R,1.4001X1.6000*%
%ADD57R,1.1999X1.6000*%
G04:AMPARAMS|DCode=58|XSize=0.9mm|YSize=2.8mm|CornerRadius=0.018mm|HoleSize=0mm|Usage=FLASHONLY|Rotation=0.000|XOffset=0mm|YOffset=0mm|HoleType=Round|Shape=RoundedRectangle|*
%AMROUNDEDRECTD58*
21,1,0.9000,2.7640,0,0,0.0*
21,1,0.8640,2.8000,0,0,0.0*
1,1,0.0360,0.4320,-1.3820*
1,1,0.0360,-0.4320,-1.3820*
1,1,0.0360,-0.4320,1.3820*
1,1,0.0360,0.4320,1.3820*
%
%ADD58ROUNDEDRECTD58*%
%ADD59R,2.5000X5.0000*%
G04:AMPARAMS|DCode=60|XSize=1.61mm|YSize=0.58mm|CornerRadius=0.0725mm|HoleSize=0mm|Usage=FLASHONLY|Rotation=270.000|XOffset=0mm|YOffset=0mm|HoleType=Round|Shape=RoundedRectangle|*
%AMROUNDEDRECTD60*
21,1,1.6100,0.4350,0,0,270.0*
21,1,1.4650,0.5800,0,0,270.0*
1,1,0.1450,-0.2175,-0.7325*
1,1,0.1450,-0.2175,0.7325*
1,1,0.1450,0.2175,0.7325*
1,1,0.1450,0.2175,-0.7325*
%
%ADD60ROUNDEDRECTD60*%
%ADD61R,3.0000X2.0000*%
%ADD111R,2.6200X3.5100*%
%ADD112C,1.0000*%
%ADD113C,0.5000*%
%ADD114C,0.6000*%
%ADD115C,0.8000*%
%ADD116C,0.4000*%
%ADD117C,1.3000*%
%ADD118O,2.5000X3.5000*%
%ADD119O,1.5000X2.5000*%
%ADD120O,2.5000X1.5000*%
%ADD121O,3.0000X1.8000*%
%ADD122C,0.5000*%
%ADD123C,0.4000*%
%ADD124C,0.6000*%
%ADD125C,4.1000*%
G36*
X852752Y778483D02*
X852500Y777216D01*
Y772784D01*
X852752Y771517D01*
Y752500D01*
X896941D01*
X896941Y47500D01*
X851425D01*
Y3059D01*
X47752Y3059D01*
Y47500D01*
X3059D01*
X3059Y524250D01*
X26663D01*
Y500888D01*
X26663Y495554D01*
X26663Y495554D01*
X26818Y494774D01*
X27260Y494112D01*
X32594Y488778D01*
X33256Y488336D01*
X34036Y488181D01*
X79756D01*
X79756Y488181D01*
X80536Y488336D01*
X81198Y488778D01*
X81198Y488778D01*
X86965Y494545D01*
X88138Y494059D01*
Y455683D01*
X69088D01*
X69088Y455683D01*
X68308Y455528D01*
X67646Y455086D01*
X51390Y438830D01*
X50948Y438168D01*
X50793Y437388D01*
Y376257D01*
X48685Y374149D01*
X44196D01*
X43416Y373994D01*
X42754Y373552D01*
X42754Y373552D01*
X35134Y365932D01*
X35134Y365932D01*
X34692Y365270D01*
X34537Y364490D01*
Y258826D01*
X34537Y258826D01*
X34692Y258046D01*
X35134Y257384D01*
X35134Y257384D01*
X35540Y256978D01*
Y249233D01*
X27774Y241466D01*
X26651Y240004D01*
X25946Y238301D01*
X25706Y236474D01*
Y204512D01*
X25647Y204216D01*
Y183896D01*
X25802Y183116D01*
X26244Y182454D01*
X26498Y182200D01*
X27160Y181758D01*
X27940Y181603D01*
X37592D01*
X37592Y181603D01*
X38372Y181758D01*
X38372Y181758D01*
X39034Y182200D01*
X39288Y182454D01*
X39288Y182454D01*
X39730Y183116D01*
X39730Y183116D01*
X39885Y183896D01*
Y204216D01*
X39885Y204216D01*
X39826Y204512D01*
Y233549D01*
X47592Y241315D01*
X48714Y242778D01*
X49420Y244481D01*
X49660Y246308D01*
Y256835D01*
X49702Y256876D01*
X50144Y257538D01*
X50299Y258318D01*
Y260013D01*
X51645Y261359D01*
X73003D01*
X73003Y261359D01*
X73552Y261468D01*
X73787D01*
X74627Y261635D01*
X75339Y262111D01*
X75815Y262823D01*
X75982Y263662D01*
Y263678D01*
X76052Y263783D01*
X76207Y264563D01*
X76207Y269494D01*
X76120Y269930D01*
X76052Y270274D01*
X76052Y270274D01*
X76052Y270274D01*
X75769Y270697D01*
X75610Y270936D01*
X75610Y270936D01*
X75610Y270936D01*
X75356Y271190D01*
X75356Y271190D01*
X74950Y271461D01*
X74694Y271632D01*
X74694Y271632D01*
X74694Y271632D01*
X74302Y271710D01*
X73914Y271787D01*
X73914Y271787D01*
X73914Y271787D01*
X51222Y271787D01*
X50299Y272710D01*
X50299Y357803D01*
X51645Y359149D01*
X56642Y359149D01*
X57422Y359304D01*
X58084Y359746D01*
X58084Y359746D01*
X67990Y369652D01*
X68432Y370314D01*
X68587Y371094D01*
X68587Y384981D01*
X73489Y389883D01*
X166624D01*
X166624Y389883D01*
X167404Y390038D01*
X168066Y390480D01*
X169247Y391661D01*
X190054Y391661D01*
X190054Y391661D01*
X190834Y391816D01*
X191496Y392258D01*
X191496Y392258D01*
X192115Y392878D01*
X192179Y392921D01*
X192222Y392985D01*
X192450Y393212D01*
X192892Y393874D01*
X193047Y394654D01*
X193047Y400050D01*
X193047Y400050D01*
X192892Y400830D01*
X192450Y401492D01*
X192450Y401492D01*
X192294Y401648D01*
X192179Y401819D01*
X192008Y401934D01*
X191434Y402508D01*
X191434Y402508D01*
X190772Y402950D01*
X189992Y403105D01*
X168993D01*
X168066Y404032D01*
X167404Y404474D01*
X166624Y404629D01*
X71203D01*
X68587Y407245D01*
Y430193D01*
X75521Y437127D01*
X106420D01*
Y434402D01*
X140420D01*
Y443400D01*
X158421D01*
Y513402D01*
X140420D01*
Y522400D01*
X106420D01*
Y520199D01*
X87376D01*
X87376Y520199D01*
X86596Y520044D01*
X85934Y519602D01*
X74085Y507753D01*
X60535D01*
X58681Y509607D01*
Y524250D01*
X70750D01*
Y590250D01*
X3059D01*
Y752500D01*
X47752D01*
Y796941D01*
X460291Y796941D01*
Y788386D01*
X460446Y787606D01*
X460888Y786944D01*
X461550Y786502D01*
X462330Y786347D01*
X462752D01*
Y785000D01*
X642752D01*
Y786431D01*
X643110Y786502D01*
X643772Y786944D01*
X644214Y787606D01*
X644369Y788386D01*
Y796941D01*
X852752Y796941D01*
Y778483D01*
D02*
G37*
G36*
X56642Y570484D02*
Y508762D01*
X59690Y505714D01*
X74930D01*
X87376Y518160D01*
X135890D01*
X138176Y515874D01*
Y504698D01*
X136144Y502666D01*
X92202D01*
X79756Y490220D01*
X34036D01*
X28702Y495554D01*
X28702Y500888D01*
Y572008D01*
X35052Y578358D01*
X48768D01*
X56642Y570484D01*
D02*
G37*
G36*
X134874Y449580D02*
Y443992D01*
X130048Y439166D01*
X74676D01*
X66548Y431038D01*
Y406400D01*
X70358Y402590D01*
X166624D01*
X168148Y401066D01*
X189992D01*
X191008Y400050D01*
X191008Y394654D01*
X190054Y393700D01*
X168402Y393700D01*
X166624Y391922D01*
X72644D01*
X66548Y385826D01*
X66548Y371094D01*
X56642Y361188D01*
X50800Y361188D01*
X48260Y358648D01*
X48260Y271780D01*
X50292Y269748D01*
X73914Y269748D01*
X74168Y269494D01*
X74168Y264563D01*
X73003Y263398D01*
X50800D01*
X48260Y260858D01*
Y258318D01*
X47752Y257810D01*
X37592D01*
X36576Y258826D01*
Y364490D01*
X44196Y372110D01*
X49530D01*
X52832Y375412D01*
Y437388D01*
X69088Y453644D01*
X130810D01*
X134874Y449580D01*
D02*
G37*
G36*
X37846Y204216D02*
Y183896D01*
X37592Y183642D01*
X27940D01*
X27686Y183896D01*
Y204216D01*
X27940Y204470D01*
X37592D01*
X37846Y204216D01*
D02*
G37*
%LPC*%
G36*
X649330Y770286D02*
X625330D01*
Y757286D01*
Y741720D01*
X621800D01*
X620524Y741466D01*
X619442Y740744D01*
X616601Y737902D01*
X598678D01*
X597402Y737648D01*
X596320Y736926D01*
X586161Y726766D01*
X585438Y725684D01*
X585184Y724408D01*
Y690276D01*
X584022D01*
X581817Y689363D01*
X580129Y687675D01*
X579216Y685470D01*
Y683083D01*
X580129Y680877D01*
X581817Y679189D01*
X584022Y678276D01*
X586409D01*
X588615Y679189D01*
X589720Y680295D01*
X590550Y680743D01*
X591380Y680295D01*
X592485Y679189D01*
X594691Y678276D01*
X597077D01*
X599283Y679189D01*
X600971Y680877D01*
X601884Y683083D01*
Y685470D01*
X600971Y687675D01*
X599283Y689363D01*
X597077Y690276D01*
X596678D01*
Y720995D01*
X602091Y726408D01*
X616347D01*
X619426Y723328D01*
X620508Y722606D01*
X621784Y722352D01*
X625330D01*
Y706486D01*
Y693786D01*
Y681086D01*
Y668386D01*
Y652649D01*
X619962D01*
X618782Y653829D01*
X616945Y654590D01*
X614955D01*
X613118Y653829D01*
X611711Y652422D01*
X610950Y650585D01*
Y648595D01*
X611711Y646758D01*
X613118Y645351D01*
X614955Y644590D01*
X616945D01*
X618782Y645351D01*
X619962Y646531D01*
X625330D01*
Y642505D01*
X624274Y641800D01*
X624057Y641890D01*
X622067D01*
X620230Y641129D01*
X618823Y639722D01*
X618062Y637885D01*
Y635895D01*
X618823Y634058D01*
X620230Y632651D01*
X622067Y631890D01*
X624057D01*
X624274Y631980D01*
X625330Y631274D01*
Y615947D01*
X624060Y615427D01*
X614917Y624569D01*
X613760Y625343D01*
X612394Y625615D01*
X492089D01*
X490571Y627133D01*
X488366Y628046D01*
X485979D01*
X483773Y627133D01*
X482085Y625445D01*
X481172Y623240D01*
Y620853D01*
X482085Y618647D01*
X483773Y616959D01*
X485979Y616046D01*
X488366D01*
X490571Y616959D01*
X492089Y618477D01*
X610916D01*
X614737Y614656D01*
X614211Y613386D01*
X501380D01*
Y589386D01*
X504311D01*
Y586159D01*
X503582Y585737D01*
X502279Y584434D01*
X501357Y582838D01*
X500880Y581058D01*
Y579214D01*
X501357Y577434D01*
X502279Y575838D01*
X503582Y574535D01*
X505178Y573613D01*
X506958Y573136D01*
X508801D01*
X510582Y573613D01*
X512178Y574535D01*
X513481Y575838D01*
X514403Y577434D01*
X514880Y579214D01*
Y581058D01*
X514403Y582838D01*
X513481Y584434D01*
X512178Y585737D01*
X511449Y586159D01*
Y589386D01*
X593333D01*
Y583659D01*
X592094Y582943D01*
X590791Y581640D01*
X589869Y580044D01*
X589392Y578264D01*
Y576420D01*
X589869Y574640D01*
X590791Y573044D01*
X592094Y571741D01*
X593690Y570819D01*
X595470Y570342D01*
X597314D01*
X599094Y570819D01*
X600690Y571741D01*
X601993Y573044D01*
X602915Y574640D01*
X603135Y575460D01*
X604449D01*
X604601Y574894D01*
X605523Y573298D01*
X606826Y571995D01*
X608422Y571073D01*
X610202Y570596D01*
X612046D01*
X613826Y571073D01*
X615422Y571995D01*
X616725Y573298D01*
X617647Y574894D01*
X618124Y576674D01*
Y578518D01*
X617647Y580298D01*
X616725Y581894D01*
X615422Y583197D01*
X614183Y583913D01*
Y589386D01*
X615980D01*
Y611617D01*
X617250Y612143D01*
X620427Y608967D01*
X621584Y608193D01*
X622950Y607921D01*
X625330D01*
Y604886D01*
X649330D01*
Y607921D01*
X655940D01*
X657306Y608193D01*
X658463Y608967D01*
X660608Y611111D01*
X692150D01*
X693516Y611383D01*
X694673Y612157D01*
X697213Y614697D01*
X697987Y615854D01*
X698259Y617220D01*
Y624585D01*
X698505Y624831D01*
X699190Y626485D01*
Y628275D01*
X698505Y629929D01*
X697239Y631195D01*
X695585Y631880D01*
X693795D01*
X692141Y631195D01*
X690875Y629929D01*
X690190Y628275D01*
Y626485D01*
X690875Y624831D01*
X691121Y624585D01*
Y618698D01*
X690672Y618249D01*
X662448D01*
X661922Y619519D01*
X662191Y619788D01*
X663113Y621384D01*
X663590Y623164D01*
Y625008D01*
X663113Y626788D01*
X662191Y628384D01*
X660888Y629687D01*
X659292Y630609D01*
X657512Y631086D01*
X655668D01*
X653888Y630609D01*
X652292Y629687D01*
X650989Y628384D01*
X650567Y627655D01*
X649330D01*
Y642986D01*
Y655686D01*
Y659231D01*
X666092D01*
X666093Y659231D01*
X667263Y659464D01*
X668255Y660127D01*
X674106Y665977D01*
X678587D01*
X679292Y664921D01*
X679080Y664409D01*
Y662619D01*
X679765Y660965D01*
X681031Y659699D01*
X682685Y659014D01*
X684475D01*
X686129Y659699D01*
X686885Y660455D01*
X714439D01*
X716024Y658870D01*
X716020Y657340D01*
X715418Y656438D01*
X715207Y655375D01*
Y640725D01*
X715418Y639662D01*
X715980Y638821D01*
X715910Y638479D01*
X715545Y637551D01*
X712075D01*
X711710Y638479D01*
X711640Y638821D01*
X712202Y639662D01*
X712413Y640725D01*
Y655375D01*
X712202Y656438D01*
X711600Y657340D01*
X710698Y657942D01*
X709635Y658153D01*
X705285D01*
X704222Y657942D01*
X703320Y657340D01*
X702718Y656438D01*
X702507Y655375D01*
Y640725D01*
X702718Y639662D01*
X703320Y638760D01*
X704222Y638158D01*
X704311Y638140D01*
X704401Y636962D01*
X704634Y635792D01*
X705297Y634799D01*
X707767Y632329D01*
X707767Y632329D01*
X708760Y631666D01*
X709930Y631433D01*
X738886D01*
X738886Y631433D01*
X740057Y631666D01*
X741049Y632329D01*
X743737Y635017D01*
X744910Y634531D01*
Y632660D01*
X758910D01*
Y646660D01*
X744910D01*
Y643558D01*
X744054Y642719D01*
X742884Y642486D01*
X741891Y641823D01*
X741891Y641823D01*
X738495Y638427D01*
X738309Y638434D01*
X737602Y639662D01*
X737813Y640725D01*
Y655375D01*
X737602Y656438D01*
X737000Y657340D01*
X736098Y657942D01*
X735919Y657978D01*
Y665977D01*
X763527D01*
X765361Y664143D01*
Y646800D01*
X761420D01*
Y632800D01*
X775420D01*
Y646800D01*
X771479D01*
Y665410D01*
X771479Y665410D01*
X771246Y666581D01*
X770583Y667573D01*
X770583Y667573D01*
X766957Y671199D01*
X765965Y671862D01*
X764794Y672095D01*
X764794Y672095D01*
X733044D01*
X733044Y672095D01*
X733044Y672095D01*
X672839D01*
X671668Y671862D01*
X670676Y671199D01*
X670676Y671199D01*
X664826Y665349D01*
X649330D01*
Y670126D01*
X650386Y670832D01*
X650869Y670632D01*
X652659D01*
X654313Y671317D01*
X655579Y672583D01*
X656264Y674237D01*
Y676027D01*
X655579Y677681D01*
X654313Y678947D01*
X652659Y679632D01*
X650869D01*
X650386Y679432D01*
X649330Y680137D01*
Y684773D01*
X651761D01*
X652517Y684017D01*
X654171Y683332D01*
X655961D01*
X657615Y684017D01*
X658881Y685283D01*
X659566Y686937D01*
Y688727D01*
X658881Y690381D01*
X657615Y691647D01*
X655961Y692332D01*
X654171D01*
X652517Y691647D01*
X651761Y690891D01*
X649330D01*
Y693786D01*
Y709521D01*
X650567D01*
X650989Y708792D01*
X652292Y707489D01*
X653888Y706567D01*
X655668Y706090D01*
X657512D01*
X659292Y706567D01*
X660888Y707489D01*
X662191Y708792D01*
X663113Y710388D01*
X663590Y712168D01*
Y714012D01*
X663113Y715792D01*
X662191Y717388D01*
X660888Y718691D01*
X659292Y719613D01*
X657512Y720090D01*
X655668D01*
X653888Y719613D01*
X652292Y718691D01*
X650989Y717388D01*
X650567Y716659D01*
X649330D01*
Y731886D01*
Y747621D01*
X650567D01*
X650989Y746892D01*
X652292Y745589D01*
X653888Y744667D01*
X655668Y744190D01*
X657512D01*
X659292Y744667D01*
X660888Y745589D01*
X662191Y746892D01*
X663113Y748488D01*
X663590Y750268D01*
Y752112D01*
X663113Y753892D01*
X662191Y755488D01*
X660888Y756791D01*
X659292Y757713D01*
X657512Y758190D01*
X656504D01*
X656252Y759460D01*
X656853Y759709D01*
X658119Y760975D01*
X658804Y762629D01*
Y764419D01*
X658119Y766073D01*
X656853Y767339D01*
X655199Y768024D01*
X653409D01*
X651755Y767339D01*
X650999Y766583D01*
X649330D01*
Y770286D01*
D02*
G37*
G36*
X704104Y782818D02*
X685104D01*
Y764818D01*
X689633D01*
X690339Y763762D01*
X690190Y763403D01*
Y761613D01*
X690875Y759959D01*
X692141Y758693D01*
X693795Y758008D01*
X695585D01*
X697239Y758693D01*
X698505Y759959D01*
X699190Y761613D01*
Y763403D01*
X699041Y763762D01*
X699747Y764818D01*
X704104D01*
Y769230D01*
X715770D01*
X719986Y765014D01*
Y751608D01*
X717574D01*
Y737608D01*
X731574D01*
Y740020D01*
X735494D01*
Y737608D01*
X749494D01*
Y751608D01*
X735494D01*
Y749196D01*
X731574D01*
Y751608D01*
X729162D01*
Y766914D01*
X728813Y768670D01*
X727818Y770158D01*
X720914Y777062D01*
X719426Y778057D01*
X717670Y778406D01*
X704104D01*
Y782818D01*
D02*
G37*
G36*
X749494Y735098D02*
X735494D01*
Y731667D01*
X731574D01*
Y735098D01*
X717574D01*
Y721098D01*
X721005D01*
Y710304D01*
X711888Y701187D01*
X704104D01*
Y706618D01*
X685104D01*
Y701053D01*
X673355D01*
X673109Y701299D01*
X671455Y701984D01*
X669665D01*
X668011Y701299D01*
X666745Y700033D01*
X666060Y698379D01*
Y696589D01*
X666745Y694935D01*
X668011Y693669D01*
X669665Y692984D01*
X671455D01*
X673109Y693669D01*
X673355Y693915D01*
X685104D01*
Y688618D01*
X704104D01*
Y694049D01*
X713366D01*
X714732Y694321D01*
X715889Y695095D01*
X727097Y706303D01*
X727871Y707460D01*
X728143Y708826D01*
Y721098D01*
X731574D01*
Y724529D01*
X735494D01*
Y721098D01*
X749494D01*
Y735098D01*
D02*
G37*
G36*
X413950Y772230D02*
X395250D01*
Y756830D01*
X413950D01*
Y759622D01*
X416650D01*
Y757380D01*
X430650D01*
Y759622D01*
X433160D01*
Y757380D01*
X447160D01*
Y759622D01*
X455330D01*
Y744586D01*
Y729359D01*
X453735D01*
X452217Y730876D01*
X450011Y731790D01*
X447625D01*
X445419Y730876D01*
X443731Y729189D01*
X442818Y726983D01*
Y724596D01*
X443731Y722391D01*
X445419Y720703D01*
X446810Y720127D01*
Y718753D01*
X445419Y718176D01*
X443731Y716489D01*
X442818Y714284D01*
Y711897D01*
X443731Y709691D01*
X445419Y708003D01*
X446810Y707427D01*
Y706053D01*
X445419Y705477D01*
X443731Y703789D01*
X442818Y701583D01*
Y700502D01*
X441568Y699694D01*
X441469Y699746D01*
X441483Y699710D01*
X441548Y699681D01*
X441483Y699710D01*
X441230Y700323D01*
X440526Y702021D01*
X439003Y704005D01*
X437019Y705528D01*
X434708Y706486D01*
X432228Y706812D01*
X422228D01*
X419748Y706486D01*
X417437Y705528D01*
X415452Y704005D01*
X413930Y702021D01*
X412972Y699710D01*
X412646Y697230D01*
X412972Y694750D01*
X413930Y692439D01*
X415452Y690454D01*
X417437Y688932D01*
X419748Y687974D01*
X422228Y687648D01*
X432228D01*
X434708Y687974D01*
X437019Y688932D01*
X439003Y690454D01*
X440526Y692439D01*
X441483Y694750D01*
X441810Y697230D01*
X441678Y698235D01*
X441789Y698363D01*
X443263Y698123D01*
X443731Y696991D01*
X445419Y695303D01*
X446810Y694727D01*
Y693353D01*
X445419Y692776D01*
X443731Y691089D01*
X442818Y688884D01*
Y686497D01*
X443731Y684291D01*
X445419Y682603D01*
X446810Y682027D01*
Y680653D01*
X445419Y680077D01*
X443731Y678389D01*
X442818Y676183D01*
Y675102D01*
X441568Y674294D01*
X441469Y674346D01*
X441483Y674310D01*
X441548Y674281D01*
X441483Y674310D01*
X441230Y674923D01*
X440526Y676621D01*
X439003Y678605D01*
X437019Y680128D01*
X434708Y681086D01*
X432228Y681412D01*
X422228D01*
X419748Y681086D01*
X417437Y680128D01*
X415452Y678605D01*
X413930Y676621D01*
X412972Y674310D01*
X412646Y671830D01*
X412972Y669350D01*
X413930Y667039D01*
X415452Y665054D01*
X417437Y663532D01*
X419748Y662574D01*
X422228Y662248D01*
X432228D01*
X434708Y662574D01*
X437019Y663532D01*
X439003Y665054D01*
X440526Y667039D01*
X441483Y669350D01*
X441810Y671830D01*
X441678Y672835D01*
X441789Y672963D01*
X443263Y672723D01*
X443731Y671591D01*
X445419Y669903D01*
X446810Y669327D01*
Y667953D01*
X445419Y667376D01*
X443731Y665689D01*
X442818Y663484D01*
Y661096D01*
X443731Y658891D01*
X445419Y657203D01*
X446945Y656571D01*
Y655197D01*
X445419Y654565D01*
X443731Y652877D01*
X442818Y650671D01*
Y649570D01*
X441548Y648869D01*
X441493Y648904D01*
X441483Y648910D01*
X441287Y649384D01*
X440526Y651221D01*
X439003Y653205D01*
X437019Y654728D01*
X434708Y655686D01*
X432228Y656012D01*
X422228D01*
X419748Y655686D01*
X417437Y654728D01*
X415452Y653205D01*
X413930Y651221D01*
X412972Y648910D01*
X412646Y646430D01*
X412972Y643950D01*
X413930Y641639D01*
X415452Y639655D01*
X417437Y638132D01*
X419748Y637174D01*
X422228Y636848D01*
X432228D01*
X434708Y637174D01*
X437019Y638132D01*
X439003Y639655D01*
X440526Y641639D01*
X441483Y643950D01*
X441810Y646430D01*
X441696Y647293D01*
X441802Y647420D01*
X442765Y647392D01*
X443269Y647196D01*
X443731Y646079D01*
X445419Y644391D01*
X446675Y643871D01*
Y642497D01*
X445419Y641976D01*
X443731Y640289D01*
X442818Y638083D01*
Y635696D01*
X443731Y633491D01*
X445419Y631803D01*
X446810Y631227D01*
Y629853D01*
X445419Y629277D01*
X443731Y627589D01*
X442818Y625383D01*
Y624302D01*
X441568Y623494D01*
X441469Y623546D01*
X441483Y623510D01*
X441548Y623481D01*
X441483Y623510D01*
X441230Y624123D01*
X440526Y625821D01*
X439003Y627805D01*
X437019Y629328D01*
X434708Y630285D01*
X432228Y630612D01*
X422228D01*
X419748Y630285D01*
X417437Y629328D01*
X415452Y627805D01*
X413930Y625821D01*
X412972Y623510D01*
X412646Y621030D01*
X412972Y618550D01*
X413930Y616239D01*
X415452Y614254D01*
X417437Y612732D01*
X419748Y611774D01*
X422228Y611448D01*
X432228D01*
X434708Y611774D01*
X437019Y612732D01*
X439003Y614254D01*
X440526Y616239D01*
X441483Y618550D01*
X441810Y621030D01*
X441678Y622035D01*
X441789Y622163D01*
X443263Y621923D01*
X443731Y620791D01*
X445419Y619103D01*
X446810Y618527D01*
Y617153D01*
X445419Y616576D01*
X443731Y614889D01*
X442818Y612683D01*
Y610297D01*
X443731Y608091D01*
X445419Y606403D01*
X447625Y605490D01*
X450011D01*
X452217Y606403D01*
X453735Y607921D01*
X455330D01*
Y604886D01*
X479330D01*
Y617586D01*
Y630286D01*
Y642986D01*
Y655686D01*
Y668386D01*
Y681086D01*
Y693786D01*
Y706486D01*
Y719186D01*
Y731886D01*
Y746009D01*
X480181Y746578D01*
X481971D01*
X483625Y747263D01*
X484891Y748529D01*
X485576Y750183D01*
Y751973D01*
X484891Y753627D01*
X483625Y754893D01*
X481971Y755578D01*
X480181D01*
X479330Y756147D01*
Y770286D01*
X455330D01*
Y768798D01*
X447160D01*
Y771380D01*
X433160D01*
Y768798D01*
X430650D01*
Y771380D01*
X416650D01*
Y768798D01*
X413950D01*
Y772230D01*
D02*
G37*
G36*
X240800Y764625D02*
X237015Y764127D01*
X233487Y762666D01*
X230459Y760341D01*
X228134Y757313D01*
X226673Y753785D01*
X226175Y750000D01*
Y740000D01*
X226673Y736215D01*
X228134Y732688D01*
X230459Y729659D01*
X233487Y727334D01*
X237015Y725873D01*
X237231Y725845D01*
Y707098D01*
X234742Y704609D01*
X154940D01*
X153574Y704337D01*
X152417Y703563D01*
X146237Y697383D01*
X145463Y696226D01*
X145191Y694860D01*
Y682460D01*
X141760D01*
Y668460D01*
X155760D01*
Y682460D01*
X152329D01*
Y693382D01*
X156418Y697471D01*
X236220D01*
X237586Y697743D01*
X238743Y698517D01*
X243323Y703097D01*
X244097Y704254D01*
X244369Y705620D01*
Y725845D01*
X244585Y725873D01*
X248113Y727334D01*
X251141Y729659D01*
X253466Y732688D01*
X254927Y736215D01*
X255425Y740000D01*
Y750000D01*
X254927Y753785D01*
X253466Y757313D01*
X251141Y760341D01*
X248113Y762666D01*
X244585Y764127D01*
X240800Y764625D01*
D02*
G37*
G36*
X218440Y695468D02*
X190500D01*
X188744Y695119D01*
X187256Y694124D01*
X182488Y689357D01*
X181494Y687868D01*
X181144Y686113D01*
Y682460D01*
X178732D01*
Y668460D01*
X192733D01*
Y682460D01*
X190321D01*
Y684212D01*
X192400Y686292D01*
X216539D01*
X218962Y683869D01*
Y682320D01*
X216550D01*
Y668320D01*
X230550D01*
Y670802D01*
X233060D01*
Y668320D01*
X247060D01*
Y670802D01*
X249570D01*
Y668320D01*
X262279D01*
X263093Y667050D01*
X262708Y666121D01*
Y664331D01*
X263393Y662677D01*
X264659Y661411D01*
X266313Y660726D01*
X268103D01*
X269757Y661411D01*
X271023Y662677D01*
X271708Y664331D01*
Y665011D01*
X272812Y666115D01*
X273535Y667196D01*
X273788Y668472D01*
Y669460D01*
X281131D01*
Y681460D01*
X265131D01*
Y679908D01*
X263570D01*
Y682320D01*
X249570D01*
Y679978D01*
X247060D01*
Y682320D01*
X233060D01*
Y679978D01*
X230550D01*
Y682320D01*
X228138D01*
Y685770D01*
X227789Y687526D01*
X226794Y689014D01*
X221684Y694124D01*
X220196Y695119D01*
X218440Y695468D01*
D02*
G37*
G36*
X190000Y764625D02*
X186215Y764127D01*
X182687Y762666D01*
X179659Y760341D01*
X177334Y757313D01*
X175873Y753785D01*
X175375Y750000D01*
Y740000D01*
X175873Y736215D01*
X177334Y732688D01*
X179659Y729659D01*
X180828Y728762D01*
Y726752D01*
X174114Y720038D01*
X129286D01*
X127459Y719798D01*
X125756Y719092D01*
X124294Y717970D01*
X98108Y691784D01*
X96986Y690322D01*
X96280Y688619D01*
X96040Y686792D01*
Y641940D01*
X79900D01*
Y599840D01*
X89690D01*
Y587250D01*
X81250D01*
Y573250D01*
X96291D01*
X96750Y573190D01*
X110246D01*
X115090Y568345D01*
Y551750D01*
X115150Y551291D01*
Y544750D01*
X121691D01*
X122150Y544690D01*
X122609Y544750D01*
X129150D01*
Y551291D01*
X129210Y551750D01*
Y571270D01*
X128970Y573097D01*
X128265Y574800D01*
X127142Y576262D01*
X118162Y585242D01*
X116700Y586365D01*
X114997Y587070D01*
X113170Y587310D01*
X103810D01*
Y599840D01*
X126300D01*
Y614772D01*
X138036D01*
X140377Y615238D01*
X142362Y616564D01*
X149524Y623726D01*
X150697Y623240D01*
Y617480D01*
X150946Y616231D01*
X151653Y615173D01*
X152711Y614466D01*
X153960Y614217D01*
X159561D01*
X160809Y614466D01*
X161868Y615173D01*
X162575Y616231D01*
X162768Y617202D01*
X166620D01*
X166620Y617202D01*
X168181Y617512D01*
X169504Y618396D01*
X179489Y628382D01*
X187879D01*
X188107Y628077D01*
X188441Y627112D01*
X187918Y626329D01*
X187670Y625080D01*
Y621553D01*
X187615Y621280D01*
Y611811D01*
X178822Y603018D01*
X154940D01*
X152599Y602552D01*
X150614Y601226D01*
X134334Y584946D01*
X133008Y582961D01*
X132542Y580620D01*
Y558750D01*
X131660D01*
Y544750D01*
X145660D01*
Y558750D01*
X144777D01*
Y578086D01*
X157474Y590783D01*
X181356D01*
X183697Y591248D01*
X185682Y592574D01*
X198059Y604951D01*
X199385Y606936D01*
X199850Y609277D01*
Y615163D01*
X212736D01*
X215077Y615628D01*
X217062Y616954D01*
X221994Y621886D01*
X223206D01*
X224454Y622135D01*
X225513Y622842D01*
X226220Y623901D01*
X226469Y625149D01*
Y630750D01*
X226220Y631999D01*
X225513Y633057D01*
X224454Y633764D01*
X223206Y634013D01*
X219679D01*
X219406Y634067D01*
X219133Y634013D01*
X217397D01*
X216870Y635283D01*
X220129Y638542D01*
X231140D01*
X231140Y638542D01*
X232701Y638852D01*
X234024Y639736D01*
X241481Y647194D01*
X241481Y647194D01*
X242365Y648517D01*
X242676Y650077D01*
Y650820D01*
X247060D01*
Y664820D01*
X233060D01*
Y650820D01*
X233060Y650820D01*
X233060D01*
X232524Y649772D01*
X229451Y646698D01*
X218440D01*
X216879Y646388D01*
X215556Y645504D01*
X215556Y645504D01*
X210566Y640513D01*
X209296Y641039D01*
Y647080D01*
X209047Y648328D01*
X208340Y649387D01*
X207821Y649734D01*
Y651950D01*
X210233D01*
Y665950D01*
X207821D01*
Y668460D01*
X210233D01*
Y682460D01*
X196232D01*
Y668460D01*
X198644D01*
Y665950D01*
X196232D01*
Y651950D01*
X198644D01*
Y649734D01*
X198125Y649387D01*
X197418Y648328D01*
X197169Y647080D01*
Y639480D01*
X197418Y638232D01*
X197700Y637808D01*
X197022Y636538D01*
X177800D01*
X177800Y636538D01*
X176239Y636228D01*
X174916Y635344D01*
X164931Y625358D01*
X162768D01*
X162575Y626329D01*
X161868Y627387D01*
X160809Y628094D01*
X159561Y628343D01*
X154321D01*
X153217Y629305D01*
X153378Y630115D01*
Y643278D01*
X153379Y643280D01*
Y646861D01*
X154242Y648153D01*
X154707Y650494D01*
Y651950D01*
X155760D01*
Y665950D01*
X141760D01*
Y651950D01*
X141760Y651950D01*
X141671Y651599D01*
X141609Y651506D01*
X141144Y649165D01*
Y643282D01*
X141143Y643280D01*
Y632649D01*
X135502Y627007D01*
X126300D01*
Y641940D01*
X110160D01*
Y683867D01*
X132211Y705918D01*
X177038D01*
X178865Y706158D01*
X180568Y706863D01*
X182030Y707986D01*
X192880Y718835D01*
X194002Y720298D01*
X194708Y722001D01*
X194948Y723828D01*
Y726355D01*
X197313Y727334D01*
X200341Y729659D01*
X202666Y732688D01*
X204127Y736215D01*
X204625Y740000D01*
Y750000D01*
X204127Y753785D01*
X202666Y757313D01*
X200341Y760341D01*
X197313Y762666D01*
X193785Y764127D01*
X190000Y764625D01*
D02*
G37*
G36*
X173260Y682460D02*
X159260D01*
Y668460D01*
X161672D01*
Y665950D01*
X159260D01*
Y651950D01*
X161672D01*
Y649734D01*
X161152Y649387D01*
X160445Y648328D01*
X160197Y647080D01*
Y639480D01*
X160445Y638232D01*
X161152Y637173D01*
X162211Y636466D01*
X163460Y636217D01*
X169060D01*
X170309Y636466D01*
X171367Y637173D01*
X172075Y638232D01*
X172323Y639480D01*
Y647080D01*
X172075Y648328D01*
X171367Y649387D01*
X170848Y649734D01*
Y651950D01*
X173260D01*
Y665950D01*
X170848D01*
Y668460D01*
X173260D01*
Y682460D01*
D02*
G37*
G36*
X274961Y654994D02*
X273171D01*
X271517Y654309D01*
X270251Y653043D01*
X269566Y651389D01*
Y649599D01*
X270251Y647945D01*
X271007Y647189D01*
Y642950D01*
X266080D01*
Y628950D01*
X274048D01*
X274057Y628937D01*
X276370Y626623D01*
X275884Y625450D01*
X266080D01*
Y623038D01*
X263570D01*
Y625450D01*
X249570D01*
Y623038D01*
X247860D01*
X247513Y623558D01*
X246455Y624265D01*
X245206Y624513D01*
X237606D01*
X236357Y624265D01*
X235299Y623558D01*
X234592Y622499D01*
X234343Y621250D01*
Y615650D01*
X234592Y614401D01*
X235299Y613343D01*
X236357Y612635D01*
X237606Y612387D01*
X245206D01*
X246455Y612635D01*
X247513Y613343D01*
X247860Y613862D01*
X249570D01*
Y611450D01*
X263570D01*
Y613862D01*
X266080D01*
Y611450D01*
X280080D01*
Y621254D01*
X281253Y621740D01*
X282590Y620403D01*
Y611450D01*
X296590D01*
Y625450D01*
X287637D01*
X285310Y627777D01*
X285796Y628950D01*
X296590D01*
Y631362D01*
X299100D01*
Y628947D01*
X313100D01*
Y630492D01*
X314370Y630877D01*
X314393Y630843D01*
X315452Y630135D01*
X316700Y629887D01*
X324300D01*
X325549Y630135D01*
X326607Y630843D01*
X327314Y631901D01*
X327563Y633150D01*
Y638750D01*
X327314Y639999D01*
X326607Y641058D01*
X325549Y641765D01*
X324300Y642013D01*
X316700D01*
X315452Y641765D01*
X314393Y641058D01*
X314370Y641023D01*
X313100Y641408D01*
Y642947D01*
X299100D01*
Y640538D01*
X296590D01*
Y642950D01*
X282590D01*
Y632156D01*
X281417Y631670D01*
X280080Y633007D01*
Y642950D01*
X277125D01*
Y647189D01*
X277881Y647945D01*
X278566Y649599D01*
Y651389D01*
X277881Y653043D01*
X276615Y654309D01*
X274961Y654994D01*
D02*
G37*
G36*
X342400Y764625D02*
X338615Y764127D01*
X335087Y762666D01*
X332058Y760341D01*
X329734Y757313D01*
X328273Y753785D01*
X327775Y750000D01*
Y740000D01*
X328273Y736215D01*
X329734Y732688D01*
X332058Y729659D01*
X335087Y727334D01*
X337862Y726185D01*
Y632347D01*
X337452Y632265D01*
X336393Y631558D01*
X335686Y630499D01*
X335437Y629251D01*
Y623650D01*
X335686Y622401D01*
X336393Y621343D01*
X337452Y620636D01*
X338700Y620387D01*
X346300D01*
X347548Y620636D01*
X348607Y621343D01*
X349314Y622401D01*
X349563Y623650D01*
Y629251D01*
X349314Y630499D01*
X348607Y631558D01*
X347548Y632265D01*
X347038Y632367D01*
Y726227D01*
X349713Y727334D01*
X352742Y729659D01*
X355066Y732688D01*
X356527Y736215D01*
X357025Y740000D01*
Y750000D01*
X356527Y753785D01*
X355066Y757313D01*
X352742Y760341D01*
X349713Y762666D01*
X346185Y764127D01*
X342400Y764625D01*
D02*
G37*
G36*
X758910Y611240D02*
X744910D01*
Y607299D01*
X724382D01*
X724382Y607299D01*
X723212Y607066D01*
X722219Y606403D01*
X717997Y602181D01*
X717334Y601189D01*
X717101Y600018D01*
X717101Y600018D01*
Y585878D01*
X716922Y585842D01*
X716020Y585240D01*
X715418Y584338D01*
X715207Y583275D01*
Y568625D01*
X715418Y567562D01*
X716020Y566660D01*
X716922Y566058D01*
X717985Y565847D01*
X722335D01*
X723398Y566058D01*
X724300Y566660D01*
X724902Y567562D01*
X725113Y568625D01*
Y583275D01*
X724902Y584338D01*
X724300Y585240D01*
X723398Y585842D01*
X723219Y585878D01*
Y598751D01*
X725649Y601181D01*
X744910D01*
Y597240D01*
X758910D01*
Y611240D01*
D02*
G37*
G36*
X71120Y764801D02*
X70340Y764646D01*
X69678Y764204D01*
X61804Y756330D01*
X61362Y755668D01*
X61207Y754888D01*
Y748030D01*
Y731349D01*
X53511Y723653D01*
X38608D01*
X37828Y723498D01*
X37166Y723056D01*
X37166Y723056D01*
X16846Y702736D01*
X16404Y702074D01*
X16249Y701294D01*
Y641940D01*
X16200D01*
Y599840D01*
X62600D01*
Y641940D01*
X44711D01*
Y690543D01*
X49867Y695699D01*
X69850D01*
X70630Y695854D01*
X71292Y696296D01*
X71292Y696296D01*
X90088Y715092D01*
X90088Y715092D01*
X90530Y715753D01*
X90685Y716534D01*
Y738937D01*
X90825Y740000D01*
Y750000D01*
X90685Y751063D01*
Y755904D01*
X90530Y756684D01*
X90088Y757346D01*
X83230Y764204D01*
X82568Y764646D01*
X81788Y764801D01*
X71120D01*
X71120Y764801D01*
D02*
G37*
G36*
X410238Y615774D02*
X390238D01*
Y593773D01*
X400253D01*
X403389Y590638D01*
X404851Y589515D01*
X406554Y588810D01*
X408381Y588570D01*
X415824D01*
X417437Y587332D01*
X419748Y586375D01*
X422228Y586048D01*
X432228D01*
X434708Y586375D01*
X437019Y587332D01*
X439003Y588854D01*
X440526Y590839D01*
X441483Y593150D01*
X441810Y595630D01*
X441483Y598110D01*
X440526Y600421D01*
X439003Y602405D01*
X437019Y603928D01*
X434708Y604885D01*
X432228Y605212D01*
X422228D01*
X419748Y604885D01*
X417437Y603928D01*
X415824Y602690D01*
X411306D01*
X410238Y603758D01*
Y615774D01*
D02*
G37*
G36*
X805830Y584030D02*
X791830D01*
Y570030D01*
X805830D01*
Y572177D01*
X808160D01*
Y570020D01*
X822160D01*
Y572177D01*
X825469D01*
X825993Y571392D01*
X827051Y570685D01*
X828300Y570437D01*
X835900D01*
X837149Y570685D01*
X838207Y571392D01*
X838914Y572451D01*
X839163Y573699D01*
Y579300D01*
X838914Y580549D01*
X838207Y581607D01*
X837149Y582314D01*
X835900Y582563D01*
X828300D01*
X827051Y582314D01*
X825993Y581607D01*
X825823Y581353D01*
X822160D01*
Y584020D01*
X808160D01*
Y581353D01*
X805830D01*
Y584030D01*
D02*
G37*
G36*
X372999Y583262D02*
X352999D01*
Y579068D01*
X346456D01*
X345997Y579008D01*
X345534D01*
X345087Y578888D01*
X344629Y578828D01*
X344201Y578651D01*
X343754Y578531D01*
X343353Y578299D01*
X342926Y578122D01*
X342559Y577841D01*
X342158Y577609D01*
X341831Y577282D01*
X341464Y577000D01*
X341182Y576633D01*
X340855Y576306D01*
X340623Y575905D01*
X340341Y575538D01*
X340164Y575111D01*
X339933Y574710D01*
X339813Y574263D01*
X339636Y573835D01*
X339576Y573377D01*
X339456Y572930D01*
Y572467D01*
X339396Y572008D01*
X339456Y571549D01*
Y571086D01*
X339576Y570639D01*
X339636Y570181D01*
X339813Y569753D01*
X339933Y569306D01*
X340164Y568905D01*
X340341Y568478D01*
X340623Y568111D01*
X340855Y567710D01*
X341182Y567383D01*
X341464Y567016D01*
X341831Y566734D01*
X342158Y566407D01*
X342559Y566175D01*
X342926Y565894D01*
X343353Y565717D01*
X343754Y565485D01*
X344201Y565365D01*
X344629Y565188D01*
X345087Y565128D01*
X345534Y565008D01*
X345997D01*
X346456Y564948D01*
X352999D01*
Y561261D01*
X372999D01*
Y583262D01*
D02*
G37*
G36*
X843500Y656095D02*
X831500D01*
X828628Y655717D01*
X825953Y654609D01*
X823655Y652845D01*
X821891Y650547D01*
X820783Y647872D01*
X820405Y645000D01*
X820783Y642128D01*
X821891Y639453D01*
X823655Y637155D01*
X825953Y635392D01*
X828628Y634283D01*
X831500Y633905D01*
X833358D01*
Y623316D01*
X833707Y621560D01*
X834702Y620072D01*
X850003Y604770D01*
X849639Y603500D01*
X846849D01*
Y591500D01*
X849886D01*
Y572981D01*
X849052Y572815D01*
X847993Y572108D01*
X847286Y571049D01*
X847037Y569800D01*
Y564200D01*
X847286Y562951D01*
X847993Y561893D01*
X849052Y561185D01*
X850300Y560937D01*
X857900D01*
X859148Y561185D01*
X860207Y561893D01*
X860914Y562951D01*
X861163Y564200D01*
Y569800D01*
X860914Y571049D01*
X860207Y572108D01*
X859148Y572815D01*
X859063Y572832D01*
Y591500D01*
X862849D01*
Y603500D01*
X859437D01*
Y606413D01*
X859088Y608169D01*
X858093Y609657D01*
X842534Y625216D01*
Y633905D01*
X843500D01*
X846372Y634283D01*
X849047Y635392D01*
X851345Y637155D01*
X853109Y639453D01*
X854217Y642128D01*
X854595Y645000D01*
X854217Y647872D01*
X853109Y650547D01*
X851345Y652845D01*
X849047Y654609D01*
X846372Y655717D01*
X843500Y656095D01*
D02*
G37*
G36*
X411000Y583262D02*
X391000D01*
Y561261D01*
X411000D01*
Y564126D01*
X414937D01*
X415452Y563455D01*
X417437Y561932D01*
X419748Y560975D01*
X422228Y560648D01*
X432228D01*
X434708Y560975D01*
X437019Y561932D01*
X439003Y563455D01*
X440526Y565439D01*
X441483Y567750D01*
X441810Y570230D01*
X441483Y572710D01*
X440526Y575021D01*
X439003Y577005D01*
X437019Y578528D01*
X434708Y579486D01*
X432228Y579812D01*
X422228D01*
X419748Y579486D01*
X417437Y578528D01*
X417071Y578247D01*
X411000D01*
Y583262D01*
D02*
G37*
G36*
X683910Y607710D02*
X669910D01*
Y593710D01*
X672410D01*
Y593465D01*
X673095Y591811D01*
X673426Y591480D01*
X672900Y590210D01*
X669910D01*
Y576210D01*
X673851D01*
Y566928D01*
X673851Y566928D01*
X674084Y565757D01*
X674747Y564765D01*
X678811Y560701D01*
X679803Y560038D01*
X680974Y559805D01*
X704850D01*
X704850Y559805D01*
X706021Y560038D01*
X707013Y560701D01*
X709623Y563311D01*
X709623Y563311D01*
X710286Y564303D01*
X710519Y565474D01*
X710698Y566058D01*
X711600Y566660D01*
X712202Y567562D01*
X712413Y568625D01*
Y583275D01*
X712202Y584338D01*
X711600Y585240D01*
X710698Y585842D01*
X709635Y586053D01*
X705285D01*
X704222Y585842D01*
X703320Y585240D01*
X702718Y584338D01*
X702507Y583275D01*
Y568625D01*
X702718Y567562D01*
X702965Y567193D01*
X702312Y565923D01*
X699908D01*
X699255Y567193D01*
X699502Y567562D01*
X699713Y568625D01*
Y583275D01*
X699502Y584338D01*
X698900Y585240D01*
X697998Y585842D01*
X696935Y586053D01*
X692585D01*
X691522Y585842D01*
X690620Y585240D01*
X690018Y584338D01*
X689807Y583275D01*
Y580572D01*
X688461D01*
X686807Y579887D01*
X685541Y578621D01*
X685180Y577749D01*
X683910Y578002D01*
Y590210D01*
X680920D01*
X680394Y591480D01*
X680725Y591811D01*
X681410Y593465D01*
Y593710D01*
X683910D01*
Y607710D01*
D02*
G37*
G36*
X805830Y566530D02*
X791830D01*
Y552530D01*
X794242D01*
Y549910D01*
X794330Y549467D01*
Y549015D01*
X794503Y548597D01*
X794591Y548154D01*
X794842Y547778D01*
X795015Y547361D01*
X795335Y547042D01*
X795586Y546666D01*
X795962Y546415D01*
X796281Y546095D01*
X796698Y545922D01*
X797074Y545671D01*
X797517Y545583D01*
X797935Y545410D01*
X798387D01*
X798830Y545322D01*
X799273Y545410D01*
X799725D01*
X800143Y545583D01*
X800586Y545671D01*
X800962Y545922D01*
X801379Y546095D01*
X801699Y546415D01*
X802074Y546666D01*
X802325Y547042D01*
X802645Y547361D01*
X802818Y547778D01*
X803069Y548154D01*
X803157Y548597D01*
X803330Y549015D01*
Y549467D01*
X803418Y549910D01*
Y552530D01*
X805830D01*
Y566530D01*
D02*
G37*
G36*
X413950Y754430D02*
X395250D01*
Y753790D01*
X382748D01*
X380921Y753550D01*
X379218Y752844D01*
X377756Y751722D01*
X370420Y744386D01*
X369297Y742924D01*
X368592Y741221D01*
X368352Y739394D01*
Y655197D01*
X357245Y644090D01*
X356123Y642627D01*
X355417Y640924D01*
X355177Y639097D01*
Y615774D01*
X352237D01*
Y611834D01*
X322580D01*
X320753Y611594D01*
X319050Y610888D01*
X317588Y609766D01*
X309714Y601892D01*
X308591Y600430D01*
X307886Y598727D01*
X307646Y596900D01*
Y584910D01*
X201930D01*
X201471Y584850D01*
X194930D01*
Y578309D01*
X194870Y577850D01*
Y561340D01*
Y552650D01*
X182660D01*
Y530650D01*
X195100D01*
Y489650D01*
X194160D01*
Y467650D01*
X210160D01*
Y489650D01*
X209220D01*
Y530650D01*
X221660D01*
Y552650D01*
X208990D01*
Y561340D01*
Y570790D01*
X307646D01*
Y556530D01*
X307886Y554702D01*
X308591Y553000D01*
X309714Y551537D01*
X315571Y545680D01*
X317034Y544557D01*
X318736Y543852D01*
X320564Y543612D01*
X762562D01*
X764389Y543852D01*
X766092Y544557D01*
X767554Y545680D01*
X773412Y551537D01*
X774534Y553000D01*
X775240Y554702D01*
X775480Y556530D01*
Y582152D01*
X781558D01*
X783314Y582501D01*
X784802Y583496D01*
X791703Y590396D01*
X792697Y591884D01*
X793046Y593640D01*
Y622300D01*
Y720556D01*
X792697Y722311D01*
X791703Y723800D01*
X784160Y731342D01*
X782672Y732337D01*
X780916Y732686D01*
X767054D01*
Y744608D01*
X766994Y745067D01*
Y751608D01*
X760453D01*
X759994Y751668D01*
X759535Y751608D01*
X752994D01*
Y745067D01*
X752934Y744608D01*
Y728098D01*
X752994Y727639D01*
Y721098D01*
X759535D01*
X759994Y721038D01*
X760453Y721098D01*
X766994D01*
Y723510D01*
X779016D01*
X783870Y718655D01*
Y626888D01*
X775420D01*
Y629300D01*
X761420D01*
Y626818D01*
X758910D01*
Y629160D01*
X744910D01*
Y615160D01*
X758910D01*
Y617642D01*
X761420D01*
Y615300D01*
X775420D01*
Y617712D01*
X783870D01*
Y595541D01*
X779658Y591328D01*
X775420D01*
Y593740D01*
X768879D01*
X768420Y593800D01*
X767961Y593740D01*
X761420D01*
Y591328D01*
X758910D01*
Y593740D01*
X744910D01*
Y591074D01*
X738246D01*
X736490Y590725D01*
X735002Y589730D01*
X731325Y586053D01*
X730685D01*
X729622Y585842D01*
X728720Y585240D01*
X728118Y584338D01*
X727907Y583275D01*
Y568625D01*
X728118Y567562D01*
X728720Y566660D01*
X729622Y566058D01*
X730685Y565847D01*
X735035D01*
X736098Y566058D01*
X737000Y566660D01*
X737602Y567562D01*
X737813Y568625D01*
Y579565D01*
X740146Y581898D01*
X744910D01*
Y579740D01*
X758910D01*
Y582152D01*
X761360D01*
Y559454D01*
X759638Y557732D01*
X323488D01*
X321766Y559454D01*
Y577850D01*
Y581660D01*
Y593975D01*
X325504Y597714D01*
X352237D01*
Y593773D01*
X372237D01*
Y615774D01*
X369297D01*
Y636173D01*
X380404Y647280D01*
X381526Y648742D01*
X382232Y650445D01*
X382472Y652272D01*
Y736469D01*
X385672Y739670D01*
X395250D01*
Y739030D01*
X413950D01*
Y754430D01*
D02*
G37*
G36*
X843500Y731095D02*
X831500D01*
X828628Y730717D01*
X825953Y729609D01*
X823655Y727845D01*
X821891Y725547D01*
X821731Y725160D01*
X820066D01*
X818239Y724919D01*
X816536Y724214D01*
X815074Y723092D01*
X801748Y709766D01*
X800626Y708304D01*
X799921Y706601D01*
X799680Y704774D01*
Y632677D01*
X799921Y630850D01*
X800626Y629147D01*
X801748Y627685D01*
X809790Y619643D01*
Y603500D01*
X808851D01*
Y591500D01*
X813171D01*
X813321Y591386D01*
X815023Y590680D01*
X816851Y590440D01*
X818678Y590680D01*
X820381Y591386D01*
X820530Y591500D01*
X824851D01*
Y603500D01*
X823911D01*
Y622567D01*
X823671Y624395D01*
X822965Y626097D01*
X821843Y627560D01*
X813801Y635602D01*
Y701849D01*
X822991Y711039D01*
X825109D01*
X825953Y710391D01*
X828628Y709283D01*
X831500Y708905D01*
X843500D01*
X846372Y709283D01*
X849047Y710391D01*
X851345Y712155D01*
X851947Y712940D01*
X867624D01*
X872796Y707767D01*
Y554104D01*
X857627Y538936D01*
X297890D01*
Y561594D01*
X297830Y562053D01*
Y562516D01*
X297710Y562963D01*
X297650Y563421D01*
X297473Y563849D01*
X297353Y564296D01*
X297122Y564697D01*
X296945Y565124D01*
X296663Y565491D01*
X296431Y565892D01*
X296104Y566219D01*
X295822Y566586D01*
X295455Y566868D01*
X295128Y567195D01*
X294727Y567427D01*
X294360Y567709D01*
X293933Y567886D01*
X293532Y568117D01*
X293085Y568237D01*
X292657Y568414D01*
X292199Y568474D01*
X291752Y568594D01*
X291289D01*
X290830Y568654D01*
X290371Y568594D01*
X289908D01*
X289461Y568474D01*
X289003Y568414D01*
X288575Y568237D01*
X288128Y568117D01*
X287727Y567886D01*
X287300Y567709D01*
X286933Y567427D01*
X286532Y567195D01*
X286205Y566868D01*
X285838Y566586D01*
X285556Y566219D01*
X285229Y565892D01*
X284997Y565491D01*
X284715Y565124D01*
X284538Y564697D01*
X284307Y564296D01*
X284187Y563849D01*
X284010Y563421D01*
X283950Y562963D01*
X283830Y562516D01*
Y562053D01*
X283770Y561594D01*
Y531876D01*
Y494922D01*
X274697Y485850D01*
X233160D01*
Y489650D01*
X232792D01*
X231984Y490920D01*
X232298Y492092D01*
Y493936D01*
X231821Y495716D01*
X230899Y497312D01*
X229596Y498615D01*
X228000Y499537D01*
X226220Y500014D01*
X224376D01*
X222596Y499537D01*
X221000Y498615D01*
X219697Y497312D01*
X218775Y495716D01*
X218298Y493936D01*
Y492092D01*
X218612Y490920D01*
X217804Y489650D01*
X217160D01*
Y467650D01*
X233160D01*
Y471730D01*
X253980D01*
Y446340D01*
X245200D01*
X244741Y446280D01*
X238200D01*
Y439739D01*
X238140Y439280D01*
X238200Y438821D01*
Y432280D01*
X244741D01*
X245200Y432220D01*
X253980D01*
Y361950D01*
Y356246D01*
X253976Y356230D01*
Y344530D01*
X253980Y344514D01*
Y335927D01*
X253976Y335910D01*
Y324210D01*
X253980Y324193D01*
Y304127D01*
X250953Y301101D01*
X249780Y301586D01*
Y316992D01*
X192793D01*
Y381627D01*
X192822Y381772D01*
Y387567D01*
X192655Y388407D01*
X192179Y389119D01*
X191467Y389595D01*
X190627Y389762D01*
X182809D01*
X182780Y389768D01*
X182751Y389762D01*
X174932D01*
X174093Y389595D01*
X173381Y389119D01*
X172905Y388407D01*
X172738Y387567D01*
Y387222D01*
X172713Y387096D01*
Y298940D01*
X170780D01*
Y264940D01*
X179778D01*
Y246939D01*
X239718D01*
Y239284D01*
X230774D01*
Y241696D01*
X216774D01*
Y227696D01*
X230774D01*
Y230108D01*
X239718D01*
Y213868D01*
Y94254D01*
X233308Y87844D01*
X232185Y86382D01*
X231480Y84679D01*
X231240Y82852D01*
Y72770D01*
X230987Y72666D01*
X227959Y70342D01*
X225634Y67312D01*
X224173Y63785D01*
X223675Y60000D01*
Y50000D01*
X224173Y46215D01*
X225634Y42687D01*
X227959Y39659D01*
X230987Y37334D01*
X234515Y35873D01*
X238300Y35375D01*
X242085Y35873D01*
X245613Y37334D01*
X248641Y39659D01*
X250966Y42687D01*
X252427Y46215D01*
X252925Y50000D01*
Y60000D01*
X252427Y63785D01*
X250966Y67312D01*
X248641Y70342D01*
X245613Y72666D01*
X245360Y72770D01*
Y79928D01*
X251770Y86337D01*
X252892Y87800D01*
X253598Y89502D01*
X253838Y91330D01*
Y206808D01*
X330831D01*
X343460Y194179D01*
Y186664D01*
X342222Y185051D01*
X341264Y182740D01*
X340938Y180260D01*
Y170260D01*
X341264Y167780D01*
X342222Y165469D01*
X343745Y163484D01*
X345729Y161962D01*
X348040Y161005D01*
X350520Y160678D01*
X353000Y161005D01*
X355311Y161962D01*
X357295Y163484D01*
X358818Y165469D01*
X359776Y167780D01*
X360102Y170260D01*
Y180260D01*
X359776Y182740D01*
X358818Y185051D01*
X357580Y186664D01*
Y197104D01*
X357340Y198931D01*
X356634Y200634D01*
X355512Y202096D01*
X338748Y218860D01*
X337286Y219982D01*
X335583Y220688D01*
X333756Y220928D01*
X253838D01*
Y234442D01*
Y264940D01*
X258778D01*
Y288955D01*
X266032Y296210D01*
X267155Y297672D01*
X267860Y299375D01*
X268100Y301202D01*
Y324193D01*
X268104Y324210D01*
Y335910D01*
X268100Y335927D01*
Y344514D01*
X268104Y344530D01*
Y354890D01*
X321310D01*
X323137Y355130D01*
X324840Y355835D01*
X326302Y356958D01*
X338102Y368757D01*
X339224Y370219D01*
X339930Y371922D01*
X340170Y373750D01*
Y390180D01*
X341110D01*
Y412180D01*
X325110D01*
Y390180D01*
X326049D01*
Y376674D01*
X318386Y369010D01*
X268100D01*
Y437460D01*
Y471730D01*
X277622D01*
X279449Y471970D01*
X281152Y472676D01*
X282614Y473798D01*
X295822Y487006D01*
X296945Y488468D01*
X297650Y490171D01*
X297890Y491998D01*
Y524816D01*
X422454D01*
Y513790D01*
X403860D01*
X402033Y513550D01*
X400330Y512845D01*
X398868Y511722D01*
X395084Y507938D01*
X393961Y506476D01*
X393256Y504773D01*
X393016Y502946D01*
Y489712D01*
X393076Y489253D01*
Y482712D01*
X399617D01*
X400076Y482652D01*
X400535Y482712D01*
X403674D01*
X403874Y482465D01*
X403717Y480833D01*
X403113Y479929D01*
X402989Y479767D01*
X401616Y479279D01*
X400537Y479726D01*
X398547D01*
X396710Y478965D01*
X395303Y477558D01*
X394542Y475721D01*
Y473731D01*
X395303Y471894D01*
X396710Y470487D01*
X398547Y469726D01*
X400537D01*
X401616Y470173D01*
X402989Y469685D01*
X403113Y469523D01*
X403717Y468619D01*
X404776Y467912D01*
X406024Y467663D01*
X411625D01*
X412874Y467912D01*
X413932Y468619D01*
X414640Y469678D01*
X414735Y470155D01*
X416403Y470487D01*
X417891Y471482D01*
X420820Y474411D01*
X421815Y475899D01*
X422164Y477655D01*
Y482712D01*
X424576D01*
Y496712D01*
X410576D01*
Y482712D01*
X409739Y481789D01*
X407913D01*
X407076Y482712D01*
X407076Y483059D01*
Y489253D01*
X407136Y489712D01*
Y499670D01*
X448180D01*
X448222Y499627D01*
Y489712D01*
X448282Y489253D01*
Y483059D01*
X448282Y482712D01*
X447445Y481789D01*
X445619D01*
X444782Y482712D01*
Y496712D01*
X430782D01*
Y482712D01*
X433194D01*
Y479158D01*
X433543Y477402D01*
X434538Y475914D01*
X437700Y472752D01*
X439188Y471757D01*
X440470Y471502D01*
Y470926D01*
X440718Y469678D01*
X441426Y468619D01*
X441759Y468396D01*
X441532Y467847D01*
Y465857D01*
X442293Y464020D01*
X443700Y462613D01*
X445537Y461852D01*
X447527D01*
X449364Y462613D01*
X450771Y464020D01*
X451532Y465857D01*
Y467847D01*
X451305Y468395D01*
X451641Y468619D01*
X452348Y469678D01*
X452596Y470926D01*
Y478526D01*
X452348Y479775D01*
X451641Y480833D01*
X451484Y482465D01*
X451684Y482712D01*
X454823D01*
X455282Y482652D01*
X455741Y482712D01*
X462282D01*
Y489253D01*
X462342Y489712D01*
Y502552D01*
X462102Y504379D01*
X461396Y506082D01*
X460274Y507545D01*
X456096Y511722D01*
X454634Y512845D01*
X452931Y513550D01*
X451104Y513790D01*
X436574D01*
Y524816D01*
X693726D01*
Y494284D01*
X693966Y492457D01*
X694671Y490754D01*
X695794Y489292D01*
X705192Y479894D01*
X706654Y478772D01*
X708357Y478066D01*
X710184Y477826D01*
X732660D01*
X739218Y471268D01*
Y436122D01*
Y423507D01*
X738785Y423210D01*
X737948Y422945D01*
X737465Y423267D01*
X736626Y423434D01*
X733366D01*
Y429122D01*
X735778D01*
Y443122D01*
X721778D01*
Y440710D01*
X718622D01*
X718275Y441230D01*
X717216Y441937D01*
X715968Y442185D01*
X708368D01*
X707120Y441937D01*
X706061Y441230D01*
X705354Y440171D01*
X705105Y438922D01*
Y433322D01*
X705354Y432073D01*
X706061Y431015D01*
X707120Y430307D01*
X708368Y430059D01*
X715968D01*
X717216Y430307D01*
X718275Y431015D01*
X718622Y431534D01*
X721778D01*
Y429122D01*
X724190D01*
Y423434D01*
X720930D01*
X720091Y423267D01*
X719379Y422791D01*
X718903Y422079D01*
X718736Y421240D01*
Y415444D01*
X718903Y414605D01*
X719379Y413893D01*
X720091Y413417D01*
X720930Y413250D01*
X736626D01*
X737465Y413417D01*
X737948Y413739D01*
X738785Y413474D01*
X739218Y413177D01*
Y400002D01*
X718570D01*
X716743Y399762D01*
X715040Y399057D01*
X713577Y397934D01*
X713245Y397602D01*
X708788D01*
X708329Y397542D01*
X701788D01*
Y391001D01*
X701728Y390542D01*
X701788Y390083D01*
Y383542D01*
X708329D01*
X708788Y383482D01*
X716170D01*
X717545Y383663D01*
X717893Y383510D01*
X718501Y382993D01*
X718736Y382653D01*
Y377345D01*
X718903Y376505D01*
X719379Y375793D01*
X720091Y375317D01*
X720930Y375150D01*
X724190D01*
Y369462D01*
X721778D01*
Y367050D01*
X718622D01*
X718275Y367570D01*
X717216Y368277D01*
X715968Y368525D01*
X708368D01*
X707120Y368277D01*
X706061Y367570D01*
X705354Y366511D01*
X705105Y365262D01*
Y359662D01*
X705354Y358413D01*
X706061Y357355D01*
X707120Y356647D01*
X708368Y356399D01*
X715968D01*
X717216Y356647D01*
X718275Y357355D01*
X718622Y357874D01*
X721778D01*
Y355462D01*
X735778D01*
Y369462D01*
X733366D01*
Y375150D01*
X736626D01*
X737465Y375317D01*
X737948Y375639D01*
X738785Y375374D01*
X739218Y375077D01*
Y362462D01*
X739278Y362003D01*
Y355462D01*
X745819D01*
X746278Y355402D01*
X746737Y355462D01*
X753278D01*
Y362003D01*
X753338Y362462D01*
Y392176D01*
Y436122D01*
Y474192D01*
X753098Y476019D01*
X752393Y477722D01*
X751271Y479184D01*
X740576Y489878D01*
X739114Y491001D01*
X737411Y491706D01*
X735584Y491946D01*
X713109D01*
X707846Y497209D01*
Y524816D01*
X746278D01*
X746278Y524816D01*
X746278Y524816D01*
X860552D01*
X862379Y525056D01*
X864082Y525761D01*
X865544Y526884D01*
X884848Y546188D01*
X885971Y547650D01*
X886676Y549353D01*
X886916Y551180D01*
Y710692D01*
X886676Y712519D01*
X885971Y714222D01*
X884848Y715684D01*
X875540Y724993D01*
X874078Y726115D01*
X872375Y726820D01*
X870548Y727060D01*
X851947D01*
X851345Y727845D01*
X849047Y729609D01*
X846372Y730717D01*
X843500Y731095D01*
D02*
G37*
G36*
X145660Y541250D02*
X131660D01*
Y538838D01*
X129150D01*
Y541250D01*
X115150D01*
Y538838D01*
X112250D01*
Y541250D01*
X81250D01*
Y527250D01*
X112250D01*
Y529662D01*
X115150D01*
Y527250D01*
X129150D01*
Y529662D01*
X131660D01*
Y527250D01*
X145660D01*
Y541250D01*
D02*
G37*
G36*
X600630Y493706D02*
X590630D01*
X588150Y493380D01*
X585839Y492422D01*
X583854Y490899D01*
X582332Y488915D01*
X581375Y486604D01*
X581048Y484124D01*
X581375Y481644D01*
X582332Y479333D01*
X583854Y477349D01*
X585839Y475826D01*
X588150Y474869D01*
X590630Y474542D01*
X600630D01*
X603110Y474869D01*
X605421Y475826D01*
X607406Y477349D01*
X608928Y479333D01*
X609885Y481644D01*
X610212Y484124D01*
X609885Y486604D01*
X608928Y488915D01*
X607406Y490899D01*
X605421Y492422D01*
X603110Y493380D01*
X600630Y493706D01*
D02*
G37*
G36*
X868680Y489054D02*
X866200Y488727D01*
X863889Y487770D01*
X861905Y486247D01*
X860382Y484263D01*
X859425Y481952D01*
X859098Y479472D01*
Y469472D01*
X859425Y466992D01*
X860382Y464681D01*
X861905Y462696D01*
X863889Y461174D01*
X866200Y460216D01*
X868680Y459890D01*
X871160Y460216D01*
X873471Y461174D01*
X875455Y462696D01*
X876978Y464681D01*
X877935Y466992D01*
X878262Y469472D01*
Y479472D01*
X877935Y481952D01*
X876978Y484263D01*
X875455Y486247D01*
X873471Y487770D01*
X871160Y488727D01*
X868680Y489054D01*
D02*
G37*
G36*
X843280D02*
X840800Y488727D01*
X838489Y487770D01*
X836505Y486247D01*
X834982Y484263D01*
X834025Y481952D01*
X833698Y479472D01*
Y469472D01*
X834025Y466992D01*
X834982Y464681D01*
X836505Y462696D01*
X838489Y461174D01*
X840800Y460216D01*
X843280Y459890D01*
X845760Y460216D01*
X848071Y461174D01*
X850055Y462696D01*
X851578Y464681D01*
X852535Y466992D01*
X852862Y469472D01*
Y479472D01*
X852535Y481952D01*
X851578Y484263D01*
X850055Y486247D01*
X848071Y487770D01*
X845760Y488727D01*
X843280Y489054D01*
D02*
G37*
G36*
X817880D02*
X815400Y488727D01*
X813089Y487770D01*
X811105Y486247D01*
X809582Y484263D01*
X808624Y481952D01*
X808298Y479472D01*
Y469472D01*
X808624Y466992D01*
X809582Y464681D01*
X811105Y462696D01*
X813089Y461174D01*
X815400Y460216D01*
X817880Y459890D01*
X820360Y460216D01*
X822671Y461174D01*
X824655Y462696D01*
X826178Y464681D01*
X827135Y466992D01*
X827462Y469472D01*
Y479472D01*
X827135Y481952D01*
X826178Y484263D01*
X824655Y486247D01*
X822671Y487770D01*
X820360Y488727D01*
X817880Y489054D01*
D02*
G37*
G36*
X792480D02*
X790000Y488727D01*
X787689Y487770D01*
X785704Y486247D01*
X784182Y484263D01*
X783224Y481952D01*
X782898Y479472D01*
Y469472D01*
X783224Y466992D01*
X784182Y464681D01*
X785704Y462696D01*
X787689Y461174D01*
X790000Y460216D01*
X792480Y459890D01*
X794960Y460216D01*
X797271Y461174D01*
X799255Y462696D01*
X800778Y464681D01*
X801736Y466992D01*
X802062Y469472D01*
Y479472D01*
X801736Y481952D01*
X800778Y484263D01*
X799255Y486247D01*
X797271Y487770D01*
X794960Y488727D01*
X792480Y489054D01*
D02*
G37*
G36*
X600630Y468306D02*
X590630D01*
X588150Y467980D01*
X585839Y467022D01*
X583854Y465499D01*
X582332Y463515D01*
X581375Y461204D01*
X581048Y458724D01*
X581375Y456244D01*
X582332Y453933D01*
X583854Y451949D01*
X585839Y450426D01*
X588150Y449468D01*
X590630Y449142D01*
X600630D01*
X603110Y449468D01*
X605421Y450426D01*
X607406Y451949D01*
X608928Y453933D01*
X609885Y456244D01*
X610212Y458724D01*
X609885Y461204D01*
X608928Y463515D01*
X607406Y465499D01*
X605421Y467022D01*
X603110Y467980D01*
X600630Y468306D01*
D02*
G37*
G36*
X558294Y485264D02*
X544294D01*
Y471264D01*
X546435D01*
X546921Y470091D01*
X546731Y469901D01*
X546068Y468909D01*
X545860Y467864D01*
X543894D01*
Y448364D01*
X553894D01*
Y467864D01*
X553894D01*
X554120Y468967D01*
X554353Y470138D01*
X554707Y471264D01*
X558294D01*
Y485264D01*
D02*
G37*
G36*
X541784D02*
X527784D01*
Y471264D01*
X530492D01*
X531725Y470998D01*
X531958Y469827D01*
X532421Y469134D01*
X532086Y468205D01*
X531796Y467864D01*
X531194D01*
Y448364D01*
X541194D01*
Y467864D01*
X539035D01*
Y469806D01*
X538997Y469994D01*
X540021Y471264D01*
X541784D01*
Y485264D01*
D02*
G37*
G36*
X525274D02*
X511274D01*
Y471264D01*
X515215D01*
Y468084D01*
X515215Y468084D01*
X515448Y466913D01*
X516111Y465921D01*
X518494Y463538D01*
Y448364D01*
X528494D01*
Y467864D01*
X522820D01*
X521333Y469351D01*
Y471264D01*
X525274D01*
Y485264D01*
D02*
G37*
G36*
X574804D02*
X560804D01*
Y471264D01*
X564745D01*
Y452863D01*
X558839Y446957D01*
X546644D01*
X546644Y446957D01*
X545474Y446724D01*
X544481Y446061D01*
X544481Y446061D01*
X534031Y435611D01*
X533368Y434618D01*
X533135Y433448D01*
X533135Y433448D01*
Y413864D01*
X531194D01*
Y394364D01*
X541194D01*
Y413864D01*
X539253D01*
Y432181D01*
X547911Y440839D01*
X560106D01*
X560106Y440839D01*
X561277Y441072D01*
X562269Y441735D01*
X569967Y449433D01*
X569967Y449433D01*
X570630Y450425D01*
X570863Y451596D01*
X570863Y451596D01*
Y471264D01*
X574804D01*
Y485264D01*
D02*
G37*
G36*
X355092Y475436D02*
X329634D01*
X328143Y475240D01*
X314110D01*
X313651Y475180D01*
X290610D01*
Y453180D01*
X303050D01*
Y412180D01*
X302110D01*
Y390180D01*
X318110D01*
Y412180D01*
X317170D01*
Y453180D01*
X329610D01*
Y461142D01*
X330930Y461316D01*
X348032D01*
Y451612D01*
Y386842D01*
Y321318D01*
X332258D01*
X331799Y321258D01*
X325258D01*
Y314717D01*
X325198Y314258D01*
X325258Y313799D01*
Y307258D01*
X331799D01*
X332258Y307198D01*
X348032D01*
Y234188D01*
X348272Y232361D01*
X348978Y230658D01*
X350100Y229196D01*
X374230Y205066D01*
X375692Y203944D01*
X377395Y203238D01*
X379222Y202998D01*
X568182D01*
Y178431D01*
X565281Y175530D01*
X544210D01*
Y177942D01*
X537669D01*
X537210Y178002D01*
X520960D01*
X520501Y177942D01*
X513960D01*
Y171401D01*
X513900Y170942D01*
X513960Y170483D01*
Y163942D01*
X520501D01*
X520960Y163882D01*
X532622D01*
Y162494D01*
X532511Y161270D01*
X531242Y161270D01*
X521511D01*
Y141270D01*
X522498D01*
X522953Y140172D01*
X522163Y139203D01*
X501708D01*
X501376Y139535D01*
X500253Y140000D01*
X500505Y141270D01*
X510510D01*
Y161270D01*
X508715D01*
X508303Y162540D01*
X508343Y162580D01*
X508952Y164050D01*
Y165642D01*
X508343Y167112D01*
X507218Y168237D01*
X505748Y168846D01*
X504156D01*
X502686Y168237D01*
X501561Y167112D01*
X500952Y165642D01*
Y164050D01*
X501561Y162580D01*
X501601Y162540D01*
X501189Y161270D01*
X497399D01*
X496873Y162540D01*
X497167Y162834D01*
X497776Y164304D01*
Y165896D01*
X497167Y167366D01*
X496042Y168491D01*
X494572Y169100D01*
X492980D01*
X491510Y168491D01*
X491178Y168159D01*
X486069D01*
Y183294D01*
X491207Y188431D01*
X513960D01*
Y181442D01*
X527960D01*
Y195442D01*
X513960D01*
Y194549D01*
X489940D01*
X488769Y194316D01*
X487777Y193653D01*
X487777Y193653D01*
X480848Y186723D01*
X480185Y185731D01*
X479952Y184561D01*
X479952Y184561D01*
Y164846D01*
X479952Y164846D01*
X479952Y164846D01*
Y161270D01*
X477510D01*
Y141270D01*
X487241D01*
X488511Y141270D01*
Y141270D01*
X488511D01*
Y141270D01*
X497715D01*
X497967Y140000D01*
X496844Y139535D01*
X495719Y138410D01*
X495110Y136940D01*
Y135348D01*
X495719Y133878D01*
X496844Y132753D01*
X498314Y132144D01*
X499906D01*
X501376Y132753D01*
X501708Y133085D01*
X523494D01*
X523494Y133085D01*
X524664Y133318D01*
X525657Y133981D01*
X529174Y137498D01*
X529837Y138490D01*
X530070Y139661D01*
X530070Y139661D01*
Y140372D01*
X530968Y141270D01*
X532511Y141270D01*
X533781Y141270D01*
X545951D01*
Y133717D01*
X542293Y130059D01*
X513083D01*
X512327Y130815D01*
X510673Y131500D01*
X508883D01*
X507229Y130815D01*
X505963Y129549D01*
X505278Y127895D01*
Y126105D01*
X505963Y124451D01*
X507229Y123185D01*
X508883Y122500D01*
X510673D01*
X512327Y123185D01*
X513083Y123941D01*
X543560D01*
X543560Y123941D01*
X544730Y124174D01*
X545723Y124837D01*
X551173Y130287D01*
X551173Y130287D01*
X551836Y131279D01*
X552069Y132450D01*
X552069Y132450D01*
Y140372D01*
X552967Y141270D01*
X554510Y141270D01*
X556054Y141270D01*
X556952Y140372D01*
Y128208D01*
X548848Y120104D01*
X519916D01*
X519160Y120860D01*
X517506Y121545D01*
X515716D01*
X514062Y120860D01*
X512796Y119594D01*
X512111Y117940D01*
Y116150D01*
X512796Y114496D01*
X514062Y113230D01*
X515716Y112545D01*
X517506D01*
X519160Y113230D01*
X519916Y113986D01*
X550115D01*
X550115Y113986D01*
X551286Y114219D01*
X552278Y114882D01*
X562174Y124778D01*
X562174Y124778D01*
X562837Y125770D01*
X563069Y126941D01*
X563069Y126941D01*
Y140372D01*
X563968Y141270D01*
X565511Y141270D01*
X566781Y141270D01*
X576512D01*
Y161270D01*
X566781D01*
X565511Y161270D01*
X564241Y161270D01*
X555780D01*
X554511Y161270D01*
X553241Y161270D01*
X541798D01*
Y163942D01*
X544210D01*
Y166354D01*
X567182D01*
X568938Y166703D01*
X570426Y167698D01*
X576014Y173286D01*
X577009Y174774D01*
X577358Y176530D01*
Y202998D01*
X612902D01*
X614729Y203238D01*
X616432Y203944D01*
X617894Y205066D01*
X631427Y218598D01*
X632549Y220061D01*
X633255Y221763D01*
X633495Y223591D01*
Y238630D01*
X647626D01*
Y236218D01*
X661626D01*
Y238700D01*
X665580D01*
Y238692D01*
X689392D01*
Y248025D01*
X665580D01*
Y247877D01*
X661626D01*
Y250219D01*
X647626D01*
Y247807D01*
X633495D01*
Y250698D01*
Y270196D01*
X639702Y276404D01*
X813106D01*
Y267716D01*
Y252476D01*
X813166Y252017D01*
Y245476D01*
X819707D01*
X820166Y245416D01*
X820625Y245476D01*
X827166D01*
Y252017D01*
X827226Y252476D01*
Y267716D01*
Y276404D01*
X841372D01*
X848226Y269550D01*
Y210198D01*
X848286Y209740D01*
Y203199D01*
X854827D01*
X855286Y203138D01*
X855745Y203199D01*
X862286D01*
Y209740D01*
X862346Y210198D01*
Y272474D01*
X862106Y274301D01*
X861401Y276004D01*
X860278Y277466D01*
X849288Y288456D01*
X847826Y289578D01*
X846123Y290284D01*
X844296Y290524D01*
X662958D01*
Y348882D01*
X664228Y349408D01*
X664951Y348685D01*
X666228Y348156D01*
Y345962D01*
X680228D01*
Y349394D01*
X683258D01*
X683354Y348913D01*
X684061Y347855D01*
X685119Y347148D01*
X686368Y346899D01*
X693968D01*
X695217Y347148D01*
X696275Y347855D01*
X696982Y348913D01*
X697231Y350162D01*
Y355763D01*
X696982Y357011D01*
X696275Y358070D01*
X695217Y358777D01*
X693968Y359026D01*
X686368D01*
X685119Y358777D01*
X684061Y358070D01*
X683354Y357011D01*
X683258Y356531D01*
X680228D01*
Y359962D01*
X666228D01*
Y356844D01*
X664951Y356315D01*
X664228Y355592D01*
X662958Y356118D01*
Y371722D01*
X663111Y371861D01*
X664228Y372253D01*
X666228Y370253D01*
Y363462D01*
X680228D01*
Y366114D01*
X685284D01*
X686368Y365898D01*
X693968D01*
X695217Y366147D01*
X696275Y366854D01*
X696982Y367913D01*
X697231Y369161D01*
Y374762D01*
X696982Y376011D01*
X696275Y377069D01*
X695217Y377776D01*
X693968Y378025D01*
X686368D01*
X685119Y377776D01*
X684061Y377069D01*
X683554Y376310D01*
X680228D01*
Y377462D01*
X673438D01*
X671114Y379786D01*
X671100Y379795D01*
X668831Y382065D01*
X667177Y383170D01*
X665226Y383558D01*
X649285D01*
Y389460D01*
X644383D01*
Y433719D01*
X649688Y439024D01*
X666628D01*
Y437122D01*
X680628D01*
Y440284D01*
X684406D01*
X685119Y439807D01*
X686368Y439558D01*
X693968D01*
X695217Y439807D01*
X696275Y440514D01*
X696982Y441573D01*
X697231Y442821D01*
Y448422D01*
X696982Y449671D01*
X696275Y450729D01*
X695217Y451436D01*
X693968Y451685D01*
X686368D01*
X685119Y451436D01*
X684061Y450729D01*
X683354Y449671D01*
X683312Y449460D01*
X680628D01*
Y451122D01*
X666628D01*
Y449220D01*
X647576D01*
X645626Y448832D01*
X643972Y447727D01*
X635680Y439436D01*
X634575Y437782D01*
X634187Y435831D01*
Y389460D01*
X629285D01*
Y383558D01*
X623570D01*
X621619Y383170D01*
X619965Y382065D01*
X616409Y378509D01*
X615304Y376855D01*
X614916Y374904D01*
Y369396D01*
X612252Y366732D01*
X611284Y367559D01*
X611284Y368688D01*
Y389460D01*
X602690D01*
Y398613D01*
X603110Y398669D01*
X605421Y399626D01*
X607406Y401148D01*
X608928Y403133D01*
X609885Y405444D01*
X610212Y407924D01*
X609885Y410404D01*
X608928Y412715D01*
X607406Y414700D01*
X605421Y416222D01*
X603110Y417179D01*
X600630Y417506D01*
X590630D01*
X588150Y417179D01*
X585839Y416222D01*
X583854Y414700D01*
X582332Y412715D01*
X581375Y410404D01*
X581048Y407924D01*
X581375Y405444D01*
X582332Y403133D01*
X583854Y401148D01*
X585839Y399626D01*
X588150Y398669D01*
X588570Y398613D01*
Y385115D01*
X588810Y383287D01*
X589515Y381585D01*
X590638Y380122D01*
X591284Y379476D01*
Y367459D01*
X610018D01*
X611184Y367459D01*
X612011Y366491D01*
X609520Y364000D01*
X578184D01*
X571412Y370772D01*
Y397114D01*
X573314D01*
Y411114D01*
X559314D01*
Y408702D01*
X553894D01*
Y413864D01*
X543894D01*
Y394364D01*
X553894D01*
Y399526D01*
X559314D01*
Y397114D01*
X561216D01*
Y368660D01*
X561604Y366709D01*
X562709Y365055D01*
X572467Y355297D01*
X574121Y354192D01*
X576072Y353804D01*
X580006D01*
Y350408D01*
X577594D01*
Y347889D01*
X576324Y347363D01*
X574590Y349098D01*
X573508Y349820D01*
X572232Y350074D01*
X566818D01*
X566220Y350193D01*
X552020D01*
X550966Y349983D01*
X550073Y349387D01*
X549477Y348493D01*
X549267Y347440D01*
Y346040D01*
X549477Y344986D01*
X550073Y344093D01*
X550966Y343497D01*
X552020Y343287D01*
X566220D01*
X566818Y343406D01*
X570851D01*
X573206Y341050D01*
X574288Y340328D01*
X575564Y340074D01*
X577594D01*
Y336408D01*
X591594D01*
Y350408D01*
X589182D01*
Y353804D01*
X611632D01*
X613583Y354192D01*
X615237Y355297D01*
X623619Y363679D01*
X624724Y365333D01*
X625112Y367284D01*
Y372792D01*
X625682Y373362D01*
X629285D01*
Y367459D01*
X649285D01*
Y373362D01*
X652762D01*
Y361326D01*
X651492Y360477D01*
X651002Y360680D01*
X649411D01*
X647941Y360071D01*
X646815Y358946D01*
X646540Y358280D01*
X645194Y358838D01*
X644110D01*
X643324Y359434D01*
X643064Y359990D01*
Y361222D01*
X642455Y362692D01*
X641330Y363817D01*
X639860Y364426D01*
X638268D01*
X636798Y363817D01*
X635673Y362692D01*
X635064Y361222D01*
Y360418D01*
X634846Y359559D01*
X633891Y359245D01*
X633175D01*
X631705Y358636D01*
X630579Y357511D01*
X629971Y356041D01*
Y355633D01*
X629446Y355282D01*
X627854D01*
X626384Y354673D01*
X625259Y353548D01*
X624650Y352078D01*
Y351601D01*
X623380Y350752D01*
X623062Y350884D01*
X621272D01*
X619618Y350199D01*
X618352Y348933D01*
X617667Y347279D01*
X616703Y346635D01*
X616083Y346892D01*
X614293D01*
X612639Y346207D01*
X611373Y344941D01*
X610688Y343287D01*
Y341497D01*
X611373Y339843D01*
X612129Y339087D01*
Y326895D01*
X610033Y324799D01*
X570021D01*
X568973Y326040D01*
Y327440D01*
X568763Y328493D01*
X568265Y329240D01*
X568763Y329986D01*
X568973Y331040D01*
Y332440D01*
X568763Y333493D01*
X568265Y334240D01*
X568763Y334986D01*
X568973Y336040D01*
Y337440D01*
X568763Y338493D01*
X568167Y339387D01*
X567273Y339983D01*
X566220Y340193D01*
X552020D01*
X550956Y340003D01*
X550405Y341068D01*
X550169Y341639D01*
X548903Y342905D01*
X547249Y343590D01*
X545459D01*
X543805Y342905D01*
X542539Y341639D01*
X541854Y339985D01*
Y338195D01*
X542539Y336541D01*
X543011Y336069D01*
X542485Y334799D01*
X541141D01*
X540517Y336305D01*
X539251Y337571D01*
X537597Y338256D01*
X535807D01*
X534153Y337571D01*
X532887Y336305D01*
X532202Y334651D01*
Y332861D01*
X532887Y331207D01*
X533967Y330127D01*
X534136Y329668D01*
X534072Y328600D01*
X533141Y327669D01*
X532456Y326015D01*
Y324225D01*
X533141Y322571D01*
X534407Y321305D01*
X536061Y320620D01*
X537851D01*
X539505Y321305D01*
X540771Y322571D01*
X541231Y323681D01*
X548219D01*
X549267Y322440D01*
Y321040D01*
X549477Y319986D01*
X549975Y319240D01*
X549477Y318493D01*
X549267Y317440D01*
Y316040D01*
X549477Y314986D01*
X549976Y314240D01*
X549477Y313493D01*
X549267Y312440D01*
Y311040D01*
X549477Y309986D01*
X549975Y309240D01*
X549477Y308493D01*
X549267Y307440D01*
Y306040D01*
X549477Y304986D01*
X549975Y304240D01*
X549477Y303493D01*
X549267Y302440D01*
Y301040D01*
X549477Y299986D01*
X549976Y299240D01*
X549477Y298493D01*
X549267Y297440D01*
Y296040D01*
X549477Y294986D01*
X549975Y294240D01*
X549477Y293493D01*
X549267Y292440D01*
Y291040D01*
X549477Y289986D01*
X550073Y289093D01*
X550966Y288497D01*
X552020Y288287D01*
X566220D01*
X567273Y288497D01*
X567550Y288681D01*
X628036D01*
X628036Y288681D01*
X629207Y288914D01*
X630199Y289577D01*
X651492Y310870D01*
X652762Y310344D01*
Y290524D01*
X636778D01*
X634951Y290284D01*
X633248Y289578D01*
X631786Y288456D01*
X621442Y278113D01*
X620320Y276651D01*
X619615Y274948D01*
X619374Y273121D01*
Y253868D01*
X562388D01*
Y256280D01*
X558957D01*
Y261222D01*
X558685Y262588D01*
X557911Y263745D01*
X554973Y266683D01*
X553816Y267457D01*
X552450Y267729D01*
X548594D01*
X548389Y267934D01*
Y277440D01*
X548273Y278022D01*
Y284540D01*
X548063Y285593D01*
X547467Y286487D01*
X546573Y287083D01*
X545520Y287293D01*
X544120D01*
X543066Y287083D01*
X542173Y286487D01*
X541577Y285593D01*
X541367Y284540D01*
Y278022D01*
X541251Y277440D01*
Y266456D01*
X541523Y265090D01*
X542297Y263933D01*
X544593Y261637D01*
X545750Y260863D01*
X547116Y260591D01*
X550972D01*
X551819Y259744D01*
Y256280D01*
X548388D01*
Y242280D01*
X562388D01*
Y244692D01*
X619374D01*
Y226515D01*
X609977Y217118D01*
X447678D01*
Y260475D01*
X448948Y260815D01*
X449059Y260624D01*
X450362Y259321D01*
X451958Y258399D01*
X453738Y257922D01*
X455582D01*
X457362Y258399D01*
X458958Y259321D01*
X459128Y259491D01*
X460476Y259042D01*
X460569Y258392D01*
X459355Y257179D01*
X458692Y256187D01*
X458459Y255016D01*
X458459Y255016D01*
Y251173D01*
X457220Y250457D01*
X455917Y249154D01*
X454995Y247558D01*
X454518Y245778D01*
Y243934D01*
X454995Y242154D01*
X455917Y240558D01*
X457220Y239255D01*
X458816Y238333D01*
X460596Y237856D01*
X462440D01*
X464220Y238333D01*
X465816Y239255D01*
X467119Y240558D01*
X468041Y242154D01*
X468518Y243934D01*
Y245778D01*
X468041Y247558D01*
X467119Y249154D01*
X465816Y250457D01*
X464577Y251173D01*
Y253749D01*
X466221Y255393D01*
X466221Y255393D01*
X466884Y256385D01*
X467117Y257556D01*
Y287252D01*
X468387Y288294D01*
X468420Y288287D01*
X471667D01*
Y280927D01*
X470911Y280171D01*
X470226Y278517D01*
Y276727D01*
X470911Y275073D01*
X472177Y273807D01*
X473831Y273122D01*
X475621D01*
X477275Y273807D01*
X478541Y275073D01*
X479226Y276727D01*
Y278517D01*
X478541Y280171D01*
X477785Y280927D01*
Y288287D01*
X482620D01*
X483674Y288497D01*
X484567Y289093D01*
X485163Y289986D01*
X485373Y291040D01*
Y292440D01*
X485163Y293493D01*
X484665Y294240D01*
X485163Y294986D01*
X485373Y296040D01*
Y297440D01*
X485163Y298493D01*
X484664Y299240D01*
X485163Y299986D01*
X485373Y301040D01*
Y302440D01*
X485163Y303493D01*
X484665Y304240D01*
X485163Y304986D01*
X485373Y306040D01*
Y307440D01*
X485163Y308493D01*
X484567Y309387D01*
X483674Y309983D01*
X482620Y310193D01*
X468420D01*
X467822Y310074D01*
X460156D01*
X458880Y309820D01*
X457798Y309097D01*
X452882Y304181D01*
X451612Y304641D01*
Y317500D01*
X452518Y318406D01*
X464874D01*
X465667Y317440D01*
Y316040D01*
X465877Y314986D01*
X466473Y314093D01*
X467366Y313497D01*
X468420Y313287D01*
X482620D01*
X483213Y313405D01*
X486173D01*
X486655Y312923D01*
X488309Y312238D01*
X490099D01*
X491753Y312923D01*
X493019Y314189D01*
X493704Y315843D01*
Y317633D01*
X493019Y319287D01*
X491753Y320553D01*
X490099Y321238D01*
X488309D01*
X486655Y320553D01*
X486550Y320448D01*
X485432Y321010D01*
X485373Y321067D01*
Y322440D01*
X485163Y323493D01*
X484664Y324240D01*
X485163Y324986D01*
X485373Y326040D01*
Y327440D01*
X485163Y328493D01*
X484665Y329240D01*
X485163Y329986D01*
X485373Y331040D01*
Y332440D01*
X485163Y333493D01*
X484665Y334240D01*
X485163Y334986D01*
X485373Y336040D01*
Y337440D01*
X485163Y338493D01*
X484664Y339240D01*
X485163Y339986D01*
X485373Y341040D01*
Y342440D01*
X485163Y343493D01*
X484665Y344240D01*
X485163Y344986D01*
X485373Y346040D01*
Y347440D01*
X485163Y348493D01*
X484567Y349387D01*
X483674Y349983D01*
X482620Y350193D01*
X475774D01*
Y357706D01*
X486367D01*
Y353940D01*
X486577Y352887D01*
X487173Y351993D01*
X488066Y351397D01*
X489120Y351187D01*
X490520D01*
X491573Y351397D01*
X492467Y351993D01*
X493063Y352887D01*
X493273Y353940D01*
Y368140D01*
X493063Y369193D01*
X492467Y370087D01*
X491573Y370683D01*
X490520Y370893D01*
X489120D01*
X488066Y370683D01*
X487173Y370087D01*
X486577Y369193D01*
X486367Y368140D01*
Y364374D01*
X475774D01*
Y377950D01*
X479410D01*
X479440Y377950D01*
X480680D01*
X480710Y377950D01*
X494680D01*
Y381891D01*
X504307D01*
X506761Y379437D01*
Y371941D01*
X505520Y370893D01*
X504120D01*
X503066Y370683D01*
X502320Y370185D01*
X501573Y370683D01*
X500520Y370893D01*
X499120D01*
X498066Y370683D01*
X497173Y370087D01*
X496577Y369193D01*
X496367Y368140D01*
Y353940D01*
X496577Y352887D01*
X497173Y351993D01*
X498066Y351397D01*
X499120Y351187D01*
X499465D01*
X500314Y349917D01*
X500198Y349637D01*
Y347847D01*
X500883Y346193D01*
X502149Y344927D01*
X503803Y344242D01*
X505593D01*
X507247Y344927D01*
X508513Y346193D01*
X509198Y347847D01*
Y349593D01*
X509259Y349650D01*
X509375Y349641D01*
X510518Y348895D01*
X510529Y348863D01*
Y344736D01*
X510197Y344404D01*
X509588Y342934D01*
Y341342D01*
X510197Y339872D01*
X511322Y338747D01*
X512792Y338138D01*
X514384D01*
X515854Y338747D01*
X516314Y339207D01*
X517144Y339762D01*
X517974Y339207D01*
X518434Y338747D01*
X519904Y338138D01*
X521496D01*
X522966Y338747D01*
X524091Y339872D01*
X524700Y341342D01*
Y342934D01*
X524091Y344404D01*
X523759Y344736D01*
Y349129D01*
X524692Y350035D01*
X525344Y349637D01*
Y347847D01*
X526029Y346193D01*
X527295Y344927D01*
X528949Y344242D01*
X530739D01*
X532393Y344927D01*
X533659Y346193D01*
X534289Y347714D01*
X534924Y347784D01*
X535559Y347714D01*
X536189Y346193D01*
X537455Y344927D01*
X539109Y344242D01*
X540899D01*
X542553Y344927D01*
X543819Y346193D01*
X544504Y347847D01*
Y349637D01*
X544388Y349917D01*
X545237Y351187D01*
X545520D01*
X546573Y351397D01*
X547467Y351993D01*
X548063Y352887D01*
X548273Y353940D01*
Y368140D01*
X548063Y369193D01*
X547884Y369462D01*
Y370269D01*
X548983Y371368D01*
X549592Y372838D01*
Y374430D01*
X548983Y375900D01*
X547858Y377025D01*
X546388Y377634D01*
X544796D01*
X543326Y377025D01*
X542201Y375900D01*
X541592Y374430D01*
Y372838D01*
X541779Y372388D01*
X541766Y372326D01*
X541766Y372326D01*
Y372015D01*
X540816Y371169D01*
X539629Y371260D01*
X538924Y372330D01*
Y373922D01*
X538315Y375392D01*
X537190Y376517D01*
X535720Y377126D01*
X534128D01*
X532658Y376517D01*
X531533Y375392D01*
X530924Y373922D01*
Y372330D01*
X531025Y372087D01*
X530841Y371653D01*
X530145Y370893D01*
X529120D01*
X528066Y370683D01*
X527320Y370185D01*
X526573Y370683D01*
X525520Y370893D01*
X524120D01*
X522879Y371941D01*
Y394364D01*
X528494D01*
Y413864D01*
X518494D01*
Y398690D01*
X518022Y398218D01*
X517534Y397881D01*
X516330Y398153D01*
X515794Y398690D01*
Y413864D01*
X505794D01*
Y394364D01*
X511468D01*
X511761Y394071D01*
Y384748D01*
X510588Y384262D01*
X507737Y387113D01*
X506745Y387776D01*
X505574Y388009D01*
X505574Y388009D01*
X494680D01*
Y391950D01*
X480710D01*
X480680Y391950D01*
X479440D01*
X479410Y391950D01*
X465440D01*
Y389538D01*
X442373D01*
Y430388D01*
X444785D01*
Y444388D01*
X441997D01*
Y446523D01*
X442141Y446619D01*
X442849Y447677D01*
X443097Y448926D01*
Y456526D01*
X442849Y457775D01*
X442141Y458833D01*
X441083Y459540D01*
X439834Y459789D01*
X434233D01*
X432985Y459540D01*
X431926Y458833D01*
X431219Y457775D01*
X430970Y456526D01*
Y448926D01*
X431219Y447677D01*
X431926Y446619D01*
X432821Y446021D01*
Y444388D01*
X430784D01*
Y430388D01*
X433196D01*
Y389538D01*
X362152D01*
Y448138D01*
X393419D01*
X393510Y447677D01*
X394218Y446619D01*
X395112Y446021D01*
Y444388D01*
X393076D01*
Y430388D01*
X407076D01*
Y444388D01*
X404289D01*
Y446523D01*
X404433Y446619D01*
X405140Y447677D01*
X405388Y448926D01*
Y456526D01*
X405140Y457775D01*
X404433Y458833D01*
X403374Y459540D01*
X402126Y459789D01*
X396525D01*
X395276Y459540D01*
X394218Y458833D01*
X393510Y457775D01*
X393419Y457314D01*
X362152D01*
Y468376D01*
X362092Y468835D01*
Y475376D01*
X355551D01*
X355092Y475436D01*
D02*
G37*
G36*
X458833Y459789D02*
X453232D01*
X451984Y459540D01*
X450925Y458833D01*
X450218Y457775D01*
X449970Y456526D01*
Y448926D01*
X450218Y447677D01*
X450925Y446619D01*
X451071Y446522D01*
Y444388D01*
X448284D01*
Y430388D01*
X462285D01*
Y434054D01*
X463822D01*
X464303Y433573D01*
X465957Y432888D01*
X467747D01*
X469401Y433573D01*
X470667Y434839D01*
X471352Y436493D01*
Y438283D01*
X470667Y439937D01*
X469401Y441203D01*
X467747Y441888D01*
X465957D01*
X464303Y441203D01*
X463822Y440722D01*
X462285D01*
Y444388D01*
X460247D01*
Y446022D01*
X461140Y446619D01*
X461848Y447677D01*
X462096Y448926D01*
Y456526D01*
X461848Y457775D01*
X461140Y458833D01*
X460082Y459540D01*
X458833Y459789D01*
D02*
G37*
G36*
X680628Y433622D02*
X666628D01*
Y429779D01*
X663959D01*
X663203Y430535D01*
X661549Y431220D01*
X659759D01*
X658105Y430535D01*
X656839Y429269D01*
X656154Y427615D01*
Y425825D01*
X656839Y424171D01*
X658105Y422905D01*
X659759Y422220D01*
X661549D01*
X663203Y422905D01*
X663959Y423661D01*
X666628D01*
Y419622D01*
X680628D01*
Y423564D01*
X683157D01*
X683354Y422573D01*
X684061Y421515D01*
X685119Y420808D01*
X686368Y420559D01*
X693968D01*
X695217Y420808D01*
X696275Y421515D01*
X696982Y422573D01*
X697231Y423822D01*
Y429423D01*
X696982Y430671D01*
X696275Y431730D01*
X695217Y432437D01*
X693968Y432686D01*
X686368D01*
X685119Y432437D01*
X684061Y431730D01*
X683354Y430671D01*
X683157Y429681D01*
X680628D01*
Y433622D01*
D02*
G37*
G36*
X421125Y459789D02*
X415524D01*
X414275Y459540D01*
X413217Y458833D01*
X412509Y457775D01*
X412261Y456526D01*
Y448926D01*
X412509Y447677D01*
X413217Y446619D01*
X413362Y446522D01*
Y444388D01*
X410576D01*
Y430388D01*
X412534D01*
X413383Y429118D01*
X413076Y428377D01*
Y426587D01*
X413761Y424933D01*
X415027Y423667D01*
X416681Y422982D01*
X418471D01*
X420125Y423667D01*
X421391Y424933D01*
X422076Y426587D01*
Y428377D01*
X421769Y429118D01*
X422618Y430388D01*
X424576D01*
Y444388D01*
X422538D01*
Y446022D01*
X423432Y446619D01*
X424139Y447677D01*
X424388Y448926D01*
Y456526D01*
X424139Y457775D01*
X423432Y458833D01*
X422373Y459540D01*
X421125Y459789D01*
D02*
G37*
G36*
X811558Y443372D02*
X797558D01*
Y429372D01*
X799779D01*
X800628Y428102D01*
X800426Y427615D01*
Y425825D01*
X801111Y424171D01*
X802377Y422905D01*
X804031Y422220D01*
X805821D01*
X807475Y422905D01*
X808741Y424171D01*
X809426Y425825D01*
Y427615D01*
X809224Y428102D01*
X810073Y429372D01*
X811558D01*
Y443372D01*
D02*
G37*
G36*
X190627Y427862D02*
X174932D01*
X174093Y427695D01*
X173381Y427219D01*
X172905Y426507D01*
X172738Y425667D01*
Y419873D01*
X172905Y419033D01*
X173381Y418321D01*
X174093Y417845D01*
X174932Y417678D01*
X190627D01*
X191467Y417845D01*
X192179Y418321D01*
X192655Y419033D01*
X192822Y419873D01*
Y425667D01*
X192655Y426507D01*
X192179Y427219D01*
X191467Y427695D01*
X190627Y427862D01*
D02*
G37*
G36*
X234700Y462790D02*
X220700D01*
Y448790D01*
X222602D01*
Y446280D01*
X220700D01*
Y432280D01*
X222602D01*
Y426335D01*
X222990Y424384D01*
X224095Y422730D01*
X226738Y420087D01*
Y419873D01*
X226905Y419033D01*
X227381Y418321D01*
X228093Y417845D01*
X228932Y417678D01*
X236751D01*
X236780Y417672D01*
X236809Y417678D01*
X244627D01*
X245467Y417845D01*
X246179Y418321D01*
X246655Y419033D01*
X246822Y419873D01*
Y425667D01*
X246655Y426507D01*
X246179Y427219D01*
X245467Y427695D01*
X244627Y427862D01*
X237011D01*
X236730Y427918D01*
X233326D01*
X232798Y428446D01*
Y432280D01*
X234700D01*
Y446280D01*
X232798D01*
Y448790D01*
X234700D01*
Y462790D01*
D02*
G37*
G36*
X789778Y443122D02*
X775778D01*
Y429122D01*
X778190D01*
Y423434D01*
X774930D01*
X774091Y423267D01*
X773379Y422791D01*
X772903Y422079D01*
X772736Y421240D01*
Y415444D01*
X772903Y414605D01*
X773379Y413893D01*
X774091Y413417D01*
X774930Y413250D01*
X790626D01*
X791465Y413417D01*
X792177Y413893D01*
X792653Y414605D01*
X792820Y415444D01*
Y421240D01*
X792653Y422079D01*
X792177Y422791D01*
X791465Y423267D01*
X790626Y423434D01*
X787366D01*
Y429122D01*
X789778D01*
Y443122D01*
D02*
G37*
G36*
X244627Y415162D02*
X228932D01*
X228093Y414995D01*
X227381Y414519D01*
X226905Y413807D01*
X226738Y412967D01*
Y407173D01*
X226905Y406333D01*
X227381Y405621D01*
X228093Y405145D01*
X228932Y404978D01*
X244627D01*
X245467Y405145D01*
X246179Y405621D01*
X246655Y406333D01*
X246822Y407173D01*
Y412967D01*
X246655Y413807D01*
X246179Y414519D01*
X245467Y414995D01*
X244627Y415162D01*
D02*
G37*
G36*
X829058Y443372D02*
X815058D01*
Y429372D01*
X817280D01*
Y415041D01*
X814678D01*
Y401041D01*
X822189D01*
X823187Y400043D01*
X823117Y398473D01*
X823083Y398434D01*
X822189Y397541D01*
X814678D01*
Y383541D01*
X817350D01*
Y370886D01*
X815423Y369408D01*
X813900Y367423D01*
X812943Y365112D01*
X812616Y362632D01*
Y352632D01*
X812943Y350152D01*
X813900Y347841D01*
X815423Y345857D01*
X817407Y344334D01*
X819718Y343377D01*
X822198Y343050D01*
X824678Y343377D01*
X826989Y344334D01*
X828973Y345857D01*
X830496Y347841D01*
X831453Y350152D01*
X831780Y352632D01*
Y362632D01*
X831453Y365112D01*
X830496Y367423D01*
X828973Y369408D01*
X826989Y370930D01*
X826526Y371122D01*
Y383541D01*
X828678D01*
Y390636D01*
X852301D01*
X857676Y385261D01*
X859165Y384267D01*
X860019Y384097D01*
X860970Y381801D01*
X862493Y379817D01*
X864477Y378294D01*
X866788Y377337D01*
X869268Y377010D01*
X879268D01*
X881748Y377337D01*
X884059Y378294D01*
X886043Y379817D01*
X887566Y381801D01*
X888523Y384112D01*
X888850Y386592D01*
X888523Y389072D01*
X887566Y391383D01*
X886043Y393367D01*
X884059Y394890D01*
X881748Y395847D01*
X879268Y396174D01*
X869268D01*
X866788Y395847D01*
X864477Y394890D01*
X862523Y393391D01*
X857734Y398180D01*
X857488Y398709D01*
X857684Y399837D01*
X862815Y404969D01*
X864477Y403694D01*
X866788Y402737D01*
X869268Y402410D01*
X879268D01*
X881748Y402737D01*
X884059Y403694D01*
X886043Y405216D01*
X887566Y407201D01*
X888523Y409512D01*
X888850Y411992D01*
X888523Y414472D01*
X887566Y416783D01*
X886043Y418767D01*
X884059Y420290D01*
X881748Y421247D01*
X879268Y421574D01*
X869268D01*
X866788Y421247D01*
X864477Y420290D01*
X862493Y418767D01*
X860970Y416783D01*
X860013Y414472D01*
X860001Y414381D01*
X859681Y414318D01*
X858192Y413323D01*
X852048Y407178D01*
X829029D01*
X828678Y407529D01*
Y415041D01*
X826456D01*
Y429372D01*
X829058D01*
Y443372D01*
D02*
G37*
G36*
X811178Y415041D02*
X797178D01*
Y410780D01*
X783328D01*
X783097Y410734D01*
X774930D01*
X774091Y410567D01*
X773379Y410091D01*
X772903Y409379D01*
X772736Y408540D01*
Y402744D01*
X772903Y401905D01*
X773379Y401193D01*
X774091Y400717D01*
X774930Y400550D01*
X790626D01*
X791465Y400717D01*
X792177Y401193D01*
X792452Y401604D01*
X797178D01*
Y401041D01*
X811178D01*
Y415041D01*
D02*
G37*
G36*
X244627Y402462D02*
X228932D01*
X228093Y402295D01*
X227381Y401819D01*
X226905Y401107D01*
X226738Y400267D01*
Y394473D01*
X226905Y393633D01*
X227381Y392921D01*
X228093Y392445D01*
X228932Y392278D01*
X244627D01*
X245467Y392445D01*
X246179Y392921D01*
X246655Y393633D01*
X246822Y394473D01*
Y400267D01*
X246655Y401107D01*
X246179Y401819D01*
X245467Y402295D01*
X244627Y402462D01*
D02*
G37*
G36*
X790626Y398034D02*
X774930D01*
X774091Y397867D01*
X773379Y397391D01*
X772903Y396679D01*
X772736Y395840D01*
Y390045D01*
X772903Y389205D01*
X773379Y388493D01*
X774091Y388017D01*
X774930Y387850D01*
X783097D01*
X783328Y387804D01*
X797178D01*
Y383541D01*
X811178D01*
Y397541D01*
X797178D01*
Y396980D01*
X792452D01*
X792177Y397391D01*
X791465Y397867D01*
X790626Y398034D01*
D02*
G37*
G36*
Y385334D02*
X774930D01*
X774091Y385167D01*
X773379Y384691D01*
X772903Y383979D01*
X772736Y383139D01*
Y377345D01*
X772903Y376505D01*
X773379Y375793D01*
X774091Y375317D01*
X774930Y375150D01*
X790626D01*
X791465Y375317D01*
X792177Y375793D01*
X792653Y376505D01*
X792820Y377345D01*
Y383139D01*
X792653Y383979D01*
X792177Y384691D01*
X791465Y385167D01*
X790626Y385334D01*
D02*
G37*
G36*
X236780Y389768D02*
X236751Y389762D01*
X228932D01*
X228093Y389595D01*
X227381Y389119D01*
X226905Y388407D01*
X226738Y387567D01*
Y381772D01*
X226905Y380933D01*
X227381Y380221D01*
X228093Y379745D01*
X228932Y379578D01*
X228965D01*
X229863Y378680D01*
Y378035D01*
X226739Y374911D01*
X207688D01*
X207573Y375083D01*
X206498Y375801D01*
X205230Y376054D01*
X197730D01*
X196462Y375801D01*
X195387Y375083D01*
X194669Y374008D01*
X194416Y372740D01*
Y361040D01*
X194669Y359772D01*
X195387Y358697D01*
X196462Y357979D01*
X197730Y357726D01*
X205230D01*
X206498Y357979D01*
X207489Y358641D01*
X231648D01*
X232428Y358796D01*
X233090Y359238D01*
X233090Y359238D01*
X243250Y369398D01*
X243692Y370060D01*
X243847Y370840D01*
Y379578D01*
X244627D01*
X245467Y379745D01*
X246179Y380221D01*
X246655Y380933D01*
X246822Y381772D01*
Y387567D01*
X246655Y388407D01*
X246179Y389119D01*
X245467Y389595D01*
X244627Y389762D01*
X236809D01*
X236780Y389768D01*
D02*
G37*
G36*
X122080Y383428D02*
X120236D01*
X118456Y382951D01*
X116860Y382029D01*
X115557Y380726D01*
X114635Y379130D01*
X114158Y377350D01*
Y375506D01*
X114591Y373890D01*
X114510Y373700D01*
X114020Y372620D01*
X114020Y372620D01*
X114020Y372620D01*
Y370718D01*
X98920D01*
X96969Y370330D01*
X95315Y369225D01*
X87290Y361200D01*
X86185Y359546D01*
X85797Y357595D01*
Y354164D01*
X78690D01*
X77617Y353950D01*
X76707Y353343D01*
X76100Y352433D01*
X75886Y351360D01*
Y346860D01*
X76100Y345787D01*
X76707Y344877D01*
X77617Y344270D01*
X78690Y344056D01*
X87218D01*
X87440Y344012D01*
X90895D01*
X91117Y344056D01*
X96190D01*
X97263Y344270D01*
X98173Y344877D01*
X98780Y345787D01*
X98994Y346860D01*
Y351360D01*
X98780Y352433D01*
X98173Y353343D01*
X97263Y353950D01*
X96190Y354164D01*
X95993D01*
Y355484D01*
X101032Y360522D01*
X114020D01*
Y358620D01*
X128020D01*
Y372620D01*
X128020Y372620D01*
X127725Y373890D01*
X128158Y375506D01*
Y377350D01*
X127681Y379130D01*
X126759Y380726D01*
X125456Y382029D01*
X123860Y382951D01*
X122080Y383428D01*
D02*
G37*
G36*
X145290Y354164D02*
X127790D01*
X126717Y353950D01*
X125807Y353343D01*
X125200Y352433D01*
X124986Y351360D01*
Y346860D01*
X125200Y345787D01*
X125807Y344877D01*
X126717Y344270D01*
X127790Y344056D01*
X145290D01*
X146363Y344270D01*
X147273Y344877D01*
X148552Y344871D01*
X150389Y344110D01*
X152379D01*
X154216Y344871D01*
X155623Y346278D01*
X156384Y348115D01*
Y350105D01*
X155623Y351942D01*
X154216Y353349D01*
X152379Y354110D01*
X150389D01*
X148552Y353349D01*
X147273Y353343D01*
X146363Y353950D01*
X145290Y354164D01*
D02*
G37*
G36*
X796798Y372214D02*
X794318Y371888D01*
X792007Y370930D01*
X790023Y369408D01*
X788500Y367423D01*
X787542Y365112D01*
X787216Y362632D01*
Y352632D01*
X787542Y350152D01*
X788500Y347841D01*
X790023Y345857D01*
X792007Y344334D01*
X794318Y343377D01*
X796798Y343050D01*
X799278Y343377D01*
X801589Y344334D01*
X803573Y345857D01*
X805096Y347841D01*
X806053Y350152D01*
X806380Y352632D01*
Y362632D01*
X806053Y365112D01*
X805096Y367423D01*
X803573Y369408D01*
X801589Y370930D01*
X799278Y371888D01*
X796798Y372214D01*
D02*
G37*
G36*
X145290Y341464D02*
X127790D01*
X126717Y341250D01*
X125807Y340643D01*
X125200Y339733D01*
X124986Y338660D01*
Y334160D01*
X125200Y333087D01*
X125807Y332177D01*
X126717Y331570D01*
X127790Y331356D01*
X145290D01*
X146363Y331570D01*
X147273Y332177D01*
X147880Y333087D01*
X148094Y334160D01*
Y338660D01*
X147880Y339733D01*
X147273Y340643D01*
X146363Y341250D01*
X145290Y341464D01*
D02*
G37*
G36*
X879268Y344862D02*
X869268D01*
X866788Y344535D01*
X864477Y343578D01*
X862493Y342056D01*
X860970Y340071D01*
X860013Y337760D01*
X859686Y335280D01*
X860013Y332800D01*
X860970Y330489D01*
X862493Y328504D01*
X864477Y326982D01*
X866788Y326025D01*
X869268Y325698D01*
X879268D01*
X881748Y326025D01*
X884059Y326982D01*
X886043Y328504D01*
X887566Y330489D01*
X888523Y332800D01*
X888850Y335280D01*
X888523Y337760D01*
X887566Y340071D01*
X886043Y342056D01*
X884059Y343578D01*
X881748Y344535D01*
X879268Y344862D01*
D02*
G37*
G36*
X145290Y328764D02*
X127790D01*
X126717Y328550D01*
X125807Y327943D01*
X125200Y327033D01*
X124986Y325960D01*
Y321460D01*
X125200Y320387D01*
X125807Y319477D01*
X126717Y318870D01*
X127790Y318656D01*
X145290D01*
X146363Y318870D01*
X147273Y319477D01*
X147880Y320387D01*
X148094Y321460D01*
Y325960D01*
X147880Y327033D01*
X147273Y327943D01*
X146363Y328550D01*
X145290Y328764D01*
D02*
G37*
G36*
X108090Y328808D02*
X87440D01*
X87218Y328764D01*
X78690D01*
X77617Y328550D01*
X76707Y327943D01*
X76100Y327033D01*
X75886Y325960D01*
Y321460D01*
X76100Y320387D01*
X76707Y319477D01*
X77617Y318870D01*
X78690Y318656D01*
X87218D01*
X87440Y318612D01*
X105978D01*
X114842Y309748D01*
Y297052D01*
X112093D01*
X111253Y296885D01*
X110541Y296409D01*
X110065Y295697D01*
X109898Y294858D01*
Y289062D01*
X110065Y288223D01*
X110541Y287511D01*
X111253Y287035D01*
X112093Y286868D01*
X119709D01*
X119990Y286812D01*
X134200D01*
Y284820D01*
X148200D01*
Y298820D01*
X134200D01*
Y297008D01*
X128010D01*
X127788Y297052D01*
X125038D01*
Y305817D01*
X126308Y306443D01*
X126717Y306170D01*
X127790Y305956D01*
X145290D01*
X146363Y306170D01*
X147273Y306777D01*
X147716Y307441D01*
X155247D01*
X155918Y306771D01*
X157755Y306010D01*
X159745D01*
X161582Y306771D01*
X162989Y308178D01*
X163750Y310015D01*
Y312005D01*
X162989Y313842D01*
X161582Y315249D01*
X159745Y316010D01*
X157755D01*
X155918Y315249D01*
X155247Y314579D01*
X147716D01*
X147273Y315243D01*
X146363Y315850D01*
X145290Y316064D01*
X127790D01*
X126717Y315850D01*
X125807Y315243D01*
X125514Y314804D01*
X124146Y314683D01*
X124045Y314717D01*
X123545Y315465D01*
X111695Y327315D01*
X110041Y328420D01*
X108090Y328808D01*
D02*
G37*
G36*
X879268Y319462D02*
X869268D01*
X866788Y319135D01*
X864477Y318178D01*
X862493Y316656D01*
X860970Y314671D01*
X860013Y312360D01*
X859686Y309880D01*
X860013Y307400D01*
X860970Y305089D01*
X862493Y303104D01*
X864477Y301582D01*
X866788Y300625D01*
X869268Y300298D01*
X879268D01*
X881748Y300625D01*
X884059Y301582D01*
X886043Y303104D01*
X887566Y305089D01*
X888523Y307400D01*
X888850Y309880D01*
X888523Y312360D01*
X887566Y314671D01*
X886043Y316656D01*
X884059Y318178D01*
X881748Y319135D01*
X879268Y319462D01*
D02*
G37*
G36*
X73787Y297052D02*
X58092D01*
X57253Y296885D01*
X56541Y296409D01*
X56065Y295697D01*
X55898Y294858D01*
Y289062D01*
X56065Y288223D01*
X56541Y287511D01*
X57253Y287035D01*
X58092Y286868D01*
X73787D01*
X74627Y287035D01*
X75339Y287511D01*
X75815Y288223D01*
X75982Y289062D01*
Y294858D01*
X75815Y295697D01*
X75339Y296409D01*
X74627Y296885D01*
X73787Y297052D01*
D02*
G37*
G36*
X535520Y287293D02*
X534120D01*
X533066Y287083D01*
X532320Y286584D01*
X531573Y287083D01*
X530520Y287293D01*
X529120D01*
X528066Y287083D01*
X527320Y286584D01*
X526573Y287083D01*
X525520Y287293D01*
X524120D01*
X523066Y287083D01*
X522320Y286584D01*
X521573Y287083D01*
X520520Y287293D01*
X519120D01*
X518066Y287083D01*
X517320Y286584D01*
X516573Y287083D01*
X515520Y287293D01*
X514120D01*
X513066Y287083D01*
X512320Y286584D01*
X511573Y287083D01*
X510520Y287293D01*
X509120D01*
X508066Y287083D01*
X507320Y286584D01*
X506573Y287083D01*
X505520Y287293D01*
X504120D01*
X503066Y287083D01*
X502320Y286584D01*
X501573Y287083D01*
X500520Y287293D01*
X499120D01*
X498066Y287083D01*
X497320Y286584D01*
X496573Y287083D01*
X495520Y287293D01*
X494120D01*
X493066Y287083D01*
X492320Y286584D01*
X491573Y287083D01*
X490520Y287293D01*
X489120D01*
X488066Y287083D01*
X487173Y286487D01*
X486577Y285593D01*
X486367Y284540D01*
Y282344D01*
X486035Y282122D01*
X484245D01*
X482591Y281437D01*
X481325Y280171D01*
X480640Y278517D01*
Y276727D01*
X481325Y275073D01*
X482591Y273807D01*
X484245Y273122D01*
X486035D01*
X486367Y272900D01*
Y270340D01*
X486577Y269286D01*
X487173Y268393D01*
X488066Y267797D01*
X489120Y267587D01*
X490520D01*
X490698Y267435D01*
X491147Y266172D01*
X490538Y264702D01*
Y263110D01*
X491147Y261640D01*
X492272Y260515D01*
X493742Y259906D01*
X494423D01*
X495361Y258863D01*
X495364Y258733D01*
Y257268D01*
X495973Y255798D01*
X497098Y254673D01*
X498568Y254064D01*
X500160D01*
X501630Y254673D01*
X502755Y255798D01*
X503364Y257268D01*
Y258500D01*
X503624Y259056D01*
X504410Y259652D01*
X504942D01*
X505796Y258600D01*
X505831Y258479D01*
X505778Y258352D01*
Y256760D01*
X506387Y255290D01*
X507512Y254165D01*
X508982Y253556D01*
X510574D01*
X512044Y254165D01*
X513169Y255290D01*
X513755Y256706D01*
X513793Y256769D01*
X515048Y257440D01*
X515840Y257112D01*
X517432D01*
X518902Y257721D01*
X520027Y258846D01*
X520216Y259302D01*
X521486Y259050D01*
Y252166D01*
X521740Y250890D01*
X522463Y249809D01*
X525349Y246922D01*
X526430Y246200D01*
X527706Y245946D01*
X532138D01*
Y242280D01*
X546138D01*
Y256280D01*
X532138D01*
Y252614D01*
X529087D01*
X528154Y253547D01*
Y266794D01*
X529120Y267587D01*
X530520D01*
X531573Y267797D01*
X532320Y268295D01*
X533066Y267797D01*
X534120Y267587D01*
X535520D01*
X536573Y267797D01*
X537467Y268393D01*
X538063Y269286D01*
X538273Y270340D01*
Y284540D01*
X538063Y285593D01*
X537467Y286487D01*
X536573Y287083D01*
X535520Y287293D01*
D02*
G37*
G36*
X312048Y334958D02*
X294048D01*
Y315958D01*
X298495D01*
Y306262D01*
X298845Y304507D01*
X299839Y303018D01*
X309344Y293514D01*
X310832Y292519D01*
X312588Y292170D01*
X325258D01*
Y289758D01*
X327670D01*
Y285838D01*
X325258D01*
Y283874D01*
X323988Y283532D01*
X323828Y283639D01*
X323385Y283727D01*
X322967Y283900D01*
X322515D01*
X322072Y283988D01*
X321629Y283900D01*
X321177D01*
X320760Y283727D01*
X320316Y283639D01*
X319940Y283388D01*
X319523Y283215D01*
X319203Y282895D01*
X318828Y282644D01*
X318577Y282269D01*
X318257Y281949D01*
X318084Y281532D01*
X317833Y281156D01*
X317745Y280713D01*
X317572Y280295D01*
Y279843D01*
X317484Y279400D01*
X317572Y278957D01*
Y278505D01*
X317745Y278088D01*
X317833Y277644D01*
X318084Y277268D01*
X318257Y276851D01*
X318577Y276532D01*
X318828Y276156D01*
X319390Y275594D01*
X320878Y274599D01*
X322634Y274250D01*
X325258D01*
Y271838D01*
X339258D01*
Y285838D01*
X336846D01*
Y289758D01*
X339258D01*
Y303758D01*
X325258D01*
Y301346D01*
X314489D01*
X307672Y308163D01*
Y315958D01*
X312048D01*
Y334958D01*
D02*
G37*
G36*
X127788Y284352D02*
X112093D01*
X111253Y284185D01*
X110541Y283709D01*
X110065Y282997D01*
X109898Y282157D01*
Y276362D01*
X110065Y275523D01*
X110541Y274811D01*
X111253Y274335D01*
X112093Y274168D01*
X127788D01*
X128627Y274335D01*
X129339Y274811D01*
X129815Y275523D01*
X129982Y276362D01*
Y282157D01*
X129815Y282997D01*
X129339Y283709D01*
X128627Y284185D01*
X127788Y284352D01*
D02*
G37*
G36*
Y271652D02*
X112093D01*
X111253Y271485D01*
X110541Y271009D01*
X110065Y270297D01*
X109898Y269457D01*
Y263662D01*
X110065Y262823D01*
X110541Y262111D01*
X111253Y261635D01*
X112093Y261468D01*
X127788D01*
X128627Y261635D01*
X129339Y262111D01*
X129815Y262823D01*
X129982Y263662D01*
Y269457D01*
X129815Y270297D01*
X129339Y271009D01*
X128627Y271485D01*
X127788Y271652D01*
D02*
G37*
G36*
X809666Y274716D02*
X795666D01*
Y270775D01*
X789940D01*
X788769Y270542D01*
X787777Y269879D01*
X787777Y269879D01*
X784983Y267085D01*
X784320Y266092D01*
X784087Y264922D01*
X784087Y264922D01*
Y261699D01*
X783372Y260725D01*
X759560D01*
Y255027D01*
X753642D01*
X752784Y255884D01*
Y256954D01*
X752099Y258608D01*
X750833Y259873D01*
X749179Y260558D01*
X747389D01*
X745735Y259873D01*
X744469Y258608D01*
X743784Y256954D01*
Y255163D01*
X744469Y253509D01*
X745735Y252244D01*
X747389Y251558D01*
X748458D01*
X749678Y250339D01*
X749820Y248786D01*
X748942Y247859D01*
X747389D01*
X745735Y247173D01*
X744469Y245907D01*
X743784Y244254D01*
Y242463D01*
X744469Y240809D01*
X745735Y239544D01*
X747389Y238859D01*
X749179D01*
X750833Y239544D01*
X752099Y240809D01*
X752784Y242463D01*
Y242998D01*
X754377Y244591D01*
X759560D01*
Y238692D01*
X783372D01*
Y240300D01*
X787680D01*
X787681Y240300D01*
X788406Y240444D01*
X789474Y239795D01*
X789676Y239556D01*
Y235247D01*
X783372D01*
Y235326D01*
X759560D01*
Y225991D01*
X783372D01*
Y226070D01*
X789676D01*
Y220880D01*
X811676D01*
Y223709D01*
X820155D01*
Y220880D01*
X842157D01*
Y240879D01*
X820155D01*
Y237829D01*
X811676D01*
Y240879D01*
X791323D01*
X790797Y242149D01*
X791595Y242947D01*
X792258Y243939D01*
X792491Y245110D01*
X792491Y245110D01*
Y249417D01*
X795666D01*
Y245476D01*
X809666D01*
Y259476D01*
X809666D01*
Y260716D01*
X809666D01*
Y274716D01*
D02*
G37*
G36*
X689392Y260725D02*
X665580D01*
Y251392D01*
X689392D01*
Y260725D01*
D02*
G37*
G36*
X127788Y258952D02*
X112093D01*
X111253Y258785D01*
X110541Y258309D01*
X110065Y257597D01*
X109898Y256758D01*
Y250963D01*
X110065Y250123D01*
X110541Y249411D01*
X111253Y248935D01*
X112007Y248785D01*
Y241891D01*
X110153Y240037D01*
X89679D01*
X89658Y240051D01*
X88390Y240304D01*
X80890D01*
X79622Y240051D01*
X78547Y239333D01*
X77829Y238258D01*
X77576Y236990D01*
Y225290D01*
X77829Y224022D01*
X78547Y222947D01*
X79622Y222229D01*
X80890Y221976D01*
X88390D01*
X89658Y222229D01*
X89679Y222243D01*
X116586Y222243D01*
X117366Y222398D01*
X118028Y222840D01*
X118028Y222840D01*
X127426Y232238D01*
X127868Y232900D01*
X128023Y233680D01*
Y248815D01*
X128627Y248935D01*
X129339Y249411D01*
X129815Y250123D01*
X129982Y250963D01*
Y256758D01*
X129815Y257597D01*
X129339Y258309D01*
X128627Y258785D01*
X127788Y258952D01*
D02*
G37*
G36*
X689392Y235326D02*
X665580D01*
Y225991D01*
X689392D01*
Y235326D01*
D02*
G37*
G36*
Y222626D02*
X665580D01*
Y213291D01*
X689392D01*
Y222626D01*
D02*
G37*
G36*
X213274Y241696D02*
X199274D01*
Y227696D01*
X200309D01*
Y224392D01*
X196520D01*
Y206392D01*
X210520D01*
Y224392D01*
X209485D01*
Y227696D01*
X213274D01*
Y241696D01*
D02*
G37*
G36*
X842157Y202878D02*
X820155D01*
Y182879D01*
X842157D01*
Y185818D01*
X848286D01*
Y185699D01*
X854827D01*
X855286Y185638D01*
X855745Y185699D01*
X862286D01*
Y192240D01*
X862346Y192698D01*
X862286Y193157D01*
Y199699D01*
X856932D01*
X855106Y199939D01*
X842157D01*
Y202878D01*
D02*
G37*
G36*
X230634Y203342D02*
X216634D01*
Y189342D01*
X218909D01*
Y186292D01*
X216360D01*
Y168292D01*
X230360D01*
Y186292D01*
X228085D01*
Y189342D01*
X230634D01*
Y203342D01*
D02*
G37*
G36*
X141200Y281380D02*
X140741Y281320D01*
X134200D01*
Y274779D01*
X134140Y274320D01*
Y255040D01*
X134380Y253213D01*
X135085Y251510D01*
X136208Y250048D01*
X156360Y229895D01*
Y210636D01*
X156356Y210620D01*
Y198920D01*
X156360Y198904D01*
Y190316D01*
X156356Y190300D01*
Y178600D01*
X156360Y178584D01*
Y171679D01*
X146155Y161474D01*
X141938D01*
Y170970D01*
X132940D01*
Y188971D01*
X132935Y188976D01*
X77223D01*
X75953Y190144D01*
X75953Y250817D01*
X75982Y250963D01*
Y256758D01*
X75815Y257597D01*
X75339Y258309D01*
X74627Y258785D01*
X73787Y258952D01*
X58092D01*
X57253Y258785D01*
X56541Y258309D01*
X56065Y257597D01*
X55898Y256758D01*
Y255904D01*
X55873Y255778D01*
Y170970D01*
X53940D01*
Y136970D01*
X62938D01*
Y118969D01*
X132940D01*
Y136879D01*
X132978Y136970D01*
X141938D01*
Y147354D01*
X149080D01*
X150907Y147594D01*
X152610Y148300D01*
X154072Y149422D01*
X168412Y163762D01*
X169534Y165224D01*
X170240Y166927D01*
X170480Y168754D01*
Y178584D01*
X170484Y178600D01*
Y190300D01*
X170480Y190316D01*
Y197710D01*
X179686D01*
X181408Y195988D01*
Y126369D01*
X169541Y114502D01*
X152908D01*
X151081Y114262D01*
X149378Y113556D01*
X147916Y112434D01*
X131708Y96227D01*
X130585Y94764D01*
X129880Y93061D01*
X129640Y91234D01*
Y72770D01*
X129387Y72666D01*
X126358Y70342D01*
X124034Y67312D01*
X122573Y63785D01*
X122075Y60000D01*
Y50000D01*
X122573Y46215D01*
X124034Y42687D01*
X126358Y39659D01*
X129387Y37334D01*
X132915Y35873D01*
X136700Y35375D01*
X140485Y35873D01*
X144013Y37334D01*
X147042Y39659D01*
X149366Y42687D01*
X150827Y46215D01*
X151325Y50000D01*
Y60000D01*
X150827Y63785D01*
X149366Y67312D01*
X147042Y70342D01*
X144013Y72666D01*
X143760Y72770D01*
Y88309D01*
X155833Y100382D01*
X172466D01*
X174293Y100622D01*
X175996Y101327D01*
X177458Y102450D01*
X193460Y118452D01*
X194583Y119914D01*
X195288Y121617D01*
X195528Y123444D01*
Y189282D01*
X206134D01*
X206593Y189342D01*
X213134D01*
Y195883D01*
X213194Y196342D01*
X213134Y196801D01*
Y203342D01*
X206593D01*
X206134Y203402D01*
X193846D01*
X193460Y203904D01*
X187603Y209762D01*
X186140Y210884D01*
X184438Y211590D01*
X182610Y211830D01*
X170480D01*
Y232820D01*
X170240Y234647D01*
X169534Y236350D01*
X168412Y237812D01*
X148260Y257964D01*
Y274320D01*
X148200Y274779D01*
Y281320D01*
X141659D01*
X141200Y281380D01*
D02*
G37*
G36*
X299720Y189842D02*
X297240Y189515D01*
X294929Y188558D01*
X292945Y187036D01*
X291422Y185051D01*
X290464Y182740D01*
X290138Y180260D01*
Y170260D01*
X290464Y167780D01*
X291422Y165469D01*
X292945Y163484D01*
X294929Y161962D01*
X297240Y161005D01*
X299720Y160678D01*
X302200Y161005D01*
X304511Y161962D01*
X306495Y163484D01*
X308018Y165469D01*
X308976Y167780D01*
X309302Y170260D01*
Y180260D01*
X308976Y182740D01*
X308018Y185051D01*
X306495Y187036D01*
X304511Y188558D01*
X302200Y189515D01*
X299720Y189842D01*
D02*
G37*
G36*
X325120D02*
X322640Y189515D01*
X320329Y188558D01*
X318344Y187036D01*
X316822Y185051D01*
X315865Y182740D01*
X315538Y180260D01*
Y170260D01*
X315865Y167780D01*
X316822Y165469D01*
X318000Y163934D01*
Y141060D01*
X318240Y139233D01*
X318457Y138709D01*
Y127180D01*
X318626Y126329D01*
X319108Y125608D01*
X319829Y125126D01*
X320680Y124957D01*
X329320D01*
X330171Y125126D01*
X330892Y125608D01*
X331373Y126329D01*
X331543Y127180D01*
Y138419D01*
X331880Y139233D01*
X332120Y141060D01*
Y163778D01*
X333418Y165469D01*
X334375Y167780D01*
X334702Y170260D01*
Y180260D01*
X334375Y182740D01*
X333418Y185051D01*
X331895Y187036D01*
X329911Y188558D01*
X327600Y189515D01*
X325120Y189842D01*
D02*
G37*
G36*
X354320Y157043D02*
X345680D01*
X344829Y156874D01*
X344108Y156392D01*
X343627Y155671D01*
X343457Y154820D01*
Y127180D01*
X343627Y126329D01*
X344108Y125608D01*
X344829Y125126D01*
X345678Y124958D01*
Y121666D01*
X345766Y121223D01*
Y120771D01*
X345939Y120353D01*
X346027Y119910D01*
X346278Y119534D01*
X346451Y119117D01*
X346771Y118798D01*
X347022Y118422D01*
X347397Y118171D01*
X347717Y117851D01*
X348134Y117678D01*
X348510Y117427D01*
X348953Y117339D01*
X349371Y117166D01*
X349823D01*
X350266Y117078D01*
X350709Y117166D01*
X351161D01*
X351579Y117339D01*
X352022Y117427D01*
X352398Y117678D01*
X352815Y117851D01*
X353134Y118171D01*
X353510Y118422D01*
X353761Y118798D01*
X354081Y119117D01*
X354254Y119534D01*
X354505Y119910D01*
X354593Y120353D01*
X354766Y120771D01*
Y121223D01*
X354854Y121666D01*
Y125064D01*
X355171Y125126D01*
X355892Y125608D01*
X356373Y126329D01*
X356543Y127180D01*
Y154820D01*
X356373Y155671D01*
X355892Y156392D01*
X355171Y156874D01*
X354320Y157043D01*
D02*
G37*
G36*
X374320D02*
X365680D01*
X364829Y156874D01*
X364108Y156392D01*
X363627Y155671D01*
X363457Y154820D01*
Y127180D01*
X363627Y126329D01*
X364108Y125608D01*
X364829Y125126D01*
X365680Y124957D01*
X365744D01*
Y115824D01*
X365832Y115381D01*
Y114929D01*
X366005Y114511D01*
X366093Y114068D01*
X366344Y113692D01*
X366517Y113275D01*
X366837Y112956D01*
X367088Y112580D01*
X367463Y112329D01*
X367783Y112009D01*
X368200Y111836D01*
X368576Y111585D01*
X369019Y111497D01*
X369437Y111324D01*
X369889D01*
X370332Y111236D01*
X370775Y111324D01*
X371227D01*
X371645Y111497D01*
X372088Y111585D01*
X372464Y111836D01*
X372881Y112009D01*
X373200Y112329D01*
X373576Y112580D01*
X373827Y112956D01*
X374147Y113275D01*
X374320Y113692D01*
X374571Y114068D01*
X374659Y114511D01*
X374832Y114929D01*
Y115381D01*
X374920Y115824D01*
Y125077D01*
X375171Y125126D01*
X375892Y125608D01*
X376373Y126329D01*
X376543Y127180D01*
Y154820D01*
X376373Y155671D01*
X375892Y156392D01*
X375171Y156874D01*
X374320Y157043D01*
D02*
G37*
G36*
X386119Y111000D02*
X383881D01*
X381719Y110421D01*
X379781Y109302D01*
X378198Y107719D01*
X377079Y105781D01*
X376500Y103619D01*
Y101381D01*
X377079Y99219D01*
X378198Y97281D01*
X379781Y95698D01*
X381719Y94579D01*
X383881Y94000D01*
X386119D01*
X388281Y94579D01*
X390219Y95698D01*
X391802Y97281D01*
X392921Y99219D01*
X393500Y101381D01*
Y103619D01*
X392921Y105781D01*
X391802Y107719D01*
X390219Y109302D01*
X388281Y110421D01*
X386119Y111000D01*
D02*
G37*
G36*
X336119D02*
X333881D01*
X331719Y110421D01*
X329781Y109302D01*
X328198Y107719D01*
X327079Y105781D01*
X326500Y103619D01*
Y101381D01*
X327079Y99219D01*
X328198Y97281D01*
X329781Y95698D01*
X331719Y94579D01*
X333881Y94000D01*
X336119D01*
X338281Y94579D01*
X340219Y95698D01*
X341802Y97281D01*
X342921Y99219D01*
X343500Y101381D01*
Y103619D01*
X342921Y105781D01*
X341802Y107719D01*
X340219Y109302D01*
X338281Y110421D01*
X336119Y111000D01*
D02*
G37*
G36*
X722202Y85740D02*
X720358D01*
X718578Y85263D01*
X716982Y84341D01*
X715679Y83038D01*
X714757Y81442D01*
X714280Y79662D01*
Y77818D01*
X714757Y76038D01*
X715679Y74442D01*
X716982Y73139D01*
X718578Y72217D01*
X720358Y71740D01*
X722202D01*
X723982Y72217D01*
X725578Y73139D01*
X726881Y74442D01*
X727803Y76038D01*
X728280Y77818D01*
Y79662D01*
X727803Y81442D01*
X726881Y83038D01*
X725578Y84341D01*
X723982Y85263D01*
X722202Y85740D01*
D02*
G37*
G36*
X797399Y87240D02*
X795161D01*
X792999Y86661D01*
X791061Y85542D01*
X789478Y83959D01*
X788359Y82021D01*
X787780Y79859D01*
Y77621D01*
X788359Y75459D01*
X789478Y73521D01*
X791061Y71938D01*
X792999Y70819D01*
X795161Y70240D01*
X797399D01*
X799561Y70819D01*
X801499Y71938D01*
X803082Y73521D01*
X804201Y75459D01*
X804780Y77621D01*
Y79859D01*
X804201Y82021D01*
X803082Y83959D01*
X801499Y85542D01*
X799561Y86661D01*
X797399Y87240D01*
D02*
G37*
G36*
X811676Y202878D02*
X789676D01*
Y182879D01*
X793616D01*
Y152586D01*
X793856Y150759D01*
X794562Y149056D01*
X795684Y147593D01*
X831520Y111757D01*
Y93740D01*
X818880D01*
Y63740D01*
X858280D01*
Y93740D01*
X845640D01*
Y114682D01*
X845400Y116509D01*
X844694Y118212D01*
X843572Y119675D01*
X807736Y155511D01*
Y182879D01*
X811676D01*
Y202878D01*
D02*
G37*
%LPD*%
G36*
X88646Y755904D02*
Y716534D01*
X69850Y697738D01*
X49022D01*
X42672Y691388D01*
Y608076D01*
X40894Y606298D01*
X20320Y606298D01*
X18288Y608330D01*
Y701294D01*
X38608Y721614D01*
X54356D01*
X63246Y730504D01*
Y748030D01*
Y754888D01*
X71120Y762762D01*
X81788D01*
X88646Y755904D01*
D02*
G37*
G36*
X190754Y387096D02*
Y268478D01*
X189738Y267462D01*
X176022D01*
X174752Y268732D01*
Y387096D01*
X175260Y387604D01*
X190246D01*
X190754Y387096D01*
D02*
G37*
G36*
X465440Y377950D02*
X469106D01*
Y361442D01*
Y350601D01*
X467836Y350242D01*
X466753Y350984D01*
Y361552D01*
X466753Y361552D01*
X466520Y362723D01*
X465857Y363715D01*
X465857Y363715D01*
X462560Y367012D01*
X462930Y368394D01*
Y370238D01*
X462453Y372018D01*
X461531Y373614D01*
X460228Y374917D01*
X458632Y375839D01*
X456852Y376316D01*
X455008D01*
X453228Y375839D01*
X451632Y374917D01*
X450329Y373614D01*
X449407Y372018D01*
X448930Y370238D01*
X447690Y370310D01*
Y370492D01*
X447213Y372272D01*
X446291Y373868D01*
X444988Y375171D01*
X443392Y376093D01*
X441612Y376570D01*
X439768D01*
X437988Y376093D01*
X436392Y375171D01*
X435089Y373868D01*
X434167Y372272D01*
X433690Y370492D01*
Y368648D01*
X434167Y366868D01*
X435089Y365272D01*
X434177Y364407D01*
X431826Y366758D01*
X432196Y368140D01*
Y369984D01*
X431719Y371764D01*
X430797Y373360D01*
X429494Y374663D01*
X427898Y375585D01*
X426118Y376062D01*
X424274D01*
X422494Y375585D01*
X420898Y374663D01*
X419595Y373360D01*
X418673Y371764D01*
X418196Y369984D01*
Y368140D01*
X418673Y366360D01*
X419595Y364764D01*
X420898Y363461D01*
X422494Y362539D01*
X424274Y362062D01*
X426118D01*
X427500Y362432D01*
X434797Y355135D01*
X434271Y353865D01*
X413808D01*
Y352552D01*
X403860D01*
X401673Y350365D01*
X398740D01*
Y336365D01*
X399288D01*
Y313367D01*
X398740D01*
Y299367D01*
X399895D01*
X402336Y296926D01*
X413808D01*
Y295867D01*
X450808D01*
X451580Y294917D01*
Y287814D01*
X450090D01*
Y291480D01*
X436090D01*
Y277480D01*
X438502D01*
Y217118D01*
X382146D01*
X362152Y237113D01*
Y314706D01*
Y380362D01*
X465440D01*
Y377950D01*
D02*
G37*
G36*
X241808Y386334D02*
Y370840D01*
X231648Y360680D01*
X197866D01*
X196850Y361696D01*
Y371602D01*
X198120Y372872D01*
X227584D01*
X231902Y377190D01*
X231902Y386334D01*
X233172Y387604D01*
X240538D01*
X241808Y386334D01*
D02*
G37*
G36*
X125984Y255778D02*
Y233680D01*
X116586Y224282D01*
X81534Y224282D01*
X80264Y225552D01*
Y236474D01*
X81788Y237998D01*
X110998D01*
X114046Y241046D01*
Y255778D01*
X115062Y256794D01*
X124968D01*
X125984Y255778D01*
D02*
G37*
G36*
X73914Y255734D02*
X73914Y140716D01*
X72390Y139192D01*
X58674D01*
X57912Y139954D01*
Y255778D01*
X58928Y256794D01*
X72854D01*
X73914Y255734D01*
D02*
G37*
D10*
X585216Y685192D02*
X588518Y688494D01*
Y724408D02*
X598678Y734568D01*
X588518Y688494D02*
Y724408D01*
X598678Y734568D02*
X617982D01*
X621800Y738386D02*
X637330D01*
X617982Y734568D02*
X621800Y738386D01*
X600710Y729742D02*
X617728D01*
X621784Y725686D01*
X637330D01*
X593344Y722376D02*
X600710Y729742D01*
X593344Y688294D02*
Y722376D01*
X585216Y684276D02*
Y685192D01*
X593344Y688294D02*
X595884Y685753D01*
Y684276D02*
Y685753D01*
X454914Y286004D02*
Y301498D01*
X453390Y284480D02*
X454914Y286004D01*
Y301498D02*
X460156Y306740D01*
X443090Y284480D02*
X453390D01*
X272991Y675320D02*
X273131Y675460D01*
X270454Y672784D02*
X272991Y675320D01*
X267208Y665226D02*
X270454Y668472D01*
Y672784D01*
X575564Y343408D02*
X584594D01*
X572232Y346740D02*
X575564Y343408D01*
X460156Y306740D02*
X475520D01*
X475521Y316739D02*
X489203D01*
X489204Y316738D01*
X475520Y316740D02*
X475521Y316739D01*
X455285Y437388D02*
X466852D01*
X417576Y427482D02*
Y437388D01*
X432410Y306367D02*
Y318110D01*
X436040Y321740D02*
X475520D01*
X432410Y318110D02*
X436040Y321740D01*
X432410Y329844D02*
Y342909D01*
X435514Y326740D02*
X475520D01*
X432410Y329844D02*
X435514Y326740D01*
X472440Y361442D02*
Y384950D01*
Y346870D02*
Y361442D01*
X472842Y361040D01*
X489820D01*
X472440Y346870D02*
X472570Y346740D01*
X475520D01*
X559120D02*
X572232D01*
X524820Y252166D02*
Y277440D01*
X527706Y249280D02*
X539138D01*
X524820Y252166D02*
X527706Y249280D01*
D11*
X539388Y326740D02*
X559120D01*
X536702Y333756D02*
X537514D01*
X539530Y331740D02*
X559120D01*
X537514Y333756D02*
X539530Y331740D01*
X548911Y336772D02*
X559088D01*
X546354Y339090D02*
X546593D01*
X548911Y336772D01*
X628036Y291740D02*
X650206Y313910D01*
Y356680D01*
X644398Y313944D02*
Y354838D01*
X627194Y296740D02*
X644398Y313944D01*
X639064Y314706D02*
Y360426D01*
X626098Y301740D02*
X639064Y314706D01*
X633971Y319011D02*
Y355245D01*
X621700Y306740D02*
X633971Y319011D01*
X618531Y311699D02*
X628650Y321818D01*
Y351282D01*
X611300Y321740D02*
X615188Y325628D01*
Y342392D01*
X614428Y316740D02*
X622167Y324479D01*
Y346384D01*
X680974Y562864D02*
X704850D01*
X707460Y565474D01*
X676910Y566928D02*
X680974Y562864D01*
X676910Y566928D02*
Y583210D01*
X707460Y565474D02*
Y575950D01*
X637330Y662290D02*
X666093D01*
X672839Y669036D02*
X733044D01*
X666093Y662290D02*
X672839Y669036D01*
X637472Y675132D02*
X651764D01*
X637330Y674990D02*
X637472Y675132D01*
X676910Y594360D02*
Y600710D01*
X733044Y669036D02*
X764794D01*
X768420Y665410D01*
X732860Y648050D02*
Y668852D01*
X733044Y669036D01*
X516611Y117045D02*
X550115D01*
X560011Y126941D01*
X609480Y601386D02*
X611124Y599742D01*
Y577596D02*
Y599742D01*
X596392Y600998D02*
X596780Y601386D01*
X596392Y577342D02*
Y600998D01*
X715706Y663514D02*
X720160Y659060D01*
X683580Y663514D02*
X715706D01*
X768420Y639800D02*
Y665410D01*
X720160Y648050D02*
Y659060D01*
X459486Y340106D02*
Y355600D01*
Y340106D02*
X462852Y336740D01*
X454152Y360934D02*
X459486Y355600D01*
X623062Y636890D02*
X637330D01*
X559120Y321740D02*
X611300D01*
X559120Y301740D02*
X626098D01*
X559120Y296740D02*
X627194D01*
X559120Y291740D02*
X628036D01*
X475393Y341867D02*
X475520Y341740D01*
X466615Y341867D02*
X475393D01*
X463694Y344788D02*
Y361552D01*
Y344788D02*
X466615Y341867D01*
X455930Y369316D02*
X463694Y361552D01*
X514839Y267481D02*
Y277421D01*
X516636Y261112D02*
Y265684D01*
X514839Y267481D02*
X516636Y265684D01*
X454660Y265435D02*
X459232Y270007D01*
Y296926D02*
X464046Y301740D01*
X454660Y264922D02*
Y265435D01*
X459232Y270007D02*
Y296926D01*
X544825Y372326D02*
X545592Y373093D01*
X544825Y361045D02*
Y372326D01*
X545592Y373093D02*
Y373634D01*
X771466Y243358D02*
X787681D01*
X764227D02*
X771466D01*
X748284Y242824D02*
X753110Y247650D01*
X667500Y352500D02*
X672766D01*
X673228Y352962D01*
X559161Y311699D02*
X618531D01*
X519820Y361040D02*
Y395690D01*
X514820Y361040D02*
Y395338D01*
X273080Y635950D02*
X274066Y636936D01*
Y650494D01*
X425196Y369062D02*
X438150Y356108D01*
X451866D01*
X454660Y353314D01*
Y337820D02*
X460740Y331740D01*
X454660Y337820D02*
Y353314D01*
X460740Y331740D02*
X475520D01*
X440690Y369316D02*
X449072Y360934D01*
X440690Y369316D02*
Y369570D01*
X449072Y360934D02*
X454152D01*
X462852Y336740D02*
X475520D01*
X464058Y257556D02*
Y294640D01*
X461518Y255016D02*
X464058Y257556D01*
X461518Y244856D02*
Y255016D01*
X464058Y294640D02*
X466090Y296672D01*
X475452D01*
X475520Y296740D01*
X464046Y301740D02*
X475520D01*
X559120Y306740D02*
X621700D01*
X519820Y350892D02*
Y361040D01*
X559120Y311740D02*
X559161Y311699D01*
X789432Y245110D02*
Y250698D01*
X787681Y243358D02*
X789432Y245110D01*
Y250698D02*
X791210Y252476D01*
X802666D01*
X789940Y267716D02*
X802666D01*
X787146Y264922D02*
X789940Y267716D01*
X785974Y256059D02*
X787146Y257230D01*
Y264922D01*
X771466Y256059D02*
X785974D01*
X753110Y247650D02*
X760984D01*
X762560Y245026D02*
X764227Y243358D01*
X760984Y247650D02*
X762560Y246074D01*
Y245026D02*
Y246074D01*
X764227Y256059D02*
X771466D01*
X762560Y254391D02*
X764227Y256059D01*
X748284D02*
X752374Y251968D01*
X762560Y253140D02*
Y254391D01*
X761388Y251968D02*
X762560Y253140D01*
X752374Y251968D02*
X761388D01*
X514820Y350990D02*
Y361040D01*
X673628Y426622D02*
X690168D01*
X475126Y291740D02*
X475520D01*
X474726Y277622D02*
Y291340D01*
X475126Y291740D01*
X467442Y751078D02*
X481076D01*
X467330Y751190D02*
X467442Y751078D01*
X504698Y349250D02*
X504759Y349311D01*
Y360979D01*
X504820Y361040D01*
X529832Y348754D02*
X529844Y348742D01*
X529832Y348754D02*
Y361028D01*
X529820Y361040D02*
X529832Y361028D01*
X539912Y348834D02*
X540004Y348742D01*
X539820Y361040D02*
X539912Y360948D01*
Y348834D02*
Y360948D01*
X534872Y361092D02*
Y373074D01*
X534924Y373126D01*
X534820Y361040D02*
X534872Y361092D01*
X559088Y336772D02*
X559120Y336740D01*
X544820Y361040D02*
X544825Y361045D01*
X485140Y277622D02*
X489638D01*
X489820Y277440D01*
X509820Y361040D02*
Y380704D01*
X505574Y384950D02*
X509820Y380704D01*
X487680Y384950D02*
X505574D01*
X519820Y350892D02*
X520700Y350012D01*
Y342138D02*
Y350012D01*
X513588Y342138D02*
Y349758D01*
X514820Y350990D01*
X615950Y649590D02*
X637330D01*
X559120Y316740D02*
X614428D01*
X673530Y426720D02*
X673628Y426622D01*
X660654Y426720D02*
X673530D01*
X689356Y576072D02*
X694638D01*
X694760Y575950D01*
X519820Y395690D02*
X523494Y399364D01*
Y404114D01*
X510794Y399364D02*
X514820Y395338D01*
X510794Y399364D02*
Y404114D01*
X720160Y575950D02*
Y600018D01*
X724382Y604240D01*
X751910D01*
X709930Y634492D02*
X738886D01*
X744054Y639660D01*
X707460Y636962D02*
X709930Y634492D01*
X707460Y636962D02*
Y648050D01*
X694604Y773818D02*
X694690Y773732D01*
X744054Y639660D02*
X751910D01*
X637696Y763524D02*
X654304D01*
X637330Y763890D02*
X637696Y763524D01*
X637472Y687832D02*
X655066D01*
X637330Y687690D02*
X637472Y687832D01*
X536194Y404114D02*
Y433448D01*
X546644Y443898D02*
X560106D01*
X536194Y433448D02*
X546644Y443898D01*
X560106D02*
X567804Y451596D01*
Y478264D01*
X548894Y458114D02*
Y467738D01*
X551294Y470138D01*
Y478264D01*
X535976Y458332D02*
X536194Y458114D01*
X535976Y458332D02*
Y469806D01*
X534784Y470998D02*
X535976Y469806D01*
X534784Y470998D02*
Y478264D01*
X523494Y458114D02*
Y462864D01*
X518274Y468084D02*
Y478264D01*
Y468084D02*
X523494Y462864D01*
X483011Y164846D02*
Y184561D01*
Y151270D02*
Y164846D01*
X483265Y165100D02*
X493776D01*
X483011Y164846D02*
X483265Y165100D01*
X489940Y191490D02*
X520960D01*
X483011Y184561D02*
X489940Y191490D01*
X504952Y151328D02*
X505010Y151270D01*
X504952Y151328D02*
Y164846D01*
X560011Y126941D02*
Y151270D01*
X543560Y127000D02*
X549010Y132450D01*
X509778Y127000D02*
X543560D01*
X549010Y132450D02*
Y151270D01*
X523494Y136144D02*
X527011Y139661D01*
Y151270D01*
X499110Y136144D02*
X523494D01*
X514820Y277440D02*
X514839Y277421D01*
X509799Y257577D02*
Y277419D01*
X509778Y257556D02*
X509799Y257577D01*
Y277419D02*
X509820Y277440D01*
X504759Y277379D02*
X504820Y277440D01*
X504759Y263713D02*
Y277379D01*
X504698Y263652D02*
X504759Y263713D01*
X499364Y258064D02*
X499592Y258292D01*
Y277212D02*
X499820Y277440D01*
X499592Y258292D02*
Y277212D01*
X494538Y263906D02*
X494679Y264047D01*
Y277299D02*
X494820Y277440D01*
X494679Y264047D02*
Y277299D01*
D20*
X622950Y611490D02*
X637330D01*
X655940D01*
X692150Y614680D02*
X694690Y617220D01*
X655940Y611490D02*
X659130Y614680D01*
X692150D01*
X694690Y617220D02*
Y627380D01*
X637330Y712986D02*
X637434Y713090D01*
X656590D01*
X637330Y751086D02*
X637434Y751190D01*
X656590D01*
X637330Y624086D02*
X656590D01*
X507880Y580136D02*
Y601386D01*
X467226Y700390D02*
X467330Y700286D01*
X448818Y700390D02*
X467226D01*
Y725790D02*
X467330Y725686D01*
X448818Y725790D02*
X467226D01*
Y713090D02*
X467330Y712986D01*
X448818Y713090D02*
X467226D01*
X448818Y687690D02*
X467226D01*
X467330Y687586D01*
X448818Y674990D02*
X467226D01*
X467330Y674886D01*
X448818Y662290D02*
X467226D01*
X467330Y662186D01*
X467322Y649478D02*
X467330Y649486D01*
X448818Y649478D02*
X467322D01*
X467226Y636890D02*
X467330Y636786D01*
X448818Y636890D02*
X467226D01*
Y624190D02*
X467330Y624086D01*
X448818Y624190D02*
X467226D01*
Y611490D02*
X467330Y611386D01*
X448818Y611490D02*
X467226D01*
X136540Y311010D02*
X158750D01*
X136540Y349110D02*
X151384D01*
X804558Y436372D02*
X804926Y436004D01*
Y426720D02*
Y436004D01*
X694470Y697484D02*
X694604Y697618D01*
X670560Y697484D02*
X694470D01*
X446533Y466853D02*
Y474725D01*
X446533Y474726D01*
X446532Y466852D02*
X446533Y466853D01*
X399542Y474726D02*
X408825D01*
X487172Y622046D02*
X612394D01*
X622950Y611490D01*
X673228Y352962D02*
X690168D01*
X713366Y697618D02*
X724574Y708826D01*
Y728098D01*
X694604Y697618D02*
X713366D01*
X724574Y728098D02*
X742494D01*
X694690Y762508D02*
Y773732D01*
X552450Y264160D02*
X555388Y261222D01*
Y249280D02*
Y261222D01*
X547116Y264160D02*
X552450D01*
X544820Y266456D02*
X547116Y264160D01*
X544820Y266456D02*
Y277440D01*
X154940Y701040D02*
X236220D01*
X148760Y675460D02*
Y694860D01*
X154940Y701040D01*
X236220D02*
X240800Y705620D01*
X273080Y635950D02*
X276580Y632450D01*
Y631460D02*
Y632450D01*
Y631460D02*
X289590Y618450D01*
X240800Y705620D02*
Y745000D01*
D21*
X676910Y600710D02*
D03*
Y583210D02*
D03*
X708788Y390542D02*
D03*
Y408042D02*
D03*
X673628Y444122D02*
D03*
Y426622D02*
D03*
X673228Y370462D02*
D03*
Y352962D02*
D03*
X815160Y577020D02*
D03*
Y559520D02*
D03*
X798830Y559530D02*
D03*
Y577030D02*
D03*
X768420Y639800D02*
D03*
Y622300D02*
D03*
X751910Y639660D02*
D03*
Y622160D02*
D03*
Y604240D02*
D03*
Y586740D02*
D03*
X768420D02*
D03*
Y604240D02*
D03*
X855286Y210198D02*
D03*
Y192698D02*
D03*
X654626Y225718D02*
D03*
Y243218D02*
D03*
X555388Y249280D02*
D03*
Y231780D02*
D03*
X539138Y249280D02*
D03*
Y231780D02*
D03*
X567804Y478264D02*
D03*
Y495764D02*
D03*
X551294Y478264D02*
D03*
Y495764D02*
D03*
X534784Y478264D02*
D03*
Y495764D02*
D03*
X518274Y478264D02*
D03*
Y495764D02*
D03*
X566314Y404114D02*
D03*
Y421614D02*
D03*
X405740Y343365D02*
D03*
Y360865D02*
D03*
Y306367D02*
D03*
Y288867D02*
D03*
X537210Y188442D02*
D03*
Y170942D02*
D03*
X520960D02*
D03*
Y188442D02*
D03*
X487680Y384950D02*
D03*
Y402450D02*
D03*
X472440D02*
D03*
Y384950D02*
D03*
X287250Y379450D02*
D03*
Y361950D02*
D03*
X303760Y379450D02*
D03*
Y361950D02*
D03*
X332258Y296758D02*
D03*
Y314258D02*
D03*
Y278838D02*
D03*
Y261338D02*
D03*
X141200Y291820D02*
D03*
Y274320D02*
D03*
X355092Y485876D02*
D03*
Y468376D02*
D03*
X338582Y485876D02*
D03*
Y468376D02*
D03*
X246610Y496290D02*
D03*
Y478790D02*
D03*
X261850Y496290D02*
D03*
Y478790D02*
D03*
X306100Y635947D02*
D03*
Y618447D02*
D03*
X289590Y635950D02*
D03*
Y618450D02*
D03*
X273080Y635950D02*
D03*
Y618450D02*
D03*
X256570D02*
D03*
Y635950D02*
D03*
Y675320D02*
D03*
Y657820D02*
D03*
X240060Y675320D02*
D03*
Y657820D02*
D03*
X223550Y675320D02*
D03*
Y657820D02*
D03*
X122150Y534250D02*
D03*
Y551750D02*
D03*
X138660D02*
D03*
Y534250D02*
D03*
X440160Y764380D02*
D03*
Y746880D02*
D03*
X423650Y764380D02*
D03*
Y746880D02*
D03*
D22*
X596392Y577342D02*
D03*
X611124Y577596D02*
D03*
X656590Y624086D02*
D03*
X507880Y580136D02*
D03*
X656590Y713090D02*
D03*
Y751190D02*
D03*
X454660Y264922D02*
D03*
X461518Y244856D02*
D03*
X455930Y369316D02*
D03*
X440690Y369570D02*
D03*
X425196Y369062D02*
D03*
X721280Y78740D02*
D03*
X32766Y188976D02*
D03*
X225298Y493014D02*
D03*
X121158Y376428D02*
D03*
X32766Y199136D02*
D03*
X346456Y572008D02*
D03*
X290830Y561594D02*
D03*
D23*
X203520Y215392D02*
D03*
X223520D02*
D03*
X223360Y177292D02*
D03*
X203360D02*
D03*
D24*
X223634Y196342D02*
D03*
X206134D02*
D03*
X206274Y234696D02*
D03*
X223774D02*
D03*
X245200Y455790D02*
D03*
X227700D02*
D03*
X245200Y439280D02*
D03*
X227700D02*
D03*
X804178Y408041D02*
D03*
X821678D02*
D03*
X804178Y390541D02*
D03*
X821678D02*
D03*
X804558Y436372D02*
D03*
X822058D02*
D03*
X782778Y436122D02*
D03*
X765278D02*
D03*
X746278D02*
D03*
X728778D02*
D03*
Y362462D02*
D03*
X746278D02*
D03*
X802666Y267716D02*
D03*
X820166D02*
D03*
X802666Y252476D02*
D03*
X820166D02*
D03*
X584594Y343408D02*
D03*
X602094D02*
D03*
X443090Y284480D02*
D03*
X425590D02*
D03*
X400076Y489712D02*
D03*
X417576D02*
D03*
X455282D02*
D03*
X437782D02*
D03*
X437785Y437388D02*
D03*
X455285D02*
D03*
X400076D02*
D03*
X417576D02*
D03*
X203232Y675460D02*
D03*
X185732D02*
D03*
X203232Y658950D02*
D03*
X185732D02*
D03*
X166260Y675460D02*
D03*
X148760D02*
D03*
X166260Y658950D02*
D03*
X148760D02*
D03*
X184430Y577850D02*
D03*
X201930D02*
D03*
X184430Y561340D02*
D03*
X201930D02*
D03*
X121020Y365620D02*
D03*
X138520D02*
D03*
X759994Y728098D02*
D03*
X742494D02*
D03*
X724574D02*
D03*
X707074D02*
D03*
X724574Y744608D02*
D03*
X707074D02*
D03*
X742494D02*
D03*
X759994D02*
D03*
D25*
X467330Y776486D02*
D03*
X637330D02*
D03*
X467330Y763786D02*
D03*
Y751086D02*
D03*
Y738386D02*
D03*
Y725686D02*
D03*
Y712986D02*
D03*
Y700286D02*
D03*
Y687586D02*
D03*
Y674886D02*
D03*
Y662186D02*
D03*
Y649486D02*
D03*
Y636786D02*
D03*
Y624086D02*
D03*
Y611386D02*
D03*
X637330D02*
D03*
Y624086D02*
D03*
Y636786D02*
D03*
Y649486D02*
D03*
Y662186D02*
D03*
Y674886D02*
D03*
Y687586D02*
D03*
Y700286D02*
D03*
Y712986D02*
D03*
Y725686D02*
D03*
Y738386D02*
D03*
Y751086D02*
D03*
Y763786D02*
D03*
D26*
X495180Y601386D02*
D03*
X507880D02*
D03*
X520580D02*
D03*
X533280D02*
D03*
X545980D02*
D03*
X558680D02*
D03*
X571380D02*
D03*
X584080D02*
D03*
X596780D02*
D03*
X609480D02*
D03*
D27*
X523980Y719836D02*
D03*
X542330D02*
D03*
X560680D02*
D03*
X523980Y701486D02*
D03*
X542330D02*
D03*
X560680D02*
D03*
X523980Y683136D02*
D03*
X542330D02*
D03*
X560680D02*
D03*
D28*
X728778Y405642D02*
D03*
Y418342D02*
D03*
Y392942D02*
D03*
Y380242D02*
D03*
X782778D02*
D03*
Y392942D02*
D03*
Y405642D02*
D03*
Y418342D02*
D03*
X65940Y253860D02*
D03*
Y266560D02*
D03*
Y291960D02*
D03*
X119940D02*
D03*
Y279260D02*
D03*
Y266560D02*
D03*
Y253860D02*
D03*
X65940Y279260D02*
D03*
X182780Y410070D02*
D03*
X236780Y384670D02*
D03*
Y397370D02*
D03*
Y410070D02*
D03*
Y422770D02*
D03*
X182780D02*
D03*
Y397370D02*
D03*
Y384670D02*
D03*
D29*
X690168Y445622D02*
D03*
Y426622D02*
D03*
X712168Y436122D02*
D03*
X690168Y371962D02*
D03*
Y352962D02*
D03*
X712168Y362462D02*
D03*
X854100Y567000D02*
D03*
X832100Y576500D02*
D03*
Y557500D02*
D03*
X320500Y616951D02*
D03*
Y635950D02*
D03*
X342500Y626450D02*
D03*
X241406Y618450D02*
D03*
X219406Y627950D02*
D03*
X241406Y637449D02*
D03*
D30*
X816851Y597500D02*
D03*
X854849D02*
D03*
X273131Y675460D02*
D03*
X311129D02*
D03*
D31*
X800676Y230879D02*
D03*
Y192878D02*
D03*
X831156Y230879D02*
D03*
Y192878D02*
D03*
D32*
X838580Y78740D02*
D03*
D33*
X680580D02*
D03*
D34*
X771466Y256059D02*
D03*
Y243358D02*
D03*
Y230658D02*
D03*
Y217959D02*
D03*
Y205259D02*
D03*
Y192558D02*
D03*
Y179858D02*
D03*
Y167159D02*
D03*
X677486D02*
D03*
Y179858D02*
D03*
Y192558D02*
D03*
Y205259D02*
D03*
Y217959D02*
D03*
Y230658D02*
D03*
Y243358D02*
D03*
Y256059D02*
D03*
D35*
X536194Y458114D02*
D03*
Y404114D02*
D03*
X548894Y458114D02*
D03*
X523494D02*
D03*
X548894Y404114D02*
D03*
X510794Y458114D02*
D03*
X523494Y404114D02*
D03*
X510794D02*
D03*
D36*
X475520Y341740D02*
D03*
Y336740D02*
D03*
Y331740D02*
D03*
Y326740D02*
D03*
Y321740D02*
D03*
Y316740D02*
D03*
Y301740D02*
D03*
Y296740D02*
D03*
Y291740D02*
D03*
X559120D02*
D03*
Y296740D02*
D03*
Y301740D02*
D03*
Y306740D02*
D03*
Y311740D02*
D03*
Y316740D02*
D03*
Y321740D02*
D03*
Y326740D02*
D03*
Y331740D02*
D03*
Y336740D02*
D03*
X475520Y346740D02*
D03*
Y306740D02*
D03*
X559120Y346740D02*
D03*
X475520Y311740D02*
D03*
X559120Y341740D02*
D03*
D37*
X489820Y277440D02*
D03*
X494820D02*
D03*
X499820D02*
D03*
X504820D02*
D03*
X509820D02*
D03*
X514820D02*
D03*
X519820D02*
D03*
X524820D02*
D03*
X529820D02*
D03*
X534820D02*
D03*
X544820Y361040D02*
D03*
X539820D02*
D03*
X534820D02*
D03*
X529820D02*
D03*
X524820D02*
D03*
X509820D02*
D03*
X504820D02*
D03*
X499820D02*
D03*
X544820Y277440D02*
D03*
X489820Y361040D02*
D03*
X539820Y277440D02*
D03*
X494820Y361040D02*
D03*
X519820D02*
D03*
X514820D02*
D03*
D38*
X432308Y306367D02*
D03*
Y343365D02*
D03*
D39*
X362237Y604774D02*
D03*
X400238D02*
D03*
X362999Y572262D02*
D03*
X401000D02*
D03*
X220781Y336550D02*
D03*
X182780D02*
D03*
X103941Y207500D02*
D03*
X65940D02*
D03*
X639285Y378460D02*
D03*
X601284D02*
D03*
D40*
X437034Y452726D02*
D03*
X456033D02*
D03*
X446533Y474726D02*
D03*
X399325Y452726D02*
D03*
X418324D02*
D03*
X408825Y474726D02*
D03*
X193733Y621280D02*
D03*
X203232Y643280D02*
D03*
X184233D02*
D03*
X156760Y621280D02*
D03*
X147261Y643280D02*
D03*
X166260D02*
D03*
D41*
X303048Y325458D02*
D03*
Y247458D02*
D03*
D42*
X242340Y330060D02*
D03*
X261040D02*
D03*
X242340Y350380D02*
D03*
X261040D02*
D03*
X182780Y366890D02*
D03*
X201480D02*
D03*
X163420Y184450D02*
D03*
X144720D02*
D03*
X163420Y204770D02*
D03*
X144720D02*
D03*
X42600Y280530D02*
D03*
X23900D02*
D03*
X42600Y300850D02*
D03*
X23900D02*
D03*
X42600Y321170D02*
D03*
X23900D02*
D03*
X65940Y231140D02*
D03*
X84640D02*
D03*
X42600Y341490D02*
D03*
X23900D02*
D03*
D43*
X246778Y281940D02*
D03*
X182780D02*
D03*
X129938Y153970D02*
D03*
X65940D02*
D03*
D44*
X287110Y401180D02*
D03*
X310110D02*
D03*
X333110D02*
D03*
X179160Y478650D02*
D03*
X225160D02*
D03*
X202160D02*
D03*
D45*
X310110Y464180D02*
D03*
X202160Y541650D02*
D03*
D46*
X87440Y349110D02*
D03*
Y323710D02*
D03*
X136540Y311010D02*
D03*
Y323710D02*
D03*
Y336410D02*
D03*
Y349110D02*
D03*
X87440Y336410D02*
D03*
Y311010D02*
D03*
D47*
X160250Y397370D02*
D03*
Y416070D02*
D03*
X139930Y397370D02*
D03*
Y416070D02*
D03*
X119610Y397370D02*
D03*
Y416070D02*
D03*
X99290Y397370D02*
D03*
Y416070D02*
D03*
D48*
X96750Y580250D02*
D03*
Y534250D02*
D03*
D49*
X36750Y557250D02*
D03*
D50*
X103100Y620890D02*
D03*
X39400D02*
D03*
D51*
X772604Y773818D02*
D03*
X694604D02*
D03*
Y697618D02*
D03*
X772604D02*
D03*
D52*
X404600Y764530D02*
D03*
Y746730D02*
D03*
D53*
X448818Y649478D02*
D03*
Y636890D02*
D03*
Y687690D02*
D03*
Y611490D02*
D03*
Y674990D02*
D03*
Y713090D02*
D03*
Y624190D02*
D03*
Y700390D02*
D03*
Y725790D02*
D03*
Y662290D02*
D03*
X567690Y580390D02*
D03*
X534670D02*
D03*
X478790D02*
D03*
X454660D02*
D03*
X887730Y741680D02*
D03*
X867410D02*
D03*
X849630D02*
D03*
X836930Y754380D02*
D03*
Y774700D02*
D03*
Y791210D02*
D03*
X810260D02*
D03*
X788670D02*
D03*
X770890D02*
D03*
X748030D02*
D03*
X728980D02*
D03*
X707390D02*
D03*
X683260D02*
D03*
X659130Y574040D02*
D03*
X633730D02*
D03*
X659130Y590550D02*
D03*
X633730D02*
D03*
X727710Y621030D02*
D03*
X712470D02*
D03*
X659892Y644144D02*
D03*
Y653542D02*
D03*
X600710Y502920D02*
D03*
X584200Y501650D02*
D03*
X600419Y516404D02*
D03*
X584200Y511810D02*
D03*
X568960D02*
D03*
X552450D02*
D03*
X515620Y424180D02*
D03*
X553720Y182880D02*
D03*
Y193040D02*
D03*
X11430Y64770D02*
D03*
X10160Y87630D02*
D03*
Y104140D02*
D03*
Y121920D02*
D03*
Y139700D02*
D03*
Y162560D02*
D03*
Y177800D02*
D03*
Y194310D02*
D03*
Y209550D02*
D03*
Y226060D02*
D03*
Y243840D02*
D03*
Y257810D02*
D03*
X11430Y374650D02*
D03*
X24130D02*
D03*
X36830Y379730D02*
D03*
Y392430D02*
D03*
Y405130D02*
D03*
Y417830D02*
D03*
X22860D02*
D03*
X8890D02*
D03*
X63500Y474980D02*
D03*
X13970Y450850D02*
D03*
Y463550D02*
D03*
X50800Y474980D02*
D03*
X38100D02*
D03*
X25400D02*
D03*
X12700D02*
D03*
X610870Y713740D02*
D03*
X618490Y664210D02*
D03*
X398780Y628650D02*
D03*
X397510Y648970D02*
D03*
Y665480D02*
D03*
Y680720D02*
D03*
Y695960D02*
D03*
Y711200D02*
D03*
Y726440D02*
D03*
X580390Y377190D02*
D03*
X455930Y226060D02*
D03*
X565150Y732790D02*
D03*
X534670D02*
D03*
X505460Y731520D02*
D03*
X603250Y749300D02*
D03*
X565150D02*
D03*
X534670D02*
D03*
X505460D02*
D03*
X600710Y640080D02*
D03*
X579120D02*
D03*
X551180D02*
D03*
X529590D02*
D03*
X505460D02*
D03*
X506730Y680720D02*
D03*
X490220D02*
D03*
X692150Y392430D02*
D03*
X674370D02*
D03*
Y407670D02*
D03*
X692150D02*
D03*
X495300Y449580D02*
D03*
Y468630D02*
D03*
X472440Y467360D02*
D03*
X495300Y486410D02*
D03*
X472440Y485140D02*
D03*
X495300Y501650D02*
D03*
X472440D02*
D03*
X420370Y397510D02*
D03*
X405130D02*
D03*
X384810D02*
D03*
X420370Y410210D02*
D03*
X405130D02*
D03*
X384810D02*
D03*
X383540Y425450D02*
D03*
Y438150D02*
D03*
X316230Y233680D02*
D03*
X297180D02*
D03*
X312420Y271780D02*
D03*
X295910D02*
D03*
X297180Y290830D02*
D03*
X276860Y233680D02*
D03*
Y252730D02*
D03*
Y270510D02*
D03*
Y289560D02*
D03*
Y307340D02*
D03*
X254000Y523240D02*
D03*
X238760D02*
D03*
X224790D02*
D03*
Y510540D02*
D03*
X254000Y547370D02*
D03*
X238760D02*
D03*
Y561340D02*
D03*
X254000D02*
D03*
X162560Y533400D02*
D03*
Y552450D02*
D03*
Y566420D02*
D03*
Y577850D02*
D03*
X102870Y561340D02*
D03*
X90170D02*
D03*
X92710Y702310D02*
D03*
X60960Y659130D02*
D03*
X62230Y671830D02*
D03*
Y684530D02*
D03*
X80010D02*
D03*
X129540Y669290D02*
D03*
X130810Y687070D02*
D03*
X139700Y698500D02*
D03*
X384810Y485140D02*
D03*
X367030D02*
D03*
X323850D02*
D03*
X307340D02*
D03*
X383540Y500380D02*
D03*
X365760D02*
D03*
X344170D02*
D03*
X323850D02*
D03*
X307340D02*
D03*
X331470Y435610D02*
D03*
Y447040D02*
D03*
X285750Y435610D02*
D03*
Y447040D02*
D03*
X754380Y698500D02*
D03*
X734060D02*
D03*
X713740Y683260D02*
D03*
X754380D02*
D03*
Y711200D02*
D03*
X734060D02*
D03*
X742950Y651510D02*
D03*
X863600Y638810D02*
D03*
Y652780D02*
D03*
Y665480D02*
D03*
X845820D02*
D03*
X824230D02*
D03*
X863600Y676910D02*
D03*
X845820D02*
D03*
X824230D02*
D03*
X863600Y695960D02*
D03*
X845820D02*
D03*
X824230D02*
D03*
X835660Y414020D02*
D03*
X854710Y453390D02*
D03*
X830580D02*
D03*
X806450D02*
D03*
X789940D02*
D03*
X764540Y454660D02*
D03*
Y471170D02*
D03*
X772160Y486410D02*
D03*
X755650D02*
D03*
X713740Y452120D02*
D03*
X684530Y486410D02*
D03*
X662940D02*
D03*
X728980Y468630D02*
D03*
X713740D02*
D03*
X697230D02*
D03*
X679450D02*
D03*
X662940D02*
D03*
X762000Y386080D02*
D03*
Y401320D02*
D03*
Y415290D02*
D03*
X834390Y311150D02*
D03*
X812800D02*
D03*
X783590Y312420D02*
D03*
X755650Y311150D02*
D03*
X732790Y309880D02*
D03*
X708660Y308610D02*
D03*
X824230Y327660D02*
D03*
X795020D02*
D03*
X767080D02*
D03*
X744220D02*
D03*
X720090D02*
D03*
X694690Y326390D02*
D03*
X675640D02*
D03*
X775970Y346710D02*
D03*
X755650D02*
D03*
X731520D02*
D03*
X711200D02*
D03*
X450850Y398780D02*
D03*
Y412750D02*
D03*
X134620Y228600D02*
D03*
X121920Y199390D02*
D03*
Y213360D02*
D03*
X88900Y199390D02*
D03*
Y212090D02*
D03*
X134620Y241300D02*
D03*
X76200Y364490D02*
D03*
Y379730D02*
D03*
X91440D02*
D03*
X104140D02*
D03*
X105410Y339090D02*
D03*
X118110Y349250D02*
D03*
Y330200D02*
D03*
X77470Y410210D02*
D03*
X97790Y429260D02*
D03*
X77470D02*
D03*
X166370Y501650D02*
D03*
Y477520D02*
D03*
X181610Y520700D02*
D03*
X166370D02*
D03*
X201930Y433070D02*
D03*
X182880Y434340D02*
D03*
X201930Y445770D02*
D03*
X182880D02*
D03*
X205740Y328930D02*
D03*
Y342900D02*
D03*
X373380Y285750D02*
D03*
Y298450D02*
D03*
Y312420D02*
D03*
Y327660D02*
D03*
Y341630D02*
D03*
Y356870D02*
D03*
Y372110D02*
D03*
X504190Y322580D02*
D03*
Y336550D02*
D03*
X421640Y228600D02*
D03*
X405130D02*
D03*
X386080D02*
D03*
X374650Y247650D02*
D03*
X393700D02*
D03*
X411480D02*
D03*
X426720D02*
D03*
Y262890D02*
D03*
X411480D02*
D03*
X393700D02*
D03*
X374650D02*
D03*
X607060Y264160D02*
D03*
X586740D02*
D03*
X570230D02*
D03*
X595630Y278130D02*
D03*
X575310D02*
D03*
X614680Y280670D02*
D03*
X558800Y278130D02*
D03*
X596900Y224790D02*
D03*
X577850D02*
D03*
X527050Y223520D02*
D03*
Y236220D02*
D03*
X608330D02*
D03*
X588010D02*
D03*
X568960D02*
D03*
X298450Y604520D02*
D03*
X285750D02*
D03*
X233680Y595630D02*
D03*
X218440D02*
D03*
Y608330D02*
D03*
X287020Y657860D02*
D03*
X298450D02*
D03*
X314960Y659130D02*
D03*
X889000Y445770D02*
D03*
Y463550D02*
D03*
Y483870D02*
D03*
Y509270D02*
D03*
Y532130D02*
D03*
X455930Y792480D02*
D03*
X654050Y791210D02*
D03*
X617220Y778510D02*
D03*
X591820D02*
D03*
X563880D02*
D03*
X535940D02*
D03*
X513080D02*
D03*
X487680D02*
D03*
X734060Y683260D02*
D03*
X788900Y65900D02*
D03*
X801600Y40500D02*
D03*
X788900Y15100D02*
D03*
X763500Y65900D02*
D03*
X776200Y40500D02*
D03*
X763500Y15100D02*
D03*
X738100Y65900D02*
D03*
X750800Y40500D02*
D03*
X738100Y15100D02*
D03*
X712700Y65900D02*
D03*
X725400Y40500D02*
D03*
X712700Y15100D02*
D03*
X700000Y40500D02*
D03*
X687300Y15100D02*
D03*
X674600Y40500D02*
D03*
X661900Y15100D02*
D03*
X636500Y65900D02*
D03*
X649200Y40500D02*
D03*
X636500Y15100D02*
D03*
X611100Y65900D02*
D03*
Y15100D02*
D03*
X585700Y65900D02*
D03*
X598400Y40500D02*
D03*
X585700Y15100D02*
D03*
X560300Y65900D02*
D03*
X573000Y40500D02*
D03*
X560300Y15100D02*
D03*
X534900Y65900D02*
D03*
X547600Y40500D02*
D03*
X534900Y15100D02*
D03*
X509500Y65900D02*
D03*
X522200Y40500D02*
D03*
X509500Y15100D02*
D03*
X484100Y65900D02*
D03*
X496800Y40500D02*
D03*
X484100Y15100D02*
D03*
X458700Y65900D02*
D03*
Y15100D02*
D03*
X433300Y65900D02*
D03*
X446000Y40500D02*
D03*
X433300Y15100D02*
D03*
X407900Y65900D02*
D03*
X420600Y40500D02*
D03*
X407900Y15100D02*
D03*
X382500Y65900D02*
D03*
X395200Y40500D02*
D03*
X382500Y15100D02*
D03*
X357100Y65900D02*
D03*
X369800Y40500D02*
D03*
X357100Y15100D02*
D03*
X331700Y65900D02*
D03*
X344400Y40500D02*
D03*
X331700Y15100D02*
D03*
X306300Y65900D02*
D03*
X319000Y40500D02*
D03*
X306300Y15100D02*
D03*
X321310Y726440D02*
D03*
Y755650D02*
D03*
X311150Y707390D02*
D03*
X289560D02*
D03*
X267970D02*
D03*
Y723900D02*
D03*
X266700Y741680D02*
D03*
Y759460D02*
D03*
X341630Y789940D02*
D03*
X313690D02*
D03*
X290830D02*
D03*
X267970D02*
D03*
X241300D02*
D03*
X213360D02*
D03*
X186690D02*
D03*
X148590D02*
D03*
X125730D02*
D03*
X99060D02*
D03*
X76200D02*
D03*
X57150D02*
D03*
X105410Y717550D02*
D03*
Y730250D02*
D03*
Y745490D02*
D03*
Y759460D02*
D03*
X146050Y730250D02*
D03*
Y742950D02*
D03*
Y759460D02*
D03*
X487172Y622046D02*
D03*
X595884Y684276D02*
D03*
X585216D02*
D03*
D54*
X571012Y151270D02*
D03*
X560011D02*
D03*
X549010D02*
D03*
X527011D02*
D03*
X505010D02*
D03*
X494011D02*
D03*
X483011D02*
D03*
X538012D02*
D03*
X516010D02*
D03*
D55*
X626511Y47270D02*
D03*
X470511D02*
D03*
D56*
X617511Y142271D02*
D03*
D57*
X470511D02*
D03*
D58*
X395000Y141000D02*
D03*
X350000D02*
D03*
X325000D02*
D03*
X370000D02*
D03*
D59*
X287500Y118500D02*
D03*
X432500D02*
D03*
D60*
X732860Y648050D02*
D03*
X720160D02*
D03*
X707460D02*
D03*
X694760Y575950D02*
D03*
X707460D02*
D03*
X720160D02*
D03*
X732860D02*
D03*
X694760Y648050D02*
D03*
D61*
X123420Y446402D02*
D03*
Y510400D02*
D03*
D111*
X92940Y272910D02*
D03*
X209780Y403720D02*
D03*
D112*
X238300Y55000D02*
Y82852D01*
X246778Y91330D02*
Y213868D01*
X238300Y82852D02*
X246778Y91330D01*
X201930Y541650D02*
Y561340D01*
X202160Y478650D02*
Y541650D01*
X246778Y234442D02*
Y281940D01*
Y213868D02*
Y234442D01*
X188468Y123444D02*
Y198912D01*
X163420Y204770D02*
X182610D01*
X193116Y196342D02*
X206134D01*
X182610Y204770D02*
X188468Y198912D01*
X172466Y107442D02*
X188468Y123444D01*
X246778Y213868D02*
X333756D01*
X246778Y281940D02*
Y286940D01*
X163420Y204724D02*
Y232820D01*
Y184450D02*
Y204724D01*
Y168754D02*
Y184450D01*
X129938Y153970D02*
X130382Y154414D01*
X149080D02*
X163420Y168754D01*
X130382Y154414D02*
X149080D01*
X136700Y91234D02*
X152908Y107442D01*
X136700Y55000D02*
Y91234D01*
X152908Y107442D02*
X172466D01*
X879856Y551180D02*
Y710692D01*
X837500Y720000D02*
X870548D01*
X879856Y710692D01*
X32766Y199136D02*
Y236474D01*
X103100Y620890D02*
Y686792D01*
X129286Y712978D02*
X177038D01*
X103100Y686792D02*
X129286Y712978D01*
X177038D02*
X187888Y723828D01*
Y742888D01*
X190000Y745000D01*
X113170Y580250D02*
X122150Y571270D01*
X96750Y580250D02*
X113170D01*
X718570Y392942D02*
X745512D01*
X708788Y390542D02*
X716170D01*
X718570Y392942D01*
X808990Y230769D02*
X831046D01*
X32766Y236474D02*
X42600Y246308D01*
Y280530D01*
X350520Y175260D02*
Y197104D01*
X333756Y213868D02*
X350520Y197104D01*
X355092Y314706D02*
Y386842D01*
Y234188D02*
Y314706D01*
X354644Y314258D02*
X355092Y314706D01*
X332258Y314258D02*
X354644D01*
X355092Y451612D02*
Y468376D01*
Y386842D02*
Y451612D01*
X441706Y210058D02*
X572770D01*
X379222D02*
X441706D01*
X657860Y283464D02*
X820166D01*
X636778D02*
X657860D01*
X820166D02*
X844296D01*
X855286Y272474D01*
X820166Y267716D02*
Y283464D01*
X626435Y273121D02*
X636778Y283464D01*
X626435Y250698D02*
Y273121D01*
X700786Y494284D02*
Y531876D01*
X710184Y484886D02*
X735584D01*
X700786Y494284D02*
X710184Y484886D01*
X735584D02*
X746278Y474192D01*
X855286Y210198D02*
Y272474D01*
X287250Y361950D02*
X303760D01*
X261040D02*
X287250D01*
X261040Y350380D02*
Y361950D01*
Y330060D02*
Y350380D01*
X746278Y436122D02*
Y474192D01*
X700786Y531876D02*
X746278D01*
X430022D02*
X700786D01*
X261850Y478790D02*
X277622D01*
X290830Y491998D01*
Y531876D01*
X746278D02*
X746278Y531876D01*
X746278Y531876D02*
X860552D01*
X879856Y551180D01*
X806741Y704774D02*
X820066Y718099D01*
X835599D02*
X837500Y720000D01*
X820066Y718099D02*
X835599D01*
X806741Y632677D02*
Y704774D01*
X816851Y597500D02*
Y622567D01*
X806741Y632677D02*
X816851Y622567D01*
X626435Y243078D02*
Y250698D01*
Y223591D02*
Y243078D01*
X572770Y210058D02*
X612902D01*
X800676Y152586D02*
Y192878D01*
X838580Y78740D02*
Y114682D01*
X800676Y152586D02*
X838580Y114682D01*
X820166Y252476D02*
Y267716D01*
X855106Y192878D02*
X855286Y192698D01*
X831156Y192878D02*
X855106D01*
X831046Y230769D02*
X831156Y230879D01*
X601284Y378460D02*
Y379461D01*
X595630Y385115D02*
X601284Y379461D01*
X595630Y385115D02*
Y407924D01*
X400238Y603773D02*
X408381Y595630D01*
X427228D01*
X400238Y603773D02*
Y604774D01*
X402075Y571187D02*
X426271D01*
X401000Y572262D02*
X402075Y571187D01*
X426271D02*
X427228Y570230D01*
X451104Y506730D02*
X455282Y502552D01*
X429514Y506730D02*
X451104D01*
X455282Y489712D02*
Y502552D01*
X403860Y506730D02*
X429514D01*
X290830Y531876D02*
X430022D01*
X429514Y506730D02*
Y531368D01*
X430022Y531876D01*
X400076Y502946D02*
X403860Y506730D01*
X400076Y489712D02*
Y502946D01*
X290830Y531876D02*
Y561594D01*
X346456Y572008D02*
X362745D01*
X362999Y572262D01*
X355092Y234188D02*
X379222Y210058D01*
X612902D02*
X626435Y223591D01*
X310896Y577850D02*
X314706Y581660D01*
Y596900D01*
Y556530D02*
Y577850D01*
Y581660D01*
X201930Y577850D02*
X310896D01*
X320564Y550672D02*
X762562D01*
X314706Y596900D02*
X322580Y604774D01*
X314706Y556530D02*
X320564Y550672D01*
X322580Y604774D02*
X362237D01*
X261040Y361950D02*
Y437460D01*
X338582Y468376D02*
X355092D01*
X329634D02*
X338582D01*
X314110Y468180D02*
X329438D01*
X329634Y468376D01*
X310110Y464180D02*
X314110Y468180D01*
X310110Y401180D02*
Y464180D01*
X520960Y170942D02*
X537210D01*
X768420Y556530D02*
Y586740D01*
X762562Y550672D02*
X768420Y556530D01*
X362237Y639097D02*
X375412Y652272D01*
X362237Y604774D02*
Y639097D01*
X759994Y728098D02*
Y744608D01*
X261040Y361950D02*
X261040Y361950D01*
X261040Y437460D02*
Y477980D01*
X246610Y478790D02*
X261850D01*
X225300D02*
X246610D01*
X225160Y478650D02*
X225300Y478790D01*
X382748Y746730D02*
X404600D01*
X375412Y739394D02*
X382748Y746730D01*
X375412Y652272D02*
Y739394D01*
X201930Y561340D02*
Y577850D01*
X746278Y392176D02*
Y436122D01*
Y362462D02*
Y392176D01*
X745512Y392942D02*
X746278Y392176D01*
X245200Y439280D02*
X259220D01*
X261040Y437460D01*
Y477980D02*
X261850Y478790D01*
X321310Y361950D02*
X333110Y373750D01*
Y401180D01*
X303760Y361950D02*
X321310D01*
X325060Y141060D02*
Y175200D01*
X141200Y255040D02*
Y274320D01*
Y255040D02*
X163420Y232820D01*
X261040Y301202D02*
Y330060D01*
X246778Y286940D02*
X261040Y301202D01*
X122150Y551750D02*
Y571270D01*
X96750Y614540D02*
X103100Y620890D01*
X96750Y580250D02*
Y614540D01*
D113*
X246524Y234696D02*
X246778Y234442D01*
X223774Y234696D02*
X246524D01*
X203520Y215392D02*
X204897Y216769D01*
Y233319D01*
X206274Y234696D01*
X223497Y177429D02*
Y196205D01*
X223360Y177292D02*
X223497Y177429D01*
Y196205D02*
X223634Y196342D01*
X350266Y121666D02*
Y140734D01*
X370332Y115824D02*
Y140668D01*
X42600Y321170D02*
Y341490D01*
Y360862D01*
X60680Y378942D02*
Y396240D01*
X42600Y360862D02*
X60680Y378942D01*
X119610Y396805D02*
X139930D01*
X99290D02*
X119610D01*
X61245D02*
X99290D01*
X139930D02*
X159685D01*
X225229Y492945D02*
X225298Y493014D01*
X225160Y478650D02*
X225229Y478719D01*
Y492945D01*
X148010Y658200D02*
X148760Y658950D01*
X771466Y230658D02*
X808879D01*
X808990Y230769D01*
X404920Y764210D02*
X467010D01*
X121089Y376359D02*
X121158Y376428D01*
X121020Y365620D02*
X121089Y365689D01*
Y376359D01*
X42600Y280530D02*
Y300850D01*
X322072Y279400D02*
X322634Y278838D01*
X332258D01*
X437388Y384950D02*
X472440D01*
X356984D02*
X437388D01*
X437785Y385346D01*
Y437388D01*
X356206Y452726D02*
X399325D01*
X355092Y451612D02*
X356206Y452726D01*
X223620Y675390D02*
X256570D01*
Y675320D02*
X272991D01*
X441706Y210058D02*
X443090Y211442D01*
Y284480D01*
X355092Y386842D02*
X356984Y384950D01*
X584594Y358788D02*
X584708Y358902D01*
X584594Y343408D02*
Y358788D01*
X854849Y597500D02*
Y606413D01*
X837946Y623316D02*
Y641858D01*
Y623316D02*
X854849Y606413D01*
X837946Y641858D02*
X840486Y644398D01*
X854475Y597125D02*
X854849Y597500D01*
X854475Y567375D02*
Y597125D01*
X854100Y567000D02*
X854475Y567375D01*
X798830Y559530D02*
X798830Y559530D01*
Y549910D02*
Y559530D01*
X799095Y576765D02*
X831835D01*
X832100Y576500D01*
X798830Y577030D02*
X799095Y576765D01*
X626575Y243218D02*
X654626D01*
X626435Y243078D02*
X626575Y243218D01*
X625017Y249280D02*
X626435Y250698D01*
X555388Y249280D02*
X625017D01*
X572770Y176530D02*
Y210058D01*
X567182Y170942D02*
X572770Y176530D01*
X537210Y170942D02*
X567182D01*
X654696Y243288D02*
X677416D01*
X677486Y243358D01*
X654626Y243218D02*
X654696Y243288D01*
X673628Y444122D02*
X674378Y444872D01*
X689418D01*
X690168Y445622D01*
X821938Y357892D02*
Y390281D01*
Y357892D02*
X822198Y357632D01*
X821678Y390541D02*
X821938Y390281D01*
X821678Y408041D02*
X821868Y408231D01*
Y436182D01*
X822058Y436372D01*
X312588Y296758D02*
X329916D01*
X303084Y306262D02*
X312588Y296758D01*
X303084Y306262D02*
Y325422D01*
X332258Y278838D02*
Y296758D01*
X455285Y437388D02*
X455659Y437762D01*
Y452352D02*
X456033Y452726D01*
X455659Y437762D02*
Y452352D01*
X417950Y452352D02*
X418324Y452726D01*
X417950Y437762D02*
Y452352D01*
X417576Y437388D02*
X417950Y437762D01*
X399701Y437763D02*
X400076Y437388D01*
X399325Y452726D02*
X399701Y452351D01*
Y437763D02*
Y452351D01*
X437409Y437763D02*
Y452351D01*
X437034Y452726D02*
X437409Y452351D01*
Y437763D02*
X437785Y437388D01*
X437782Y479158D02*
X440944Y475996D01*
X437782Y479158D02*
Y489712D01*
X440944Y475996D02*
X445263D01*
X446533Y474726D01*
X414647D02*
X417576Y477655D01*
X408825Y474726D02*
X414647D01*
X417576Y477655D02*
Y489712D01*
X537210Y152072D02*
Y170942D01*
Y152072D02*
X538012Y151270D01*
X788458Y622300D02*
Y720556D01*
X780916Y728098D02*
X788458Y720556D01*
X759994Y728098D02*
X780916D01*
X781558Y586740D02*
X788458Y593640D01*
Y622300D01*
X768420D02*
X788458D01*
X768350Y622230D02*
X768420Y622300D01*
X712168Y362462D02*
X728778D01*
X712168Y436122D02*
X728778D01*
X694604Y773818D02*
X717670D01*
X724574Y766914D01*
Y744608D02*
Y766914D01*
Y744608D02*
X742494D01*
X768420Y586740D02*
X781558D01*
X738246Y586486D02*
X751656D01*
X751910Y586740D01*
X732860Y575950D02*
Y581100D01*
X738246Y586486D01*
X826361Y395224D02*
X854202D01*
X860921Y388505D01*
X821678Y390541D02*
X826361Y395224D01*
X821678Y408041D02*
X827129Y402590D01*
X853948D01*
X861437Y410079D01*
X860921Y388505D02*
X872355D01*
X874268Y386592D01*
X872355Y410079D02*
X874268Y411992D01*
X861437Y410079D02*
X872355D01*
X783328Y392392D02*
X802327D01*
X782778Y392942D02*
X783328Y392392D01*
X802327D02*
X804178Y390541D01*
X802329Y406192D02*
X804178Y408041D01*
X782778Y405642D02*
X783328Y406192D01*
X802329D01*
X548894Y404114D02*
X566314D01*
X431954Y343365D02*
X432410Y342909D01*
X405740Y343365D02*
X431954D01*
Y306367D02*
X432410Y305911D01*
X405740Y306367D02*
X431954D01*
X751910Y586740D02*
X768420D01*
X751910Y622160D02*
X751980Y622230D01*
X768350D01*
X404600Y764530D02*
X404920Y764210D01*
X467010D02*
X467330Y763890D01*
X782778Y418342D02*
Y436122D01*
X728778Y362462D02*
Y380242D01*
Y418342D02*
Y436122D01*
X342400Y745000D02*
X342450Y744950D01*
Y626500D02*
X342500Y626450D01*
X342450Y626500D02*
Y744950D01*
X289590Y635950D02*
X320500D01*
X256570Y618450D02*
X273080D01*
X241406D02*
X256570D01*
X203232Y658950D02*
Y675460D01*
Y643280D02*
Y658950D01*
X223550Y675320D02*
X223620Y675390D01*
X223550Y675320D02*
Y685770D01*
X218440Y690880D02*
X223550Y685770D01*
X185732Y686113D02*
X190500Y690880D01*
X218440D01*
X185732Y675460D02*
Y686113D01*
X166260Y658950D02*
Y675460D01*
Y643280D02*
Y658950D01*
X65940Y153970D02*
Y207500D01*
Y231140D01*
Y253860D01*
X119940Y239320D02*
Y253860D01*
X111760Y231140D02*
X119940Y239320D01*
X84280Y231140D02*
X111760D01*
X160250Y397370D02*
X182780D01*
X46511Y266609D02*
X65891D01*
X43582Y269538D02*
X46511Y266609D01*
X65891D02*
X65940Y266560D01*
X42600Y300850D02*
Y321170D01*
X60680Y396240D02*
X61245Y396805D01*
X159685D02*
X160250Y397370D01*
X60680Y396240D02*
Y439140D01*
X67942Y446402D01*
X123420D01*
X122150Y534250D02*
X138660D01*
X96750D02*
X122150D01*
D114*
X236220Y371856D02*
Y384620D01*
X231254Y366890D02*
X236220Y371856D01*
Y384620D02*
X236730D01*
X236780Y384670D01*
X201480Y366890D02*
X231254D01*
X231215Y422820D02*
X236730D01*
X236780Y422770D01*
X227700Y426335D02*
X231215Y422820D01*
X227700Y426335D02*
Y455790D01*
X639285Y435831D02*
X647576Y444122D01*
X673628D01*
X639285Y378460D02*
Y435831D01*
X657860Y378460D02*
X665226D01*
X657860Y283464D02*
Y378460D01*
X639285D02*
X657860D01*
X584708Y358902D02*
X611632D01*
X576072D02*
X584708D01*
X566314Y368660D02*
Y404114D01*
Y368660D02*
X576072Y358902D01*
X611632D02*
X620014Y367284D01*
Y374904D01*
X623570Y378460D01*
X639285D01*
X90895Y349110D02*
Y357595D01*
X667509Y376181D02*
X673228Y370462D01*
X667505Y376181D02*
X667509D01*
X665226Y378460D02*
X667505Y376181D01*
X689418Y371212D02*
X690168Y371962D01*
X673978Y371212D02*
X689418D01*
X673228Y370462D02*
X673978Y371212D01*
X182780Y281940D02*
Y336550D01*
Y366890D02*
Y384670D01*
Y336550D02*
Y366890D01*
X325060Y175200D02*
X325120Y175260D01*
X325000Y141000D02*
X325060Y141060D01*
X141110Y291910D02*
X141200Y291820D01*
X119940Y291960D02*
X119990Y291910D01*
X141110D01*
X108090Y323710D02*
X119940Y311860D01*
Y291960D02*
Y311860D01*
X87440Y323710D02*
X108090D01*
X98920Y365620D02*
X121020D01*
X87440Y349110D02*
X90895D01*
Y357595D02*
X98920Y365620D01*
D115*
X148340Y658200D02*
X148590Y657950D01*
Y650494D02*
Y657950D01*
X148010Y658200D02*
X148340D01*
X147261Y643280D02*
X147261Y643280D01*
Y649165D01*
X148590Y650494D01*
X193733Y609277D02*
Y617474D01*
X154940Y596900D02*
X181356D01*
X193733Y609277D01*
X212736Y621280D02*
X219406Y627950D01*
X193733Y621280D02*
X212736D01*
X193733Y617474D02*
Y621280D01*
X103100Y620890D02*
X138036D01*
X147261Y630115D02*
Y643280D01*
X138036Y620890D02*
X147261Y630115D01*
X138660Y580620D02*
X154940Y596900D01*
X138660Y551750D02*
Y580620D01*
D116*
X166620Y621280D02*
X177800Y632460D01*
X208280D01*
X218440Y642620D01*
X156760Y621280D02*
X166620D01*
X218440Y642620D02*
X231140D01*
X238597Y650077D02*
Y656357D01*
X240060Y657820D01*
X231140Y642620D02*
X238597Y650077D01*
D117*
X796280Y78740D02*
D03*
X335000Y102500D02*
D03*
X385000D02*
D03*
D118*
X187500Y55000D02*
D03*
X85900D02*
D03*
X238300D02*
D03*
X136700D02*
D03*
X76200Y745000D02*
D03*
X127000D02*
D03*
X291600D02*
D03*
X240800D02*
D03*
X342400D02*
D03*
X190000D02*
D03*
D119*
X60680Y396240D02*
D03*
X23580D02*
D03*
X30010Y675440D02*
D03*
X80010Y662940D02*
D03*
X792480Y474472D02*
D03*
X817880D02*
D03*
X843280D02*
D03*
X868680D02*
D03*
X299720Y175260D02*
D03*
X325120D02*
D03*
X350520D02*
D03*
X822198Y357632D02*
D03*
X796798D02*
D03*
D120*
X42418Y498348D02*
D03*
Y461248D02*
D03*
X595630Y407924D02*
D03*
Y433324D02*
D03*
Y458724D02*
D03*
Y484124D02*
D03*
X427228Y722630D02*
D03*
Y570230D02*
D03*
Y595630D02*
D03*
Y621030D02*
D03*
Y646430D02*
D03*
Y671830D02*
D03*
Y697230D02*
D03*
X874268Y411992D02*
D03*
Y386592D02*
D03*
Y335280D02*
D03*
Y309880D02*
D03*
D121*
X837500Y645000D02*
D03*
Y720000D02*
D03*
D122*
X527304Y328422D02*
D03*
X533400Y341122D02*
D03*
X536956Y325120D02*
D03*
X536702Y333756D02*
D03*
X546354Y339090D02*
D03*
X622167Y346384D02*
D03*
X615188Y342392D02*
D03*
X669290Y655066D02*
D03*
X704850Y627888D02*
D03*
X699262Y592328D02*
D03*
X699516Y607822D02*
D03*
X744474Y563880D02*
D03*
Y572770D02*
D03*
X756412Y562864D02*
D03*
X713740Y562102D02*
D03*
X663448Y605790D02*
D03*
X670814Y562610D02*
D03*
X666242Y634238D02*
D03*
X651764Y675132D02*
D03*
X676910Y594360D02*
D03*
X694690Y627380D02*
D03*
X355600Y720090D02*
D03*
X356870Y701040D02*
D03*
Y684530D02*
D03*
Y665480D02*
D03*
Y654050D02*
D03*
X328930Y674370D02*
D03*
Y687070D02*
D03*
Y657860D02*
D03*
X342900Y615950D02*
D03*
X330200Y618490D02*
D03*
X306070Y626110D02*
D03*
X321310Y624840D02*
D03*
X283210Y648970D02*
D03*
X276860Y660400D02*
D03*
X259080Y665480D02*
D03*
X229870Y635000D02*
D03*
X205740Y609600D02*
D03*
X191770Y590550D02*
D03*
X252730Y595630D02*
D03*
X207010D02*
D03*
X170180Y689610D02*
D03*
X161290Y609600D02*
D03*
X124460Y650240D02*
D03*
X133350Y645160D02*
D03*
Y633730D02*
D03*
X144780Y607060D02*
D03*
X129540Y595630D02*
D03*
X128270Y584200D02*
D03*
X133350Y608330D02*
D03*
X336550Y586740D02*
D03*
X669290Y773430D02*
D03*
X709930Y760730D02*
D03*
X708660Y708660D02*
D03*
X670560Y737870D02*
D03*
Y721360D02*
D03*
X665480Y706120D02*
D03*
X655320Y725170D02*
D03*
Y737870D02*
D03*
Y773430D02*
D03*
X669290Y754380D02*
D03*
X781050Y271780D02*
D03*
X754380Y233680D02*
D03*
X755650Y264160D02*
D03*
X732790Y262890D02*
D03*
X708660D02*
D03*
X697230Y271780D02*
D03*
X737870Y234950D02*
D03*
X725170D02*
D03*
X708660D02*
D03*
X695960Y241300D02*
D03*
X671830Y269240D02*
D03*
X670560Y298450D02*
D03*
X490220Y121920D02*
D03*
X476250Y107950D02*
D03*
X454660Y105410D02*
D03*
X401320Y106680D02*
D03*
X354330Y107950D02*
D03*
X334010Y119380D02*
D03*
X383540Y133350D02*
D03*
X410210Y132080D02*
D03*
X448310D02*
D03*
X459740Y140970D02*
D03*
X463550Y162560D02*
D03*
Y179070D02*
D03*
Y193040D02*
D03*
X447040Y191770D02*
D03*
X425450D02*
D03*
X405130Y193040D02*
D03*
X379730D02*
D03*
X382270Y181610D02*
D03*
X118110Y111760D02*
D03*
X100330D02*
D03*
X66040D02*
D03*
X161290Y124460D02*
D03*
X170180Y129540D02*
D03*
X139700Y118110D02*
D03*
X151130Y128270D02*
D03*
X161290Y140970D02*
D03*
X170180Y153670D02*
D03*
X231140Y349250D02*
D03*
X215900Y322580D02*
D03*
X227330D02*
D03*
X223520Y353060D02*
D03*
X213360D02*
D03*
X275590Y406400D02*
D03*
Y379730D02*
D03*
Y391160D02*
D03*
X102870Y354330D02*
D03*
X55880Y332740D02*
D03*
X57150Y351790D02*
D03*
X66040Y303530D02*
D03*
X104140Y311150D02*
D03*
X106680Y302260D02*
D03*
X86360D02*
D03*
X64770Y314960D02*
D03*
Y331470D02*
D03*
X275590Y400050D02*
D03*
X184150Y224790D02*
D03*
X168910Y248920D02*
D03*
X161290Y262890D02*
D03*
X167640Y323850D02*
D03*
Y353060D02*
D03*
Y382270D02*
D03*
X421640Y358140D02*
D03*
X452120Y252730D02*
D03*
X800100Y591820D02*
D03*
Y603250D02*
D03*
Y617220D02*
D03*
X782320Y576580D02*
D03*
Y562610D02*
D03*
X781050Y546100D02*
D03*
X853440Y548640D02*
D03*
X730250Y594360D02*
D03*
X711200Y595630D02*
D03*
X551180Y580390D02*
D03*
X575310Y436880D02*
D03*
X322580Y194310D02*
D03*
X304800Y193040D02*
D03*
X284480Y191770D02*
D03*
X264160Y190500D02*
D03*
X322580Y201930D02*
D03*
X304800D02*
D03*
X284480D02*
D03*
X264160D02*
D03*
X341630Y363220D02*
D03*
X491490Y292100D02*
D03*
X542290Y293370D02*
D03*
X491490Y345440D02*
D03*
X369570Y397510D02*
D03*
X575310Y447040D02*
D03*
X711200Y424180D02*
D03*
X506730Y429260D02*
D03*
X497840Y397510D02*
D03*
X525780Y443230D02*
D03*
X561340Y355600D02*
D03*
X509778Y127000D02*
D03*
X516611Y117045D02*
D03*
X683580Y663514D02*
D03*
X667500Y352500D02*
D03*
X322072Y279400D02*
D03*
X274066Y650494D02*
D03*
X267208Y665226D02*
D03*
X804926Y426720D02*
D03*
X670560Y697484D02*
D03*
X798830Y549910D02*
D03*
X748284Y256059D02*
D03*
X489204Y316738D02*
D03*
X474726Y277622D02*
D03*
X466852Y437388D02*
D03*
X417576Y427482D02*
D03*
X481076Y751078D02*
D03*
X504698Y348742D02*
D03*
X529844D02*
D03*
X540004D02*
D03*
X350266Y121666D02*
D03*
X370332Y115824D02*
D03*
X485140Y277622D02*
D03*
X748284Y243358D02*
D03*
X660654Y426720D02*
D03*
X689356Y576072D02*
D03*
X694690Y762508D02*
D03*
X654304Y763524D02*
D03*
X655066Y687832D02*
D03*
D123*
X650206Y356680D02*
D03*
X644398Y354838D02*
D03*
X639064Y360426D02*
D03*
X633971Y355245D02*
D03*
X628650Y351282D02*
D03*
X681482Y704850D02*
D03*
X661924Y668782D02*
D03*
X676402Y680466D02*
D03*
X265430Y688340D02*
D03*
X251460D02*
D03*
X234950D02*
D03*
X157480D02*
D03*
X180340Y693420D02*
D03*
X109220Y547370D02*
D03*
Y594360D02*
D03*
X176530Y608330D02*
D03*
X181610Y623570D02*
D03*
X146050Y614680D02*
D03*
X260350Y646430D02*
D03*
X252730D02*
D03*
X214630Y664210D02*
D03*
X166260Y632530D02*
D03*
X245110Y646430D02*
D03*
X248920Y628650D02*
D03*
X241300D02*
D03*
X231140D02*
D03*
X212090Y647700D02*
D03*
X157480Y632460D02*
D03*
X176530Y642620D02*
D03*
X191770Y650240D02*
D03*
Y642620D02*
D03*
X516636Y261112D02*
D03*
X545592Y373634D02*
D03*
X534924Y373126D02*
D03*
X520700Y342138D02*
D03*
X513588D02*
D03*
X493776Y165100D02*
D03*
X499110Y136144D02*
D03*
X504952Y164846D02*
D03*
X509778Y257556D02*
D03*
X504698Y263652D02*
D03*
X499364Y258064D02*
D03*
X494538Y263906D02*
D03*
D124*
X537210Y303530D02*
D03*
X523240D02*
D03*
X492500Y335000D02*
D03*
X508000Y303530D02*
D03*
X492760D02*
D03*
X158750Y311010D02*
D03*
X446532Y466852D02*
D03*
X151384Y349110D02*
D03*
X399542Y474726D02*
D03*
X615950Y649590D02*
D03*
X623062Y636890D02*
D03*
D125*
X25000Y775000D02*
D03*
Y25000D02*
D03*
X875000Y775000D02*
D03*
Y25000D02*
D03*
M02*
