G04*
G04 #@! TF.GenerationSoftware,Altium Limited,Altium Designer,23.0.1 (38)*
G04*
G04 Layer_Physical_Order=2*
G04 Layer_Color=16711680*
%FSLAX44Y44*%
%MOMM*%
G71*
G04*
G04 #@! TF.SameCoordinates,FF995E5F-5184-4AEF-B54D-418CE73C624A*
G04*
G04*
G04 #@! TF.FilePolarity,Positive*
G04*
G01*
G75*
%ADD10C,0.2000*%
%ADD13C,0.5000*%
%ADD19C,0.3000*%
%ADD111O,2.5000X1.5000*%
%ADD112O,3.5000X2.5000*%
%ADD113O,3.0000X1.8000*%
%ADD114O,2.5000X1.5080*%
%ADD115O,1.5000X2.5000*%
%ADD116C,1.0000*%
%ADD117C,1.3000*%
%ADD118O,1.5080X2.5000*%
%ADD119C,0.6000*%
%ADD120C,0.7000*%
%ADD121C,0.8000*%
%ADD122R,3.6600X2.6000*%
%ADD123R,3.5400X2.6000*%
G36*
X1336779Y846469D02*
X1336546Y843334D01*
X1335840Y842774D01*
X1335840Y842774D01*
X1335840Y842773D01*
X1332390Y837610D01*
X1322117Y830746D01*
X1310000Y828336D01*
X1297883Y830746D01*
X1287610Y837610D01*
X1280746Y847883D01*
X1278336Y860000D01*
X1280746Y872117D01*
X1287610Y882390D01*
X1292773Y885840D01*
X1292773Y885840D01*
X1292773Y885840D01*
X1293334Y886546D01*
X1296469Y886779D01*
X1336779Y846469D01*
D02*
G37*
G36*
X1278468Y884007D02*
X1272739Y875434D01*
X1269669Y860000D01*
X1272739Y844566D01*
X1281482Y831482D01*
X1294566Y822739D01*
X1310000Y819670D01*
X1325434Y822739D01*
X1334007Y828468D01*
X1336212Y827289D01*
Y710000D01*
X1337321Y707321D01*
X1337348Y707310D01*
X1337448Y707067D01*
X1366224Y678292D01*
X1366224Y221200D01*
X1327448Y182425D01*
X1326339Y179746D01*
X1326339Y179746D01*
Y62457D01*
X1324134Y61278D01*
X1315561Y67007D01*
X1300127Y70076D01*
X1284693Y67007D01*
X1271609Y58264D01*
X1262867Y45180D01*
X1259797Y29746D01*
X1262867Y14312D01*
X1268425Y5993D01*
X1267247Y3788D01*
X3788D01*
X3788Y886212D01*
X500000D01*
Y885490D01*
X509754Y883549D01*
X518024Y878024D01*
X523549Y869754D01*
X525490Y860000D01*
X526212D01*
Y820000D01*
X527321Y817321D01*
X530000Y816212D01*
X549485D01*
Y813900D01*
X550119Y812369D01*
X551650Y811735D01*
X731650D01*
X733181Y812369D01*
X733815Y813900D01*
Y816212D01*
X750000D01*
X752679Y817321D01*
X753788Y820000D01*
Y860000D01*
X754510D01*
X756451Y869754D01*
X761976Y878024D01*
X770246Y883549D01*
X780000Y885490D01*
Y886212D01*
X870329D01*
X871308Y883712D01*
X865634Y878038D01*
X865019Y878293D01*
X857748Y875281D01*
X854736Y868010D01*
Y858010D01*
X857748Y850739D01*
X860574Y849568D01*
X860077Y847068D01*
X853533D01*
X847761Y852841D01*
X849902Y858010D01*
Y868010D01*
X846890Y875281D01*
X839619Y878293D01*
X832348Y875281D01*
X829336Y868010D01*
Y858010D01*
X832348Y850739D01*
X839619Y847727D01*
X841415Y848471D01*
X849285Y840601D01*
X849285Y840601D01*
X851964Y839492D01*
X901651D01*
X901651Y839492D01*
X904330Y840601D01*
X912991Y849262D01*
X917003Y847600D01*
X924274Y850612D01*
X927286Y857883D01*
Y867883D01*
X924274Y875154D01*
X923475Y875485D01*
X923962Y877937D01*
X931088D01*
X934763Y874262D01*
X932120Y867883D01*
Y857883D01*
X935132Y850612D01*
X942403Y847600D01*
X949674Y850612D01*
X952686Y857883D01*
Y867883D01*
X949674Y875154D01*
X942403Y878166D01*
X941817Y877923D01*
X936028Y883712D01*
X937008Y886212D01*
X1277289D01*
X1278468Y884007D01*
D02*
G37*
G36*
X910531Y875485D02*
X909732Y875154D01*
X906720Y867883D01*
Y857883D01*
X907943Y854930D01*
X900082Y847068D01*
X869961D01*
X869464Y849568D01*
X872290Y850739D01*
X875302Y858010D01*
Y868010D01*
X872671Y874360D01*
X876248Y877937D01*
X910043D01*
X910531Y875485D01*
D02*
G37*
G36*
X763288Y889124D02*
X755848Y884152D01*
X748444Y873071D01*
X745844Y860000D01*
X746212D01*
Y823788D01*
X733815D01*
Y876900D01*
X733181Y878431D01*
X731650Y879065D01*
X551650D01*
X550119Y878431D01*
X549485Y876900D01*
Y823788D01*
X533788D01*
Y860000D01*
X533788Y860000D01*
X534156D01*
X531556Y873071D01*
X524152Y884152D01*
X516712Y889124D01*
X517470Y891624D01*
X762530D01*
X763288Y889124D01*
D02*
G37*
G36*
X1312244Y59000D02*
X1322517Y52136D01*
X1325967Y46973D01*
X1324755Y45004D01*
X1284869Y5118D01*
X1282900Y3906D01*
X1277737Y7356D01*
X1270873Y17629D01*
X1268463Y29746D01*
X1270873Y41863D01*
X1277737Y52136D01*
X1288010Y59000D01*
X1300127Y61410D01*
X1312244Y59000D01*
D02*
G37*
%LPC*%
G36*
X201405Y871997D02*
X191405D01*
X184134Y868985D01*
X181122Y861714D01*
X184134Y854443D01*
X191405Y851431D01*
X201405D01*
X208676Y854443D01*
X211688Y861714D01*
X208676Y868985D01*
X201405Y871997D01*
D02*
G37*
G36*
X895460Y822239D02*
X885460D01*
X878189Y819227D01*
X875177Y811956D01*
X875332Y811583D01*
X871238Y807489D01*
X805370D01*
X803949Y808910D01*
X799807D01*
X796878Y805981D01*
Y801839D01*
X799807Y798910D01*
X803949D01*
X804952Y799913D01*
X872807D01*
X872807Y799913D01*
X875486Y801022D01*
X878867Y804404D01*
X885460Y801673D01*
X895460D01*
X902731Y804685D01*
X905743Y811956D01*
X902731Y819227D01*
X895460Y822239D01*
D02*
G37*
G36*
X1262654Y794328D02*
X1262654Y794328D01*
X1041897D01*
X1041897Y794328D01*
X1039218Y793219D01*
X1039218Y793219D01*
X1024491Y778492D01*
X1022777D01*
X1019848Y775563D01*
Y771420D01*
X1019857Y771412D01*
X1018900Y769102D01*
X937127D01*
X934831Y768151D01*
X902515Y735835D01*
X901564Y733539D01*
Y606545D01*
X886448Y591429D01*
X802650D01*
X800354Y590478D01*
X754315Y544439D01*
X627457D01*
X625704Y546192D01*
X621562D01*
X618633Y543263D01*
Y539121D01*
X621562Y536192D01*
X625704D01*
X627457Y537945D01*
X681742D01*
X682699Y535635D01*
X679122Y532058D01*
X678171Y529762D01*
Y527675D01*
X676885Y527142D01*
X672743D01*
X669814Y524213D01*
Y521734D01*
X666422Y518342D01*
X665471Y516046D01*
Y431776D01*
X666422Y429480D01*
X681212Y414690D01*
X681212Y414690D01*
X681560Y414342D01*
X683856Y413391D01*
X770268D01*
X775961Y407698D01*
Y359154D01*
X772258Y355451D01*
X764756D01*
X763003Y357204D01*
X758861D01*
X755932Y354275D01*
Y351833D01*
X755932Y350133D01*
X753707Y349469D01*
X752118D01*
X749189Y346540D01*
Y342398D01*
X752118Y339469D01*
X751498Y337226D01*
X737704Y323432D01*
X736753Y321136D01*
Y312657D01*
Y285524D01*
X733476Y282247D01*
X725964D01*
X725754Y282754D01*
X725007Y283064D01*
X724071Y284000D01*
X719929D01*
X717000Y281071D01*
Y276929D01*
X719929Y274000D01*
X724071D01*
X725824Y275753D01*
X734821D01*
X737117Y276704D01*
X738443Y278030D01*
X740753Y277073D01*
Y271345D01*
X738521Y269113D01*
X700872D01*
X698920Y271065D01*
X694778D01*
X691849Y268136D01*
Y263994D01*
X694778Y261065D01*
X698920D01*
X700474Y262619D01*
X714427D01*
X716438Y260321D01*
Y257295D01*
X715948Y256113D01*
X705786D01*
X704033Y257866D01*
X699891D01*
X696962Y254937D01*
Y250795D01*
X699891Y247866D01*
X704033D01*
X705786Y249619D01*
X714624D01*
X716634Y247321D01*
Y244295D01*
X716145Y243113D01*
X705786D01*
X704033Y244866D01*
X699891D01*
X696962Y241937D01*
Y237795D01*
X699891Y234866D01*
X704033D01*
X705786Y236619D01*
X717613D01*
X719459Y234390D01*
Y230898D01*
X719139Y230124D01*
X705764D01*
X704011Y231877D01*
X699869D01*
X696940Y228948D01*
Y224806D01*
X697767Y223978D01*
X696732Y221478D01*
X595199D01*
X593446Y223231D01*
X589304D01*
X586375Y220302D01*
Y216160D01*
X588042Y214493D01*
X587261Y211738D01*
X586358Y211523D01*
X585445Y212436D01*
X581303D01*
X578374Y209507D01*
Y205365D01*
X576697Y203506D01*
X575545Y203347D01*
X563572Y215320D01*
X561276Y216271D01*
X552400D01*
X550647Y218024D01*
X546505D01*
X543576Y215095D01*
Y210953D01*
X542240Y208753D01*
X540311Y207954D01*
X539713Y207356D01*
X535929D01*
X533000Y204427D01*
Y200285D01*
X535929Y197356D01*
X540071D01*
X543000Y200285D01*
Y201459D01*
X543952Y202411D01*
X552819D01*
X562155Y193075D01*
X564451Y192124D01*
X590359D01*
X592655Y193075D01*
X596257Y196677D01*
X598567Y195721D01*
Y195713D01*
X601496Y192784D01*
X605638D01*
X607391Y194537D01*
X608647D01*
X610943Y195488D01*
X614439Y198984D01*
X748139D01*
X748935Y197061D01*
Y192919D01*
X750688Y191166D01*
Y186158D01*
X751639Y183862D01*
X756960Y178541D01*
Y147050D01*
X747152Y137242D01*
X691924D01*
X689628Y136291D01*
X677508Y124171D01*
X675029D01*
X672100Y121242D01*
Y117100D01*
X675029Y114171D01*
X679171D01*
X682100Y117100D01*
Y117874D01*
X682808Y118347D01*
X685308Y118116D01*
X688237Y115187D01*
X692379D01*
X695254Y118062D01*
X697754Y117986D01*
Y117608D01*
X700683Y114679D01*
X704825D01*
X707754Y117608D01*
Y117843D01*
X708081Y118062D01*
X710581Y117735D01*
X713510Y114806D01*
X717652D01*
X719405Y116559D01*
X753046D01*
X755342Y117510D01*
X774503Y136671D01*
X775454Y138967D01*
Y178516D01*
X780869Y183931D01*
X781820Y186227D01*
Y191547D01*
X783573Y193300D01*
Y197442D01*
X784212Y198984D01*
X791110D01*
X835932Y154162D01*
X838228Y153211D01*
X849478D01*
X852265Y150424D01*
Y135033D01*
X851583Y134751D01*
X847835D01*
Y136228D01*
X844906Y139157D01*
X841810D01*
Y141491D01*
X838881Y144420D01*
X835126D01*
Y145886D01*
X832197Y148815D01*
X828055D01*
X825126Y145886D01*
Y141744D01*
X826888Y139982D01*
Y90925D01*
X822694Y86731D01*
X699071D01*
X696775Y85780D01*
X688004Y77009D01*
X687053Y74713D01*
Y72695D01*
X685300Y70942D01*
Y66800D01*
X688229Y63871D01*
X692371D01*
X695300Y66800D01*
Y70942D01*
X693547Y72695D01*
Y73368D01*
X697852Y77673D01*
X699971Y76257D01*
X699753Y75729D01*
Y72695D01*
X698000Y70942D01*
Y66800D01*
X700929Y63871D01*
X705071D01*
X708000Y66800D01*
Y70942D01*
X706247Y72695D01*
Y74384D01*
X708036Y76173D01*
X710983D01*
X712653Y73673D01*
X712474Y73240D01*
X710700Y71466D01*
Y67324D01*
X713629Y64395D01*
X717771D01*
X720700Y67324D01*
Y71466D01*
X720738Y71559D01*
X720998D01*
X723400Y69099D01*
Y67181D01*
X726329Y64252D01*
X730471D01*
X732224Y66005D01*
X837112D01*
X839408Y66956D01*
X849765Y77313D01*
X852265Y76277D01*
Y51503D01*
X853216Y49207D01*
X863294Y39129D01*
X862258Y36629D01*
X678109D01*
X677152Y38939D01*
X679777Y41564D01*
X680728Y43860D01*
Y64547D01*
X682354Y66173D01*
Y70315D01*
X679425Y73244D01*
X675283D01*
X672408Y70369D01*
X669908Y70445D01*
Y70823D01*
X666979Y73752D01*
X662837D01*
X662400Y73315D01*
X659900Y74351D01*
Y137892D01*
X664856Y142848D01*
X724965D01*
X726718Y141095D01*
X730860D01*
X733789Y144024D01*
Y148166D01*
X734071Y148848D01*
X737888D01*
X739291Y147445D01*
X743433D01*
X746362Y150374D01*
Y154516D01*
X743433Y157445D01*
X739291D01*
X737188Y155342D01*
X659986D01*
X657690Y154391D01*
X650166Y146867D01*
X649215Y144571D01*
Y57270D01*
X642423Y50478D01*
X556624D01*
Y51138D01*
X553695Y54067D01*
X549553D01*
X546624Y51138D01*
Y46996D01*
X546478Y46644D01*
X543940Y46359D01*
X541600Y48698D01*
Y69582D01*
X543353Y71335D01*
Y75477D01*
X540424Y78406D01*
X536282D01*
X533353Y75477D01*
Y71335D01*
X535106Y69582D01*
Y54744D01*
X534391Y54448D01*
X530249D01*
X527320Y51519D01*
Y49495D01*
X523899D01*
X520970Y46566D01*
Y44320D01*
X518470Y42623D01*
X517925Y42840D01*
Y43554D01*
X514996Y46483D01*
X511425D01*
Y48484D01*
X508496Y51413D01*
X504925D01*
Y53269D01*
X501996Y56198D01*
X497854D01*
X494925Y53269D01*
Y49127D01*
X496678Y47374D01*
Y30662D01*
X497629Y28366D01*
X511736Y14259D01*
X514032Y13308D01*
X655891D01*
X658187Y14259D01*
X661174Y17246D01*
X888503D01*
X888823Y16926D01*
X888999Y16853D01*
X891593Y14259D01*
X893889Y13308D01*
X896669D01*
X898422Y11555D01*
X902564D01*
X905493Y14484D01*
Y18626D01*
X903246Y20873D01*
X905366Y22993D01*
Y27135D01*
X903183Y29318D01*
X905366Y31502D01*
Y35644D01*
X903373Y37637D01*
X905493Y39757D01*
Y43899D01*
X902564Y46828D01*
X898422D01*
X896669Y45075D01*
X887666D01*
X885370Y44124D01*
X883456Y42210D01*
X880948Y42514D01*
X879513Y44615D01*
X881015Y46117D01*
Y50259D01*
X879007Y52267D01*
X880855Y54115D01*
Y58257D01*
X878801Y60311D01*
X880601Y62111D01*
Y66253D01*
X878736Y68118D01*
X880728Y70110D01*
Y74134D01*
X882579Y75819D01*
X929594Y28804D01*
X931890Y27853D01*
X1189325D01*
X1191621Y28804D01*
X1214468Y51651D01*
X1216778Y50694D01*
Y45398D01*
X1215025Y43645D01*
Y39503D01*
X1217081Y37446D01*
X1215025Y35390D01*
Y31248D01*
X1217208Y29065D01*
X1215025Y26881D01*
Y22739D01*
X1217208Y20556D01*
X1215025Y18372D01*
Y14230D01*
X1217954Y11301D01*
X1222096D01*
X1224095Y13300D01*
X1229288D01*
X1231584Y14251D01*
X1236417Y19084D01*
X1237368Y21380D01*
Y51924D01*
X1244151Y58707D01*
X1245102Y61003D01*
Y189841D01*
X1247602Y190877D01*
X1250005Y188474D01*
X1254561D01*
X1256719Y190632D01*
X1259004Y188347D01*
X1263560D01*
X1265472Y190259D01*
X1267984Y187748D01*
X1272540D01*
X1274646Y189854D01*
X1277118Y187382D01*
X1281674D01*
X1284896Y190604D01*
Y195161D01*
X1283184Y196872D01*
Y475923D01*
X1284961Y477700D01*
Y482256D01*
X1281739Y485478D01*
X1277183D01*
X1273961Y482256D01*
Y477700D01*
X1275608Y476053D01*
Y472412D01*
X1273108Y471377D01*
X1271706Y472778D01*
X1267150D01*
X1263928Y469556D01*
Y465000D01*
X1265915Y463013D01*
X1265746Y461699D01*
X1263959Y459951D01*
X1259403D01*
X1256181Y456729D01*
Y452173D01*
X1257494Y450860D01*
Y448099D01*
X1255344Y446997D01*
X1250894D01*
X1249560Y447549D01*
Y562724D01*
X1268322Y581486D01*
X1270801D01*
X1273612Y584297D01*
X1276112Y584130D01*
Y583571D01*
X1277865Y581818D01*
Y579800D01*
X1278816Y577504D01*
X1280340Y575980D01*
X1282636Y575029D01*
X1314513D01*
X1316809Y575980D01*
X1335965Y595136D01*
X1338275Y594179D01*
Y580852D01*
X1314962Y557540D01*
X1313853Y554861D01*
X1313853Y554861D01*
Y479304D01*
Y473167D01*
X1313853Y473167D01*
X1314962Y470488D01*
X1331738Y453712D01*
Y452761D01*
X1334667Y449832D01*
X1338809D01*
X1341738Y452761D01*
Y456903D01*
X1338809Y459832D01*
X1338398D01*
X1338094Y460286D01*
X1338301Y462786D01*
X1341230Y465715D01*
Y469857D01*
X1338482Y472605D01*
X1338542Y474641D01*
X1338609Y475159D01*
X1341484Y478034D01*
Y482176D01*
X1338555Y485105D01*
X1338389Y485468D01*
X1338301Y487932D01*
X1341230Y490861D01*
Y495003D01*
X1340018Y496215D01*
Y550500D01*
X1360085Y570566D01*
X1360085Y570566D01*
X1361194Y573245D01*
X1361194Y573245D01*
Y574052D01*
Y655543D01*
X1361194Y655543D01*
X1360085Y658222D01*
X1360085Y658222D01*
X1312081Y706225D01*
Y744901D01*
X1310972Y747580D01*
X1310972Y747580D01*
X1265333Y793219D01*
X1262654Y794328D01*
D02*
G37*
G36*
X315353Y864102D02*
X299102D01*
X297352Y862352D01*
Y849100D01*
X297247Y848995D01*
X247396D01*
X245351Y846950D01*
Y794100D01*
X261602D01*
X263352Y795850D01*
Y809102D01*
X297352D01*
X299102Y807352D01*
Y794100D01*
X315353D01*
Y864102D01*
D02*
G37*
G36*
X61578Y815207D02*
X51578D01*
X40480Y810610D01*
X35883Y799512D01*
X40480Y788415D01*
X51578Y783818D01*
X61578D01*
X72676Y788415D01*
X77273Y799512D01*
X72676Y810610D01*
X61578Y815207D01*
D02*
G37*
G36*
X895460Y796839D02*
X885460D01*
X878189Y793827D01*
X875177Y786556D01*
X878189Y779285D01*
X885460Y776273D01*
X895460D01*
X902731Y779285D01*
X905743Y786556D01*
X902731Y793827D01*
X895460Y796839D01*
D02*
G37*
G36*
X715192Y769958D02*
X710636D01*
X708924Y768246D01*
X683831D01*
X683831Y768246D01*
X681152Y767137D01*
X681152Y767137D01*
X670357Y756342D01*
X669248Y753663D01*
X669248Y753663D01*
Y712076D01*
X660521Y703349D01*
X529607D01*
X527954Y707340D01*
X520683Y710352D01*
X510683D01*
X503412Y707340D01*
X500400Y700069D01*
X503412Y692798D01*
X510683Y689786D01*
X520683D01*
X527954Y692798D01*
X529186Y695773D01*
X662090D01*
X662090Y695773D01*
X664769Y696882D01*
X675715Y707828D01*
X675715Y707828D01*
X676824Y710507D01*
X676824Y710507D01*
Y752094D01*
X685400Y760670D01*
X708924D01*
X710636Y758958D01*
X710716Y756458D01*
X709064Y754784D01*
X693356D01*
X690677Y753675D01*
X690677Y753675D01*
X684200Y747198D01*
X683091Y744519D01*
X683091Y744519D01*
Y689845D01*
X671195Y677949D01*
X529607D01*
X527954Y681940D01*
X520683Y684952D01*
X510683D01*
X503412Y681940D01*
X500400Y674669D01*
X503412Y667398D01*
X510683Y664386D01*
X520683D01*
X527954Y667398D01*
X529186Y670373D01*
X672764D01*
X672764Y670373D01*
X675443Y671482D01*
X689558Y685597D01*
X689558Y685597D01*
X690667Y688276D01*
Y742950D01*
X694925Y747208D01*
X709178D01*
X710890Y745496D01*
X715446D01*
X718668Y748718D01*
Y753274D01*
X715446Y756496D01*
X715284D01*
X715230Y758996D01*
X718414Y762180D01*
Y766736D01*
X715192Y769958D01*
D02*
G37*
G36*
X147644Y783123D02*
X137644D01*
X130373Y780111D01*
X127361Y772840D01*
X130373Y765569D01*
X137644Y762557D01*
X147644D01*
X154915Y765569D01*
X157927Y772840D01*
X154915Y780111D01*
X147644Y783123D01*
D02*
G37*
G36*
X312395Y750662D02*
X308253D01*
X307422Y749831D01*
X111823D01*
X111823Y749831D01*
X109144Y748722D01*
X109144Y748722D01*
X96571Y736149D01*
X95462Y733470D01*
X95462Y733470D01*
Y600800D01*
X84600Y589938D01*
X75704D01*
X72676Y597248D01*
X61578Y601845D01*
X51578D01*
X40480Y597248D01*
X35883Y586150D01*
X40480Y575052D01*
X51578Y570455D01*
X61578D01*
X72676Y575052D01*
X75704Y582362D01*
X86169D01*
X86169Y582362D01*
X88848Y583471D01*
X101929Y596552D01*
X103038Y599231D01*
X103038Y599231D01*
Y731901D01*
X113392Y742255D01*
X190615D01*
X191112Y739755D01*
X187936Y738439D01*
X184924Y731168D01*
X187936Y723897D01*
X195207Y720885D01*
X205207D01*
X212478Y723897D01*
X215490Y731168D01*
X212478Y738439D01*
X209302Y739755D01*
X209799Y742255D01*
X306660D01*
X308253Y740662D01*
X312395D01*
X315324Y743591D01*
Y747733D01*
X312395Y750662D01*
D02*
G37*
G36*
X399001Y822286D02*
X391700Y819262D01*
X388675Y811960D01*
Y802040D01*
X391700Y794738D01*
X399001Y791714D01*
X406303Y794738D01*
X409327Y802040D01*
Y803212D01*
X425090D01*
X432520Y795782D01*
Y729152D01*
X432520Y729152D01*
X433629Y726473D01*
X437820Y722282D01*
X437820Y722282D01*
X440499Y721173D01*
X502180D01*
X503412Y718198D01*
X510683Y715186D01*
X520683D01*
X527954Y718198D01*
X530966Y725469D01*
X527954Y732740D01*
X520683Y735752D01*
X510683D01*
X503412Y732740D01*
X501759Y728749D01*
X442068D01*
X440096Y730721D01*
Y797351D01*
X438987Y800030D01*
X438987Y800030D01*
X429338Y809679D01*
X426659Y810788D01*
X426659Y810788D01*
X409327D01*
Y811960D01*
X406303Y819262D01*
X399001Y822286D01*
D02*
G37*
G36*
X61578Y703445D02*
X51578D01*
X40480Y698848D01*
X35883Y687750D01*
X40480Y676652D01*
X51578Y672055D01*
X61578D01*
X72676Y676652D01*
X77273Y687750D01*
X72676Y698848D01*
X61578Y703445D01*
D02*
G37*
G36*
X745084Y680000D02*
X740942D01*
X738013Y677071D01*
Y672929D01*
X740274Y670668D01*
Y583304D01*
X729730Y572760D01*
X563932D01*
X561636Y571809D01*
X541900Y552073D01*
X540949Y549777D01*
Y501327D01*
X531037Y491415D01*
X464818D01*
X462522Y490464D01*
X445704Y473646D01*
X444753Y471350D01*
Y382365D01*
X445467Y380641D01*
X445494Y379742D01*
X443503Y377594D01*
X401936D01*
X397090Y382440D01*
Y536532D01*
X395981Y539211D01*
X395981Y539211D01*
X375303Y559889D01*
X372624Y560998D01*
X372624Y560998D01*
X291667D01*
X286934Y565731D01*
Y651891D01*
X289287Y654244D01*
X294214D01*
X295426Y653032D01*
X299568D01*
X302497Y655961D01*
Y660103D01*
X299568Y663032D01*
X295426D01*
X294214Y661820D01*
X287718D01*
X285039Y660711D01*
X285039Y660711D01*
X280467Y656139D01*
X279358Y653460D01*
X279358Y653460D01*
Y564162D01*
X279358Y564161D01*
X280467Y561483D01*
X284500Y557450D01*
X283543Y555140D01*
X252838D01*
X252390Y555588D01*
Y560007D01*
X253602Y561219D01*
Y565361D01*
X250673Y568290D01*
X246531D01*
X243602Y565361D01*
Y561219D01*
X244814Y560007D01*
Y554019D01*
X244814Y554019D01*
X245923Y551340D01*
X248590Y548673D01*
X248590Y548673D01*
X251269Y547564D01*
X369842D01*
X384514Y532892D01*
Y374949D01*
X384514Y374949D01*
X385623Y372270D01*
X388311Y369583D01*
X387354Y367273D01*
X360946D01*
X354846Y373373D01*
Y382102D01*
X357099Y384355D01*
Y388911D01*
X353877Y392133D01*
X349321D01*
X346099Y388911D01*
Y384355D01*
X348352Y382102D01*
Y372028D01*
X349303Y369732D01*
X353452Y365583D01*
X352495Y363273D01*
X187215D01*
X182316Y368172D01*
Y400101D01*
X181365Y402397D01*
X172037Y411725D01*
X169741Y412676D01*
X130638D01*
X129388Y414962D01*
Y419518D01*
X126166Y422740D01*
X121610D01*
X118388Y419518D01*
Y414962D01*
X120641Y412709D01*
Y412287D01*
X121592Y409991D01*
X124249Y407334D01*
X121592Y404677D01*
X120641Y402381D01*
Y402086D01*
X118388Y399833D01*
Y395277D01*
X121610Y392055D01*
X126166D01*
X129388Y395277D01*
Y399833D01*
X130575Y402182D01*
X166739D01*
X171822Y397099D01*
Y365170D01*
X172773Y362874D01*
X181917Y353730D01*
X184213Y352779D01*
X306330D01*
X307287Y350469D01*
X302948Y346130D01*
X301997Y343834D01*
Y335908D01*
X298506D01*
X291204Y332883D01*
X288180Y325582D01*
X291204Y318280D01*
X298506Y315256D01*
X308426D01*
X315728Y318280D01*
X318752Y325582D01*
X315728Y332883D01*
X308491Y335881D01*
Y342489D01*
X314781Y348779D01*
X426644D01*
X432871Y342552D01*
Y322891D01*
X428551Y318571D01*
X427600Y316275D01*
Y267593D01*
X425347Y265340D01*
Y260784D01*
X428569Y257562D01*
X433125D01*
X436347Y260784D01*
Y265340D01*
X434094Y267593D01*
Y298498D01*
X435507Y299083D01*
X439649D01*
X442086Y301521D01*
X444270Y299337D01*
X448412D01*
X451341Y302266D01*
Y306408D01*
X448412Y309337D01*
X447365D01*
Y323749D01*
X449865Y324785D01*
X450667Y323983D01*
X455223D01*
X456660Y325420D01*
X459160Y324384D01*
Y318809D01*
X460111Y316513D01*
X472138Y304486D01*
X474434Y303535D01*
X511824D01*
X514976Y300383D01*
Y282913D01*
X513278D01*
X510056Y279691D01*
Y275135D01*
X513278Y271913D01*
X517834D01*
X520509Y274588D01*
X523184Y271913D01*
X527740D01*
X530962Y275135D01*
Y279691D01*
X527740Y282913D01*
X525678D01*
Y303177D01*
X524727Y305473D01*
X517122Y313078D01*
X514826Y314030D01*
X477436D01*
X469654Y321811D01*
Y369615D01*
X469404Y370218D01*
X471075Y372718D01*
X473698D01*
X480242Y366174D01*
Y332703D01*
X479578D01*
X476649Y329774D01*
Y325632D01*
X479578Y322703D01*
X483720D01*
X485963Y324945D01*
X488205Y322703D01*
X492347D01*
X495276Y325632D01*
Y329774D01*
X492347Y332703D01*
X490736D01*
Y369176D01*
X489785Y371472D01*
X478996Y382261D01*
X476700Y383212D01*
X469086D01*
X463247Y389051D01*
Y465034D01*
X471133Y472921D01*
X537654D01*
X539950Y473872D01*
X558492Y492414D01*
X559443Y494710D01*
Y543461D01*
X570183Y554201D01*
X738314D01*
X740610Y555152D01*
X782712Y597254D01*
X829867D01*
X831620Y595501D01*
X835762D01*
X838691Y598430D01*
Y602572D01*
X839013Y603350D01*
X885610D01*
X887998Y600962D01*
X892140D01*
X895069Y603891D01*
Y608033D01*
X892140Y610962D01*
X887998D01*
X886880Y609844D01*
X781806D01*
X779510Y608893D01*
X756317Y585700D01*
X754007Y586657D01*
Y658476D01*
X755760Y660229D01*
Y664371D01*
X752831Y667300D01*
X748689D01*
X746768Y668096D01*
Y671684D01*
X748013Y672929D01*
Y677071D01*
X745084Y680000D01*
D02*
G37*
G36*
X401001Y745286D02*
X393700Y742262D01*
X390675Y734960D01*
Y725040D01*
X393700Y717738D01*
X401001Y714714D01*
X403022Y715551D01*
X411658Y706915D01*
X414337Y705806D01*
X414337Y705806D01*
X457345D01*
X472779Y690372D01*
Y656762D01*
X472779Y656762D01*
X473888Y654083D01*
X481381Y646590D01*
X484060Y645481D01*
X484060Y645481D01*
X501969D01*
X503412Y641998D01*
X510683Y638986D01*
X520683D01*
X527954Y641998D01*
X529397Y645481D01*
X573849D01*
X573849Y645481D01*
X576528Y646590D01*
X582022Y652085D01*
X615071D01*
X616783Y650373D01*
X621339D01*
X624561Y653595D01*
Y658151D01*
X621339Y661373D01*
X616783D01*
X615071Y659661D01*
X580453D01*
X580453Y659661D01*
X577774Y658552D01*
X577774Y658552D01*
X572280Y653057D01*
X529397D01*
X527954Y656540D01*
X520683Y659552D01*
X510683D01*
X503412Y656540D01*
X501969Y653057D01*
X485629D01*
X480355Y658331D01*
Y691941D01*
X479246Y694620D01*
X479246Y694620D01*
X461593Y712273D01*
X458914Y713382D01*
X458914Y713382D01*
X415906D01*
X409254Y720035D01*
X411327Y725040D01*
Y734960D01*
X408303Y742262D01*
X401001Y745286D01*
D02*
G37*
G36*
X520683Y634152D02*
X510683D01*
X503412Y631140D01*
X500400Y623869D01*
X503412Y616598D01*
X510683Y613586D01*
X520683D01*
X527954Y616598D01*
X530966Y623869D01*
X527954Y631140D01*
X520683Y634152D01*
D02*
G37*
G36*
Y608752D02*
X510683D01*
X503412Y605740D01*
X500400Y598469D01*
X503412Y591198D01*
X510683Y588186D01*
X520683D01*
X527954Y591198D01*
X530966Y598469D01*
X527954Y605740D01*
X520683Y608752D01*
D02*
G37*
G36*
X177775Y560035D02*
X173633D01*
X172421Y558823D01*
X104584D01*
X104584Y558823D01*
X101905Y557714D01*
X101905Y557714D01*
X83330Y539138D01*
X75704D01*
X72676Y546448D01*
X61578Y551045D01*
X51578D01*
X40480Y546448D01*
X35883Y535350D01*
X40480Y524252D01*
X51578Y519655D01*
X61578D01*
X72676Y524252D01*
X75704Y531562D01*
X84899D01*
X84899Y531562D01*
X87578Y532671D01*
X106153Y551247D01*
X172421D01*
X173633Y550035D01*
X177775D01*
X180704Y552964D01*
Y557106D01*
X177775Y560035D01*
D02*
G37*
G36*
X184260Y487721D02*
X174260D01*
X166989Y484709D01*
X163977Y477438D01*
X166989Y470167D01*
X174260Y467155D01*
X184260D01*
X191531Y470167D01*
X194543Y477438D01*
X191531Y484709D01*
X184260Y487721D01*
D02*
G37*
G36*
Y462321D02*
X174260D01*
X166989Y459309D01*
X163977Y452038D01*
X166989Y444767D01*
X174260Y441755D01*
X184260D01*
X191531Y444767D01*
X194543Y452038D01*
X191531Y459309D01*
X184260Y462321D01*
D02*
G37*
G36*
X109756Y441361D02*
X102714D01*
X97735Y436382D01*
Y429340D01*
X102714Y424361D01*
X109756D01*
X114735Y429340D01*
Y436382D01*
X109756Y441361D01*
D02*
G37*
G36*
X184260Y436921D02*
X174260D01*
X166989Y433909D01*
X163977Y426638D01*
X166989Y419367D01*
X174260Y416355D01*
X184260D01*
X191531Y419367D01*
X194543Y426638D01*
X191531Y433909D01*
X184260Y436921D01*
D02*
G37*
G36*
X328168Y464566D02*
X273558D01*
Y450596D01*
X276325Y447829D01*
X276985D01*
Y413829D01*
X275235Y412079D01*
X261983D01*
Y395828D01*
X331985D01*
Y412079D01*
X318733D01*
X316983Y413829D01*
Y447829D01*
X318733Y449579D01*
X331985D01*
Y460749D01*
X328168Y464566D01*
D02*
G37*
G36*
X109756Y391361D02*
X102714D01*
X97735Y386382D01*
Y379340D01*
X102714Y374361D01*
X109756D01*
X114735Y379340D01*
Y386382D01*
X109756Y391361D01*
D02*
G37*
G36*
X665924Y385025D02*
X658653Y382013D01*
X655641Y374742D01*
Y364742D01*
X658653Y357471D01*
X665924Y354459D01*
X673195Y357471D01*
X676207Y364742D01*
Y374742D01*
X673195Y382013D01*
X665924Y385025D01*
D02*
G37*
G36*
X615124D02*
X607853Y382013D01*
X604841Y374742D01*
Y364742D01*
X607853Y357471D01*
X611496Y355962D01*
Y346449D01*
X607429Y342382D01*
X590670D01*
X589713Y344692D01*
X592020Y346999D01*
X592971Y349295D01*
Y355804D01*
X596995Y357471D01*
X600007Y364742D01*
Y374742D01*
X596995Y382013D01*
X589724Y385025D01*
X582453Y382013D01*
X579441Y374742D01*
Y364742D01*
X582453Y357471D01*
X586477Y355804D01*
Y350640D01*
X582283Y346446D01*
X569531D01*
X567235Y345495D01*
X563298Y341558D01*
X562347Y339262D01*
Y338194D01*
X559169Y335016D01*
X558441D01*
X556188Y337269D01*
X551632D01*
X548410Y334047D01*
Y329491D01*
X550640Y327261D01*
X548029Y324649D01*
Y320093D01*
X551251Y316871D01*
X555807D01*
X558060Y319124D01*
X564705D01*
X567001Y320075D01*
X572589Y325663D01*
X573540Y327959D01*
Y334107D01*
X575321Y335888D01*
X608774D01*
X611070Y336839D01*
X617039Y342808D01*
X617990Y345104D01*
Y355647D01*
X622395Y357471D01*
X625407Y364742D01*
Y374742D01*
X622395Y382013D01*
X615124Y385025D01*
D02*
G37*
G36*
X466399Y295297D02*
X461843D01*
X459440Y292893D01*
X457036Y295297D01*
X452480D01*
X449258Y292075D01*
Y287519D01*
X452480Y284297D01*
X454397D01*
Y228339D01*
X426898Y200840D01*
X133476D01*
X131180Y199889D01*
X120195Y188904D01*
X119244Y186608D01*
Y176142D01*
X117209Y174107D01*
X97177D01*
X94924Y176360D01*
X90368D01*
X87146Y173138D01*
Y168582D01*
X89749Y165978D01*
X90195Y164668D01*
X89802Y163094D01*
X87273Y160565D01*
Y156009D01*
X90495Y152787D01*
X95051D01*
X97304Y155040D01*
X122618D01*
X124914Y155991D01*
X128851Y159928D01*
X129802Y162224D01*
Y182977D01*
X137171Y190346D01*
X429900D01*
X432196Y191297D01*
X463940Y223041D01*
X464891Y225337D01*
Y284297D01*
X466399D01*
X469621Y287519D01*
Y292075D01*
X466399Y295297D01*
D02*
G37*
G36*
X153406Y303717D02*
X147606D01*
X143506Y299617D01*
Y293818D01*
X147606Y289717D01*
X153406D01*
X157506Y293818D01*
Y299617D01*
X153406Y303717D01*
D02*
G37*
G36*
X79027Y305217D02*
X71985D01*
X67006Y300238D01*
Y293196D01*
X71985Y288217D01*
X79027D01*
X84006Y293196D01*
Y300238D01*
X79027Y305217D01*
D02*
G37*
G36*
X365760Y298196D02*
X332994D01*
X332359Y297561D01*
Y243459D01*
X333502Y242316D01*
X366776D01*
X368427Y243967D01*
Y250571D01*
X370332Y252476D01*
X389535D01*
X402743Y265684D01*
X422362D01*
X422790Y266112D01*
Y274100D01*
X422443Y274447D01*
X401439D01*
X387539Y288347D01*
X369386D01*
X368173Y289560D01*
Y295783D01*
X365760Y298196D01*
D02*
G37*
G36*
X52906Y311717D02*
X13506D01*
Y281717D01*
X28335D01*
Y274623D01*
X29762Y271179D01*
X45357Y255583D01*
Y241294D01*
X43228Y239165D01*
Y233365D01*
X47329Y229265D01*
X53127D01*
X57228Y233365D01*
Y239165D01*
X55099Y241294D01*
Y257601D01*
X53672Y261045D01*
X38077Y276640D01*
Y281717D01*
X52906D01*
Y311717D01*
D02*
G37*
G36*
X87330Y129969D02*
X75329D01*
X66910Y126482D01*
X63423Y118063D01*
X66910Y109644D01*
X75329Y106157D01*
X87330D01*
X95749Y109644D01*
X99236Y118063D01*
X95749Y126482D01*
X87330Y129969D01*
D02*
G37*
G36*
X476098Y209388D02*
X471956D01*
X469027Y206459D01*
Y202317D01*
X470780Y200564D01*
Y113531D01*
X462364Y105115D01*
X448448D01*
X448166Y105797D01*
Y109939D01*
X445919Y112186D01*
X447658Y113925D01*
Y118067D01*
X445486Y120239D01*
X447157Y121909D01*
Y126051D01*
X445224Y127984D01*
X447150Y129909D01*
Y134051D01*
X445021Y136180D01*
X446896Y138055D01*
Y142197D01*
X443967Y145126D01*
X439825D01*
X438072Y143373D01*
X335037D01*
X331859Y146551D01*
Y150526D01*
X334247Y152914D01*
Y157056D01*
X331318Y159985D01*
X327176D01*
X324247Y157056D01*
Y152914D01*
X325365Y151796D01*
Y145206D01*
X326316Y142910D01*
X331396Y137830D01*
X331643Y137727D01*
X331146Y135227D01*
X302670D01*
X298839Y139058D01*
Y151415D01*
X300973Y153549D01*
Y157691D01*
X298044Y160620D01*
X293902D01*
X290973Y157691D01*
Y153549D01*
X292345Y152177D01*
Y137713D01*
X293296Y135417D01*
X298985Y129727D01*
X298979Y129483D01*
X298427Y127227D01*
X281206D01*
X276741Y131692D01*
Y151796D01*
X278494Y153549D01*
Y157691D01*
X275565Y160620D01*
X271423D01*
X268494Y157691D01*
Y153549D01*
X270247Y151796D01*
Y130347D01*
X271198Y128051D01*
X277565Y121684D01*
X279861Y120733D01*
X311836D01*
X312792Y118423D01*
X312690Y118321D01*
Y114179D01*
X313254Y113615D01*
X312218Y111115D01*
X264806D01*
X255024Y120897D01*
Y151669D01*
X256777Y153422D01*
Y157564D01*
X253848Y160493D01*
X249706D01*
X246777Y157564D01*
Y153422D01*
X248530Y151669D01*
Y119552D01*
X249481Y117256D01*
X259122Y107615D01*
X258086Y105115D01*
X173637D01*
X170994Y107759D01*
X166851D01*
X163923Y104830D01*
Y100688D01*
X166851Y97759D01*
X170994D01*
X171856Y98621D01*
X463709D01*
X466005Y99572D01*
X476323Y109890D01*
X477274Y112186D01*
Y200564D01*
X479027Y202317D01*
Y206459D01*
X476098Y209388D01*
D02*
G37*
G36*
X87330Y54969D02*
X75329D01*
X66910Y51482D01*
X63423Y43063D01*
X66910Y34644D01*
X75329Y31157D01*
X87330D01*
X95749Y34644D01*
X99236Y43063D01*
X95749Y51482D01*
X87330Y54969D01*
D02*
G37*
%LPD*%
G36*
X1181848Y775563D02*
Y771420D01*
X1181857Y771412D01*
X1180900Y769102D01*
X1138781D01*
X1137848Y771354D01*
Y773067D01*
X1141198Y776418D01*
X1181494D01*
X1181848Y775563D01*
D02*
G37*
G36*
X1131876Y779252D02*
X1131258Y778425D01*
X1130777D01*
X1127848Y775496D01*
Y771354D01*
X1126915Y769102D01*
X1084796D01*
X1083839Y771412D01*
X1083848Y771420D01*
Y773134D01*
X1092466Y781752D01*
X1130624D01*
X1131876Y779252D01*
D02*
G37*
G36*
X1084441Y784442D02*
X1078491Y778492D01*
X1076777D01*
X1073848Y775563D01*
Y771420D01*
X1073857Y771412D01*
X1072900Y769102D01*
X1030796D01*
X1029839Y771412D01*
X1029848Y771420D01*
Y773134D01*
X1043466Y786752D01*
X1083484D01*
X1084441Y784442D01*
D02*
G37*
G36*
X963431Y756108D02*
X961533Y754210D01*
Y750068D01*
X964462Y747139D01*
X968604D01*
X971533Y750068D01*
Y752801D01*
X973340Y754608D01*
X1052951D01*
X1053907Y752298D01*
X1045390Y743781D01*
X1044439Y741485D01*
Y633027D01*
X1042686Y631274D01*
Y627132D01*
X1045615Y624203D01*
X1049757D01*
X1052686Y627132D01*
Y631274D01*
X1050933Y633027D01*
Y740140D01*
X1061401Y750608D01*
X1088249D01*
X1088914Y749003D01*
Y744861D01*
X1091843Y741932D01*
X1095985D01*
X1097738Y743685D01*
X1159262D01*
X1160219Y741375D01*
X1154483Y735639D01*
X1153532Y733343D01*
Y641028D01*
X1152287Y639783D01*
Y635641D01*
X1155216Y632712D01*
X1159358D01*
X1162287Y635641D01*
Y639783D01*
X1160026Y642044D01*
Y731998D01*
X1170636Y742608D01*
X1178219D01*
X1178688Y741475D01*
Y737333D01*
X1181617Y734404D01*
X1185759D01*
X1187512Y736157D01*
X1211603D01*
X1215361Y732398D01*
X1214273Y729951D01*
X1187812D01*
X1186059Y731704D01*
X1181917D01*
X1178988Y728775D01*
Y724633D01*
X1181917Y721704D01*
X1186059D01*
X1187812Y723457D01*
X1213889D01*
X1220051Y717294D01*
X1219889Y716080D01*
X1217246Y715187D01*
X1216133Y716300D01*
X1213837Y717251D01*
X1187792D01*
X1186039Y719004D01*
X1181897D01*
X1178968Y716075D01*
Y711933D01*
X1181897Y709004D01*
X1186039D01*
X1187792Y710757D01*
X1212492D01*
X1216651Y706598D01*
Y703428D01*
X1214341Y702471D01*
X1213212Y703600D01*
X1210916Y704551D01*
X1187492D01*
X1185739Y706304D01*
X1181597D01*
X1178668Y703375D01*
Y699233D01*
X1181597Y696304D01*
X1185739D01*
X1187492Y698057D01*
X1209571D01*
X1212421Y695207D01*
Y687973D01*
X1210111Y687016D01*
X1206227Y690900D01*
X1203931Y691851D01*
X1187712D01*
X1185959Y693604D01*
X1181817D01*
X1178888Y690675D01*
Y686533D01*
X1181817Y683604D01*
X1185959D01*
X1187712Y685357D01*
X1202586D01*
X1207888Y680055D01*
Y674472D01*
X1205578Y673515D01*
X1200893Y678200D01*
X1198597Y679151D01*
X1187892D01*
X1186139Y680904D01*
X1181997D01*
X1179068Y677975D01*
Y673833D01*
X1181997Y670904D01*
X1186139D01*
X1187892Y672657D01*
X1197252D01*
X1202398Y667510D01*
X1202255Y666531D01*
X1199827Y665532D01*
X1199587Y665568D01*
X1197454Y666451D01*
X1187592D01*
X1185839Y668204D01*
X1181697D01*
X1178768Y665275D01*
Y661133D01*
X1181697Y658204D01*
X1185839D01*
X1187592Y659957D01*
X1196109D01*
X1199252Y656814D01*
Y647675D01*
X1196942Y646718D01*
X1190860Y652800D01*
X1188564Y653751D01*
X1187612D01*
X1185859Y655504D01*
X1181717D01*
X1178788Y652575D01*
Y648433D01*
X1181717Y645504D01*
X1185859D01*
X1187415Y647060D01*
X1195061Y639415D01*
Y313315D01*
X1179121Y297375D01*
X1178170Y295079D01*
Y181641D01*
X1162542D01*
X1162332Y182148D01*
X1161586Y182458D01*
X1160649Y183394D01*
X1156507D01*
X1153578Y180465D01*
Y176323D01*
X1156507Y173394D01*
X1160649D01*
X1162402Y175147D01*
X1178170D01*
Y121516D01*
X1175670Y120480D01*
X1174757Y121394D01*
X1170200D01*
X1168489Y119682D01*
X1130384D01*
X1123916Y126149D01*
Y131372D01*
X1125628Y133083D01*
Y137640D01*
X1122406Y140862D01*
X1117850D01*
X1114628Y137640D01*
Y133083D01*
X1116340Y131372D01*
Y124580D01*
X1116340Y124580D01*
X1117449Y121901D01*
X1126136Y113215D01*
X1126136Y113215D01*
X1126162Y113204D01*
X1125664Y110704D01*
X1095928D01*
X1087916Y118715D01*
Y131372D01*
X1089628Y133083D01*
Y137640D01*
X1086406Y140862D01*
X1081850D01*
X1078628Y137640D01*
Y133083D01*
X1080340Y131372D01*
Y117146D01*
X1080340Y117146D01*
X1081449Y114467D01*
X1091680Y104237D01*
X1091680Y104237D01*
X1093487Y103488D01*
X1092989Y100988D01*
X1026014D01*
X1015854Y111149D01*
Y131372D01*
X1017566Y133083D01*
Y137640D01*
X1014344Y140862D01*
X1009787D01*
X1006565Y137640D01*
Y133083D01*
X1008277Y131372D01*
Y109580D01*
X1008277Y109579D01*
X1009387Y106901D01*
X1021054Y95233D01*
X1020047Y92733D01*
X989189D01*
X979916Y102006D01*
Y131372D01*
X981628Y133083D01*
Y137640D01*
X978406Y140862D01*
X973850D01*
X970628Y137640D01*
Y133083D01*
X972340Y131372D01*
Y100436D01*
X972340Y100436D01*
X973449Y97758D01*
X984941Y86266D01*
X984941Y86266D01*
X987619Y85157D01*
X1167394D01*
X1169106Y83445D01*
X1173662D01*
X1175670Y85453D01*
X1178170Y84417D01*
Y69081D01*
X1171436Y62347D01*
X944833D01*
X906759Y100421D01*
Y153998D01*
Y171651D01*
X905808Y173947D01*
X873001Y206754D01*
X870705Y207705D01*
X859455D01*
X839759Y227401D01*
Y231228D01*
X842069Y232185D01*
X847356Y226898D01*
X849652Y225947D01*
X939954D01*
X941707Y224194D01*
X945849D01*
X948778Y227123D01*
Y231265D01*
X945849Y234194D01*
X941707D01*
X939954Y232441D01*
X850997D01*
X843759Y239679D01*
Y242595D01*
X846069Y243552D01*
X850023Y239598D01*
X852319Y238647D01*
X939354D01*
X941107Y236894D01*
X945249D01*
X948178Y239823D01*
Y243965D01*
X945249Y246894D01*
X941107D01*
X939354Y245141D01*
X853664D01*
X847759Y251046D01*
Y256883D01*
X850069Y257840D01*
X855611Y252298D01*
X857907Y251347D01*
X939554D01*
X941307Y249594D01*
X945449D01*
X948378Y252523D01*
Y256665D01*
X945449Y259594D01*
X941307D01*
X939554Y257841D01*
X859252D01*
X851759Y265334D01*
Y268123D01*
X854069Y269080D01*
X858151Y264998D01*
X860447Y264047D01*
X939754D01*
X941507Y262294D01*
X945649D01*
X948578Y265223D01*
Y269365D01*
X945649Y272294D01*
X941507D01*
X939754Y270541D01*
X861792D01*
X855759Y276574D01*
Y298667D01*
X858069Y299624D01*
X861639Y296054D01*
X863935Y295103D01*
X883826D01*
X885579Y293350D01*
X889721D01*
X892650Y296279D01*
Y300421D01*
X889721Y303350D01*
X885579D01*
X883826Y301597D01*
X865280D01*
X861138Y305739D01*
X861247Y306040D01*
X862762Y308087D01*
X882842D01*
X884879Y306050D01*
X889021D01*
X891950Y308979D01*
Y313121D01*
X889021Y316050D01*
X884879D01*
X883410Y314581D01*
X864107D01*
X863759Y314929D01*
Y320131D01*
X866259Y321224D01*
X867999Y320503D01*
X883926D01*
X885679Y318750D01*
X889821D01*
X892750Y321679D01*
Y325821D01*
X889821Y328750D01*
X885679D01*
X883926Y326997D01*
X869344D01*
X865448Y330893D01*
X866405Y333203D01*
X883726D01*
X885479Y331450D01*
X889621D01*
X892550Y334379D01*
Y338521D01*
X889621Y341450D01*
X885479D01*
X883726Y339697D01*
X862301D01*
X819247Y382751D01*
Y428655D01*
X826810Y436218D01*
X841297D01*
X843050Y434465D01*
X847137D01*
X847274Y434407D01*
X849265Y433002D01*
Y430344D01*
X845693D01*
X842764Y427415D01*
Y423764D01*
X839409D01*
X836480Y420835D01*
Y417103D01*
X836282Y417021D01*
X832140D01*
X829211Y414092D01*
Y409950D01*
X832140Y407021D01*
X836282D01*
X838035Y408774D01*
X894715D01*
X901753Y401736D01*
Y317911D01*
X902704Y315615D01*
X928771Y289548D01*
X931068Y288597D01*
X931517D01*
X931517Y288597D01*
X961783D01*
X968881Y281499D01*
Y220539D01*
X968083Y219741D01*
X947602D01*
X945849Y221494D01*
X941707D01*
X938778Y218565D01*
Y214423D01*
X941707Y211494D01*
X945849D01*
X947602Y213247D01*
X969428D01*
X970242Y213584D01*
X972312Y212306D01*
X972502Y209810D01*
X969733Y207041D01*
X948002D01*
X946249Y208794D01*
X942107D01*
X939178Y205865D01*
Y201723D01*
X942107Y198794D01*
X946249D01*
X948002Y200547D01*
X971078D01*
X973374Y201498D01*
X975571Y203695D01*
X977881Y202738D01*
Y198189D01*
X974033Y194341D01*
X972702D01*
X970949Y196094D01*
X966807D01*
X963878Y193165D01*
Y189023D01*
X966807Y186094D01*
X970949D01*
X972702Y187847D01*
X975378D01*
X977674Y188798D01*
X979571Y190695D01*
X981881Y189738D01*
Y186189D01*
X977333Y181641D01*
X972502D01*
X970749Y183394D01*
X966607D01*
X963678Y180465D01*
Y176323D01*
X966607Y173394D01*
X970749D01*
X972502Y175147D01*
X978678D01*
X980974Y176098D01*
X987424Y182548D01*
X988598Y182782D01*
X998036Y173344D01*
X991895Y167203D01*
X990943Y164907D01*
Y139250D01*
X989128Y137435D01*
Y133293D01*
X991752Y130669D01*
X991832Y130475D01*
X992026Y130395D01*
X992057Y130364D01*
X992101D01*
X994128Y129524D01*
X996155Y130364D01*
X996199D01*
X996230Y130395D01*
X996424Y130475D01*
X996487Y130538D01*
X996567Y130732D01*
X999128Y133293D01*
Y137435D01*
X997438Y139125D01*
Y163562D01*
X1004924Y171048D01*
X1009023Y175147D01*
X1026303D01*
X1027339Y172647D01*
X1020832Y166140D01*
X1019881Y163844D01*
Y140173D01*
X1020832Y137877D01*
X1025641Y133068D01*
X1027937Y132117D01*
X1044242D01*
X1045689Y130669D01*
X1045769Y130475D01*
X1045963Y130395D01*
X1045994Y130364D01*
X1046038D01*
X1048065Y129524D01*
X1050093Y130364D01*
X1050137D01*
X1050168Y130395D01*
X1050362Y130475D01*
X1050442Y130669D01*
X1053065Y133293D01*
Y137435D01*
X1050137Y140364D01*
X1045994D01*
X1044242Y138611D01*
X1029282D01*
X1026375Y141518D01*
Y162499D01*
X1032473Y168597D01*
X1094128D01*
X1096424Y169548D01*
X1100424Y173548D01*
X1101375Y175844D01*
Y187844D01*
X1100424Y190140D01*
X1097424Y193140D01*
X1095128Y194091D01*
X1091952D01*
X1089949Y196094D01*
X1085807D01*
X1083804Y194091D01*
X999473D01*
X996375Y197189D01*
Y204738D01*
X998685Y205695D01*
X1002882Y201498D01*
X1005178Y200547D01*
X1084254D01*
X1086007Y198794D01*
X1090149D01*
X1091902Y200547D01*
X1106833D01*
X1110543Y196837D01*
Y159165D01*
X1099832Y148454D01*
X1098881Y146158D01*
Y139188D01*
X1097128Y137435D01*
Y133293D01*
X1099752Y130669D01*
X1099832Y130475D01*
X1100026Y130395D01*
X1100057Y130364D01*
X1100101D01*
X1102128Y129524D01*
X1104155Y130364D01*
X1104199D01*
X1104230Y130395D01*
X1104424Y130475D01*
X1104504Y130669D01*
X1107128Y133293D01*
Y137435D01*
X1105375Y139188D01*
Y144813D01*
X1116086Y155524D01*
X1117037Y157820D01*
Y198182D01*
X1116086Y200478D01*
X1110474Y206090D01*
X1108178Y207041D01*
X1091902D01*
X1090149Y208794D01*
X1086007D01*
X1084254Y207041D01*
X1006523D01*
X1000375Y213189D01*
Y220038D01*
X1002685Y220995D01*
X1009482Y214198D01*
X1011778Y213247D01*
X1083654D01*
X1085407Y211494D01*
X1089549D01*
X1091302Y213247D01*
X1117133D01*
X1122929Y207451D01*
Y149892D01*
X1123880Y147596D01*
X1128928Y142548D01*
X1131224Y141597D01*
X1150783D01*
X1152881Y139499D01*
Y139188D01*
X1151128Y137435D01*
Y133293D01*
X1153752Y130669D01*
X1153832Y130475D01*
X1154026Y130395D01*
X1154057Y130364D01*
X1154101D01*
X1156128Y129524D01*
X1158155Y130364D01*
X1158199D01*
X1158230Y130395D01*
X1158424Y130475D01*
X1158504Y130669D01*
X1161128Y133293D01*
Y137435D01*
X1159375Y139188D01*
Y140844D01*
X1158424Y143140D01*
X1154424Y147140D01*
X1152128Y148091D01*
X1132569D01*
X1129423Y151237D01*
Y208796D01*
X1128472Y211092D01*
X1120774Y218790D01*
X1118478Y219741D01*
X1091302D01*
X1089549Y221494D01*
X1085407D01*
X1083654Y219741D01*
X1013123D01*
X1004375Y228489D01*
Y231738D01*
X1006685Y232695D01*
X1012482Y226898D01*
X1014778Y225947D01*
X1083654D01*
X1085407Y224194D01*
X1089549D01*
X1092478Y227123D01*
Y231265D01*
X1089549Y234194D01*
X1085407D01*
X1083654Y232441D01*
X1016123D01*
X1008375Y240189D01*
Y242738D01*
X1010685Y243695D01*
X1014782Y239598D01*
X1017078Y238647D01*
X1084254D01*
X1086007Y236894D01*
X1090149D01*
X1093078Y239823D01*
Y243965D01*
X1090149Y246894D01*
X1086007D01*
X1084254Y245141D01*
X1018423D01*
X1012375Y251189D01*
Y253738D01*
X1014685Y254695D01*
X1017082Y252298D01*
X1019378Y251347D01*
X1084054D01*
X1085807Y249594D01*
X1089949D01*
X1092878Y252523D01*
Y256665D01*
X1089949Y259594D01*
X1085807D01*
X1084054Y257841D01*
X1020723D01*
X1016375Y262189D01*
Y266738D01*
X1018685Y267695D01*
X1021382Y264998D01*
X1023678Y264047D01*
X1084854D01*
X1086607Y262294D01*
X1090749D01*
X1093678Y265223D01*
Y269365D01*
X1090749Y272294D01*
X1086607D01*
X1084854Y270541D01*
X1025023D01*
X1020375Y275189D01*
Y293499D01*
X1026473Y299597D01*
X1120128D01*
X1122424Y300548D01*
X1131871Y309995D01*
X1132822Y312291D01*
Y357520D01*
X1134575Y359273D01*
Y363415D01*
X1131646Y366344D01*
X1127504D01*
X1124575Y363415D01*
Y359273D01*
X1126328Y357520D01*
Y313636D01*
X1118783Y306091D01*
X1101234D01*
X1100277Y308401D01*
X1105871Y313995D01*
X1106822Y316291D01*
Y357520D01*
X1108575Y359273D01*
Y363415D01*
X1105646Y366344D01*
X1101504D01*
X1098575Y363415D01*
Y359273D01*
X1100328Y357520D01*
Y317636D01*
X1092783Y310091D01*
X1075234D01*
X1074277Y312401D01*
X1080871Y318995D01*
X1081822Y321291D01*
Y355344D01*
Y357520D01*
X1083575Y359273D01*
Y363415D01*
X1080646Y366344D01*
X1076504D01*
X1073575Y363415D01*
Y359273D01*
X1075328Y357520D01*
Y355344D01*
Y322636D01*
X1066783Y314091D01*
X1054234D01*
X1053277Y316401D01*
X1054468Y317592D01*
X1055419Y319888D01*
Y355331D01*
X1055419Y355331D01*
Y357507D01*
X1057172Y359260D01*
Y363402D01*
X1054243Y366331D01*
X1050101D01*
X1047172Y363402D01*
Y359260D01*
X1048925Y357507D01*
Y355331D01*
X1048925Y355331D01*
Y321233D01*
X1045783Y318091D01*
X1032234D01*
X1030565Y320591D01*
X1030877Y321346D01*
Y357250D01*
X1032630Y359003D01*
Y363145D01*
X1029701Y366074D01*
X1025559D01*
X1022630Y363145D01*
Y359003D01*
X1024383Y357250D01*
Y322691D01*
X1023783Y322091D01*
X1017128D01*
X1014832Y321140D01*
X1007132Y313440D01*
X1004822Y314396D01*
Y357520D01*
X1006575Y359273D01*
Y363415D01*
X1003646Y366344D01*
X999504D01*
X996575Y363415D01*
Y359273D01*
X998327Y357520D01*
Y311636D01*
X994832Y308140D01*
X994183Y306574D01*
X991571Y305650D01*
X979587Y317634D01*
Y355579D01*
Y357285D01*
X981575Y359273D01*
Y363415D01*
X978646Y366344D01*
X974504D01*
X971575Y363415D01*
Y359273D01*
X973093Y357755D01*
Y355579D01*
Y316289D01*
X974044Y313993D01*
X975025Y313011D01*
X973609Y310892D01*
X973128Y311091D01*
X959473D01*
X954822Y315742D01*
Y355094D01*
Y357270D01*
X956575Y359023D01*
Y363165D01*
X953646Y366094D01*
X949504D01*
X946575Y363165D01*
Y359023D01*
X948327Y357270D01*
Y355094D01*
Y314397D01*
X949279Y312101D01*
X951979Y309401D01*
X951022Y307091D01*
X937383D01*
X920247Y324227D01*
Y418132D01*
X919296Y420428D01*
X906006Y433718D01*
X906023Y434114D01*
X906607Y436218D01*
X917690D01*
X925313Y428595D01*
Y386887D01*
X926264Y384591D01*
X938342Y372513D01*
X940638Y371562D01*
X1147065D01*
X1151328Y367299D01*
Y365168D01*
X1149575Y363415D01*
Y359273D01*
X1152504Y356344D01*
X1156646D01*
X1159575Y359273D01*
Y363415D01*
X1157822Y365168D01*
Y368644D01*
X1156871Y370940D01*
X1154559Y373252D01*
X1155516Y375562D01*
X1176212D01*
X1177327Y374446D01*
Y365168D01*
X1175575Y363415D01*
Y359273D01*
X1178504Y356344D01*
X1182646D01*
X1185575Y359273D01*
Y363415D01*
X1183822Y365168D01*
Y375791D01*
X1182871Y378087D01*
X1179853Y381105D01*
X1177557Y382056D01*
X944841D01*
X937649Y389248D01*
Y435528D01*
X936698Y437824D01*
X920026Y454496D01*
X917730Y455447D01*
X848024D01*
X846271Y457200D01*
X842129D01*
X840376Y455447D01*
X821200D01*
X818904Y454496D01*
X814811Y450404D01*
X812164Y451292D01*
X812008Y452415D01*
X821245Y461653D01*
X840076D01*
X841829Y459900D01*
X845971D01*
X847724Y461653D01*
X919070D01*
X921366Y462604D01*
X936825Y478063D01*
X937776Y480359D01*
Y518511D01*
X944383Y525118D01*
X1172955D01*
X1175251Y526069D01*
X1182871Y533689D01*
X1183822Y535985D01*
Y541195D01*
X1185575Y542948D01*
Y547090D01*
X1182646Y550019D01*
X1178504D01*
X1175575Y547090D01*
Y542948D01*
X1177327Y541195D01*
Y537330D01*
X1171610Y531612D01*
X1155947D01*
X1154990Y533922D01*
X1156871Y535803D01*
X1157822Y538099D01*
Y541195D01*
X1159575Y542948D01*
Y547090D01*
X1156646Y550019D01*
X1152504D01*
X1149575Y547090D01*
Y542948D01*
X1151328Y541195D01*
Y539444D01*
X1147496Y535612D01*
X941381D01*
X939085Y534661D01*
X939022Y534598D01*
X939022Y534598D01*
X928233Y523809D01*
X927282Y521513D01*
Y485197D01*
X922932Y480847D01*
X848424D01*
X846671Y482600D01*
X842529D01*
X840776Y480847D01*
X818600D01*
X816304Y479896D01*
X805557Y469149D01*
X803247Y470106D01*
Y509077D01*
X826781Y532611D01*
X913701D01*
X915997Y533562D01*
X942413Y559978D01*
X946018Y563583D01*
X948327Y562626D01*
Y548593D01*
X946575Y546840D01*
Y542698D01*
X949504Y539769D01*
X953646D01*
X956575Y542698D01*
Y546840D01*
X954822Y548593D01*
Y566730D01*
X965689Y577597D01*
X973235D01*
X974164Y575097D01*
X973327Y573078D01*
Y548843D01*
X971575Y547090D01*
Y542948D01*
X974504Y540019D01*
X978646D01*
X981575Y542948D01*
Y547090D01*
X979822Y548843D01*
Y571733D01*
X997018Y588929D01*
X999327Y587972D01*
Y548843D01*
X997575Y547090D01*
Y542948D01*
X1000504Y540019D01*
X1004646D01*
X1007575Y542948D01*
Y547090D01*
X1005822Y548843D01*
Y573785D01*
X1008322Y574821D01*
X1024327Y558815D01*
Y548843D01*
X1022575Y547090D01*
Y542948D01*
X1025504Y540019D01*
X1029646D01*
X1032575Y542948D01*
Y547090D01*
X1030822Y548843D01*
Y560160D01*
X1029871Y562456D01*
X1026040Y566287D01*
X1026997Y568597D01*
X1041089D01*
X1049327Y560358D01*
Y548843D01*
X1047575Y547090D01*
Y542948D01*
X1050504Y540019D01*
X1054646D01*
X1057575Y542948D01*
Y547090D01*
X1055822Y548843D01*
Y561703D01*
X1054871Y563999D01*
X1048583Y570287D01*
X1049540Y572597D01*
X1067696D01*
X1075328Y564965D01*
Y548843D01*
X1073575Y547090D01*
Y542948D01*
X1076504Y540019D01*
X1080646D01*
X1083575Y542948D01*
Y547090D01*
X1081822Y548843D01*
Y566310D01*
X1080871Y568606D01*
X1075190Y574287D01*
X1076147Y576597D01*
X1090239D01*
X1100328Y566508D01*
Y548843D01*
X1098575Y547090D01*
Y542948D01*
X1101504Y540019D01*
X1105646D01*
X1108575Y542948D01*
Y547090D01*
X1106822Y548843D01*
Y567853D01*
X1105871Y570149D01*
X1097733Y578287D01*
X1098690Y580597D01*
X1115830D01*
X1126328Y570099D01*
Y548843D01*
X1124575Y547090D01*
Y542948D01*
X1127504Y540019D01*
X1131646D01*
X1134575Y542948D01*
Y547090D01*
X1132822Y548843D01*
Y571444D01*
X1131871Y573740D01*
X1119471Y586140D01*
X1117175Y587091D01*
X1033049D01*
X1027623Y592517D01*
Y642775D01*
X1031535Y646686D01*
X1032717Y645504D01*
X1036859D01*
X1039788Y648433D01*
Y652575D01*
X1036859Y655504D01*
X1032717D01*
X1030964Y653751D01*
X1030760D01*
X1028464Y652800D01*
X1025933Y650269D01*
X1023623Y651226D01*
Y657571D01*
X1026009Y659957D01*
X1030944D01*
X1032697Y658204D01*
X1036839D01*
X1039768Y661133D01*
Y665275D01*
X1036839Y668204D01*
X1032697D01*
X1030944Y666451D01*
X1024664D01*
X1022368Y665500D01*
X1021933Y665065D01*
X1019623Y666022D01*
Y668811D01*
X1023469Y672657D01*
X1031244D01*
X1032997Y670904D01*
X1037139D01*
X1040068Y673833D01*
Y677975D01*
X1037139Y680904D01*
X1032997D01*
X1031244Y679151D01*
X1022124D01*
X1019828Y678200D01*
X1017933Y676305D01*
X1015623Y677262D01*
Y681067D01*
X1019913Y685357D01*
X1031544D01*
X1033297Y683604D01*
X1037439D01*
X1040368Y686533D01*
Y690675D01*
X1037439Y693604D01*
X1033297D01*
X1031544Y691851D01*
X1018568D01*
X1016272Y690900D01*
X1015795Y690423D01*
X1013082Y691246D01*
X1013001Y691653D01*
X1019405Y698057D01*
X1031379D01*
X1033132Y696304D01*
X1037274D01*
X1040203Y699233D01*
Y703375D01*
X1037274Y706304D01*
X1033132D01*
X1031379Y704551D01*
X1018060D01*
X1015764Y703600D01*
X1009933Y697769D01*
X1007623Y698726D01*
Y702658D01*
X1015722Y710757D01*
X1031464D01*
X1033217Y709004D01*
X1037359D01*
X1040288Y711933D01*
Y716075D01*
X1037359Y719004D01*
X1033217D01*
X1031464Y717251D01*
X1014377D01*
X1012081Y716300D01*
X1005997Y710216D01*
X1003497Y711252D01*
Y715931D01*
X1011163Y723597D01*
X1031304D01*
X1033057Y721844D01*
X1037199D01*
X1040128Y724773D01*
Y728915D01*
X1037199Y731844D01*
X1033057D01*
X1031304Y730091D01*
X1009818D01*
X1007522Y729140D01*
X1001807Y723425D01*
X999497Y724382D01*
Y731108D01*
X1004546Y736157D01*
X1030864D01*
X1032617Y734404D01*
X1036759D01*
X1039688Y737333D01*
Y741475D01*
X1036759Y744404D01*
X1032617D01*
X1030864Y742651D01*
X1003201D01*
X1000905Y741700D01*
X994346Y735141D01*
X987787Y741700D01*
X985491Y742651D01*
X969392D01*
X967639Y744404D01*
X963497D01*
X961744Y742651D01*
X927439D01*
X926482Y744961D01*
X940129Y758608D01*
X962395D01*
X963431Y756108D01*
D02*
G37*
G36*
X989003Y731300D02*
Y725463D01*
X986693Y724506D01*
X982199Y729000D01*
X979903Y729951D01*
X968812D01*
X967059Y731704D01*
X962917D01*
X961164Y729951D01*
X928525D01*
X926229Y729000D01*
X918624Y721395D01*
X916314Y722352D01*
Y727046D01*
X925425Y736157D01*
X961744D01*
X963497Y734404D01*
X967639D01*
X969392Y736157D01*
X984146D01*
X989003Y731300D01*
D02*
G37*
G36*
X985003Y717012D02*
Y713969D01*
X982693Y713012D01*
X979405Y716300D01*
X977109Y717251D01*
X968792D01*
X967039Y719004D01*
X962897D01*
X961144Y717251D01*
X930303D01*
X928007Y716300D01*
X923265Y711559D01*
X920786Y712514D01*
X920597Y714183D01*
X929870Y723457D01*
X961164D01*
X962917Y721704D01*
X967059D01*
X968812Y723457D01*
X978558D01*
X985003Y717012D01*
D02*
G37*
G36*
X981003Y705518D02*
Y703434D01*
X980532Y702569D01*
X977576Y702000D01*
X975976Y703600D01*
X973680Y704551D01*
X968412D01*
X966659Y706304D01*
X962517D01*
X960764Y704551D01*
X936907D01*
X934611Y703600D01*
X926624Y695613D01*
X924314Y696570D01*
Y703423D01*
X931648Y710757D01*
X961144D01*
X962897Y709004D01*
X967039D01*
X968792Y710757D01*
X975764D01*
X981003Y705518D01*
D02*
G37*
G36*
X977066Y693326D02*
Y692512D01*
X977129Y692360D01*
Y608323D01*
X968897Y600091D01*
X955256D01*
X952960Y599140D01*
X947198Y593378D01*
X944888Y594335D01*
Y639542D01*
X952603Y647257D01*
X960964D01*
X962717Y645504D01*
X966859D01*
X969788Y648433D01*
Y652575D01*
X966859Y655504D01*
X962717D01*
X960964Y653751D01*
X951258D01*
X948962Y652800D01*
X942624Y646462D01*
X940314Y647419D01*
Y652367D01*
X947904Y659957D01*
X960944D01*
X962697Y658204D01*
X966839D01*
X969768Y661133D01*
Y665275D01*
X966839Y668204D01*
X962697D01*
X960944Y666451D01*
X946559D01*
X944263Y665500D01*
X938624Y659861D01*
X936314Y660818D01*
Y663226D01*
X945745Y672657D01*
X961244D01*
X962997Y670904D01*
X967139D01*
X970068Y673833D01*
Y677975D01*
X967139Y680904D01*
X962997D01*
X961244Y679151D01*
X944400D01*
X942104Y678200D01*
X934624Y670720D01*
X932314Y671677D01*
Y675482D01*
X942189Y685357D01*
X961064D01*
X962817Y683604D01*
X966959D01*
X969888Y686533D01*
Y690675D01*
X966959Y693604D01*
X962817D01*
X961064Y691851D01*
X940844D01*
X938548Y690900D01*
X930624Y682976D01*
X928314Y683933D01*
Y688119D01*
X938252Y698057D01*
X960764D01*
X962517Y696304D01*
X966659D01*
X968412Y698057D01*
X972335D01*
X977066Y693326D01*
D02*
G37*
G36*
X1265038Y726791D02*
Y666174D01*
X1263285Y664421D01*
Y660279D01*
X1266214Y657350D01*
X1270356D01*
X1273285Y660279D01*
X1275785Y660997D01*
X1276239Y660694D01*
Y660279D01*
X1279168Y657350D01*
X1283310D01*
X1286239Y660279D01*
Y664421D01*
X1283310Y667350D01*
X1280831D01*
X1275532Y672649D01*
Y675565D01*
X1277842Y676522D01*
X1289568Y664796D01*
X1289193Y664421D01*
Y660279D01*
X1292122Y657350D01*
X1296264D01*
X1299155Y660241D01*
X1300416Y660260D01*
X1301677Y660241D01*
X1304568Y657350D01*
X1308710D01*
X1311639Y660279D01*
X1313219Y660933D01*
X1330060Y644092D01*
X1329778Y641559D01*
X1328268Y640934D01*
X1324126D01*
X1322373Y639181D01*
X1249743D01*
X1247447Y638230D01*
X1234472Y625255D01*
X1232162Y626212D01*
Y723437D01*
X1231211Y725733D01*
X1216836Y740108D01*
X1217872Y742608D01*
X1249221D01*
X1265038Y726791D01*
D02*
G37*
G36*
X1324126Y630934D02*
X1328268D01*
X1330316Y630086D01*
Y604640D01*
X1314692Y589016D01*
X1297636D01*
X1295883Y590769D01*
X1291741D01*
X1288812Y587840D01*
Y584108D01*
X1288612Y583980D01*
X1287012Y584523D01*
X1286112Y585382D01*
Y587713D01*
X1283183Y590642D01*
X1279041D01*
X1276230Y587831D01*
X1273730Y587998D01*
Y588557D01*
X1270801Y591486D01*
X1266659D01*
X1263730Y588557D01*
X1263347Y588306D01*
X1261093Y587713D01*
X1258164Y590642D01*
X1254022D01*
X1251093Y587713D01*
Y585234D01*
X1243870Y578011D01*
X1241560Y578968D01*
Y616301D01*
X1251850Y626591D01*
X1304435D01*
X1306473Y624553D01*
X1310615D01*
X1313544Y627482D01*
Y631624D01*
X1313984Y632687D01*
X1322373D01*
X1324126Y630934D01*
D02*
G37*
G36*
X752761Y530238D02*
X752753Y530219D01*
Y521615D01*
X750085Y518947D01*
X706545D01*
X697450Y528042D01*
Y530521D01*
X698368Y532738D01*
X751090D01*
X752761Y530238D01*
D02*
G37*
G36*
X764753Y500463D02*
Y496531D01*
X761353Y493131D01*
X696545D01*
X694411Y495265D01*
X690269D01*
X687340Y492336D01*
Y488194D01*
X690269Y485265D01*
X694411D01*
X695783Y486637D01*
X762698D01*
X764994Y487588D01*
X765411Y488005D01*
X768046Y487105D01*
X768216Y485771D01*
X763258Y480812D01*
X695910D01*
X694157Y482565D01*
X690015D01*
X687165Y479715D01*
X684665Y479827D01*
Y500701D01*
X687165Y500864D01*
X689979Y498050D01*
X694121D01*
X695874Y499803D01*
X759481D01*
X761777Y500754D01*
X762443Y501420D01*
X764753Y500463D01*
D02*
G37*
G36*
X676885Y517142D02*
X678171Y516609D01*
Y491009D01*
X675891Y489042D01*
X672743D01*
X671965Y489364D01*
Y514701D01*
X674406Y517142D01*
X676885D01*
D02*
G37*
G36*
X921621Y472043D02*
X917725Y468147D01*
X847724D01*
X845971Y469900D01*
X841829D01*
X840076Y468147D01*
X819900D01*
X817604Y467196D01*
X810811Y460404D01*
X808164Y461292D01*
X808008Y462415D01*
X819945Y474353D01*
X840776D01*
X842529Y472600D01*
X846671D01*
X848424Y474353D01*
X920664D01*
X921621Y472043D01*
D02*
G37*
G36*
X772753Y477856D02*
Y469733D01*
X771167Y468147D01*
X752824D01*
X751021Y469950D01*
X746879D01*
X743950Y467021D01*
Y462879D01*
X746879Y459950D01*
X751021D01*
X752724Y461653D01*
X772512D01*
X774253Y462374D01*
X776753Y461282D01*
Y458620D01*
X773580Y455447D01*
X752624D01*
X750871Y457200D01*
X746729D01*
X743800Y454271D01*
Y450129D01*
X746729Y447200D01*
X750871D01*
X752624Y448953D01*
X774925D01*
X777221Y449904D01*
X778443Y451126D01*
X780753Y450169D01*
Y446345D01*
X777155Y442747D01*
X752324D01*
X750571Y444500D01*
X746429D01*
X743500Y441571D01*
Y437429D01*
X746429Y434500D01*
X750571D01*
X752324Y436253D01*
X778500D01*
X780796Y437204D01*
X782443Y438851D01*
X784753Y437894D01*
Y417014D01*
X782443Y416057D01*
X775566Y422934D01*
X773270Y423885D01*
X695844D01*
X695562Y424567D01*
Y428709D01*
X692633Y431638D01*
X689900D01*
X684665Y436873D01*
Y475303D01*
X687165Y475415D01*
X690015Y472565D01*
X694157D01*
X695910Y474318D01*
X764603D01*
X766899Y475269D01*
X770443Y478813D01*
X772753Y477856D01*
D02*
G37*
G36*
X920545Y444793D02*
X919129Y442673D01*
X919035Y442712D01*
X848945D01*
X847192Y444465D01*
X843050D01*
X841297Y442712D01*
X825465D01*
X823169Y441761D01*
X817557Y436149D01*
X815247Y437106D01*
Y441655D01*
X822545Y448953D01*
X840376D01*
X842129Y447200D01*
X846271D01*
X848024Y448953D01*
X916385D01*
X920545Y444793D01*
D02*
G37*
G36*
X811028Y342007D02*
X810071Y339697D01*
X795514D01*
X795304Y340204D01*
X794557Y340513D01*
X793621Y341450D01*
X789479D01*
X788542Y340513D01*
X787796Y340204D01*
X787586Y339697D01*
X779266D01*
X778736Y342056D01*
X778734Y342197D01*
X786203Y349666D01*
X787154Y351962D01*
Y362614D01*
X789464Y363571D01*
X811028Y342007D01*
D02*
G37*
G36*
X817914Y329307D02*
X816957Y326997D01*
X795574D01*
X793821Y328750D01*
X789679D01*
X787926Y326997D01*
X756750D01*
X754454Y326046D01*
X746677Y318269D01*
X744037Y319165D01*
X743872Y320415D01*
X756659Y333203D01*
X787726D01*
X789479Y331450D01*
X793621D01*
X795374Y333203D01*
X814018D01*
X817914Y329307D01*
D02*
G37*
G36*
X829265Y312299D02*
Y309510D01*
X826955Y308553D01*
X822017Y313491D01*
X819721Y314442D01*
X795097D01*
X793344Y316195D01*
X789202D01*
X787449Y314442D01*
X758195D01*
X755899Y313491D01*
X750811Y308403D01*
X748164Y309292D01*
X748008Y310415D01*
X758095Y320503D01*
X787926D01*
X789679Y318750D01*
X793821D01*
X795574Y320503D01*
X821061D01*
X829265Y312299D01*
D02*
G37*
G36*
X789202Y306195D02*
X789525D01*
X789683Y303695D01*
X788015Y301996D01*
X760749D01*
X758453Y301045D01*
X753557Y296149D01*
X751247Y297106D01*
Y299655D01*
X759540Y307948D01*
X787449D01*
X789202Y306195D01*
D02*
G37*
G36*
X825265Y301059D02*
Y295603D01*
X822955Y294646D01*
X816556Y301045D01*
X814260Y301996D01*
X795732D01*
X793979Y303749D01*
X793656D01*
X793498Y306249D01*
X795166Y307948D01*
X818376D01*
X825265Y301059D01*
D02*
G37*
G36*
X821265Y287152D02*
Y226534D01*
X818955Y225578D01*
X796636Y247897D01*
X794340Y248848D01*
X746975D01*
X745940Y251348D01*
X754296Y259704D01*
X755247Y262000D01*
Y288655D01*
X762094Y295502D01*
X788084D01*
X789837Y293749D01*
X793979D01*
X795732Y295502D01*
X812915D01*
X821265Y287152D01*
D02*
G37*
G36*
X1249025Y255076D02*
Y198915D01*
X1247403Y197626D01*
X1245102Y198633D01*
Y254794D01*
X1246724Y256083D01*
X1249025Y255076D01*
D02*
G37*
G36*
X998128Y187597D02*
X1084304D01*
X1085807Y186094D01*
X1089949D01*
X1091452Y187597D01*
X1093783D01*
X1094881Y186499D01*
Y182178D01*
X1092381Y181172D01*
X1090163Y183389D01*
X1086021D01*
X1084273Y181641D01*
X1007678D01*
X1005382Y180690D01*
X1002628Y177936D01*
X993900Y186664D01*
X993947Y186898D01*
X994365Y187264D01*
X996748Y188168D01*
X998128Y187597D01*
D02*
G37*
%LPC*%
G36*
X1179928Y504127D02*
X1172657Y501115D01*
X1169645Y493844D01*
Y483844D01*
X1172657Y476573D01*
X1179928Y473561D01*
X1187199Y476573D01*
X1190211Y483844D01*
Y493844D01*
X1187199Y501115D01*
X1179928Y504127D01*
D02*
G37*
G36*
X1154528D02*
X1147257Y501115D01*
X1144245Y493844D01*
Y483844D01*
X1147257Y476573D01*
X1154528Y473561D01*
X1161799Y476573D01*
X1164811Y483844D01*
Y493844D01*
X1161799Y501115D01*
X1154528Y504127D01*
D02*
G37*
G36*
X1129128D02*
X1121857Y501115D01*
X1118845Y493844D01*
Y483844D01*
X1121857Y476573D01*
X1129128Y473561D01*
X1136399Y476573D01*
X1139411Y483844D01*
Y493844D01*
X1136399Y501115D01*
X1129128Y504127D01*
D02*
G37*
G36*
X1103728D02*
X1096457Y501115D01*
X1093445Y493844D01*
Y483844D01*
X1096457Y476573D01*
X1103728Y473561D01*
X1110999Y476573D01*
X1114011Y483844D01*
Y493844D01*
X1110999Y501115D01*
X1103728Y504127D01*
D02*
G37*
G36*
X1078328D02*
X1071057Y501115D01*
X1068045Y493844D01*
Y483844D01*
X1071057Y476573D01*
X1078328Y473561D01*
X1085599Y476573D01*
X1088611Y483844D01*
Y493844D01*
X1085599Y501115D01*
X1078328Y504127D01*
D02*
G37*
G36*
X1052928D02*
X1045657Y501115D01*
X1042645Y493844D01*
Y483844D01*
X1045657Y476573D01*
X1052928Y473561D01*
X1060199Y476573D01*
X1063211Y483844D01*
Y493844D01*
X1060199Y501115D01*
X1052928Y504127D01*
D02*
G37*
G36*
X1027528D02*
X1020257Y501115D01*
X1017245Y493844D01*
Y483844D01*
X1020257Y476573D01*
X1027528Y473561D01*
X1034799Y476573D01*
X1037811Y483844D01*
Y493844D01*
X1034799Y501115D01*
X1027528Y504127D01*
D02*
G37*
G36*
X1002128D02*
X994857Y501115D01*
X991845Y493844D01*
Y483844D01*
X994857Y476573D01*
X1002128Y473561D01*
X1009399Y476573D01*
X1012411Y483844D01*
Y493844D01*
X1009399Y501115D01*
X1002128Y504127D01*
D02*
G37*
G36*
X976728D02*
X969457Y501115D01*
X966445Y493844D01*
Y483844D01*
X969457Y476573D01*
X976728Y473561D01*
X983999Y476573D01*
X987011Y483844D01*
Y493844D01*
X983999Y501115D01*
X976728Y504127D01*
D02*
G37*
G36*
X951328D02*
X944057Y501115D01*
X941045Y493844D01*
Y483844D01*
X944057Y476573D01*
X951328Y473561D01*
X958599Y476573D01*
X961611Y483844D01*
Y493844D01*
X958599Y501115D01*
X951328Y504127D01*
D02*
G37*
G36*
X1179928Y429127D02*
X1172657Y426115D01*
X1169645Y418844D01*
Y408844D01*
X1172657Y401573D01*
X1179928Y398561D01*
X1187199Y401573D01*
X1190211Y408844D01*
Y418844D01*
X1187199Y426115D01*
X1179928Y429127D01*
D02*
G37*
G36*
X1154528D02*
X1147257Y426115D01*
X1144245Y418844D01*
Y408844D01*
X1147257Y401573D01*
X1154528Y398561D01*
X1161799Y401573D01*
X1164811Y408844D01*
Y418844D01*
X1161799Y426115D01*
X1154528Y429127D01*
D02*
G37*
G36*
X1129128D02*
X1121857Y426115D01*
X1118845Y418844D01*
Y408844D01*
X1121857Y401573D01*
X1129128Y398561D01*
X1136399Y401573D01*
X1139411Y408844D01*
Y418844D01*
X1136399Y426115D01*
X1129128Y429127D01*
D02*
G37*
G36*
X1103728D02*
X1096457Y426115D01*
X1093445Y418844D01*
Y408844D01*
X1096457Y401573D01*
X1103728Y398561D01*
X1110999Y401573D01*
X1114011Y408844D01*
Y418844D01*
X1110999Y426115D01*
X1103728Y429127D01*
D02*
G37*
G36*
X1078328D02*
X1071057Y426115D01*
X1068045Y418844D01*
Y408844D01*
X1071057Y401573D01*
X1078328Y398561D01*
X1085599Y401573D01*
X1088611Y408844D01*
Y418844D01*
X1085599Y426115D01*
X1078328Y429127D01*
D02*
G37*
G36*
X1052928D02*
X1045657Y426115D01*
X1042645Y418844D01*
Y408844D01*
X1045657Y401573D01*
X1052928Y398561D01*
X1060199Y401573D01*
X1063211Y408844D01*
Y418844D01*
X1060199Y426115D01*
X1052928Y429127D01*
D02*
G37*
G36*
X1027528D02*
X1020257Y426115D01*
X1017245Y418844D01*
Y408844D01*
X1020257Y401573D01*
X1027528Y398561D01*
X1034799Y401573D01*
X1037811Y408844D01*
Y418844D01*
X1034799Y426115D01*
X1027528Y429127D01*
D02*
G37*
G36*
X1002128D02*
X994857Y426115D01*
X991845Y418844D01*
Y408844D01*
X994857Y401573D01*
X1002128Y398561D01*
X1009399Y401573D01*
X1012411Y408844D01*
Y418844D01*
X1009399Y426115D01*
X1002128Y429127D01*
D02*
G37*
G36*
X976728D02*
X969457Y426115D01*
X966445Y418844D01*
Y408844D01*
X969457Y401573D01*
X976728Y398561D01*
X983999Y401573D01*
X987011Y408844D01*
Y418844D01*
X983999Y426115D01*
X976728Y429127D01*
D02*
G37*
G36*
X951328D02*
X944057Y426115D01*
X941045Y418844D01*
Y408844D01*
X944057Y401573D01*
X951328Y398561D01*
X958599Y401573D01*
X961611Y408844D01*
Y418844D01*
X958599Y426115D01*
X951328Y429127D01*
D02*
G37*
%LPD*%
G36*
X459160Y366613D02*
Y337082D01*
X456660Y335746D01*
X456192Y336059D01*
Y344850D01*
X455241Y347146D01*
X444189Y358198D01*
X445146Y360508D01*
X445847D01*
X448776Y363437D01*
Y367579D01*
X449021Y368171D01*
X449682D01*
X451874Y370363D01*
X454983Y370790D01*
X459160Y366613D01*
D02*
G37*
G36*
X123308Y167755D02*
Y163569D01*
X121273Y161534D01*
X97304D01*
X95669Y163169D01*
X95224Y164479D01*
X95617Y166053D01*
X97177Y167613D01*
X118554D01*
X120850Y168564D01*
X120998Y168712D01*
X123308Y167755D01*
D02*
G37*
D10*
X696849Y266065D02*
X697048Y265866D01*
X739866D01*
X744000Y270000D01*
X538353Y47353D02*
Y73406D01*
Y47353D02*
X542862Y42844D01*
X1246313Y261018D02*
Y564069D01*
X1268730Y586486D01*
X305244Y325582D02*
Y343834D01*
Y321696D02*
Y325582D01*
X781367Y600501D02*
X833691D01*
X738314Y557448D02*
X781367Y600501D01*
X743013Y674796D02*
X743521D01*
X734885Y565449D02*
X750760Y581324D01*
X565525Y565449D02*
X734885D01*
X750760Y581324D02*
Y661969D01*
X731075Y569513D02*
X743521Y581959D01*
Y674796D01*
X888428Y606597D02*
X889063Y605962D01*
X781806Y606597D02*
X888428D01*
X552196Y546463D02*
X567181Y561448D01*
X736657D02*
X781806Y606597D01*
X563932Y569513D02*
X731075D01*
X544196Y549777D02*
X563932Y569513D01*
X548196Y548120D02*
X565525Y565449D01*
X567181Y561448D02*
X736657D01*
X556196Y544806D02*
X568838Y557448D01*
X738314D01*
X487489Y329737D02*
Y369176D01*
X476700Y379965D02*
X487489Y369176D01*
X456000Y386049D02*
Y468036D01*
X351599Y372028D02*
X359601Y364026D01*
X433769D01*
X351599Y372028D02*
Y386633D01*
X305244Y343834D02*
X313436Y352026D01*
X427989D01*
X560514Y331769D02*
X565594Y336849D01*
Y339262D01*
X553910Y331769D02*
X560514D01*
X553529Y322371D02*
X564705D01*
X570293Y327959D02*
Y335452D01*
X564705Y322371D02*
X570293Y327959D01*
X569531Y343199D02*
X583628D01*
X565594Y339262D02*
X569531Y343199D01*
X583628D02*
X589724Y349295D01*
Y369742D01*
X614743Y345104D02*
Y376092D01*
X608774Y339135D02*
X614743Y345104D01*
X573976Y339135D02*
X608774D01*
X570293Y335452D02*
X573976Y339135D01*
X544196Y499982D02*
Y549777D01*
X532382Y488168D02*
X544196Y499982D01*
X534039Y484168D02*
X548196Y498325D01*
Y548120D01*
X468132Y480168D02*
X535997D01*
X552196Y496367D02*
Y546463D01*
X535997Y480168D02*
X552196Y496367D01*
X537654Y476168D02*
X556196Y494710D01*
Y544806D01*
X251777Y119552D02*
X263461Y107868D01*
X251777Y119552D02*
Y155493D01*
X273494Y130347D02*
X279861Y123980D01*
X273494Y130347D02*
Y155620D01*
X295592Y137713D02*
Y155239D01*
X295973Y155620D01*
X452945Y329483D02*
Y344850D01*
X433769Y364026D02*
X452945Y344850D01*
X444118Y306560D02*
Y347835D01*
X185870Y360026D02*
X431927D01*
X444118Y347835D01*
X660906Y41382D02*
X664908Y45384D01*
X651370Y41382D02*
X660906D01*
X664908Y45384D02*
Y68752D01*
X536257Y38018D02*
X648006D01*
X651370Y41382D01*
X671003Y37382D02*
X677481Y43860D01*
X653027Y37382D02*
X671003D01*
X535362Y33256D02*
X648901D01*
X677481Y43860D02*
Y68117D01*
X648901Y33256D02*
X653027Y37382D01*
X532320Y41955D02*
X536257Y38018D01*
X542862Y42844D02*
X645223D01*
X656653Y54274D01*
X849185Y425495D02*
X900493D01*
X913000Y362402D02*
Y412988D01*
X900493Y425495D02*
X913000Y412988D01*
X842200Y418764D02*
X898715D01*
X909000Y319568D02*
Y408479D01*
X898715Y418764D02*
X909000Y408479D01*
X854804Y431495D02*
X903637D01*
X917000Y322882D02*
Y418132D01*
X903637Y431495D02*
X917000Y418132D01*
X499925Y30662D02*
Y51198D01*
X514032Y16555D02*
X655891D01*
X499925Y30662D02*
X514032Y16555D01*
X506425Y32348D02*
Y46413D01*
Y32348D02*
X517519Y21254D01*
X659829Y20493D02*
X889848D01*
X655891Y16555D02*
X659829Y20493D01*
X657294Y24493D02*
X899795D01*
X654055Y21254D02*
X657294Y24493D01*
X517519Y21254D02*
X517836Y20937D01*
X653738D01*
X654055Y21254D01*
X652081Y24937D02*
X656526Y29382D01*
X889444D01*
X519493Y24937D02*
X652081D01*
X513366Y31064D02*
X519493Y24937D01*
X513366Y31064D02*
Y38090D01*
X654684Y33382D02*
X675200D01*
X650303Y29001D02*
X654684Y33382D01*
X879220D02*
X887666Y41828D01*
X675200Y33382D02*
X879220D01*
X525970Y29001D02*
X650303D01*
X519366Y35605D02*
X525970Y29001D01*
X525970Y40304D02*
X532955Y33319D01*
X535299D01*
X535362Y33256D01*
X525970Y40304D02*
Y44495D01*
X532320Y41955D02*
Y49448D01*
X656653Y54274D02*
Y139237D01*
X643768Y47231D02*
X652462Y55925D01*
Y144571D01*
X551624Y47231D02*
X643768D01*
X551624D02*
Y49067D01*
X1257193Y761855D02*
X1284287Y734761D01*
Y694457D02*
Y734761D01*
X1280285Y688704D02*
X1306639Y662350D01*
X1280285Y688704D02*
Y733107D01*
X1255536Y757855D02*
X1278826Y734566D01*
X1280285Y733107D01*
X1276285Y682671D02*
X1294193Y664763D01*
X1275270Y732465D02*
X1276285Y731450D01*
X1253880Y753855D02*
X1275270Y732465D01*
X1276285Y682671D02*
Y731450D01*
X1271587Y730491D02*
X1272285Y729793D01*
X1252223Y749855D02*
X1271587Y730491D01*
X1272285Y671304D02*
X1281239Y662350D01*
X1272285Y671304D02*
Y729793D01*
X1268285Y662350D02*
Y728136D01*
X1250566Y745855D02*
X1268285Y728136D01*
X1294193Y662350D02*
Y664763D01*
X1250505Y629838D02*
X1308544D01*
X1314513Y578276D02*
X1337563Y601326D01*
Y647809D01*
X1282636Y578276D02*
X1314513D01*
X1288793Y696579D02*
X1337563Y647809D01*
X1333563Y603295D02*
Y645181D01*
X1316037Y585769D02*
X1333563Y603295D01*
X1233614Y619805D02*
X1249743Y635934D01*
X1326197D01*
X1308544Y629553D02*
Y629838D01*
X1238313Y617646D02*
X1250505Y629838D01*
X1281112Y579800D02*
X1282636Y578276D01*
X1288793Y696579D02*
Y735912D01*
X1258850Y765855D02*
X1288793Y735912D01*
X937127Y765855D02*
X1258850D01*
X1293812Y585769D02*
X1316037D01*
X938784Y761855D02*
X1257193D01*
X971995Y757855D02*
X1255536D01*
X1284287Y694457D02*
X1333563Y645181D01*
X1281112Y579800D02*
Y585642D01*
X1242313Y531476D02*
Y571862D01*
X1256093Y585642D01*
X512925Y38632D02*
X513908D01*
X1238313Y266110D02*
Y617646D01*
X1233614Y267068D02*
Y619805D01*
X1060056Y753855D02*
X1253880D01*
X1164711Y746932D02*
X1167634Y749855D01*
X1093914Y746932D02*
X1164711D01*
X1167634Y749855D02*
X1252223D01*
X1169291Y745855D02*
X1250566D01*
X1242313Y262675D02*
Y531476D01*
X909067Y732138D02*
X938784Y761855D01*
X909067Y603799D02*
Y732138D01*
X951258Y650504D02*
X964788D01*
X941641Y640887D02*
X951258Y650504D01*
X941641Y589960D02*
Y640887D01*
X904811Y733539D02*
X937127Y765855D01*
X904811Y605200D02*
Y733539D01*
X887793Y588182D02*
X904811Y605200D01*
X755660Y541192D02*
X802650Y588182D01*
X887793D01*
X623633Y541192D02*
X755660D01*
X668718Y431776D02*
Y516046D01*
Y431776D02*
X683508Y416986D01*
X771613Y416638D02*
X779208Y409043D01*
Y357809D02*
Y409043D01*
X773603Y352204D02*
X779208Y357809D01*
X683856Y416638D02*
X771613D01*
X693047Y420638D02*
X773270D01*
X783907Y351962D02*
Y410001D01*
X773270Y420638D02*
X783907Y410001D01*
X683508Y416986D02*
X683856Y416638D01*
X685513Y420638D02*
X693047D01*
X684847Y421304D02*
X685513Y420638D01*
X674814Y431337D02*
Y484042D01*
Y431337D02*
X684847Y421304D01*
X760932Y352204D02*
X773603D01*
X776414Y344469D02*
X783907Y351962D01*
X754189Y344469D02*
X776414D01*
X681418Y435528D02*
Y529762D01*
Y435528D02*
X690435Y426511D01*
X681418Y529762D02*
X687641Y535985D01*
X668718Y516046D02*
X674814Y522142D01*
X687641Y535985D02*
X756109D01*
X804174Y584050D02*
X889318D01*
X909067Y603799D01*
X756109Y535985D02*
X804174Y584050D01*
X463709Y101868D02*
X474027Y112186D01*
X445651Y101868D02*
X463709D01*
X474027Y112186D02*
Y204388D01*
X168923Y102759D02*
X169813Y101868D01*
X440681D01*
X445651D01*
X430847Y316275D02*
X436118Y321546D01*
X430847Y263062D02*
Y316275D01*
X427989Y352026D02*
X436118Y343897D01*
Y321546D02*
Y343897D01*
X469789Y476168D02*
X537654D01*
X466475Y484168D02*
X534039D01*
X464818Y488168D02*
X532382D01*
X460000Y466380D02*
X469789Y476168D01*
X460000Y387706D02*
Y466380D01*
X456000Y468036D02*
X468132Y480168D01*
X452000Y384022D02*
Y469693D01*
X466475Y484168D01*
X448000Y382365D02*
Y471350D01*
X464818Y488168D01*
X448000Y382365D02*
X462407Y367958D01*
Y318809D02*
X474434Y306782D01*
X462407Y318809D02*
Y367958D01*
X476091Y310782D02*
X514826D01*
X466407Y320466D02*
X476091Y310782D01*
X466407Y320466D02*
Y369615D01*
X513169Y306782D02*
X518223Y301728D01*
X474434Y306782D02*
X513169D01*
X518223Y280080D02*
Y301728D01*
X522431Y280444D02*
Y303177D01*
X514826Y310782D02*
X522431Y303177D01*
X515556Y277413D02*
X518223Y280080D01*
X522431Y280444D02*
X525462Y277413D01*
X467741Y379965D02*
X476700D01*
X460000Y387706D02*
X467741Y379965D01*
X475043Y375965D02*
X483489Y367519D01*
X466084Y375965D02*
X475043D01*
X483489Y329543D02*
Y367519D01*
X456000Y386049D02*
X466084Y375965D01*
X452000Y384022D02*
X466407Y369615D01*
X126936Y405429D02*
X168084D01*
X123888Y402381D02*
X126936Y405429D01*
X123888Y397555D02*
Y402381D01*
Y412287D02*
Y417240D01*
X126746Y409429D02*
X169741D01*
X123888Y412287D02*
X126746Y409429D01*
X169741D02*
X179069Y400101D01*
X184213Y356026D02*
X429889D01*
X440118Y306623D02*
Y345797D01*
X429889Y356026D02*
X440118Y345797D01*
X444118Y306560D02*
X446341Y304337D01*
X437578Y304083D02*
X440118Y306623D01*
X179069Y366827D02*
X185870Y360026D01*
X179069Y366827D02*
Y400101D01*
X175069Y365170D02*
Y398444D01*
X168084Y405429D02*
X175069Y398444D01*
Y365170D02*
X184213Y356026D01*
X126555Y184322D02*
X135826Y193593D01*
X92773Y158287D02*
X122618D01*
X126555Y162224D02*
Y184322D01*
X122618Y158287D02*
X126555Y162224D01*
X91376Y171876D02*
X91630D01*
X92646Y170860D01*
X118554D01*
X122491Y174797D01*
X133476Y197593D02*
X428243D01*
X122491Y174797D02*
Y186608D01*
X133476Y197593D01*
X428243D02*
X457644Y226994D01*
X429900Y193593D02*
X461644Y225337D01*
X135826Y193593D02*
X429900D01*
X461644Y225337D02*
Y287320D01*
X464121Y289797D01*
X454758D02*
X457644Y286911D01*
Y226994D02*
Y286911D01*
X489623Y327603D02*
X490276D01*
X487489Y329737D02*
X489623Y327603D01*
X481649Y327703D02*
X483489Y329543D01*
X542607Y205658D02*
X554164D01*
X539305Y202356D02*
X542607Y205658D01*
X538000Y202356D02*
X539305D01*
X317690Y116250D02*
X317944Y115996D01*
X442658D01*
X333692Y140126D02*
X441896D01*
X328612Y145206D02*
Y154350D01*
Y145206D02*
X333692Y140126D01*
X295592Y137713D02*
X301325Y131980D01*
X328612Y154350D02*
X329247Y154985D01*
X301325Y131980D02*
X442150D01*
X279861Y123980D02*
X442157D01*
X263461Y107868D02*
X443166D01*
X722400Y245600D02*
X794340D01*
X820512Y219429D01*
X799407Y234877D02*
X804617Y229667D01*
X797750Y230877D02*
X800617Y228010D01*
X796093Y226877D02*
X846512Y176458D01*
X791135Y226877D02*
X796093D01*
X701940D02*
X791135D01*
X846512Y176458D02*
X859107D01*
X797315Y236968D02*
X799407Y234877D01*
X797315Y236968D02*
X797315D01*
X701962Y239866D02*
X794418D01*
X797315Y236968D01*
X804617Y229667D02*
X849826Y184458D01*
X862421D01*
X724459Y232969D02*
X795658D01*
X797750Y230877D01*
X800617Y228010D02*
X812512Y216115D01*
X828512Y240994D02*
Y302404D01*
X791273Y311195D02*
X819721D01*
X828512Y302404D01*
X824512Y221085D02*
Y288497D01*
X814260Y298749D02*
X824512Y288497D01*
X791908Y298749D02*
X814260D01*
X824547Y221050D02*
X853139Y192458D01*
X824512Y221085D02*
X824547Y221050D01*
X752000Y290000D02*
X760749Y298749D01*
X791908D01*
X692086Y477565D02*
X764603D01*
X772000Y484962D01*
X692340Y490265D02*
X692721Y489884D01*
X762698D01*
X768000Y495186D01*
X748497Y133995D02*
X760207Y145705D01*
X691924Y133995D02*
X748497D01*
X760207Y145705D02*
Y179886D01*
X750154Y129995D02*
X764207Y144048D01*
X700116Y129995D02*
X750154D01*
X764207Y144048D02*
Y181543D01*
X768207Y141952D02*
Y182140D01*
X718097Y125775D02*
X752030D01*
X768207Y141952D01*
X772207Y138967D02*
Y179861D01*
X753046Y119806D02*
X772207Y138967D01*
X778573Y186227D02*
Y195371D01*
X772207Y179861D02*
X778573Y186227D01*
X753935Y186158D02*
Y194990D01*
Y186158D02*
X760207Y179886D01*
X762053Y183697D02*
X764207Y181543D01*
X768207Y182140D02*
X770191Y184124D01*
X762053Y183697D02*
Y195117D01*
X770191Y184124D02*
Y195117D01*
X677100Y119171D02*
X691924Y133995D01*
X690308Y120187D02*
X700116Y129995D01*
X708850Y125775D02*
X713065D01*
X702754Y119679D02*
X708850Y125775D01*
X713096Y125806D02*
X718066D01*
X718097Y125775D01*
X713065D02*
X713096Y125806D01*
X715581Y119806D02*
X753046D01*
X847764Y425344D02*
X848550Y426130D01*
X854265Y431495D02*
X854535Y431226D01*
X854804Y431495D01*
X896060Y412021D02*
X905000Y403081D01*
X835330Y412021D02*
X896060D01*
X834211D02*
X835330D01*
X905573Y317339D02*
X931068Y291844D01*
X905000Y317911D02*
Y403081D01*
Y317911D02*
X905573Y317339D01*
X917000Y322882D02*
X936038Y303844D01*
X841480Y418764D02*
X841946D01*
X842073Y418891D02*
X842200Y418764D01*
X841946D02*
X842073Y418891D01*
X848550Y426130D02*
X849185Y425495D01*
X717931Y75420D02*
X833628D01*
X715700Y73189D02*
X717931Y75420D01*
X715700Y69395D02*
Y73189D01*
X703000Y75729D02*
X706691Y79420D01*
X703000Y68871D02*
Y75729D01*
X706691Y79420D02*
X830008D01*
X699071Y83484D02*
X824039D01*
X690300Y68871D02*
Y74713D01*
X699071Y83484D01*
X830135Y89580D02*
Y143809D01*
X824039Y83484D02*
X830135Y89580D01*
X842835Y84627D02*
Y134157D01*
X833628Y75420D02*
X842835Y84627D01*
X836810Y86222D02*
Y139420D01*
X830008Y79420D02*
X836810Y86222D01*
X837112Y69252D02*
X849512Y81652D01*
X728400Y69252D02*
X837112D01*
X849512Y81652D02*
Y129751D01*
X830132Y143809D02*
X830135D01*
X830126Y143815D02*
X830132Y143809D01*
X836512Y226056D02*
X858110Y204458D01*
X836512Y226056D02*
Y238651D01*
X858110Y204458D02*
X870705D01*
X845121Y439465D02*
X919035D01*
X928560Y429940D01*
Y386887D02*
Y429940D01*
X917730Y452200D02*
X934402Y435528D01*
Y387903D02*
Y435528D01*
X844200Y452200D02*
X917730D01*
X934402Y387903D02*
X943496Y378809D01*
X941318Y532302D02*
X941381Y532365D01*
X1148841D02*
X1154575Y538099D01*
X931989Y522973D02*
X941318Y532302D01*
X941381Y532365D02*
X1148841D01*
X943038Y528365D02*
X1172955D01*
X934529Y519856D02*
X943038Y528365D01*
X1172955D02*
X1180575Y535985D01*
X924277Y477600D02*
X930529Y483852D01*
Y521513D02*
X931989Y522973D01*
X930529Y483852D02*
Y521513D01*
X934529Y480359D02*
Y519856D01*
X919070Y464900D02*
X934529Y480359D01*
X843900Y464900D02*
X919070D01*
X928560Y386887D02*
X940638Y374809D01*
X931517Y291844D02*
X931517Y291844D01*
X932925D02*
X963128D01*
X931068Y291844D02*
X931517D01*
X931517Y291844D02*
X932925D01*
X933174Y295844D02*
X965120D01*
X933174Y295844D02*
X933174Y295844D01*
X909000Y319568D02*
X932724Y295844D01*
X933174D01*
X934831Y299844D02*
X968785D01*
X934831Y299844D02*
X934831Y299844D01*
X913000Y321225D02*
Y321675D01*
X934381Y299844D02*
X934831D01*
X913000Y321675D02*
Y362402D01*
Y321225D02*
X934381Y299844D01*
X936038Y303844D02*
X971128D01*
X984250Y703434D02*
X984313Y703371D01*
X984250Y703434D02*
Y706863D01*
X984313Y694169D02*
Y703371D01*
X964968Y714004D02*
X977109D01*
X984250Y706863D01*
X964588Y701304D02*
X973680D01*
X980313Y694671D01*
Y692512D02*
Y694671D01*
X980376Y606978D02*
Y692449D01*
X980313Y692512D02*
X980376Y692449D01*
X840512Y238334D02*
Y317115D01*
Y238334D02*
X849652Y229194D01*
X936135D01*
X943778D01*
X788000Y369627D02*
X840512Y317115D01*
X844512Y249701D02*
Y318772D01*
X852319Y241894D02*
X943178D01*
X844512Y249701D02*
X852319Y241894D01*
X792000Y371284D02*
X844512Y318772D01*
X848512Y263989D02*
Y320429D01*
Y263989D02*
X857907Y254594D01*
X943378D01*
X852512Y275229D02*
X860447Y267294D01*
X943578D01*
X852512Y275229D02*
Y322085D01*
X976128Y208844D02*
Y284836D01*
X965120Y295844D02*
X976128Y284836D01*
X814116Y560050D02*
X899259D01*
X933067Y593858D02*
Y664571D01*
X791750Y323750D02*
X822406D01*
X832512Y313644D01*
X903512Y99076D02*
Y153998D01*
X943488Y59100D02*
X949635D01*
X903512Y99076D02*
X943488Y59100D01*
X949635D02*
X1172781D01*
X1220017Y16547D02*
X1229288D01*
X1234121Y21380D02*
Y53269D01*
X1229288Y16547D02*
X1234121Y21380D01*
X1241855Y61003D02*
Y256560D01*
X1234121Y53269D02*
X1241855Y61003D01*
X1230121Y28302D02*
Y54925D01*
X1220025Y24810D02*
X1226629D01*
X1230121Y28302D01*
Y54925D02*
X1237855Y62660D01*
X1226121Y35097D02*
Y56582D01*
X1224343Y33319D02*
X1226121Y35097D01*
X1220025Y33319D02*
X1224343D01*
X1226121Y56582D02*
X1233855Y64316D01*
X1241855Y256560D02*
X1246313Y261018D01*
X1237855Y258217D02*
X1242313Y262675D01*
X1237855Y62660D02*
Y258217D01*
X1231613Y265022D02*
Y265067D01*
X1233614Y267068D01*
X1235613Y263410D02*
X1238313Y266110D01*
X1233855Y261607D02*
X1235613Y263365D01*
Y263410D01*
X1233855Y64316D02*
Y261607D01*
X1229855Y65973D02*
Y263264D01*
X1220025Y56143D02*
X1229855Y65973D01*
Y263264D02*
X1231613Y265022D01*
X1220025Y41574D02*
Y56143D01*
X893889Y16555D02*
X900493D01*
X891119Y19222D02*
X891222D01*
X893889Y16555D01*
X889848Y20493D02*
X891119Y19222D01*
X899795Y24493D02*
X900366Y25064D01*
X893635Y33573D02*
X900366D01*
X889444Y29382D02*
X893635Y33573D01*
X887666Y41828D02*
X900493D01*
X863512Y62045D02*
X868930Y56627D01*
X866827Y40188D02*
X875976D01*
X855512Y51503D02*
X866827Y40188D01*
X867082Y48188D02*
X876015D01*
X859512Y55758D02*
Y153426D01*
Y55758D02*
X867082Y48188D01*
X855512Y51503D02*
Y151769D01*
X868930Y56627D02*
X875414D01*
X875855Y56186D01*
X871512Y76397D02*
Y158396D01*
Y76397D02*
X875728Y72181D01*
X867512Y67062D02*
X870076Y64499D01*
X875285Y64499D01*
X875285Y64499D01*
X875285D02*
X875601Y64182D01*
X867512Y67062D02*
Y156740D01*
X875285Y64499D02*
X875285D01*
X863512Y62045D02*
Y155083D01*
X852480Y160458D02*
X859512Y153426D01*
X850823Y156458D02*
X855512Y151769D01*
X548576Y213024D02*
X561276D01*
X574929Y199371D02*
X588517D01*
X561276Y213024D02*
X574929Y199371D01*
X603567Y197784D02*
X608647D01*
X613094Y202231D01*
X792455D01*
X838228Y156458D01*
X794112Y206231D02*
X839884Y160458D01*
X601219Y206231D02*
X794112D01*
X590359Y195371D02*
X601219Y206231D01*
X795769Y210231D02*
X841541Y164458D01*
X599377Y210231D02*
X795769D01*
X588517Y199371D02*
X599377Y210231D01*
X797425Y214231D02*
X843198Y168458D01*
X597720Y214231D02*
X797425D01*
X591179Y207690D02*
X597720Y214231D01*
X583628Y207690D02*
X591179D01*
X799082Y218231D02*
X844855Y172458D01*
X843198Y168458D02*
X855793D01*
X591375Y218231D02*
X799082D01*
X844855Y172458D02*
X857450D01*
X583374Y207436D02*
X583628Y207690D01*
X554164Y205658D02*
X564451Y195371D01*
X590359D01*
X838228Y156458D02*
X850823D01*
X854136Y164458D02*
X863512Y155083D01*
X855793Y168458D02*
X867512Y156740D01*
X839884Y160458D02*
X852480D01*
X841541Y164458D02*
X854136D01*
X857450Y172458D02*
X871512Y158396D01*
X875512Y94132D02*
Y160053D01*
X859107Y176458D02*
X875512Y160053D01*
X812512Y216115D02*
X848169Y180458D01*
X879512Y143200D02*
Y161710D01*
X848169Y180458D02*
X860764D01*
X879512Y161710D01*
X883512Y93607D02*
Y163367D01*
X862421Y184458D02*
X883512Y163367D01*
X851482Y188458D02*
X864078D01*
X887512Y146122D02*
Y165024D01*
X820512Y219429D02*
X851482Y188458D01*
X864078D02*
X887512Y165024D01*
X853139Y192458D02*
X865734D01*
X891512Y166681D01*
X828512Y222742D02*
Y240994D01*
X854796Y196458D02*
X867391D01*
X828512Y222742D02*
X854796Y196458D01*
X867391D02*
X895512Y168337D01*
Y147774D02*
Y168337D01*
X856453Y200458D02*
X869048D01*
X832512Y224399D02*
Y237952D01*
X899512Y97419D02*
Y169994D01*
X832512Y224399D02*
X856453Y200458D01*
X869048D02*
X899512Y169994D01*
X832512Y237952D02*
Y313644D01*
X836512Y238651D02*
Y315458D01*
X903512Y153998D02*
Y171651D01*
X870705Y204458D02*
X903512Y171651D01*
X939215Y43100D02*
X1184354D01*
X938083D02*
X940605D01*
X935204Y39100D02*
X938019D01*
X937558D02*
X1186011D01*
X883512Y90792D02*
Y93607D01*
X895512Y98116D02*
Y147774D01*
X891512Y94105D02*
Y166681D01*
X887512Y93671D02*
Y146122D01*
X879512Y90876D02*
Y143200D01*
X513366Y38090D02*
X513908Y38632D01*
X512925D02*
Y41483D01*
X1042434Y571844D02*
X1052575Y561703D01*
Y545019D02*
Y561703D01*
X1021548Y571844D02*
X1042434D01*
X1069041Y575844D02*
X1078575Y566310D01*
Y545019D02*
Y566310D01*
X1024972Y575844D02*
X1069041D01*
X1028211Y579844D02*
X1091584D01*
X1103575Y545019D02*
Y567853D01*
X1091584Y579844D02*
X1103575Y567853D01*
X1129575Y545019D02*
Y571444D01*
X1031704Y583844D02*
X1117175D01*
X1129575Y571444D01*
X1024376Y591172D02*
X1031704Y583844D01*
X1024376Y591172D02*
Y644120D01*
X1020376Y587679D02*
X1028211Y579844D01*
X1020376Y587679D02*
Y658916D01*
X1016376Y584440D02*
Y670156D01*
Y584440D02*
X1024972Y575844D01*
X1024376Y644120D02*
X1030760Y650504D01*
X1034788D01*
X1024664Y663204D02*
X1034768D01*
X1020376Y658916D02*
X1024664Y663204D01*
X1016376Y670156D02*
X1022124Y675904D01*
X1035068D01*
X1012376Y581016D02*
Y682412D01*
Y581016D02*
X1021548Y571844D01*
X1008376Y579359D02*
X1027575Y560160D01*
Y545019D02*
Y560160D01*
X1008376Y579359D02*
Y691620D01*
X1012376Y682412D02*
X1018568Y688604D01*
X1035368D01*
X1008376Y691620D02*
X1018060Y701304D01*
X1035203D01*
X1004376Y593513D02*
Y704003D01*
X1014377Y714004D02*
X1035288D01*
X1004376Y704003D02*
X1014377Y714004D01*
X1002575Y591712D02*
X1004376Y593513D01*
X1002575Y545019D02*
Y591712D01*
X1009818Y726844D02*
X1035128D01*
X1000250Y710061D02*
Y717276D01*
X1009818Y726844D01*
X999553Y596162D02*
X1000313Y596922D01*
Y700796D02*
Y709998D01*
Y700796D02*
X1000376Y700733D01*
X999553Y596056D02*
Y596162D01*
X1000313Y598631D02*
X1000376Y598694D01*
X976575Y573078D02*
X999553Y596056D01*
X1000376Y598694D02*
Y700733D01*
X1000313Y596922D02*
Y598631D01*
X1000250Y710061D02*
X1000313Y709998D01*
X1003201Y739404D02*
X1034688D01*
X996250Y732453D02*
X1003201Y739404D01*
X996250Y708404D02*
Y732453D01*
X994473Y596739D02*
X996313Y598578D01*
X996250Y708404D02*
X996313Y708342D01*
Y598578D02*
Y600288D01*
X996376Y600351D01*
X996313Y699139D02*
Y708342D01*
X996376Y600351D02*
Y699076D01*
X979185Y581451D02*
X994473Y596739D01*
X996313Y699139D02*
X996376Y699076D01*
X985491Y739404D02*
X992250Y732645D01*
Y720014D02*
Y732645D01*
X965568Y739404D02*
X985491D01*
X992250Y706748D02*
X992313Y706685D01*
Y600235D02*
Y601945D01*
X992376Y602007D02*
Y697420D01*
X992250Y706748D02*
Y720014D01*
X976922Y584844D02*
X991933Y599855D01*
X992313Y697483D02*
X992376Y697420D01*
X991933Y599855D02*
X992313Y600235D01*
Y601945D02*
X992376Y602007D01*
X992313Y697483D02*
Y706685D01*
X988250Y601829D02*
X988313Y601892D01*
Y603601D02*
X988376Y603664D01*
Y695763D01*
X988313Y695826D02*
Y705028D01*
X975265Y588844D02*
X988250Y601829D01*
Y705091D02*
Y718357D01*
X988313Y695826D02*
X988376Y695763D01*
X988313Y601892D02*
Y603601D01*
X988250Y705091D02*
X988313Y705028D01*
X979903Y726704D02*
X988250Y718357D01*
X984313Y603549D02*
Y605258D01*
X973608Y592844D02*
X984313Y603549D01*
X984376Y605321D02*
Y694106D01*
X984313Y605258D02*
X984376Y605321D01*
X984313Y694169D02*
X984376Y694106D01*
X976575Y545019D02*
Y573078D01*
X978578Y580844D02*
X979185Y581451D01*
X964344Y580844D02*
X978578D01*
X951575Y568075D02*
X964344Y580844D01*
X951575Y544769D02*
Y568075D01*
X976530Y584844D02*
X976922D01*
X962687D02*
X976530D01*
X960083Y588844D02*
X974815D01*
X975265D01*
X956913Y592844D02*
X973608D01*
X964988Y726704D02*
X979903D01*
X955256Y596844D02*
X970242D01*
X980376Y606978D01*
X925326Y566914D02*
X955256Y596844D01*
X913701Y535858D02*
X940117Y562274D01*
X825436Y535858D02*
X913701D01*
X823779Y539858D02*
X911097D01*
X933346Y562107D01*
X822122Y543858D02*
X907927D01*
X929346Y565277D01*
X906462Y548050D02*
X925326Y566914D01*
X819086Y548050D02*
X906462D01*
X929346Y565277D02*
X956913Y592844D01*
X817429Y552050D02*
X903731D01*
X941641Y589960D01*
X933346Y562107D02*
X960083Y588844D01*
X940117Y562274D02*
X962687Y584844D01*
X825465Y439465D02*
X845121D01*
X816000Y430000D02*
X825465Y439465D01*
X844600Y477600D02*
X924277D01*
X815772Y556050D02*
X900916D01*
X937067Y592201D01*
X899259Y560050D02*
X933067Y593858D01*
X897602Y564050D02*
X929067Y595515D01*
X812459Y564050D02*
X897602D01*
X946559Y663204D02*
X964768D01*
X937067Y592201D02*
Y653712D01*
X946559Y663204D01*
X933067Y664571D02*
X944400Y675904D01*
X965068D01*
X913067Y728391D02*
X924080Y739404D01*
X913067Y603296D02*
Y728391D01*
X924080Y739404D02*
X965568D01*
X925067Y689464D02*
X936907Y701304D01*
X925067Y597172D02*
Y689464D01*
X936907Y701304D02*
X964588D01*
X940844Y688604D02*
X964888D01*
X929067Y595515D02*
Y676827D01*
X940844Y688604D01*
X895945Y568050D02*
X925067Y597172D01*
X810802Y568050D02*
X895945D01*
X921067Y598829D02*
Y704768D01*
X809145Y572050D02*
X891727D01*
X921067Y704768D02*
X921067D01*
X891727Y572050D02*
X894288D01*
X921067Y598829D01*
X917067Y602089D02*
Y715246D01*
X891028Y576050D02*
X892631D01*
X917067Y600485D02*
Y602089D01*
X807488Y576050D02*
X891028D01*
X892631D02*
X917067Y600485D01*
X889821Y580050D02*
X890975D01*
X913067Y602142D01*
Y603296D01*
X805831Y580050D02*
X889821D01*
X930303Y714004D02*
X964968D01*
X921067Y704768D02*
X930303Y714004D01*
X928525Y726704D02*
X964988D01*
X917067Y715246D02*
X928525Y726704D01*
X756000Y530219D02*
X805831Y580050D01*
X756000Y520270D02*
Y530219D01*
X760000Y528562D02*
X807488Y576050D01*
X760000Y513983D02*
Y528562D01*
X764000Y507569D02*
Y526905D01*
X809145Y572050D01*
X768000Y525248D02*
X810802Y568050D01*
X768000Y495186D02*
Y525248D01*
X772000Y523591D02*
X812459Y564050D01*
X772000Y484962D02*
Y523591D01*
X776000Y521935D02*
X814116Y560050D01*
X776000Y468388D02*
Y521935D01*
X780000Y520278D02*
X815772Y556050D01*
X780000Y457275D02*
Y520278D01*
X784000Y518621D02*
X817429Y552050D01*
X784000Y445000D02*
Y518621D01*
X788000Y516964D02*
X819086Y548050D01*
X788000Y369627D02*
Y516964D01*
X792000Y513736D02*
X822122Y543858D01*
X792000Y371284D02*
Y513736D01*
X796000Y372941D02*
Y512079D01*
X823779Y539858D01*
X800000Y510422D02*
X825436Y535858D01*
X800000Y374597D02*
Y510422D01*
X875512Y87478D02*
X931890Y31100D01*
X938544D01*
X875512Y87478D02*
Y94132D01*
X879512Y89135D02*
Y90876D01*
X935288Y35100D02*
X936554D01*
X879512Y89135D02*
X933547Y35100D01*
X935288D01*
X938019Y39100D02*
X939564D01*
X883512Y90792D02*
X935204Y39100D01*
X887512Y92449D02*
Y93671D01*
Y92449D02*
X936861Y43100D01*
X938083D01*
X938517Y47100D02*
X1181609D01*
X891512Y94105D02*
X938517Y47100D01*
X895512Y95762D02*
X940174Y51100D01*
X942528D01*
X895512Y95762D02*
Y98116D01*
X942528Y51100D02*
X944850D01*
X941831Y55100D02*
X945126D01*
X899512Y97419D02*
X941831Y55100D01*
X1156779Y733343D02*
X1169291Y745855D01*
X1156779Y638220D02*
Y733343D01*
Y638220D02*
X1157287Y637712D01*
X1047686Y741485D02*
X1060056Y753855D01*
X1047686Y629203D02*
Y741485D01*
X966533Y752139D02*
Y752393D01*
X971995Y757855D01*
X692250Y515750D02*
X699066Y508934D01*
X758195Y311195D02*
X791273D01*
X748000Y301000D02*
X758195Y311195D01*
X815363Y336450D02*
X836355Y315458D01*
X798793Y336450D02*
X815363D01*
X1186513Y190910D02*
X1187767Y189656D01*
X791550Y336450D02*
X798793D01*
X836355Y315458D02*
X836512D01*
X663511Y146095D02*
X728789D01*
X656653Y139237D02*
X663511Y146095D01*
X652462Y144571D02*
X659986Y152095D01*
X726304D01*
X741012D02*
X741362Y152445D01*
X731274Y152095D02*
X741012D01*
X726304D02*
X731274D01*
X754951Y508934D02*
X760000Y513983D01*
X699066Y508934D02*
X754951D01*
X1215668Y304298D02*
Y696552D01*
X1183668Y701304D02*
X1210916D01*
X1215668Y696552D01*
X1183968Y714004D02*
X1213837D01*
X1219898Y302559D02*
Y707943D01*
X1213837Y714004D02*
X1219898Y707943D01*
X1223962Y300908D02*
Y717976D01*
X1215234Y726704D02*
X1223962Y717976D01*
X1183988Y726704D02*
X1215234D01*
X1212948Y739404D02*
X1228915Y723437D01*
X1183688Y739404D02*
X1212948D01*
X1228915Y300019D02*
Y723437D01*
X1211135Y306496D02*
Y681400D01*
X1183888Y688604D02*
X1203931D01*
X1211135Y681400D01*
X1184068Y675904D02*
X1198597D01*
X1206563Y307893D02*
Y667938D01*
X1198597Y675904D02*
X1206563Y667938D01*
X1183768Y663204D02*
X1197454D01*
X1202499Y310179D02*
Y658159D01*
X1197454Y663204D02*
X1202499Y658159D01*
X751430Y515700D02*
X756000Y520270D01*
X705200Y515700D02*
X751430D01*
X759481Y503050D02*
X764000Y507569D01*
X749000Y464900D02*
X772512D01*
X776000Y468388D01*
X774925Y452200D02*
X780000Y457275D01*
X748800Y452200D02*
X774925D01*
X748500Y439500D02*
X778500D01*
X784000Y445000D01*
X677354Y68244D02*
X677481Y68117D01*
X692450Y528450D02*
X705200Y515700D01*
X740000Y321136D02*
X755314Y336450D01*
X740000Y312657D02*
Y321136D01*
X722000Y279000D02*
X734821D01*
X740000Y284179D01*
Y312657D01*
X755314Y336450D02*
X791550D01*
X1187767Y66847D02*
Y189656D01*
X867999Y323750D02*
X887750D01*
X1186513Y190910D02*
X1187417Y191815D01*
X808000Y377911D02*
X860512Y325399D01*
Y313584D02*
X862762Y311334D01*
X1176020Y55100D02*
X1187767Y66847D01*
X860956Y336450D02*
X887550D01*
X944185Y55100D02*
X1176020D01*
X816000Y381406D02*
X860956Y336450D01*
X804000Y376254D02*
X856512Y323742D01*
X800000Y374597D02*
X852512Y322085D01*
X804000Y376254D02*
Y463000D01*
X796000Y372941D02*
X848512Y320429D01*
X812000Y379749D02*
X867999Y323750D01*
X816000Y381406D02*
Y430000D01*
X812000Y379749D02*
Y443000D01*
X862762Y311334D02*
X886666D01*
X856512Y305773D02*
Y323742D01*
X860512Y313584D02*
Y325399D01*
X863935Y298350D02*
X887650D01*
X808000Y377911D02*
Y453000D01*
X856512Y305773D02*
X863935Y298350D01*
X721536Y259464D02*
X721540Y259460D01*
X942528Y51100D02*
X1178878D01*
X1023128Y140173D02*
X1027937Y135364D01*
X1023128Y140173D02*
Y163844D01*
X1027937Y135364D02*
X1048065D01*
Y132772D02*
Y135364D01*
X1102128Y132772D02*
Y135364D01*
Y146158D02*
X1113790Y157820D01*
X1108178Y203794D02*
X1113790Y198182D01*
X1102128Y135364D02*
Y146158D01*
X1113790Y157820D02*
Y198182D01*
X942844Y31100D02*
X1189325D01*
X934244D02*
X942844D01*
X983548Y35100D02*
X1187668D01*
X935901D02*
X983548D01*
X1225613Y267507D02*
X1225855Y267749D01*
X1189325Y31100D02*
X1225855Y67630D01*
Y267749D01*
X1225613Y296717D02*
X1228915Y300019D01*
X1225613Y267507D02*
Y296717D01*
X1219263Y284979D02*
Y296209D01*
X1223962Y300908D01*
X1213040Y295701D02*
X1219898Y302559D01*
X1213040Y241853D02*
Y295701D01*
X1206817Y295447D02*
X1215668Y304298D01*
X1206817Y229661D02*
Y295447D01*
X1200086D02*
X1211135Y306496D01*
X1200086Y216580D02*
Y295447D01*
X1187417Y295097D02*
X1202499Y310179D01*
X1193609Y294939D02*
X1206563Y307893D01*
X1187417Y191815D02*
Y295097D01*
X1193609Y203880D02*
Y294939D01*
X1183788Y650504D02*
X1188564D01*
X1181417Y67736D02*
Y295079D01*
X1188564Y650504D02*
X1198308Y640760D01*
Y311970D02*
Y640760D01*
X1181204Y178394D02*
X1181417Y178607D01*
X1158578Y178394D02*
X1181204D01*
X1181417Y295079D02*
X1198308Y311970D01*
X1180575Y535985D02*
Y545019D01*
X1154575Y538099D02*
Y545019D01*
X940638Y374809D02*
X1148410D01*
X1180575Y361344D02*
Y375791D01*
X1177557Y378809D02*
X1180575Y375791D01*
X943496Y378809D02*
X1177557D01*
X1148410Y374809D02*
X1154575Y368644D01*
Y361344D02*
Y368644D01*
X1219263Y230677D02*
Y255061D01*
Y284979D01*
X1187668Y35100D02*
X1219263Y66695D01*
Y230677D01*
X1213040Y66129D02*
Y241853D01*
X1186011Y39100D02*
X1213040Y66129D01*
X1206817Y65563D02*
Y229661D01*
X1184354Y43100D02*
X1206817Y65563D01*
X1200086Y65577D02*
Y216580D01*
X1181609Y47100D02*
X1200086Y65577D01*
X1193609Y65831D02*
Y203880D01*
X1178878Y51100D02*
X1193609Y65831D01*
X1172781Y59100D02*
X1181417Y67736D01*
X1158578Y178394D02*
X1160036Y179852D01*
X790092Y337908D02*
X791550Y336450D01*
X722000Y279000D02*
X723458Y280458D01*
X721634Y246366D02*
X722400Y245600D01*
X791550Y336450D02*
X793008Y337908D01*
X958128Y307844D02*
X973128D01*
X989128Y291844D01*
Y186844D02*
Y291844D01*
X951575Y314397D02*
Y355094D01*
Y314397D02*
X958128Y307844D01*
X1025128Y318844D02*
X1027630Y321346D01*
X1017128Y318844D02*
X1025128D01*
X1027630Y321346D02*
Y361074D01*
X1001128Y302844D02*
X1017128Y318844D01*
X1094128Y306844D02*
X1103575Y316291D01*
X1047128Y314844D02*
X1052172Y319888D01*
X1021814Y310844D02*
X1068128D01*
X1009128Y298158D02*
X1021814Y310844D01*
X1120128Y302844D02*
X1129575Y312291D01*
X1025128Y302844D02*
X1120128D01*
X1005128Y301187D02*
X1018785Y314844D01*
X1017128Y294844D02*
X1025128Y302844D01*
X1068128Y310844D02*
X1078575Y321291D01*
X1018785Y314844D02*
X1047128D01*
X1013128Y296501D02*
X1023471Y306844D01*
X1094128D01*
X1052172Y319888D02*
Y355331D01*
X1005128Y238844D02*
Y301187D01*
X1094128Y171844D02*
X1098128Y175844D01*
X1095128Y190844D02*
X1098128Y187844D01*
X1087878Y190844D02*
X1095128D01*
X1098128Y175844D02*
Y187844D01*
X1152128Y144844D02*
X1156128Y140844D01*
X1131224Y144844D02*
X1152128D01*
X1156128Y132772D02*
Y140844D01*
X1126176Y149892D02*
X1131224Y144844D01*
X1023128Y163844D02*
X1031128Y171844D01*
X1094128D01*
X1126176Y149892D02*
Y208796D01*
X1011778Y216494D02*
X1118478D01*
X1126176Y208796D01*
X1005128Y238844D02*
X1014778Y229194D01*
X1087478D01*
X1023678Y267294D02*
X1088678D01*
X1017128Y273844D02*
Y294844D01*
Y273844D02*
X1023678Y267294D01*
X997128Y305844D02*
X1001575Y310291D01*
Y361344D01*
X997128Y211844D02*
Y305844D01*
X1001128Y227144D02*
Y302844D01*
X1009128Y249844D02*
Y298158D01*
X1013128Y260844D02*
Y296501D01*
X1078575Y321291D02*
Y355344D01*
X1103575Y316291D02*
Y361344D01*
X1129575Y312291D02*
Y361344D01*
X1052172Y355331D02*
Y361331D01*
Y355331D02*
X1052172Y355331D01*
X1087478Y229194D02*
X1087478Y229194D01*
X997128Y211844D02*
X1005178Y203794D01*
X1088078D01*
X1088678Y267294D02*
X1088678Y267294D01*
X1013128Y260844D02*
X1019378Y254594D01*
X1087878D01*
X1087878Y254594D01*
X1078575Y355344D02*
Y361344D01*
X1009128Y249844D02*
X1017078Y241894D01*
X1088078D01*
X1088078Y241894D01*
X976340Y316289D02*
Y355579D01*
Y316289D02*
X993128Y299501D01*
X976340Y355579D02*
Y361109D01*
X976575Y361344D01*
X998128Y190844D02*
X1087878D01*
X993128Y195844D02*
X998128Y190844D01*
X993128Y195844D02*
Y299501D01*
X951575Y355094D02*
Y361094D01*
X989128Y186844D02*
X1002628Y173344D01*
Y173344D02*
Y173344D01*
X748000Y265000D02*
Y301000D01*
X752000Y262000D02*
Y290000D01*
X742866Y252866D02*
X752000Y262000D01*
X701962Y252866D02*
X742866D01*
X742460Y259460D02*
X748000Y265000D01*
X744000Y311000D02*
X756750Y323750D01*
X744000Y270000D02*
Y311000D01*
X721540Y259460D02*
X742460D01*
X756750Y323750D02*
X791750D01*
X821200Y452200D02*
X844200D01*
X812000Y443000D02*
X821200Y452200D01*
X886666Y311334D02*
X886950Y311050D01*
X721438Y259366D02*
X721536Y259464D01*
X818600Y477600D02*
X844600D01*
X804000Y463000D02*
X818600Y477600D01*
X808000Y453000D02*
X819900Y464900D01*
X843900D01*
X1088088Y178394D02*
X1088092Y178389D01*
X1088078Y203794D02*
X1108178D01*
X692050Y503050D02*
X759481D01*
X968878Y191094D02*
X975378D01*
X968678Y178394D02*
X978678D01*
X943778Y216494D02*
X969428D01*
X972128Y219194D01*
Y282844D01*
X944178Y203794D02*
X971078D01*
X994128Y132772D02*
X994191Y132834D01*
Y164907D01*
X1007678Y178394D02*
X1088088D01*
X748950Y464950D02*
X749000Y464900D01*
X994191Y164907D02*
X1002628Y173344D01*
X1007678Y178394D01*
X1001128Y227144D02*
X1011778Y216494D01*
X963128Y291844D02*
X972128Y282844D01*
X971078Y203794D02*
X976128Y208844D01*
X975378Y191094D02*
X981128Y196844D01*
Y287501D01*
X968785Y299844D02*
X981128Y287501D01*
X985128Y184844D02*
Y289844D01*
X978678Y178394D02*
X985128Y184844D01*
X971128Y303844D02*
X985128Y289844D01*
D13*
X33206Y274623D02*
Y296717D01*
Y274623D02*
X50228Y257601D01*
Y236265D02*
Y257601D01*
D19*
X673036Y710507D02*
Y753663D01*
X515683Y699561D02*
X662090D01*
X673036Y710507D01*
X515683Y674161D02*
X672764D01*
X686879Y688276D02*
Y744519D01*
X672764Y674161D02*
X686879Y688276D01*
X801878Y803910D02*
X802087Y803701D01*
X872807D01*
X881062Y811956D01*
X901651Y843280D02*
X917003Y858632D01*
X839619Y855625D02*
X851964Y843280D01*
X901651D01*
X917003Y858632D02*
Y862883D01*
X839619Y855625D02*
Y863010D01*
X865019D02*
Y872065D01*
X874679Y881725D01*
X932657D02*
X942403Y871979D01*
X874679Y881725D02*
X932657D01*
X942403Y862883D02*
Y871979D01*
X283146Y564161D02*
X290098Y557210D01*
X283146Y564161D02*
Y653460D01*
X290098Y557210D02*
X372624D01*
X393302Y536532D01*
X287718Y658032D02*
X297497D01*
X283146Y653460D02*
X287718Y658032D01*
X400367Y373806D02*
X446976D01*
X393302Y380871D02*
X400367Y373806D01*
X393302Y380871D02*
Y536532D01*
X446976Y373806D02*
X447611Y373171D01*
X394525Y368726D02*
X440557D01*
X443776Y365508D01*
X251269Y551352D02*
X371411D01*
X388302Y534461D01*
Y374949D02*
Y534461D01*
X248602Y554019D02*
X251269Y551352D01*
X248602Y554019D02*
Y563290D01*
X388302Y374949D02*
X394525Y368726D01*
X99250Y733470D02*
X111823Y746043D01*
X99250Y599231D02*
Y733470D01*
X86169Y586150D02*
X99250Y599231D01*
X57975Y535350D02*
X84899D01*
X104584Y555035D02*
X175704D01*
X84899Y535350D02*
X104584Y555035D01*
X111823Y746043D02*
X309943D01*
X310324Y745662D01*
X881062Y811956D02*
X890460D01*
X57975Y586150D02*
X86169D01*
X484060Y649269D02*
X515683D01*
X476567Y656762D02*
X484060Y649269D01*
X515683D02*
X573849D01*
X580453Y655873D01*
X476567Y656762D02*
Y691941D01*
X458914Y709594D02*
X476567Y691941D01*
X436308Y729152D02*
X440499Y724961D01*
X512656D01*
X1357406Y573245D02*
Y574052D01*
Y655543D01*
X1336230Y492932D02*
Y552069D01*
X1357406Y573245D01*
X1328737Y551647D02*
X1352406Y575316D01*
Y578450D01*
Y653472D01*
X1328737Y487852D02*
Y551647D01*
X1322641Y552622D02*
X1347406Y577387D01*
Y651401D01*
X1322641Y481375D02*
Y552622D01*
X1342063Y579283D02*
Y649673D01*
X1317641Y554861D02*
X1342063Y579283D01*
X1317641Y479304D02*
Y554861D01*
Y473167D02*
X1335849Y454959D01*
X1317641Y473167D02*
Y479304D01*
X1336103Y454705D02*
X1336611D01*
X1336738Y454832D01*
X1335849Y454959D02*
X1336103Y454705D01*
X1328737Y487852D02*
X1336484Y480105D01*
X1279396Y479913D02*
X1279461Y479978D01*
X1279396Y192882D02*
Y479913D01*
X1322641Y481375D02*
X1336230Y467786D01*
X1308293Y704656D02*
Y744901D01*
Y704656D02*
X1357406Y655543D01*
X1024848Y773492D02*
X1041897Y790540D01*
X1262654D01*
X1308293Y744901D01*
X1090897Y785540D02*
X1260583D01*
X1078848Y773492D02*
X1090897Y785540D01*
X1303293Y702585D02*
Y742830D01*
X1260583Y785540D02*
X1303293Y742830D01*
X1258760Y780206D02*
X1260474Y778492D01*
X1139629Y780206D02*
X1258760D01*
X1298293Y700514D02*
Y740759D01*
X1260561Y778492D02*
X1298293Y740759D01*
X1260474Y778492D02*
X1260561D01*
X1298293Y700514D02*
X1347406Y651401D01*
X1252813Y194504D02*
Y441138D01*
X1253172Y441497D01*
X1270262Y193248D02*
Y466444D01*
X1269428Y467278D02*
X1270262Y466444D01*
X1303293Y702585D02*
X1352406Y653472D01*
X1293293Y698443D02*
X1342063Y649673D01*
X1186848Y773492D02*
X1258490D01*
X1293293Y738688D01*
Y698443D02*
Y738688D01*
X1132848Y773425D02*
X1139629Y780206D01*
X1261282Y454052D02*
X1261681Y454451D01*
X1261282Y193847D02*
Y454052D01*
X1252283Y193974D02*
X1252813Y194504D01*
X401001Y722930D02*
Y730000D01*
Y722930D02*
X414337Y709594D01*
X458914D01*
X686879Y744519D02*
X693356Y750996D01*
X713168D01*
X673036Y753663D02*
X683831Y764458D01*
X712914D01*
X580453Y655873D02*
X619061D01*
X399001Y807000D02*
X426659D01*
X436308Y797351D01*
Y729152D02*
Y797351D01*
X1120128Y124580D02*
X1128814Y115894D01*
X1120128Y124580D02*
Y132769D01*
X1128814Y115894D02*
X1172478D01*
X1084128Y117146D02*
X1094358Y106916D01*
X1084128Y117146D02*
Y132769D01*
X1094358Y106916D02*
X1171849D01*
X987619Y88945D02*
X1171384D01*
X1171356Y97200D02*
X1172074Y97919D01*
X1024445Y97200D02*
X1171356D01*
X976128Y100436D02*
Y132769D01*
Y100436D02*
X987619Y88945D01*
X1012066Y109579D02*
X1024445Y97200D01*
X1012066Y109579D02*
Y132769D01*
D111*
X200207Y731168D02*
D03*
Y768268D02*
D03*
X890460Y811956D02*
D03*
Y786556D02*
D03*
X515683Y598469D02*
D03*
Y623869D02*
D03*
Y649269D02*
D03*
Y674669D02*
D03*
Y700069D02*
D03*
Y725469D02*
D03*
Y750869D02*
D03*
X142644Y772840D02*
D03*
X130144Y722840D02*
D03*
X179260Y426638D02*
D03*
Y452038D02*
D03*
Y477438D02*
D03*
X196405Y824614D02*
D03*
Y861714D02*
D03*
D112*
X56578Y535350D02*
D03*
Y636950D02*
D03*
Y687750D02*
D03*
Y586150D02*
D03*
Y799512D02*
D03*
Y748712D02*
D03*
D113*
X81329Y43063D02*
D03*
Y118063D02*
D03*
D114*
X303466Y375584D02*
D03*
Y325582D02*
D03*
D115*
X1103728Y413844D02*
D03*
X1129128D02*
D03*
X1154528D02*
D03*
X1078328D02*
D03*
X1052928D02*
D03*
X1027528D02*
D03*
X1002128D02*
D03*
X976728D02*
D03*
X1179928D02*
D03*
X951328D02*
D03*
Y488844D02*
D03*
X1103728D02*
D03*
X1129128D02*
D03*
X1154528D02*
D03*
X1078328D02*
D03*
X1052928D02*
D03*
X1027528D02*
D03*
X1002128D02*
D03*
X976728D02*
D03*
X1179928D02*
D03*
X665924Y369742D02*
D03*
X640524D02*
D03*
X615124D02*
D03*
X589724D02*
D03*
X839619Y863010D02*
D03*
X865019D02*
D03*
X917003Y862883D02*
D03*
X942403D02*
D03*
D116*
X150506Y296717D02*
D03*
X50228Y236265D02*
D03*
D117*
X75506Y296717D02*
D03*
X106235Y382861D02*
D03*
Y432861D02*
D03*
D118*
X401001Y730000D02*
D03*
X350999D02*
D03*
X348999Y807000D02*
D03*
X399001D02*
D03*
D119*
X696849Y266065D02*
D03*
X538353Y73406D02*
D03*
X308737Y786892D02*
D03*
X322199Y791083D02*
D03*
X322834Y801116D02*
D03*
X320294Y836041D02*
D03*
X320167Y845058D02*
D03*
X320548Y858012D02*
D03*
X229997Y880618D02*
D03*
X319278Y868553D02*
D03*
X304419Y869061D02*
D03*
X290830Y880237D02*
D03*
X240411Y802386D02*
D03*
X239268Y814070D02*
D03*
X239776Y827532D02*
D03*
X241300Y788289D02*
D03*
X256921Y788162D02*
D03*
X264033Y776986D02*
D03*
X1078738Y295148D02*
D03*
X491490Y42799D02*
D03*
X1257681Y671957D02*
D03*
X1258189Y692150D02*
D03*
X1258570Y707390D02*
D03*
X1257935Y721741D02*
D03*
X1250696Y732282D02*
D03*
X1093343Y629539D02*
D03*
X1093597Y644271D02*
D03*
X1094105Y656717D02*
D03*
X1094740Y670052D02*
D03*
X1094867Y681609D02*
D03*
X1108456Y692912D02*
D03*
X1094867Y692404D02*
D03*
X1121156Y694182D02*
D03*
X1121537Y709041D02*
D03*
X1121791Y722249D02*
D03*
X1188720Y637921D02*
D03*
X1147826Y652526D02*
D03*
X1149350Y672084D02*
D03*
X1149223Y689356D02*
D03*
X1148842Y705358D02*
D03*
X1148715Y721868D02*
D03*
X351155Y450977D02*
D03*
X345440Y442849D02*
D03*
X318135Y469265D02*
D03*
X242189Y397891D02*
D03*
X241808Y409194D02*
D03*
X243205Y422783D02*
D03*
X243713Y437769D02*
D03*
X254635Y399288D02*
D03*
X254254Y387477D02*
D03*
X272288Y386969D02*
D03*
X285496Y386715D02*
D03*
X322072Y386588D02*
D03*
X335534Y386334D02*
D03*
X336423Y395986D02*
D03*
X336550Y408559D02*
D03*
X422021Y480822D02*
D03*
X413385Y491617D02*
D03*
X369443Y539750D02*
D03*
X357124Y535940D02*
D03*
X356108Y514477D02*
D03*
Y498856D02*
D03*
X401955Y442087D02*
D03*
X402082Y464185D02*
D03*
X401955Y418973D02*
D03*
X361950Y380619D02*
D03*
X429641Y216916D02*
D03*
X299847Y296799D02*
D03*
X283972Y298450D02*
D03*
X271907Y299212D02*
D03*
X301498Y307848D02*
D03*
X285750Y312166D02*
D03*
X270383Y312928D02*
D03*
X708914Y663575D02*
D03*
X744855Y688340D02*
D03*
X709549Y674116D02*
D03*
X249301Y276606D02*
D03*
X233172Y276987D02*
D03*
X217932Y276606D02*
D03*
X291719Y270002D02*
D03*
X291592Y254127D02*
D03*
X292227Y242570D02*
D03*
X122555Y197993D02*
D03*
X127000Y205613D02*
D03*
Y217551D02*
D03*
X126619Y232156D02*
D03*
X127381Y245999D02*
D03*
X131572Y258953D02*
D03*
X220472Y247142D02*
D03*
X181610Y246507D02*
D03*
X165862Y245872D02*
D03*
X150876Y241808D02*
D03*
X151257Y224917D02*
D03*
X152273Y166751D02*
D03*
X142621Y149352D02*
D03*
X103759Y146431D02*
D03*
X77597Y157480D02*
D03*
X77724Y168783D02*
D03*
X259461Y258445D02*
D03*
X200152Y275463D02*
D03*
X579882Y770255D02*
D03*
Y781812D02*
D03*
X579628Y793496D02*
D03*
X522224Y781177D02*
D03*
X454279Y756666D02*
D03*
X454406Y767207D02*
D03*
X175768Y800862D02*
D03*
X234315Y797052D02*
D03*
X208788Y685292D02*
D03*
X204343Y693039D02*
D03*
X220980Y703199D02*
D03*
X300101Y692912D02*
D03*
X272161Y690753D02*
D03*
X261620Y613664D02*
D03*
X239522Y593217D02*
D03*
X266065Y570738D02*
D03*
X157988Y544957D02*
D03*
X191389Y568833D02*
D03*
X176276Y568579D02*
D03*
X161163Y568325D02*
D03*
X1173099Y302641D02*
D03*
X1182370Y312039D02*
D03*
X1189609Y326263D02*
D03*
Y341249D02*
D03*
X1189736Y354711D02*
D03*
X1349883Y285496D02*
D03*
X1336802Y284734D02*
D03*
X470535Y389255D02*
D03*
X615315Y92964D02*
D03*
X541909Y85217D02*
D03*
X523875Y75946D02*
D03*
X508000Y75184D02*
D03*
X484251Y73660D02*
D03*
X463931Y72898D02*
D03*
X441579Y73914D02*
D03*
X420243D02*
D03*
X407924Y82042D02*
D03*
X398018Y93853D02*
D03*
X381254Y94234D02*
D03*
X356870Y93599D02*
D03*
X336804D02*
D03*
X317881D02*
D03*
X300609Y93472D02*
D03*
X308229Y153289D02*
D03*
X284480Y148590D02*
D03*
X263525Y136525D02*
D03*
X262763Y150114D02*
D03*
X216154Y110490D02*
D03*
X234442Y110236D02*
D03*
X249174Y110109D02*
D03*
X297942Y116205D02*
D03*
X483235Y128651D02*
D03*
X677672Y701675D02*
D03*
X699389Y679069D02*
D03*
X681736Y665099D02*
D03*
X652399Y665480D02*
D03*
X629666Y664845D02*
D03*
X595884Y665861D02*
D03*
X577088Y665607D02*
D03*
X711327Y625729D02*
D03*
X716280Y609346D02*
D03*
X693674Y609092D02*
D03*
X663956Y609219D02*
D03*
X631952Y608330D02*
D03*
X605155Y609092D02*
D03*
X580009Y608584D02*
D03*
X551561Y609092D02*
D03*
X699897Y707009D02*
D03*
X700151Y724027D02*
D03*
Y739775D02*
D03*
X709930Y654050D02*
D03*
X425196Y175387D02*
D03*
X434975Y175514D02*
D03*
X400939Y315595D02*
D03*
X493395Y293751D02*
D03*
X538607Y332232D02*
D03*
X525907Y316230D02*
D03*
X510286Y319278D02*
D03*
X556514Y284226D02*
D03*
X534543Y283718D02*
D03*
X431673Y248412D02*
D03*
X916432Y430149D02*
D03*
X298450Y642239D02*
D03*
X298577Y628650D02*
D03*
X328422Y576961D02*
D03*
X328041Y588391D02*
D03*
X314071Y588645D02*
D03*
X327152Y598170D02*
D03*
X313817Y598043D02*
D03*
X378079Y578612D02*
D03*
X356997Y567944D02*
D03*
X378587D02*
D03*
X392684Y567436D02*
D03*
X406908D02*
D03*
X419100Y567690D02*
D03*
X429641Y568071D02*
D03*
X429514Y579120D02*
D03*
Y591820D02*
D03*
X429260Y606171D02*
D03*
X414909Y606044D02*
D03*
X401828Y606171D02*
D03*
X386461Y611886D02*
D03*
X371856D02*
D03*
X357886Y605409D02*
D03*
X351409Y615061D02*
D03*
X363601Y625856D02*
D03*
X351028Y625983D02*
D03*
X340614Y626364D02*
D03*
X504444Y544449D02*
D03*
X488315D02*
D03*
X473837Y544322D02*
D03*
X458851Y544576D02*
D03*
X443357Y544322D02*
D03*
X425196Y544449D02*
D03*
X411226Y544068D02*
D03*
X397637Y544322D02*
D03*
X401701Y528955D02*
D03*
X401828Y517525D02*
D03*
X415671D02*
D03*
X415544Y529209D02*
D03*
X427101Y529717D02*
D03*
X440436Y529844D02*
D03*
X486918Y524764D02*
D03*
X499110Y524510D02*
D03*
X513842Y525272D02*
D03*
X515747Y537845D02*
D03*
X517144Y547751D02*
D03*
X894969Y646684D02*
D03*
X857123Y641985D02*
D03*
X844042Y642493D02*
D03*
X1189228Y432181D02*
D03*
X1176528Y441325D02*
D03*
X921893Y486791D02*
D03*
X921512Y503047D02*
D03*
X922020Y517271D02*
D03*
X910844Y486283D02*
D03*
X899287Y486537D02*
D03*
X887730Y486410D02*
D03*
X887603Y500761D02*
D03*
X887730Y514477D02*
D03*
X929767Y537591D02*
D03*
X917067Y527558D02*
D03*
X901573Y527304D02*
D03*
X887857Y527050D02*
D03*
X761746Y430911D02*
D03*
X752475Y430784D02*
D03*
X720471Y431292D02*
D03*
X689356Y445897D02*
D03*
X688975Y459486D02*
D03*
X720725Y404876D02*
D03*
X700913Y404114D02*
D03*
X658114D02*
D03*
X657606Y420116D02*
D03*
X657098Y438531D02*
D03*
X657225Y457581D02*
D03*
X657479Y475742D02*
D03*
X657606Y493903D02*
D03*
X657860Y532892D02*
D03*
X672719Y533019D02*
D03*
X635127Y438277D02*
D03*
X634619Y464185D02*
D03*
X634365Y483108D02*
D03*
Y502666D02*
D03*
X634746Y518668D02*
D03*
X634492Y533400D02*
D03*
X590677Y519430D02*
D03*
X578993Y519557D02*
D03*
X626237Y430149D02*
D03*
X632968Y417322D02*
D03*
X622300Y417449D02*
D03*
X550926Y454406D02*
D03*
X546100Y471297D02*
D03*
X1002665Y183642D02*
D03*
X1104265Y195961D02*
D03*
X1105789Y182626D02*
D03*
X1104138Y163830D02*
D03*
X1170813Y73152D02*
D03*
X1161161Y72644D02*
D03*
X1149731D02*
D03*
X980186Y84328D02*
D03*
X946150Y107696D02*
D03*
X946023Y118364D02*
D03*
X1301750Y326009D02*
D03*
X1298702Y383667D02*
D03*
X1287526Y414528D02*
D03*
X1298321Y370713D02*
D03*
X1298702Y355981D02*
D03*
Y343154D02*
D03*
X1348232Y395351D02*
D03*
X1361821Y403098D02*
D03*
X1335151Y395224D02*
D03*
X1322197D02*
D03*
X1309751D02*
D03*
X496697Y318897D02*
D03*
X416052Y335915D02*
D03*
X589534Y325120D02*
D03*
X545719Y283591D02*
D03*
X554609Y262509D02*
D03*
X555625Y250698D02*
D03*
X556768Y237236D02*
D03*
X557403Y222631D02*
D03*
X525526Y205359D02*
D03*
X512064D02*
D03*
X498729Y204851D02*
D03*
X486410Y204597D02*
D03*
X481584Y298958D02*
D03*
X468757Y301117D02*
D03*
X469646Y280162D02*
D03*
X470027Y265430D02*
D03*
X470662Y251206D02*
D03*
X471043Y236093D02*
D03*
X471297Y222250D02*
D03*
X460629Y212217D02*
D03*
X450215Y202438D02*
D03*
X539877Y722630D02*
D03*
X533908Y712597D02*
D03*
X423164Y729869D02*
D03*
X418084Y720217D02*
D03*
X430911Y718185D02*
D03*
X884428Y597535D02*
D03*
X858520Y597154D02*
D03*
X844169D02*
D03*
X859663Y615315D02*
D03*
X847344Y615442D02*
D03*
X802259D02*
D03*
X786892Y615569D02*
D03*
X857504Y485648D02*
D03*
X857758Y496824D02*
D03*
X857885Y507746D02*
D03*
Y518033D02*
D03*
Y528066D02*
D03*
X807593Y477139D02*
D03*
X808101Y486283D02*
D03*
X808609Y496697D02*
D03*
X808863Y507492D02*
D03*
X816991Y516128D02*
D03*
X758063Y555117D02*
D03*
X742061Y550291D02*
D03*
X704469Y549529D02*
D03*
X689864Y549148D02*
D03*
X678434Y548894D02*
D03*
X666115Y549148D02*
D03*
X653415Y549275D02*
D03*
X718947Y549402D02*
D03*
X735330Y615823D02*
D03*
X735203Y625221D02*
D03*
X735330Y606171D02*
D03*
X758825Y655701D02*
D03*
X758444Y644017D02*
D03*
X758571Y632714D02*
D03*
X758825Y620268D02*
D03*
X303149Y492887D02*
D03*
X291465D02*
D03*
X280670D02*
D03*
X474980Y363728D02*
D03*
X480314Y386969D02*
D03*
X486918Y424307D02*
D03*
X468757Y432435D02*
D03*
X469646Y448437D02*
D03*
X469392Y461010D02*
D03*
X478409Y468503D02*
D03*
X589915Y544322D02*
D03*
X575945Y544449D02*
D03*
X565785Y539369D02*
D03*
X564261Y527685D02*
D03*
X550164Y477012D02*
D03*
X450723Y486410D02*
D03*
X458978Y495935D02*
D03*
X475742D02*
D03*
X489204Y495808D02*
D03*
X504571Y495935D02*
D03*
X520319Y496189D02*
D03*
X530352Y501904D02*
D03*
X535813Y513588D02*
D03*
X926211Y126746D02*
D03*
X926592Y137414D02*
D03*
X926338Y115951D02*
D03*
X926084Y102870D02*
D03*
X911225Y170434D02*
D03*
X860425Y213614D02*
D03*
X879475Y211582D02*
D03*
X879348Y220345D02*
D03*
X893064Y220853D02*
D03*
X816102Y274701D02*
D03*
X815975Y285877D02*
D03*
X816356Y262636D02*
D03*
X816483Y248920D02*
D03*
X816610Y234823D02*
D03*
X401701Y281559D02*
D03*
X393954Y288417D02*
D03*
X381254Y292227D02*
D03*
X372618Y292481D02*
D03*
X401955Y256921D02*
D03*
X393700Y248031D02*
D03*
X382397D02*
D03*
X372618Y247904D02*
D03*
X326898Y246380D02*
D03*
Y259080D02*
D03*
Y273304D02*
D03*
Y284480D02*
D03*
X327152Y294640D02*
D03*
X801878Y803910D02*
D03*
X1044194Y614680D02*
D03*
X1062990Y610870D02*
D03*
X1034034Y611632D02*
D03*
X1061720Y629920D02*
D03*
X1034034Y624078D02*
D03*
X972058Y642112D02*
D03*
X972312Y682498D02*
D03*
X972820Y669798D02*
D03*
X972312Y657098D02*
D03*
X978154Y748538D02*
D03*
X994156Y741934D02*
D03*
X1020572Y750316D02*
D03*
X1033018Y750062D02*
D03*
X1008380Y750316D02*
D03*
X1268730Y586486D02*
D03*
X1236472Y634238D02*
D03*
X1239266Y656590D02*
D03*
X1238885Y675132D02*
D03*
Y690499D02*
D03*
X1238758Y708406D02*
D03*
X1238504Y724154D02*
D03*
X1134364Y738378D02*
D03*
X1121156Y738632D02*
D03*
X1093216Y735330D02*
D03*
X1239774Y737362D02*
D03*
X1226456Y737433D02*
D03*
X1148588Y738632D02*
D03*
X560832Y111252D02*
D03*
X574548Y136906D02*
D03*
X559308Y136652D02*
D03*
X580390Y66802D02*
D03*
X619760Y67056D02*
D03*
X606044Y67564D02*
D03*
X593598Y67310D02*
D03*
X632206Y91948D02*
D03*
X580644Y55880D02*
D03*
X597408Y55626D02*
D03*
X615950Y55372D02*
D03*
X492506Y102870D02*
D03*
X506984Y103124D02*
D03*
X523240Y102616D02*
D03*
X483235Y139446D02*
D03*
X1361440Y275336D02*
D03*
X1323848Y284226D02*
D03*
X1305814Y284480D02*
D03*
X1288034Y284226D02*
D03*
X1323594Y295402D02*
D03*
X1305560Y295910D02*
D03*
X1288542Y296164D02*
D03*
X379222Y148082D02*
D03*
X395041Y148762D02*
D03*
X368046Y148082D02*
D03*
X356870Y147828D02*
D03*
X347218Y148082D02*
D03*
X337312D02*
D03*
X439166Y149352D02*
D03*
X424180Y147828D02*
D03*
X440436Y157734D02*
D03*
X424434Y156718D02*
D03*
X443776Y365508D02*
D03*
X447611Y373171D02*
D03*
X310324Y745662D02*
D03*
X297497Y658032D02*
D03*
X833691Y600501D02*
D03*
X750760Y662300D02*
D03*
X743013Y675000D02*
D03*
X890069Y605962D02*
D03*
X175704Y555035D02*
D03*
X251777Y155493D02*
D03*
X273494Y155620D02*
D03*
X295973D02*
D03*
X1281239Y662350D02*
D03*
X1268285D02*
D03*
X1306639D02*
D03*
X1294193D02*
D03*
X1336738Y454832D02*
D03*
X1336484Y480105D02*
D03*
X1336230Y492932D02*
D03*
Y467786D02*
D03*
X1326197Y635934D02*
D03*
X1308544Y629553D02*
D03*
X1293812Y585769D02*
D03*
X1256093Y585642D02*
D03*
X1281112D02*
D03*
X623633Y541192D02*
D03*
X690562Y426638D02*
D03*
X674814Y522142D02*
D03*
Y484042D02*
D03*
X248602Y563290D02*
D03*
X168923Y102759D02*
D03*
X474027Y204388D02*
D03*
X490276Y327703D02*
D03*
X446341Y304337D02*
D03*
X437578Y304083D02*
D03*
X481649Y327703D02*
D03*
X538000Y202356D02*
D03*
X317690Y116250D02*
D03*
X329247Y154985D02*
D03*
X441896Y140126D02*
D03*
X442150Y131980D02*
D03*
X442157Y123980D02*
D03*
X442658Y115996D02*
D03*
X443166Y107868D02*
D03*
X760932Y352204D02*
D03*
X754189Y344469D02*
D03*
X692086Y477565D02*
D03*
X692340Y490265D02*
D03*
X778573Y195371D02*
D03*
X753935Y194990D02*
D03*
X762053Y195117D02*
D03*
X770191D02*
D03*
X847764Y425344D02*
D03*
X854265Y431495D02*
D03*
X834211Y412021D02*
D03*
X841480Y418764D02*
D03*
X849512Y129751D02*
D03*
X830126Y143815D02*
D03*
X836810Y139420D02*
D03*
X842835Y134157D02*
D03*
X1220025Y41574D02*
D03*
Y33319D02*
D03*
Y24810D02*
D03*
Y16301D02*
D03*
X900366Y33573D02*
D03*
Y25064D02*
D03*
X900493Y16555D02*
D03*
Y41828D02*
D03*
X875976Y40188D02*
D03*
X876015Y48188D02*
D03*
X875855Y56186D02*
D03*
X875601Y64182D02*
D03*
X875728Y72181D02*
D03*
X603567Y197784D02*
D03*
X583374Y207436D02*
D03*
X591375Y218231D02*
D03*
X845121Y439465D02*
D03*
X1157287Y637712D02*
D03*
X1093914Y746932D02*
D03*
X1047686Y629203D02*
D03*
X966533Y752139D02*
D03*
X692250Y515750D02*
D03*
X791273Y311195D02*
D03*
X791908Y298749D02*
D03*
X677100Y119171D02*
D03*
X690308Y120187D02*
D03*
X702754Y119679D02*
D03*
X715581Y119806D02*
D03*
X741362Y152445D02*
D03*
X728789Y146095D02*
D03*
X728400Y69252D02*
D03*
X715700Y69395D02*
D03*
X703000Y68871D02*
D03*
X690300D02*
D03*
X677354Y68244D02*
D03*
X664908Y68752D02*
D03*
X1024848Y773492D02*
D03*
X1078848D02*
D03*
X1132848Y773425D02*
D03*
X1186848Y773492D02*
D03*
X548576Y213024D02*
D03*
X551624Y49067D02*
D03*
X1225613Y267507D02*
D03*
X1219263Y255061D02*
D03*
X1213040Y241853D02*
D03*
X1206817Y229661D02*
D03*
X1200086Y216580D02*
D03*
X1193609Y203880D02*
D03*
X1187417Y191815D02*
D03*
X519366Y35605D02*
D03*
X525970Y44495D02*
D03*
X532320Y49448D02*
D03*
X506425Y46413D02*
D03*
X512925Y41483D02*
D03*
X499925Y51198D02*
D03*
X1027630Y361074D02*
D03*
X1052172Y361331D02*
D03*
X724459Y232969D02*
D03*
X887750Y323750D02*
D03*
X887550Y336450D02*
D03*
X701940Y226877D02*
D03*
X722000Y279000D02*
D03*
X721438Y259366D02*
D03*
X701962Y252866D02*
D03*
Y239866D02*
D03*
X721634Y246366D02*
D03*
X1034788Y650504D02*
D03*
X1087478Y229194D02*
D03*
X1088092Y178389D02*
D03*
X1087878Y254594D02*
D03*
X1088078Y241894D02*
D03*
X1087478Y216494D02*
D03*
X1088078Y203794D02*
D03*
X1087878Y191094D02*
D03*
X968678Y178394D02*
D03*
X968878Y191094D02*
D03*
X1156128Y135364D02*
D03*
X1102128D02*
D03*
X1048065D02*
D03*
X994128D02*
D03*
X1158578Y178394D02*
D03*
X1088678Y267294D02*
D03*
X887650Y298350D02*
D03*
X886950Y311050D02*
D03*
X944178Y203794D02*
D03*
X943778Y216494D02*
D03*
X943778Y229194D02*
D03*
X943178Y241894D02*
D03*
X943378Y254594D02*
D03*
X943578Y267294D02*
D03*
X791750Y323750D02*
D03*
X791550Y336450D02*
D03*
X1183788Y650504D02*
D03*
X1183768Y663204D02*
D03*
X1184068Y675904D02*
D03*
X1183888Y688604D02*
D03*
X1183668Y701304D02*
D03*
X1183968Y714004D02*
D03*
X1183988Y726704D02*
D03*
X1183688Y739404D02*
D03*
X1180575Y545019D02*
D03*
X1154575D02*
D03*
X1129575D02*
D03*
X1103575D02*
D03*
X1078575D02*
D03*
X1052575D02*
D03*
X1027575D02*
D03*
X1002575D02*
D03*
X976575D02*
D03*
X951575Y544769D02*
D03*
X1180575Y361344D02*
D03*
X1154575Y361344D02*
D03*
X1129575Y361344D02*
D03*
X1103575D02*
D03*
X1078575Y361344D02*
D03*
X1001575Y361344D02*
D03*
X976575D02*
D03*
X951575Y361094D02*
D03*
X1034768Y663204D02*
D03*
X1035068Y675904D02*
D03*
X1035203Y701304D02*
D03*
X1035368Y688604D02*
D03*
X1035128Y726844D02*
D03*
X1035288Y714004D02*
D03*
X1034688Y739404D02*
D03*
X964788Y650504D02*
D03*
X964768Y663204D02*
D03*
X965068Y675904D02*
D03*
X964888Y688604D02*
D03*
X964588Y701304D02*
D03*
X964968Y714004D02*
D03*
X964988Y726704D02*
D03*
X965568Y739404D02*
D03*
X844200Y452200D02*
D03*
X843900Y464900D02*
D03*
X844600Y477600D02*
D03*
X748500Y439500D02*
D03*
X748800Y452200D02*
D03*
X748950Y464950D02*
D03*
X692050Y503050D02*
D03*
X692450Y528450D02*
D03*
D120*
X357759Y679958D02*
D03*
X345059D02*
D03*
X351409Y667258D02*
D03*
X332359Y679958D02*
D03*
X338709Y667258D02*
D03*
X373888Y679958D02*
D03*
X386588D02*
D03*
X380238Y692658D02*
D03*
X399288Y679958D02*
D03*
X392938Y692658D02*
D03*
X337058Y706120D02*
D03*
Y718820D02*
D03*
X324358Y712470D02*
D03*
X337058Y731520D02*
D03*
X324358Y725170D02*
D03*
X332486Y759587D02*
D03*
Y772287D02*
D03*
X319786Y765937D02*
D03*
X332486Y784987D02*
D03*
X319786Y778637D02*
D03*
X334264Y807593D02*
D03*
Y820293D02*
D03*
X321564Y813943D02*
D03*
X334264Y832993D02*
D03*
X321564Y826643D02*
D03*
X191897Y17145D02*
D03*
X204597D02*
D03*
X198247Y29845D02*
D03*
X217297Y17145D02*
D03*
X210947Y29845D02*
D03*
X118110Y16129D02*
D03*
X130810D02*
D03*
X124460Y28829D02*
D03*
X143510Y16129D02*
D03*
X137160Y28829D02*
D03*
X19812Y20066D02*
D03*
X32512D02*
D03*
X26162Y32766D02*
D03*
X45212Y20066D02*
D03*
X38862Y32766D02*
D03*
X28956Y61087D02*
D03*
X41656D02*
D03*
X35306Y73787D02*
D03*
X54356Y61087D02*
D03*
X48006Y73787D02*
D03*
X94996Y60706D02*
D03*
X107696D02*
D03*
X101346Y73406D02*
D03*
X120396Y60706D02*
D03*
X114046Y73406D02*
D03*
X27305Y622808D02*
D03*
Y635508D02*
D03*
X14605Y629158D02*
D03*
X27305Y648208D02*
D03*
X14605Y641858D02*
D03*
X156718Y756285D02*
D03*
X169418D02*
D03*
X163068Y768985D02*
D03*
X182118Y756285D02*
D03*
X175768Y768985D02*
D03*
X183388Y796290D02*
D03*
X196088D02*
D03*
X189738Y808990D02*
D03*
X208788Y796290D02*
D03*
X202438Y808990D02*
D03*
X444881Y854456D02*
D03*
X457581D02*
D03*
X451231Y867156D02*
D03*
X470281Y854456D02*
D03*
X463931Y867156D02*
D03*
X378587Y851281D02*
D03*
X391287D02*
D03*
X384937Y863981D02*
D03*
X403987Y851281D02*
D03*
X397637Y863981D02*
D03*
X329057Y848233D02*
D03*
X341757D02*
D03*
X335407Y860933D02*
D03*
X354457Y848233D02*
D03*
X348107Y860933D02*
D03*
X669798Y778256D02*
D03*
X682498D02*
D03*
X676148Y790956D02*
D03*
X695198Y778256D02*
D03*
X688848Y790956D02*
D03*
X606806Y769112D02*
D03*
X619506D02*
D03*
X613156Y781812D02*
D03*
X632206Y769112D02*
D03*
X625856Y781812D02*
D03*
X752348Y745998D02*
D03*
X765048D02*
D03*
X758698Y758698D02*
D03*
X777748Y745998D02*
D03*
X771398Y758698D02*
D03*
X751459Y783717D02*
D03*
X764159D02*
D03*
X757809Y796417D02*
D03*
X776859Y783717D02*
D03*
X770509Y796417D02*
D03*
X773176Y839216D02*
D03*
X785876D02*
D03*
X779526Y851916D02*
D03*
X798576Y839216D02*
D03*
X792226Y851916D02*
D03*
X1178750Y351200D02*
D03*
X1172400Y338500D02*
D03*
X1178750Y325800D02*
D03*
X1172400Y313100D02*
D03*
X1166050Y351200D02*
D03*
X1159700Y338500D02*
D03*
X1166050Y325800D02*
D03*
X1159700Y313100D02*
D03*
Y287700D02*
D03*
X1153350Y351200D02*
D03*
X1147000Y338500D02*
D03*
X1153350Y325800D02*
D03*
X1147000Y313100D02*
D03*
X1153350Y300400D02*
D03*
X1147000Y287700D02*
D03*
X1153350Y275000D02*
D03*
X1147000Y262300D02*
D03*
Y236900D02*
D03*
Y211500D02*
D03*
Y186100D02*
D03*
X1140650Y351200D02*
D03*
Y325800D02*
D03*
Y300400D02*
D03*
X1134300Y287700D02*
D03*
X1140650Y275000D02*
D03*
X1134300Y262300D02*
D03*
X1140650Y249600D02*
D03*
X1134300Y236900D02*
D03*
X1140650Y224200D02*
D03*
X1134300Y211500D02*
D03*
X1140650Y198800D02*
D03*
X1134300Y186100D02*
D03*
X1121600Y287700D02*
D03*
X1127950Y275000D02*
D03*
X1121600Y262300D02*
D03*
X1127950Y249600D02*
D03*
X1121600Y236900D02*
D03*
X1127950Y224200D02*
D03*
X1108900Y287700D02*
D03*
X1115250Y275000D02*
D03*
X1108900Y262300D02*
D03*
X1115250Y249600D02*
D03*
X1108900Y236900D02*
D03*
X1115250Y224200D02*
D03*
X1096200Y287700D02*
D03*
X1102550Y275000D02*
D03*
Y249600D02*
D03*
Y224200D02*
D03*
X486600Y33700D02*
D03*
X473900Y59100D02*
D03*
X480250Y46400D02*
D03*
X473900Y33700D02*
D03*
X461200Y59100D02*
D03*
X467550Y46400D02*
D03*
X461200Y33700D02*
D03*
X448500Y59100D02*
D03*
X454850Y46400D02*
D03*
X448500Y33700D02*
D03*
X435800Y59100D02*
D03*
X442150Y46400D02*
D03*
X435800Y33700D02*
D03*
X423100Y59100D02*
D03*
X429450Y46400D02*
D03*
X423100Y33700D02*
D03*
X410400Y59100D02*
D03*
X416750Y46400D02*
D03*
X410400Y33700D02*
D03*
X404050Y46400D02*
D03*
X397700Y33700D02*
D03*
X391350Y46400D02*
D03*
X385000Y33700D02*
D03*
X378650Y71800D02*
D03*
X372300Y59100D02*
D03*
X378650Y46400D02*
D03*
X372300Y33700D02*
D03*
X365950Y71800D02*
D03*
X359600Y59100D02*
D03*
X365950Y46400D02*
D03*
X359600Y33700D02*
D03*
X353250Y71800D02*
D03*
X346900Y59100D02*
D03*
X353250Y46400D02*
D03*
X346900Y33700D02*
D03*
X340550Y71800D02*
D03*
X334200Y59100D02*
D03*
X340550Y46400D02*
D03*
X334200Y33700D02*
D03*
X327850Y71800D02*
D03*
X321500Y59100D02*
D03*
X327850Y46400D02*
D03*
X315150Y71800D02*
D03*
X308800Y59100D02*
D03*
X315150Y46400D02*
D03*
X351599Y386633D02*
D03*
X1279461Y479978D02*
D03*
X1253172Y441497D02*
D03*
X1269428Y467278D02*
D03*
X1261681Y454451D02*
D03*
X1279396Y192882D02*
D03*
X1270262Y193248D02*
D03*
X1261282Y193847D02*
D03*
X1252283Y193974D02*
D03*
X713168Y750996D02*
D03*
X619061Y655873D02*
D03*
X712914Y764458D02*
D03*
X430847Y263062D02*
D03*
X452945Y329483D02*
D03*
X553529Y322371D02*
D03*
X553910Y331769D02*
D03*
X525462Y277413D02*
D03*
X515556D02*
D03*
X123888Y417240D02*
D03*
Y397555D02*
D03*
X92773Y158287D02*
D03*
X92646Y170860D02*
D03*
X464121Y289797D02*
D03*
X454758D02*
D03*
X1172478Y115894D02*
D03*
X1171384Y88945D02*
D03*
X1172074Y97919D02*
D03*
X1171849Y106916D02*
D03*
X1120128Y135361D02*
D03*
X1084128D02*
D03*
X1012066D02*
D03*
X976128D02*
D03*
D121*
X385445Y881126D02*
D03*
X346837Y881253D02*
D03*
X313182D02*
D03*
X277749Y881126D02*
D03*
X242062Y880999D02*
D03*
X214376Y881380D02*
D03*
X179832Y880237D02*
D03*
X154178Y880110D02*
D03*
X1254950Y821100D02*
D03*
X1324800Y732200D02*
D03*
X1235900Y808400D02*
D03*
X1229550Y821100D02*
D03*
X1350200Y681400D02*
D03*
X1343850Y694100D02*
D03*
X1331150Y821100D02*
D03*
Y795700D02*
D03*
Y770300D02*
D03*
Y744900D02*
D03*
Y719500D02*
D03*
X1324800Y706800D02*
D03*
X1312100Y808400D02*
D03*
Y783000D02*
D03*
X1318450Y744900D02*
D03*
Y719500D02*
D03*
X1305750Y795700D02*
D03*
Y770300D02*
D03*
X1286700Y808400D02*
D03*
Y783000D02*
D03*
X1280350Y821100D02*
D03*
Y795700D02*
D03*
X1267650Y871900D02*
D03*
X1261300Y833800D02*
D03*
Y808400D02*
D03*
X1254950Y871900D02*
D03*
X1248600Y859200D02*
D03*
X1242250Y871900D02*
D03*
X1235900Y833800D02*
D03*
X1229550Y871900D02*
D03*
X1223200Y859200D02*
D03*
X1216850Y871900D02*
D03*
X1210500Y808400D02*
D03*
X1204150Y871900D02*
D03*
X1197800Y859200D02*
D03*
X1204150Y846500D02*
D03*
Y821100D02*
D03*
X1191450Y871900D02*
D03*
X1178750D02*
D03*
X1166050D02*
D03*
X1153350D02*
D03*
X1140650D02*
D03*
X1127950D02*
D03*
X1115250D02*
D03*
X1102550D02*
D03*
X1089850D02*
D03*
X1077150D02*
D03*
X1064450D02*
D03*
X1051750D02*
D03*
X1039050D02*
D03*
X1026350D02*
D03*
X1013650D02*
D03*
X1000950D02*
D03*
X988250D02*
D03*
X975550D02*
D03*
X962850D02*
D03*
X150114Y503174D02*
D03*
X193421Y464693D02*
D03*
X158623Y458343D02*
D03*
X159385Y469646D02*
D03*
X34798Y671195D02*
D03*
X26543Y685927D02*
D03*
X28575Y703199D02*
D03*
X48387Y709422D02*
D03*
X71501Y708279D02*
D03*
X84201Y663956D02*
D03*
X65659Y665099D02*
D03*
X48387Y666242D02*
D03*
X179324Y707644D02*
D03*
X159258Y737108D02*
D03*
X299339Y779907D02*
D03*
X299466Y757809D02*
D03*
X241046Y765429D02*
D03*
X747522Y169672D02*
D03*
X729869Y169545D02*
D03*
X706247Y169291D02*
D03*
X683641Y169545D02*
D03*
X659511D02*
D03*
X600710Y184531D02*
D03*
X585343Y185166D02*
D03*
X705485Y337566D02*
D03*
X714629Y349504D02*
D03*
X695071Y349250D02*
D03*
X685800Y338074D02*
D03*
X677418Y349504D02*
D03*
X622300Y324104D02*
D03*
X618998Y280924D02*
D03*
X640207Y296418D02*
D03*
X657098Y308864D02*
D03*
X657352Y323088D02*
D03*
X646557Y333629D02*
D03*
X632079Y333248D02*
D03*
X588137Y283337D02*
D03*
X600964Y349758D02*
D03*
X600075Y387985D02*
D03*
X581660Y395605D02*
D03*
X581025Y413766D02*
D03*
X592328Y426847D02*
D03*
X761365Y846328D02*
D03*
X750570Y810895D02*
D03*
X423545Y881380D02*
D03*
X456184Y881761D02*
D03*
X504571Y879094D02*
D03*
X519938Y864489D02*
D03*
X791464Y877570D02*
D03*
X767207Y876173D02*
D03*
X760000Y860000D02*
D03*
X521970Y837692D02*
D03*
X522986Y812292D02*
D03*
X543052Y810895D02*
D03*
X671449Y689737D02*
D03*
X648335Y686562D02*
D03*
X627507Y686181D02*
D03*
X605028Y686562D02*
D03*
X586486D02*
D03*
X891540Y831342D02*
D03*
X915416Y837819D02*
D03*
X825119Y761619D02*
D03*
X826389Y773176D02*
D03*
X883793Y745617D02*
D03*
X883158Y764286D02*
D03*
X902716Y749173D02*
D03*
X890524Y731266D02*
D03*
X863854Y731012D02*
D03*
X839597Y731520D02*
D03*
X819658Y732536D02*
D03*
X795274Y732790D02*
D03*
X770382Y717804D02*
D03*
X758825Y696722D02*
D03*
X758952Y675513D02*
D03*
X790448Y639064D02*
D03*
X884936Y688594D02*
D03*
X884555Y703834D02*
D03*
X821690Y704342D02*
D03*
X807339Y704215D02*
D03*
X821563Y684149D02*
D03*
X807085Y684784D02*
D03*
X791845Y698246D02*
D03*
X791464Y684657D02*
D03*
X894842Y656971D02*
D03*
X867537D02*
D03*
X853313Y656590D02*
D03*
X838327Y656717D02*
D03*
X809244Y655955D02*
D03*
X790702Y656082D02*
D03*
X852043Y780669D02*
D03*
X866648Y832485D02*
D03*
X832739Y817118D02*
D03*
X867283Y819404D02*
D03*
X830072Y831596D02*
D03*
X821436Y848487D02*
D03*
X820674Y868553D02*
D03*
X827405Y882015D02*
D03*
X852932Y881507D02*
D03*
X882904Y869315D02*
D03*
X882523Y855853D02*
D03*
X900684Y871601D02*
D03*
X899414Y856742D02*
D03*
X930910Y839978D02*
D03*
X911352Y823849D02*
D03*
X912368Y799846D02*
D03*
X913130Y782574D02*
D03*
X913638Y762000D02*
D03*
X973582Y778764D02*
D03*
X957961D02*
D03*
X995680Y837565D02*
D03*
X973074Y836168D02*
D03*
X959485Y824103D02*
D03*
X943991Y810514D02*
D03*
X943610Y794131D02*
D03*
X943991Y779018D02*
D03*
X1049020Y838200D02*
D03*
X1035304Y837819D02*
D03*
X1105154D02*
D03*
X1159764Y838708D02*
D03*
X1144778D02*
D03*
X1093343Y838200D02*
D03*
X1142746Y565404D02*
D03*
X1142873Y550545D02*
D03*
X1167130Y550672D02*
D03*
X1188339Y554990D02*
D03*
X1187831Y568833D02*
D03*
X1187323Y584581D02*
D03*
X1169289Y584835D02*
D03*
X1150747D02*
D03*
X1130046D02*
D03*
X1332738Y582930D02*
D03*
X1323975Y574929D02*
D03*
X1309243Y562737D02*
D03*
X1293495D02*
D03*
X1276604Y562864D02*
D03*
X1259459Y562610D02*
D03*
X1306322Y519049D02*
D03*
X1305814Y534924D02*
D03*
X1293368Y534797D02*
D03*
X1272794Y535305D02*
D03*
X1255649D02*
D03*
X1255395Y519938D02*
D03*
X1255522Y498602D02*
D03*
X1255395Y470535D02*
D03*
X1040003Y337947D02*
D03*
X1014730Y341884D02*
D03*
X990981Y334899D02*
D03*
X963422Y336169D02*
D03*
X937641Y362585D02*
D03*
X927735Y373761D02*
D03*
X939292Y337566D02*
D03*
X940943Y314452D02*
D03*
X928497Y335026D02*
D03*
X928116Y351917D02*
D03*
X852424Y357632D02*
D03*
X893191Y351663D02*
D03*
X898652Y304927D02*
D03*
Y280543D02*
D03*
X891286Y402336D02*
D03*
X859663Y401955D02*
D03*
X891032Y385191D02*
D03*
X859917Y384810D02*
D03*
X846836Y385064D02*
D03*
X829564Y385191D02*
D03*
X757682Y383540D02*
D03*
X763778Y393954D02*
D03*
X750316Y394081D02*
D03*
X709676Y305562D02*
D03*
X728345Y290449D02*
D03*
X731139Y310642D02*
D03*
X685038Y320675D02*
D03*
X1197800Y8300D02*
D03*
X1185100D02*
D03*
X1172400D02*
D03*
X1159700D02*
D03*
X1147000D02*
D03*
X1134300D02*
D03*
X1121600D02*
D03*
X1108900D02*
D03*
X1096200D02*
D03*
X1083500D02*
D03*
X1070800D02*
D03*
X1058100D02*
D03*
X1045400D02*
D03*
X1032700D02*
D03*
X1020000D02*
D03*
X1007300D02*
D03*
X994600D02*
D03*
X981900D02*
D03*
X969200D02*
D03*
X956500D02*
D03*
X943800D02*
D03*
X931100D02*
D03*
X918400D02*
D03*
X880300D02*
D03*
X867600D02*
D03*
X854900D02*
D03*
X842200D02*
D03*
X829500D02*
D03*
X816800D02*
D03*
X804100D02*
D03*
X791400D02*
D03*
X778700D02*
D03*
X766000D02*
D03*
X753300D02*
D03*
X740600D02*
D03*
X727900D02*
D03*
X715200D02*
D03*
X702500D02*
D03*
X689800D02*
D03*
X677100D02*
D03*
X664400D02*
D03*
X651700D02*
D03*
X639000D02*
D03*
X626300D02*
D03*
X613600D02*
D03*
X600900D02*
D03*
X588200D02*
D03*
X575500D02*
D03*
X562800D02*
D03*
X550100D02*
D03*
X537400D02*
D03*
X524700D02*
D03*
X512000D02*
D03*
X499300D02*
D03*
X486600D02*
D03*
X473900D02*
D03*
X461200D02*
D03*
X448500D02*
D03*
X435800D02*
D03*
X423100D02*
D03*
X410400D02*
D03*
X397700D02*
D03*
X385000D02*
D03*
X372300D02*
D03*
X359600D02*
D03*
X346900D02*
D03*
X334200D02*
D03*
X321500D02*
D03*
X308800D02*
D03*
X302450Y21000D02*
D03*
X296100Y8300D02*
D03*
X283400Y33700D02*
D03*
X289750Y21000D02*
D03*
X283400Y8300D02*
D03*
X277050Y21000D02*
D03*
X270700Y8300D02*
D03*
X233680Y89662D02*
D03*
X209677Y89789D02*
D03*
X308356Y143891D02*
D03*
X285369Y135509D02*
D03*
X157861Y140589D02*
D03*
X206629Y139827D02*
D03*
X131699Y139065D02*
D03*
X91694Y139192D02*
D03*
X62103Y139065D02*
D03*
X49911Y151384D02*
D03*
X48768Y166751D02*
D03*
X126492Y92964D02*
D03*
X101600Y94996D02*
D03*
X67310Y96012D02*
D03*
X35433Y96774D02*
D03*
X13208Y107950D02*
D03*
X12446Y133985D02*
D03*
Y166878D02*
D03*
X11557Y195453D02*
D03*
X10795Y220345D02*
D03*
X9906Y243586D02*
D03*
X9525Y261620D02*
D03*
X399161Y237744D02*
D03*
X424434Y184404D02*
D03*
X237998Y182626D02*
D03*
X293497Y183896D02*
D03*
X320294Y220599D02*
D03*
X378460Y211836D02*
D03*
X360680D02*
D03*
X343662D02*
D03*
X384556Y184277D02*
D03*
X362712Y184658D02*
D03*
X342519Y184404D02*
D03*
X321183Y184023D02*
D03*
X169799Y209677D02*
D03*
X151765Y209550D02*
D03*
X171323Y183515D02*
D03*
X151638Y183388D02*
D03*
X175768Y147193D02*
D03*
X176657Y158750D02*
D03*
Y169926D02*
D03*
X601345Y120904D02*
D03*
X590296Y117475D02*
D03*
X600837Y138303D02*
D03*
X589534Y138176D02*
D03*
X600456Y153797D02*
D03*
X589153Y154432D02*
D03*
X643001Y81407D02*
D03*
X637667Y120777D02*
D03*
X637413Y146304D02*
D03*
Y168656D02*
D03*
X120396Y670560D02*
D03*
X118237Y650367D02*
D03*
X119634Y631698D02*
D03*
X119888Y610616D02*
D03*
X120269Y591820D02*
D03*
X205486Y630174D02*
D03*
X272161Y630047D02*
D03*
X237363Y628142D02*
D03*
X261366Y560705D02*
D03*
X274066D02*
D03*
X191770Y534416D02*
D03*
X172720Y535051D02*
D03*
X211455Y533908D02*
D03*
X249555Y534289D02*
D03*
X284988Y510794D02*
D03*
X299339Y512445D02*
D03*
X299847Y522986D02*
D03*
X285115Y522224D02*
D03*
X284480Y533908D02*
D03*
X299339D02*
D03*
X344805Y460121D02*
D03*
X334137Y475869D02*
D03*
X244348Y449834D02*
D03*
X230251D02*
D03*
X227584Y466598D02*
D03*
X226949Y483235D02*
D03*
X204978Y453136D02*
D03*
X205105Y436245D02*
D03*
X218567Y420878D02*
D03*
Y402717D02*
D03*
X219329Y387223D02*
D03*
X143129Y429895D02*
D03*
X145288Y385064D02*
D03*
X165100Y383921D02*
D03*
X166243Y357251D02*
D03*
X183261Y344424D02*
D03*
X265938Y338328D02*
D03*
X343154Y338582D02*
D03*
X183007Y409702D02*
D03*
X188087Y387604D02*
D03*
X187960Y373507D02*
D03*
X280035Y370078D02*
D03*
X343154Y369697D02*
D03*
X321691Y369824D02*
D03*
X264160D02*
D03*
X243205Y370586D02*
D03*
X219583Y370459D02*
D03*
X220599Y337185D02*
D03*
X282448Y337947D02*
D03*
X364871Y339090D02*
D03*
X320929Y336042D02*
D03*
X411861Y385826D02*
D03*
X421259Y396748D02*
D03*
X551053Y364744D02*
D03*
X808736Y170053D02*
D03*
X794258Y57658D02*
D03*
X830199Y56642D02*
D03*
X826135Y44450D02*
D03*
X797433Y45339D02*
D03*
X772287Y43688D02*
D03*
X738124Y43815D02*
D03*
X721995Y44196D02*
D03*
X740283Y55880D02*
D03*
X721995Y56769D02*
D03*
X704469Y43688D02*
D03*
X705358Y56769D02*
D03*
X689864Y57150D02*
D03*
X688086Y43307D02*
D03*
X846201Y64135D02*
D03*
X810514Y55245D02*
D03*
X850138Y42545D02*
D03*
X779907Y54737D02*
D03*
X780034Y128016D02*
D03*
X781431Y153289D02*
D03*
X781812Y172593D02*
D03*
X789305Y191389D02*
D03*
X737997Y188976D02*
D03*
X710946Y188214D02*
D03*
X685800Y188341D02*
D03*
X939800Y548005D02*
D03*
X1116457Y552958D02*
D03*
X1111377Y574167D02*
D03*
X1090295Y555244D02*
D03*
X1086739Y569722D02*
D03*
X1065784Y551815D02*
D03*
X1060577Y566293D02*
D03*
X1040003Y550037D02*
D03*
X1036066Y562356D02*
D03*
X1014349Y548767D02*
D03*
X1011682Y562610D02*
D03*
X988949Y551434D02*
D03*
X993013Y576072D02*
D03*
X963549Y555752D02*
D03*
X967105Y570992D02*
D03*
X1111758Y312674D02*
D03*
X1116838Y334899D02*
D03*
X1116330Y354076D02*
D03*
X1086358Y315849D02*
D03*
X1092708Y334264D02*
D03*
X1092073Y355346D02*
D03*
X1061085Y321183D02*
D03*
X1064387Y337058D02*
D03*
X1064006Y352933D02*
D03*
X1038733Y324104D02*
D03*
X1039241Y351536D02*
D03*
X1010539Y325247D02*
D03*
X1014476Y356997D02*
D03*
X991743Y315722D02*
D03*
X988949Y351155D02*
D03*
X965327Y319024D02*
D03*
X962279Y352552D02*
D03*
X1167130Y507873D02*
D03*
X1141603Y508000D02*
D03*
X1116330Y507492D02*
D03*
X1090422D02*
D03*
X1065657Y508000D02*
D03*
X1039495Y508127D02*
D03*
X1015746Y508000D02*
D03*
X989203Y507492D02*
D03*
X964057Y508000D02*
D03*
X935355Y468884D02*
D03*
X964819Y471297D02*
D03*
X989584Y469773D02*
D03*
X1015238Y469265D02*
D03*
X1040384Y470535D02*
D03*
X1064514Y470027D02*
D03*
X1091692Y469392D02*
D03*
X1115695D02*
D03*
X1139952D02*
D03*
X1165860Y469773D02*
D03*
X1189355Y468757D02*
D03*
X1158621Y442468D02*
D03*
X1136777Y441960D02*
D03*
X1110742Y442595D02*
D03*
X1085342Y441579D02*
D03*
X1054989Y441960D02*
D03*
X1026541Y442341D02*
D03*
X1002284Y442468D02*
D03*
X983234Y442595D02*
D03*
X962279Y442849D02*
D03*
X940054Y442976D02*
D03*
X1350200Y376600D02*
D03*
X1356550Y363900D02*
D03*
X1350200Y351200D02*
D03*
X1356550Y338500D02*
D03*
X1350200Y325800D02*
D03*
X1356550Y313100D02*
D03*
X1350200Y300400D02*
D03*
X1337500Y376600D02*
D03*
X1343850Y363900D02*
D03*
X1337500Y351200D02*
D03*
X1343850Y338500D02*
D03*
X1337500Y325800D02*
D03*
X1343850Y313100D02*
D03*
X1337500Y300400D02*
D03*
X1324800Y376600D02*
D03*
X1331150Y363900D02*
D03*
X1324800Y351200D02*
D03*
X1331150Y338500D02*
D03*
X1324800Y325800D02*
D03*
X1312100Y376600D02*
D03*
X1318450Y363900D02*
D03*
X1312100Y351200D02*
D03*
X1318450Y338500D02*
D03*
X1312100Y325800D02*
D03*
X351282Y305308D02*
D03*
X364998Y234696D02*
D03*
X351282D02*
D03*
X335788D02*
D03*
X364998Y305308D02*
D03*
X335788D02*
D03*
X105600Y414700D02*
D03*
X111950Y402000D02*
D03*
X105600Y363900D02*
D03*
X99250Y452800D02*
D03*
X92900Y440100D02*
D03*
Y414700D02*
D03*
X99250Y402000D02*
D03*
X92900Y389300D02*
D03*
Y363900D02*
D03*
X80200Y465500D02*
D03*
X86550Y452800D02*
D03*
X80200Y440100D02*
D03*
X86550Y427400D02*
D03*
X80200Y414700D02*
D03*
X86550Y402000D02*
D03*
X80200Y389300D02*
D03*
X86550Y376600D02*
D03*
X80200Y363900D02*
D03*
X86550Y351200D02*
D03*
X80200Y338500D02*
D03*
X73850Y478200D02*
D03*
X67500Y465500D02*
D03*
X73850Y452800D02*
D03*
X67500Y440100D02*
D03*
X73850Y427400D02*
D03*
X67500Y414700D02*
D03*
X73850Y402000D02*
D03*
X67500Y389300D02*
D03*
X73850Y376600D02*
D03*
X67500Y363900D02*
D03*
X73850Y351200D02*
D03*
X67500Y338500D02*
D03*
X61150Y478200D02*
D03*
X54800Y465500D02*
D03*
X61150Y452800D02*
D03*
X54800Y440100D02*
D03*
X61150Y427400D02*
D03*
X54800Y414700D02*
D03*
X61150Y402000D02*
D03*
X54800Y389300D02*
D03*
X61150Y376600D02*
D03*
X54800Y363900D02*
D03*
X61150Y351200D02*
D03*
X54800Y338500D02*
D03*
X48450Y478200D02*
D03*
X42100Y465500D02*
D03*
X48450Y452800D02*
D03*
X42100Y440100D02*
D03*
X48450Y427400D02*
D03*
X42100Y414700D02*
D03*
X48450Y402000D02*
D03*
X42100Y389300D02*
D03*
X48450Y376600D02*
D03*
X42100Y363900D02*
D03*
X48450Y351200D02*
D03*
X42100Y338500D02*
D03*
X35750Y478200D02*
D03*
X29400Y465500D02*
D03*
X35750Y452800D02*
D03*
X29400Y440100D02*
D03*
X35750Y427400D02*
D03*
X29400Y414700D02*
D03*
X35750Y402000D02*
D03*
X29400Y389300D02*
D03*
X35750Y376600D02*
D03*
X29400Y363900D02*
D03*
X35750Y351200D02*
D03*
X29400Y338500D02*
D03*
X23050Y478200D02*
D03*
X16700Y465500D02*
D03*
X23050Y452800D02*
D03*
X16700Y440100D02*
D03*
X23050Y427400D02*
D03*
X16700Y414700D02*
D03*
X23050Y402000D02*
D03*
X16700Y389300D02*
D03*
X23050Y376600D02*
D03*
X16700Y363900D02*
D03*
X23050Y351200D02*
D03*
X16700Y338500D02*
D03*
X773938Y580136D02*
D03*
X791972Y591058D02*
D03*
X553974Y580390D02*
D03*
X576580Y580136D02*
D03*
X601726D02*
D03*
X627634D02*
D03*
X655828D02*
D03*
X678180Y580390D02*
D03*
X701802Y580136D02*
D03*
X726440Y580390D02*
D03*
X80200Y770300D02*
D03*
X86550Y757600D02*
D03*
X80200Y744900D02*
D03*
X86550Y732200D02*
D03*
X80200Y719500D02*
D03*
X67500Y770300D02*
D03*
X73850Y732200D02*
D03*
X67500Y719500D02*
D03*
X54800Y770300D02*
D03*
Y719500D02*
D03*
X42100Y770300D02*
D03*
Y719500D02*
D03*
X29400Y770300D02*
D03*
X35750Y757600D02*
D03*
X29400Y744900D02*
D03*
X35750Y732200D02*
D03*
X29400Y719500D02*
D03*
X16700Y770300D02*
D03*
X23050Y757600D02*
D03*
X16700Y744900D02*
D03*
X23050Y732200D02*
D03*
X16700Y719500D02*
D03*
X258318Y733806D02*
D03*
X298831Y769239D02*
D03*
X258953Y765937D02*
D03*
X223774Y766064D02*
D03*
X227076Y732028D02*
D03*
X189738Y714502D02*
D03*
X156464Y670814D02*
D03*
X140716Y706120D02*
D03*
X120904Y706628D02*
D03*
X685800Y230378D02*
D03*
X686054Y250190D02*
D03*
X685292Y270764D02*
D03*
X520700Y330073D02*
D03*
X542798Y316738D02*
D03*
X502793Y329819D02*
D03*
X506984Y294386D02*
D03*
X488188Y674624D02*
D03*
X488442Y697484D02*
D03*
X488950Y716534D02*
D03*
X490728Y741172D02*
D03*
X491236Y760476D02*
D03*
X460502Y812038D02*
D03*
X759714Y829818D02*
D03*
X733552Y807720D02*
D03*
X704596Y807212D02*
D03*
X677418Y807720D02*
D03*
X649478D02*
D03*
X625856D02*
D03*
X601472D02*
D03*
X575818D02*
D03*
X240538Y838454D02*
D03*
X200660Y839978D02*
D03*
X173736Y840232D02*
D03*
X152908Y840486D02*
D03*
X173990Y679450D02*
D03*
X1261618Y8128D02*
D03*
X1274318Y103378D02*
D03*
X1311402Y140716D02*
D03*
X1257046Y88138D02*
D03*
X1289812Y118618D02*
D03*
X1316990Y84836D02*
D03*
Y124714D02*
D03*
X1316736Y157734D02*
D03*
X1322832Y616458D02*
D03*
X1299718Y616712D02*
D03*
X1279906Y616966D02*
D03*
X1257046Y617474D02*
D03*
X1187450Y612140D02*
D03*
X1159764D02*
D03*
X1139698Y612394D02*
D03*
X1113028D02*
D03*
X1091438D02*
D03*
X941070Y133604D02*
D03*
X974344Y165735D02*
D03*
X920877Y179451D02*
D03*
X812546Y100838D02*
D03*
X776224Y99441D02*
D03*
X677164Y406019D02*
D03*
X630301Y451612D02*
D03*
X657733Y512699D02*
D03*
X1093597Y160782D02*
D03*
D122*
X191206Y296717D02*
D03*
D123*
X33206D02*
D03*
M02*
