M48
;Layer_Color=9474304
;FILE_FORMAT=4:4
METRIC,LZ
;TYPE=PLATED
T1F00S00C0.3000
T2F00S00C0.4000
T3F00S00C0.5000
T4F00S00C1.0000
T5F00S00C1.0160
T6F00S00C1.2000
T7F00S00C1.3000
;TYPE=NON_PLATED
T8F00S00C1.0000
T9F00S00C1.3000
%
T01
X00019812Y00020066
X00032512
X00045212
X00038862Y00032766
X00026162
X0012446Y00028829
X0013716
X0013081Y00016129
X0011811
X0014351
X00191897Y00017145
X00204597
X00217297
X00210947Y00029845
X00198247
X003342Y000337
X003469
X003596
X003723
X00385
X003977
X004104
X004231
X004358
X004485
X004612
X004739
X004866
X00519366Y00035605
X00900366Y00033573
Y00025064
X00900493Y00016555
X01220025Y00016301
Y0002481
Y00033319
X01349883Y00285496
X0136144Y00275336
X01361821Y00403098
X01348232Y00395351
X01335151Y00395224
X01322197
X01309751
X01298702Y00383667
X01298321Y00370713
X01298702Y00355981
Y00343154
X0130175Y00326009
X0130556Y0029591
X01305814Y0028448
X01288034Y00284226
X01288542Y00296164
X01323594Y00295402
X01323848Y00284226
X01336802Y00284734
X01225613Y00267507
X01219263Y00255061
X0121304Y00241853
X01206817Y00229661
X01200086Y0021658
X01193609Y0020388
X01187417Y00191815
X01158578Y00178394
X01147Y001861
X011343
X0114065Y001988
X01147Y002115
X011343
X0114065Y002242
X0112795
X0111525
X0110255
X011089Y002369
X011216
X011343
X01147
X0114065Y002496
X0112795
X0111525
X0110255
X011089Y002623
X011216
X011343
X01147
X0115335Y00275
X0114065
X0112795
X0111525
X0110255
X011089Y002877
X011216
X011343
X01147
X011597
X0115335Y003004
X0114065
X01147Y003131
X011597
X011724
X0118237Y00312039
X0117875Y003258
X01189609Y00326263
Y00341249
X01189736Y00354711
X0117875Y003512
X01180575Y00361344
X0116605Y003512
X0115335
X01154575Y00361344
X0114065Y003512
X01147Y003385
X011597
X011724
X0116605Y003258
X0115335
X0114065
X01129575Y00361344
X01103575
X01078575Y00361344
X01052172Y00361331
X0102763Y00361074
X01001575Y00361344
X00976575
X00951575Y00361094
X00943578Y00267294
X00943378Y00254594
X00943178Y00241894
X00943778Y00229194
X00943778Y00216494
X00944178Y00203794
X00968878Y00191094
X00968678Y00178394
X01002665Y00183642
X00994128Y00135364
X01012066Y00135361
X00976128
X00946023Y00118364
X0094615Y00107696
X00980186Y00084328
X01048065Y00135364
X01084128Y00135361
X01102128Y00135364
X01120128Y00135361
X01156128Y00135364
X01172478Y00115894
X01171849Y00106916
X01172074Y00097919
X01171384Y00088945
X01170813Y00073152
X01161161Y00072644
X01149731
X01220025Y00041574
X01252283Y00193974
X01261282Y00193847
X01270262Y00193248
X01279396Y00192882
X01104265Y00195961
X01105789Y00182626
X01104138Y0016383
X01088092Y00178389
X01087878Y00191094
X01088078Y00203794
X01087478Y00216494
X01087478Y00229194
X01088078Y00241894
X01087878Y00254594
X01088678Y00267294
X010962Y002877
X01078738Y00295148
X01173099Y00302641
X01189228Y00432181
X01287526Y00414528
X00916432Y00430149
X00854265Y00431495
X00847764Y00425344
X0084148Y00418764
X00834211Y00412021
X00761746Y00430911
X00752475Y00430784
X00720471Y00431292
X00720725Y00404876
X00700913Y00404114
X00690562Y00426638
X00657606Y00420116
X00658114Y00404114
X00632968Y00417322
X006223Y00417449
X00626237Y00430149
X00589534Y0032512
X00553529Y00322371
X0055391Y00331769
X00556514Y00284226
X00545719Y00283591
X00554609Y00262509
X00555625Y00250698
X00556768Y00237236
X00557403Y00222631
X00548576Y00213024
X00583374Y00207436
X00591375Y00218231
X00603567Y00197784
X00574548Y00136906
X00559308Y00136652
X00560832Y00111252
X0058039Y00066802
X00580644Y0005588
X00597408Y00055626
X00593598Y0006731
X00606044Y00067564
X0061976Y00067056
X0061595Y00055372
X00615315Y00092964
X00632206Y00091948
X00664908Y00068752
X00677354Y00068244
X006903Y00068871
X00703
X007157Y00069395
X007284Y00069252
X00715581Y00119806
X00702754Y00119679
X00690308Y00120187
X006771Y00119171
X00728789Y00146095
X00741362Y00152445
X00753935Y0019499
X00762053Y00195117
X00770191
X00778573Y00195371
X0081661Y00234823
X00816483Y0024892
X00816356Y00262636
X00816102Y00274701
X00815975Y00285877
X00791908Y00298749
X00791273Y00311195
X0079175Y0032375
X0079155Y0033645
X00754189Y00344469
X00760932Y00352204
X00722Y00279
X00721438Y00259366
X00721634Y00246366
X00724459Y00232969
X0070194Y00226877
X00701962Y00239866
Y00252866
X00696849Y00266065
X00860425Y00213614
X00879475Y00211582
X00879348Y00220345
X00893064Y00220853
X00911225Y00170434
X00926592Y00137414
X00926211Y00126746
X00926338Y00115951
X00926084Y0010287
X00875728Y00072181
X00875601Y00064182
X00875855Y00056186
X00876015Y00048188
X00875976Y00040188
X00900493Y00041828
X00849512Y00129751
X00842835Y00134157
X0083681Y0013942
X00830126Y00143815
X0088765Y0029835
X0088695Y0031105
X0088775Y0032375
X0088755Y0033645
X00551624Y00049067
X0053232Y00049448
X0052597Y00044495
X00512925Y00041483
X00506425Y00046413
X00499925Y00051198
X0049149Y00042799
X0048025Y000464
X0046755
X0045485
X0044215
X0042945
X0041675
X0040405
X0039135
X0037865
X0036595
X0035325
X0034055
X0032785
X0031515
X003215Y000591
X003342
X003469
X003596
X003723
X0037865Y000718
X0036595
X0035325
X0034055
X0032785
X0031515
X003088Y000591
X00300609Y00093472
X00317881Y00093599
X00336804
X0035687
X00381254Y00094234
X00398018Y00093853
X00407924Y00082042
X00420243Y00073914
X004231Y000591
X004358
X004485
X004612
X004739
X00463931Y00072898
X00484251Y0007366
X00508Y00075184
X00523875Y00075946
X00538353Y00073406
X00541909Y00085217
X0052324Y00102616
X00506984Y00103124
X00492506Y0010287
X00483235Y00128651
Y00139446
X00441896Y00140126
X0044215Y0013198
X00442157Y0012398
X00442658Y00115996
X00443166Y00107868
X00441579Y00073914
X004104Y000591
X0042418Y00147828
X00424434Y00156718
X00440436Y00157734
X00439166Y00149352
X00434975Y00175514
X00425196Y00175387
X00429641Y00216916
X00431673Y00248412
X00430847Y00263062
X00401955Y00256921
X003937Y00248031
X00382397
X00372618Y00247904
Y00292481
X00381254Y00292227
X00393954Y00288417
X00401701Y00281559
X00400939Y00315595
X00416052Y00335915
X00452945Y00329483
X00481649Y00327703
X00490276
X00496697Y00318897
X00510286Y00319278
X00525907Y0031623
X00538607Y00332232
X00534543Y00283718
X00525462Y00277413
X00515556
X00493395Y00293751
X00481584Y00298958
X00468757Y00301117
X00464121Y00289797
X00454758
X00446341Y00304337
X00437578Y00304083
X00469646Y00280162
X00470027Y0026543
X00470662Y00251206
X00471043Y00236093
X00471297Y0022225
X00474027Y00204388
X0048641Y00204597
X00498729Y00204851
X00512064Y00205359
X00525526
X00538Y00202356
X00460629Y00212217
X00450215Y00202438
X00395041Y00148762
X00379222Y00148082
X00368046
X0035687Y00147828
X00347218Y00148082
X00337312
X00329247Y00154985
X00308229Y00153289
X00295973Y0015562
X0028448Y0014859
X00273494Y0015562
X00262763Y00150114
X00263525Y00136525
X00251777Y00155493
X00249174Y00110109
X00234442Y00110236
X00216154Y0011049
X00168923Y00102759
X00152273Y00166751
X00151257Y00224917
X00150876Y00241808
X00165862Y00245872
X0018161Y00246507
X00220472Y00247142
X00217932Y00276606
X00233172Y00276987
X00249301Y00276606
X00259461Y00258445
X00291592Y00254127
X00292227Y0024257
X00291719Y00270002
X00299847Y00296799
X00301498Y00307848
X0028575Y00312166
X00283972Y0029845
X00271907Y00299212
X00270383Y00312928
X00327152Y0029464
X00326898Y0028448
Y00273304
Y0025908
Y0024638
X0031769Y0011625
X00297942Y00116205
X00200152Y00275463
X00242189Y00397891
X00241808Y00409194
X00243205Y00422783
X00254635Y00399288
X00254254Y00387477
X00272288Y00386969
X00285496Y00386715
X00322072Y00386588
X00335534Y00386334
X00336423Y00395986
X0033655Y00408559
X00351599Y00386633
X0036195Y00380619
X00401955Y00418973
X00468757Y00432435
X00486918Y00424307
X00480314Y00386969
X00470535Y00389255
X0047498Y00363728
X00443776Y00365508
X00447611Y00373171
X00123888Y00397555
Y0041724
X00131572Y00258953
X00127381Y00245999
X00126619Y00232156
X00127Y00217551
Y00205613
X00122555Y00197993
X00092646Y0017086
X00092773Y00158287
X00077597Y0015748
X00077724Y00168783
X00103759Y00146431
X00142621Y00149352
X00114046Y00073406
X00101346
X00094996Y00060706
X00107696
X00120396
X00054356Y00061087
X00041656
X00028956
X00035306Y00073787
X00048006
X00027305Y00622808
Y00635508
Y00648208
X00014605Y00641858
Y00629158
X00161163Y00568325
X00176276Y00568579
X00175704Y00555035
X00157988Y00544957
X00191389Y00568833
X00248602Y0056329
X00266065Y00570738
X0026162Y00613664
X00239522Y00593217
X00314071Y00588645
X00313817Y00598043
X00327152Y0059817
X00328041Y00588391
X00328422Y00576961
X00356997Y00567944
X00378587
X00378079Y00578612
X00392684Y00567436
X00406908
X004191Y0056769
X00429641Y00568071
X00429514Y0057912
Y0059182
X0042926Y00606171
X00414909Y00606044
X00401828Y00606171
X00386461Y00611886
X00371856
X00357886Y00605409
X00351409Y00615061
X00351028Y00625983
X00340614Y00626364
X00363601Y00625856
X00351409Y00667258
X00338709
X00345059Y00679958
X00357759
X00373888
X00386588
X00399288
X00392938Y00692658
X00380238
X00337058Y0070612
Y0071882
Y0073152
X00324358Y0072517
Y0071247
X00332359Y00679958
X00300101Y00692912
X00272161Y00690753
X00297497Y00658032
X0029845Y00642239
X00298577Y0062865
X00310324Y00745662
X00319786Y00765937
Y00778637
X00322199Y00791083
X00322834Y00801116
X00321564Y00813943
Y00826643
X00334264Y00820293
Y00807593
X00332486Y00784987
Y00772287
Y00759587
X00308737Y00786892
X00256921Y00788162
X002413Y00788289
X00240411Y00802386
X00234315Y00797052
X00239268Y0081407
X00239776Y00827532
X00202438Y0080899
X00189738
X00183388Y0079629
X00175768Y00800862
X00196088Y0079629
X00208788
X00175768Y00768985
X00163068
X00156718Y00756285
X00169418
X00182118
X00204343Y00693039
X00208788Y00685292
X0022098Y00703199
X00264033Y00776986
X00454406Y00767207
X00454279Y00756666
X00423164Y00729869
X00418084Y00720217
X00430911Y00718185
X00533908Y00712597
X00539877Y0072263
X00522224Y00781177
X00517144Y00547751
X00515747Y00537845
X00513842Y00525272
X0049911Y0052451
X00486918Y00524764
X00488315Y00544449
X00473837Y00544322
X00458851Y00544576
X00443357Y00544322
X00440436Y00529844
X00427101Y00529717
X00415544Y00529209
X00415671Y00517525
X00401828
X00401701Y00528955
X00397637Y00544322
X00411226Y00544068
X00425196Y00544449
X00369443Y0053975
X00357124Y0053594
X00356108Y00514477
Y00498856
X00351155Y00450977
X0034544Y00442849
X00318135Y00469265
X00303149Y00492887
X00291465
X0028067
X00243713Y00437769
X00401955Y00442087
X00402082Y00464185
X00422021Y00480822
X00413385Y00491617
X00450723Y0048641
X00458978Y00495935
X00475742
X00489204Y00495808
X00504571Y00495935
X00520319Y00496189
X00530352Y00501904
X00535813Y00513588
X00504444Y00544449
X00478409Y00468503
X00469392Y0046101
X00469646Y00448437
X00550926Y00454406
X005461Y00471297
X00550164Y00477012
X00564261Y00527685
X00565785Y00539369
X00575945Y00544449
X00589915Y00544322
X00590677Y0051943
X00578993Y00519557
X00634746Y00518668
X00634492Y005334
X00623633Y00541192
X00653415Y00549275
X00666115Y00549148
X00678434Y00548894
X00689864Y00549148
X00704469Y00549529
X00718947Y00549402
X00742061Y00550291
X00758063Y00555117
X00758825Y00620268
X00758571Y00632714
X00758444Y00644017
X00758825Y00655701
X0075076Y006623
X00743013Y00675
X00744855Y0068834
X00709549Y00674116
X00708914Y00663575
X0070993Y0065405
X00711327Y00625729
X0071628Y00609346
X0073533Y00606171
Y00615823
X00735203Y00625221
X00693674Y00609092
X00663956Y00609219
X00631952Y0060833
X00605155Y00609092
X00580009Y00608584
X00551561Y00609092
X00577088Y00665607
X00595884Y00665861
X00619061Y00655873
X00629666Y00664845
X00652399Y0066548
X00681736Y00665099
X00699389Y00679069
X00699897Y00707009
X00700151Y00724027
Y00739775
X00713168Y00750996
X00712914Y00764458
X00695198Y00778256
X00682498
X00669798
X00676148Y00790956
X00688848
X00751459Y00783717
X00764159
X00776859
X00770509Y00796417
X00757809
X00758698Y00758698
X00771398
X00765048Y00745998
X00752348
X00777748
X00801878Y0080391
X00802259Y00615442
X00786892Y00615569
X00847344Y00615442
X00859663Y00615315
X0085852Y00597154
X00844169
X00833691Y00600501
X00844042Y00642493
X00857123Y00641985
X00894969Y00646684
X00890069Y00605962
X00884428Y00597535
X00887857Y0052705
X0088773Y00514477
X00887603Y00500761
X0088773Y0048641
X00899287Y00486537
X00910844Y00486283
X00921893Y00486791
X00921512Y00503047
X0092202Y00517271
X00917067Y00527558
X00901573Y00527304
X00929767Y00537591
X00857885Y00528066
Y00518033
Y00507746
X00857758Y00496824
X00857504Y00485648
X008446Y004776
X008439Y004649
X008442Y004522
X00845121Y00439465
X00807593Y00477139
X00808101Y00486283
X00808609Y00496697
X00808863Y00507492
X00816991Y00516128
X0074895Y0046495
X007488Y004522
X007485Y004395
X00689356Y00445897
X00688975Y00459486
X00692086Y00477565
X0069234Y00490265
X0069205Y0050305
X0069225Y0051575
X0069245Y0052845
X00674814Y00522142
X00672719Y00533019
X0065786Y00532892
X00657606Y00493903
X00657479Y00475742
X00657225Y00457581
X00657098Y00438531
X00635127Y00438277
X00634619Y00464185
X00634365Y00483108
Y00502666
X00674814Y00484042
X00677672Y00701675
X00632206Y00769112
X00619506
X00606806
X00613156Y00781812
X00625856
X00579882
Y00770255
X00579628Y00793496
X00966533Y00752139
X00965568Y00739404
X00964988Y00726704
X00964968Y00714004
X00964588Y00701304
X00964888Y00688604
X00965068Y00675904
X00964768Y00663204
X00964788Y00650504
X00972312Y00657098
X0097282Y00669798
X00972312Y00682498
X00972058Y00642112
X01034788Y00650504
X01034768Y00663204
X01035068Y00675904
X01035368Y00688604
X01035203Y00701304
X01035288Y00714004
X01035128Y00726844
X01034688Y00739404
X01033018Y00750062
X01020572Y00750316
X0100838
X00994156Y00741934
X00978154Y00748538
X01024848Y00773492
X01078848
X01093914Y00746932
X01093216Y0073533
X01121156Y00738632
X01134364Y00738378
X01148588Y00738632
X01148715Y00721868
X01148842Y00705358
X01149223Y00689356
X0114935Y00672084
X01147826Y00652526
X01157287Y00637712
X0118872Y00637921
X01183788Y00650504
X01183768Y00663204
X01184068Y00675904
X01183888Y00688604
X01183668Y00701304
X01183968Y00714004
X01183988Y00726704
X01183688Y00739404
X01186848Y00773492
X01132848Y00773425
X01121791Y00722249
X01121537Y00709041
X01121156Y00694182
X01108456Y00692912
X01094867Y00692404
Y00681609
X0109474Y00670052
X01094105Y00656717
X01093597Y00644271
X01093343Y00629539
X0106172Y0062992
X01047686Y00629203
X01044194Y0061468
X01034034Y00611632
Y00624078
X0106299Y0061087
X01052575Y00545019
X01027575
X01002575
X00976575
X00951575Y00544769
X01078575Y00545019
X01103575
X01129575
X01154575
X01180575
X01176528Y00441325
X01253172Y00441497
X01261681Y00454451
X01269428Y00467278
X01279461Y00479978
X01336484Y00480105
X0133623Y00467786
X01336738Y00454832
X0133623Y00492932
X01293812Y00585769
X01281112Y00585642
X0126873Y00586486
X01256093Y00585642
X01236472Y00634238
X01239266Y0065659
X01238885Y00675132
Y00690499
X01238758Y00708406
X01238504Y00724154
X01239774Y00737362
X01226456Y00737433
X01250696Y00732282
X01257935Y00721741
X0125857Y0070739
X01258189Y0069215
X01257681Y00671957
X01268285Y0066235
X01281239
X01294193
X01306639
X01308544Y00629553
X01326197Y00635934
X00798576Y00839216
X00785876
X00773176
X00779526Y00851916
X00792226
X00470281Y00854456
X00457581
X00444881
X00451231Y00867156
X00463931
X00397637Y00863981
X00384937
X00378587Y00851281
X00391287
X00403987
X00354457Y00848233
X00341757
X00329057
X00320167Y00845058
X00320294Y00836041
X00334264Y00832993
X00335407Y00860933
X00348107
X00320548Y00858012
X00319278Y00868553
X00304419Y00869061
X0029083Y00880237
X00229997Y00880618
T02
X002707Y000083
X002834
X002961
X003088
X003215
X003342
X003469
X003596
X003723
X00385
X003977
X004104
X004231
X004358
X004485
X004612
X004739
X004866
X004993
X00512
X005247
X005374
X0030245Y00021
X0028975
X0027705
X002834Y000337
X005501Y000083
X005628
X005755
X005882
X006009
X006136
X006263
X00639
X006517
X006644
X006771
X006898
X007025
X007152
X007279
X007406
X007533
X00766
X007787
X007914
X008041
X008168
X008295
X008422
X008549
X008676
X008803
X009184
X009311
X009438
X009565
X009692
X009819
X009946
X010073
X0102
X010327
X010454
X010581
X010708
X010835
X010962
X011089
X011216
X011343
X01147
X011597
X011724
X011851
X011978
X01261618Y00008128
X013375Y003004
X013502
X0135655Y003131
X0134385
X013502Y003258
X013375
X0134385Y003385
X0135655
X013502Y003512
X013375
X0134385Y003639
X0135655
X013502Y003766
X013375
X013248
X013121
X0131845Y003639
X0133115
X013248Y003512
X013121
X0131845Y003385
X0133115
X013248Y003258
X013121
X01316736Y00157734
X01311402Y00140716
X0131699Y00124714
X01289812Y00118618
X01274318Y00103378
X01257046Y00088138
X0131699Y00084836
X01093597Y00160782
X00974344Y00165735
X0094107Y00133604
X00940943Y00314452
X00965327Y00319024
X00963422Y00336169
X00962279Y00352552
X00988949Y00351155
X00990981Y00334899
X00991743Y00315722
X01010539Y00325247
X0101473Y00341884
X01014476Y00356997
X01039241Y00351536
X01040003Y00337947
X01038733Y00324104
X01061085Y00321183
X01064387Y00337058
X01064006Y00352933
X01092073Y00355346
X01092708Y00334264
X01116838Y00334899
X0111633Y00354076
X01111758Y00312674
X01086358Y00315849
X00939292Y00337566
X00928497Y00335026
X00928116Y00351917
X00937641Y00362585
X00927735Y00373761
X00891032Y00385191
X00891286Y00402336
X00859663Y00401955
X00859917Y0038481
X00846836Y00385064
X00829564Y00385191
X00852424Y00357632
X00893191Y00351663
X00898652Y00304927
Y00280543
X00920877Y00179451
X00808736Y00170053
X00781812Y00172593
X00781431Y00153289
X00780034Y00128016
X00776224Y00099441
X00812546Y00100838
X00810514Y00055245
X00794258Y00057658
X00797433Y00045339
X00772287Y00043688
X00779907Y00054737
X00740283Y0005588
X00738124Y00043815
X00721995Y00044196
Y00056769
X00705358
X00704469Y00043688
X00688086Y00043307
X00689864Y0005715
X00643001Y00081407
X00637667Y00120777
X00637413Y00146304
Y00168656
X00659511Y00169545
X00683641
X006858Y00188341
X00710946Y00188214
X00706247Y00169291
X00729869Y00169545
X00747522Y00169672
X00737997Y00188976
X00789305Y00191389
X006858Y00230378
X00686054Y0025019
X00685292Y00270764
X00685038Y00320675
X006858Y00338074
X00677418Y00349504
X00695071Y0034925
X00714629Y00349504
X00705485Y00337566
X00709676Y00305562
X00731139Y00310642
X00728345Y00290449
X00657098Y00308864
X00657352Y00323088
X00646557Y00333629
X00632079Y00333248
X006223Y00324104
X00640207Y00296418
X00618998Y00280924
X00588137Y00283337
X00600964Y00349758
X00600075Y00387985
X0058166Y00395605
X00581025Y00413766
X00592328Y00426847
X00551053Y00364744
X00677164Y00406019
X00750316Y00394081
X00763778Y00393954
X00757682Y0038354
X0060071Y00184531
X00585343Y00185166
X00589153Y00154432
X00600456Y00153797
X00600837Y00138303
X00589534Y00138176
X00590296Y00117475
X00601345Y00120904
X00830199Y00056642
X00826135Y0004445
X00850138Y00042545
X00846201Y00064135
X00424434Y00184404
X00384556Y00184277
X00362712Y00184658
X00342519Y00184404
X00321183Y00184023
X00293497Y00183896
X00308356Y00143891
X00285369Y00135509
X00206629Y00139827
X00175768Y00147193
X00176657Y0015875
Y00169926
X00171323Y00183515
X00151638Y00183388
X00151765Y0020955
X00169799Y00209677
X00157861Y00140589
X00209677Y00089789
X0023368Y00089662
X00237998Y00182626
X00320294Y00220599
X00335788Y00234696
X00351282
X00364998
X0036068Y00211836
X00343662
X0037846
X00399161Y00237744
X00364998Y00305308
X00351282
X00335788
X00343154Y00338582
X00364871Y0033909
X00320929Y00336042
X00321691Y00369824
X00343154Y00369697
X00280035Y00370078
X0026416Y00369824
X00243205Y00370586
X00219583Y00370459
X00219329Y00387223
X00218567Y00402717
Y00420878
X00183007Y00409702
X00188087Y00387604
X0018796Y00373507
X001651Y00383921
X00166243Y00357251
X00183261Y00344424
X00220599Y00337185
X00265938Y00338328
X00282448Y00337947
X00411861Y00385826
X00421259Y00396748
X00502793Y00329819
X005207Y00330073
X00542798Y00316738
X00506984Y00294386
X00145288Y00385064
X00143129Y00429895
X001056Y004147
X000929
X000802
X000675
X000548
X000421
X000294
X000167
X0002305Y004274
X0003575
X0004845
X0006115
X0007385
X0008655
Y00402
X0009925
X0011195
X000929Y003893
X000802
X000675
X000548
X000421
X000294
X000167
X0002305Y00402
X0003575
X0004845
X0006115
X0007385
Y003766
X0008655
X000929Y003639
X001056
X000802
X000675
X000548
X000421
X000294
X000167
X0002305Y003766
X0003575
X0004845
X0006115
Y003512
X0007385
X0008655
X000802Y003385
X000675
X000548
X000421
X000294
X000167
X0002305Y003512
X0003575
X0004845
X00009525Y0026162
X00009906Y00243586
X00010795Y00220345
X00011557Y00195453
X00012446Y00166878
Y00133985
X00013208Y0010795
X00035433Y00096774
X0006731Y00096012
X001016Y00094996
X00126492Y00092964
X00131699Y00139065
X00091694Y00139192
X00062103Y00139065
X00049911Y00151384
X00048768Y00166751
X000548Y004401
X000675
X000802
X000929
X0009925Y004528
X0008655
X0007385
X0006115
X0004845
X0003575
X0002305
X000294Y004655
X000421
X000548
X000675
X000802
X0007385Y004782
X0006115
X0004845
X0003575
X0002305
X000167Y004655
Y004401
X000294
X000421
X00120269Y0059182
X00119888Y00610616
X00119634Y00631698
X00118237Y00650367
X00120396Y0067056
X00120904Y00706628
X00140716Y0070612
X00071501Y00708279
X000675Y007195
X000802
X0008655Y007322
X0007385
X000802Y007449
X0008655Y007576
X000802Y007703
X000675
X000548
X000421
X000294
X000167
X0002305Y007576
X0003575
X000294Y007449
X000167
X0002305Y007322
X0003575
X000421Y007195
X000548
X00048387Y00709422
X00028575Y00703199
X000294Y007195
X000167
X00026543Y00685927
X00034798Y00671195
X00048387Y00666242
X00065659Y00665099
X00084201Y00663956
X00156464Y00670814
X0017399Y0067945
X00179324Y00707644
X00189738Y00714502
X00159258Y00737108
X00227076Y00732028
X00258318Y00733806
X00258953Y00765937
X00241046Y00765429
X00223774Y00766064
X00298831Y00769239
X00299339Y00779907
X00299466Y00757809
X00272161Y00630047
X00237363Y00628142
X00205486Y00630174
X00211455Y00533908
X0019177Y00534416
X0017272Y00535051
X00150114Y00503174
X00159385Y00469646
X00158623Y00458343
X00193421Y00464693
X00204978Y00453136
X00205105Y00436245
X00230251Y00449834
X00244348
X00227584Y00466598
X00226949Y00483235
X00249555Y00534289
X0028448Y00533908
X00285115Y00522224
X00284988Y00510794
X00299339Y00512445
X00299847Y00522986
X00299339Y00533908
X00274066Y00560705
X00261366
X00334137Y00475869
X00344805Y00460121
X00488188Y00674624
X00488442Y00697484
X0048895Y00716534
X00490728Y00741172
X00491236Y00760476
X00460502Y00812038
X00522986Y00812292
X00543052Y00810895
X00575818Y0080772
X00601472
X00625856
X00649478
X00677418
X00704596Y00807212
X00733552Y0080772
X0075057Y00810895
X00759714Y00829818
X00832739Y00817118
X00867283Y00819404
X00911352Y00823849
X00912368Y00799846
X0091313Y00782574
X00913638Y00762
X00902716Y00749173
X00883793Y00745617
X00883158Y00764286
X00890524Y00731266
X00863854Y00731012
X00839597Y0073152
X00819658Y00732536
X00795274Y0073279
X00791845Y00698246
X00791464Y00684657
X00807085Y00684784
X00821563Y00684149
X0082169Y00704342
X00807339Y00704215
X00809244Y00655955
X00790702Y00656082
X00790448Y00639064
X00791972Y00591058
X00773938Y00580136
X0072644Y0058039
X00701802Y00580136
X0067818Y0058039
X00655828Y00580136
X00627634
X00601726
X0057658
X00553974Y0058039
X00586486Y00686562
X00605028
X00627507Y00686181
X00648335Y00686562
X00671449Y00689737
X00758825Y00696722
X00758952Y00675513
X00770382Y00717804
X00825119Y00761619
X00826389Y00773176
X00852043Y00780669
X00884555Y00703834
X00884936Y00688594
X00894842Y00656971
X00867537
X00853313Y0065659
X00838327Y00656717
X009398Y00548005
X00935355Y00468884
X00940054Y00442976
X00630301Y00451612
X00657733Y00512699
X00964057Y00508
X00989203Y00507492
X01015746Y00508
X01039495Y00508127
X01065657Y00508
X01090422Y00507492
X0111633
X01141603Y00508
X0116713Y00507873
X0116586Y00469773
X01189355Y00468757
X01139952Y00469392
X01115695
X01091692
X01064514Y00470027
X01040384Y00470535
X01015238Y00469265
X00989584Y00469773
X00964819Y00471297
X00962279Y00442849
X00983234Y00442595
X01002284Y00442468
X01026541Y00442341
X01054989Y0044196
X01085342Y00441579
X01110742Y00442595
X01136777Y0044196
X01158621Y00442468
X0116713Y00550672
X01142873Y00550545
X01142746Y00565404
X01150747Y00584835
X01169289
X01187323Y00584581
X01187831Y00568833
X01188339Y0055499
X0118745Y0061214
X01159764
X01139698Y00612394
X01113028
X01091438
X01086739Y00569722
X01090295Y00555244
X01065784Y00551815
X01060577Y00566293
X01036066Y00562356
X01040003Y00550037
X01014349Y00548767
X01011682Y0056261
X00993013Y00576072
X00988949Y00551434
X00963549Y00555752
X00967105Y00570992
X01111377Y00574167
X01116457Y00552958
X01130046Y00584835
X01259459Y0056261
X01276604Y00562864
X01293495Y00562737
X01309243
X01323975Y00574929
X01332738Y0058293
X01322832Y00616458
X01299718Y00616712
X01279906Y00616966
X01257046Y00617474
X01255649Y00535305
X01255395Y00519938
X01255522Y00498602
X01255395Y00470535
X01272794Y00535305
X01293368Y00534797
X01305814Y00534924
X01306322Y00519049
X013248Y007068
X0133115Y007195
X0131845
X013248Y007322
X0133115Y007449
X0131845
X0133115Y007703
Y007957
Y008211
X013121Y008084
X0130575Y007957
X013121Y00783
X0130575Y007703
X012867Y00783
X0128035Y007957
X012867Y008084
X0128035Y008211
X0125495
X012613Y008084
X012359
X0122955Y008211
X0120415
X012105Y008084
X00973582Y00778764
X00957961
X00943991Y00779018
X0094361Y00794131
X00943991Y00810514
X00959485Y00824103
X0134385Y006941
X013502Y006814
X012613Y008338
X012359
X012486Y008592
X0125495Y008719
X0126765
X0124225
X0122955
X0121685
X0120415
X0119145
X0117875
X0116605
X0115335
X0114065
X0112795
X0111525
X0110255
X0108985
X0107715
X0106445
X0105175
X0103905
X0102635
X0101365
X0100095
X0098825
X0097555
X0096285
X00973074Y00836168
X0099568Y00837565
X01035304Y00837819
X0104902Y008382
X01093343
X01105154Y00837819
X01144778Y00838708
X01159764
X0120415Y008465
X011978Y008592
X012232
X0093091Y00839978
X00915416Y00837819
X0089154Y00831342
X00866648Y00832485
X00830072Y00831596
X00821436Y00848487
X00820674Y00868553
X00827405Y00882015
X00852932Y00881507
X00882904Y00869315
X00882523Y00855853
X00899414Y00856742
X00900684Y00871601
X00791464Y0087757
X00767207Y00876173
X0076Y0086
X00761365Y00846328
X0052197Y00837692
X00519938Y00864489
X00504571Y00879094
X00456184Y00881761
X00423545Y0088138
X00385445Y00881126
X00346837Y00881253
X00313182
X00277749Y00881126
X00242062Y00880999
X00214376Y0088138
X00179832Y00880237
X00154178Y0088011
X00152908Y00840486
X00173736Y00840232
X0020066Y00839978
X00240538Y00838454
T03
X00050228Y00236265
T04
X00303466Y00325582
Y00375584
X00350999Y0073
X00401001
X00399001Y00807
X00348999
T05
X00951328Y00413844
X00976728
X01002128
X01027528
X01052928
X01078328
X01103728
X01129128
X01154528
X01179928
X00665924Y00369742
X00640524
X00615124
X00589724
X0017926Y00426638
X00130144Y0072284
X00142644Y0077284
X00200207Y00768268
Y00731168
X00196405Y00824614
X0017926Y00477438
Y00452038
X00515683Y00598469
Y00623869
Y00649269
Y00674669
Y00700069
Y00725469
Y00750869
X0089046Y00786556
Y00811956
X00951328Y00488844
X00976728
X01002128
X01027528
X01052928
X01078328
X01103728
X01129128
X01154528
X01179928
X00942403Y00862883
X00917003
X00865019Y0086301
X00839619
X00196405Y00861714
T06
X00056578Y0053535
Y0058615
Y0063695
Y0068775
Y00748712
Y00799512
T07
X00081329Y00043063
Y00118063
T08
X00150506Y00296717
T09
X00075506Y00296717
X00106235Y00382861
Y00432861
M30
